%TF.GenerationSoftware,KiCad,Pcbnew,(6.0.1)*%
%TF.CreationDate,2022-12-13T16:24:09+02:00*%
%TF.ProjectId,BufferedMult3hp,42756666-6572-4656-944d-756c74336870,rev?*%
%TF.SameCoordinates,Original*%
%TF.FileFunction,Copper,L1,Top*%
%TF.FilePolarity,Positive*%
%FSLAX46Y46*%
G04 Gerber Fmt 4.6, Leading zero omitted, Abs format (unit mm)*
G04 Created by KiCad (PCBNEW (6.0.1)) date 2022-12-13 16:24:09*
%MOMM*%
%LPD*%
G01*
G04 APERTURE LIST*
G04 Aperture macros list*
%AMOutline4P*
0 Free polygon, 4 corners , with rotation*
0 The origin of the aperture is its center*
0 number of corners: always 4*
0 $1 to $8 corner X, Y*
0 $9 Rotation angle, in degrees counterclockwise*
0 create outline with 4 corners*
4,1,4,$1,$2,$3,$4,$5,$6,$7,$8,$1,$2,$9*%
G04 Aperture macros list end*
%TA.AperFunction,ComponentPad*%
%ADD10R,1.600000X1.600000*%
%TD*%
%TA.AperFunction,ComponentPad*%
%ADD11O,1.600000X1.600000*%
%TD*%
%TA.AperFunction,ComponentPad*%
%ADD12Outline4P,-0.750000X-1.150000X0.750000X-1.150000X0.750000X1.150000X-0.750000X1.150000X270.000000*%
%TD*%
%TA.AperFunction,ComponentPad*%
%ADD13O,2.500000X2.000000*%
%TD*%
%TA.AperFunction,ComponentPad*%
%ADD14R,1.700000X1.700000*%
%TD*%
%TA.AperFunction,ComponentPad*%
%ADD15O,1.700000X1.700000*%
%TD*%
%TA.AperFunction,ComponentPad*%
%ADD16C,1.600000*%
%TD*%
%TA.AperFunction,ViaPad*%
%ADD17C,1.300000*%
%TD*%
%TA.AperFunction,Conductor*%
%ADD18C,0.350000*%
%TD*%
G04 APERTURE END LIST*
D10*
%TO.P,U1,1*%
%TO.N,Net-(U1-Pad1)*%
X4320000Y-32872000D03*
D11*
%TO.P,U1,2,-*%
X4320000Y-35412000D03*
%TO.P,U1,3,+*%
%TO.N,Net-(U1-Pad10)*%
X4320000Y-37952000D03*
%TO.P,U1,4,V+*%
%TO.N,+12V*%
X4320000Y-40492000D03*
%TO.P,U1,5,+*%
%TO.N,Net-(U1-Pad10)*%
X4320000Y-43032000D03*
%TO.P,U1,6,-*%
%TO.N,Net-(U1-Pad6)*%
X4320000Y-45572000D03*
%TO.P,U1,7*%
X4320000Y-48112000D03*
%TO.P,U1,8*%
%TO.N,Net-(J4-PadT)*%
X11940000Y-48112000D03*
%TO.P,U1,9,-*%
X11940000Y-45572000D03*
%TO.P,U1,10,+*%
%TO.N,Net-(U1-Pad10)*%
X11940000Y-43032000D03*
%TO.P,U1,11,V-*%
%TO.N,-12V*%
X11940000Y-40492000D03*
%TO.P,U1,12,+*%
%TO.N,Net-(U1-Pad10)*%
X11940000Y-37952000D03*
%TO.P,U1,13,-*%
%TO.N,Net-(U1-Pad13)*%
X11940000Y-35412000D03*
%TO.P,U1,14*%
X11940000Y-32872000D03*
%TD*%
D12*
%TO.P,J4,S*%
%TO.N,GND*%
X8120000Y-64910000D03*
D13*
%TO.P,J4,T*%
%TO.N,Net-(J4-PadT)*%
X8120000Y-75770000D03*
%TO.P,J4,TN*%
%TO.N,GND*%
X8120000Y-67470000D03*
%TD*%
D12*
%TO.P,J3,S*%
%TO.N,GND*%
X8120000Y-78880000D03*
D13*
%TO.P,J3,T*%
%TO.N,Net-(U1-Pad1)*%
X8120000Y-89740000D03*
%TO.P,J3,TN*%
%TO.N,GND*%
X8120000Y-81440000D03*
%TD*%
D12*
%TO.P,J5,S*%
%TO.N,GND*%
X8120000Y-92850000D03*
D13*
%TO.P,J5,T*%
%TO.N,Net-(U1-Pad13)*%
X8120000Y-103710000D03*
%TO.P,J5,TN*%
%TO.N,GND*%
X8120000Y-95410000D03*
%TD*%
D12*
%TO.P,J1,S*%
%TO.N,GND*%
X8120000Y-2680000D03*
D13*
%TO.P,J1,T*%
%TO.N,Net-(U1-Pad10)*%
X8120000Y-13540000D03*
%TO.P,J1,TN*%
%TO.N,Net-(J1-PadTN)*%
X8120000Y-5240000D03*
%TD*%
D12*
%TO.P,J2,S*%
%TO.N,GND*%
X8120000Y-50940000D03*
D13*
%TO.P,J2,T*%
%TO.N,Net-(U1-Pad6)*%
X8120000Y-61800000D03*
%TO.P,J2,TN*%
%TO.N,GND*%
X8120000Y-53500000D03*
%TD*%
D14*
%TO.P,J7,1,Pin_1*%
%TO.N,+12V*%
X13940000Y-28920000D03*
D15*
%TO.P,J7,2,Pin_2*%
%TO.N,-12V*%
X13940000Y-26380000D03*
%TD*%
D14*
%TO.P,J6,1,Pin_1*%
%TO.N,+12V*%
X7988000Y-27284000D03*
D15*
%TO.P,J6,2,Pin_2*%
X10528000Y-27284000D03*
%TO.P,J6,3,Pin_3*%
%TO.N,GND*%
X7988000Y-24744000D03*
%TO.P,J6,4,Pin_4*%
X10528000Y-24744000D03*
%TO.P,J6,5,Pin_5*%
X7988000Y-22204000D03*
%TO.P,J6,6,Pin_6*%
X10528000Y-22204000D03*
%TO.P,J6,7,Pin_7*%
X7988000Y-19664000D03*
%TO.P,J6,8,Pin_8*%
X10528000Y-19664000D03*
%TO.P,J6,9,Pin_9*%
%TO.N,-12V*%
X7988000Y-17124000D03*
%TO.P,J6,10,Pin_10*%
X10528000Y-17124000D03*
%TD*%
D16*
%TO.P,C2,1*%
%TO.N,-12V*%
X9644000Y-41680000D03*
%TO.P,C2,2*%
%TO.N,GND*%
X9644000Y-46680000D03*
%TD*%
%TO.P,C1,1*%
%TO.N,+12V*%
X6850000Y-41680000D03*
%TO.P,C1,2*%
%TO.N,GND*%
X6850000Y-46680000D03*
%TD*%
%TO.P,R1,1*%
%TO.N,GND*%
X14470000Y-22590000D03*
D11*
%TO.P,R1,2*%
%TO.N,Net-(U1-Pad10)*%
X14470000Y-14970000D03*
%TD*%
D16*
%TO.P,R2,1*%
%TO.N,GND*%
X14470000Y-12430000D03*
D11*
%TO.P,R2,2*%
%TO.N,Net-(J1-PadTN)*%
X14470000Y-4810000D03*
%TD*%
D15*
%TO.P,J8,2,Pin_2*%
%TO.N,-12V*%
X2340000Y-26380000D03*
D14*
%TO.P,J8,1,Pin_1*%
%TO.N,+12V*%
X2340000Y-28920000D03*
%TD*%
D17*
%TO.N,GND*%
X2840000Y-17320000D03*
X3540000Y-23320000D03*
X3440000Y-64820000D03*
X5040000Y-29320000D03*
%TO.N,+12V*%
X6596000Y-39735000D03*
X8120000Y-30210000D03*
X4040000Y-27320000D03*
X12188997Y-30595997D03*
%TO.N,Net-(U1-Pad10)*%
X6596000Y-36560000D03*
X5580000Y-22463000D03*
%TO.N,-12V*%
X9898000Y-39735000D03*
%TD*%
D18*
%TO.N,+12V*%
X2440000Y-28920000D02*
X4040000Y-27320000D01*
X2340000Y-28920000D02*
X2440000Y-28920000D01*
%TO.N,-12V*%
X11940000Y-17520000D02*
X11940000Y-26908000D01*
X11417000Y-16997000D02*
X11940000Y-17520000D01*
X9380000Y-16997000D02*
X11417000Y-16997000D01*
X10660000Y-31480000D02*
X9390000Y-31480000D01*
X10787000Y-31353000D02*
X10660000Y-31480000D01*
X11940000Y-29184000D02*
X10787000Y-30337000D01*
X10787000Y-30337000D02*
X10787000Y-31353000D01*
X11940000Y-26908000D02*
X11940000Y-29184000D01*
X9390000Y-31480000D02*
X9390000Y-39227000D01*
X12565000Y-26908000D02*
X11940000Y-26908000D01*
X9390000Y-39227000D02*
X9898000Y-39735000D01*
%TO.N,+12V*%
X9380000Y-28950000D02*
X9380000Y-28432000D01*
X7988000Y-27284000D02*
X10528000Y-27284000D01*
X9380000Y-28950000D02*
X8120000Y-30210000D01*
X9380000Y-28432000D02*
X10528000Y-27284000D01*
X8120000Y-38211000D02*
X8120000Y-30210000D01*
X6840000Y-40360000D02*
X6850000Y-40370000D01*
X6596000Y-39735000D02*
X8120000Y-38211000D01*
X12819000Y-30591000D02*
X14470000Y-28940000D01*
X11930000Y-30591000D02*
X12819000Y-30591000D01*
%TO.N,Net-(U1-Pad10)*%
X5580000Y-24114000D02*
X6215000Y-24749000D01*
X6215000Y-36179000D02*
X6596000Y-36560000D01*
X5580000Y-22463000D02*
X5580000Y-24114000D01*
X6215000Y-24749000D02*
X6215000Y-36179000D01*
%TO.N,-12V*%
X6840000Y-16997000D02*
X1770000Y-22067000D01*
X1770000Y-22067000D02*
X1770000Y-26400000D01*
X9390000Y-17007000D02*
X6850000Y-17007000D01*
X13200000Y-26400000D02*
X14470000Y-26400000D01*
X13200000Y-26400000D02*
X12692000Y-26908000D01*
X12692000Y-26908000D02*
X12565000Y-26908000D01*
%TD*%
%TA.AperFunction,Conductor*%
%TO.N,GND*%
G36*
X6919156Y-17988625D02*
G01*
X6970361Y-18024183D01*
X7030865Y-18094031D01*
X7030869Y-18094035D01*
X7034250Y-18097938D01*
X7206126Y-18240632D01*
X7261750Y-18273136D01*
X7279955Y-18283774D01*
X7328679Y-18335412D01*
X7341750Y-18405195D01*
X7315019Y-18470967D01*
X7274562Y-18504327D01*
X7266457Y-18508546D01*
X7257738Y-18514036D01*
X7087433Y-18641905D01*
X7079726Y-18648748D01*
X6932590Y-18802717D01*
X6926104Y-18810727D01*
X6806098Y-18986649D01*
X6801000Y-18995623D01*
X6711338Y-19188783D01*
X6707775Y-19198470D01*
X6652389Y-19398183D01*
X6653912Y-19406607D01*
X6666292Y-19410000D01*
X10656000Y-19410000D01*
X10724121Y-19430002D01*
X10770614Y-19483658D01*
X10782000Y-19536000D01*
X10782000Y-24872000D01*
X10761998Y-24940121D01*
X10708342Y-24986614D01*
X10656000Y-24998000D01*
X7860000Y-24998000D01*
X7791879Y-24977998D01*
X7745386Y-24924342D01*
X7734000Y-24872000D01*
X7734000Y-24471885D01*
X8242000Y-24471885D01*
X8246475Y-24487124D01*
X8247865Y-24488329D01*
X8255548Y-24490000D01*
X10255885Y-24490000D01*
X10271124Y-24485525D01*
X10272329Y-24484135D01*
X10274000Y-24476452D01*
X10274000Y-22476115D01*
X10269525Y-22460876D01*
X10268135Y-22459671D01*
X10260452Y-22458000D01*
X8260115Y-22458000D01*
X8244876Y-22462475D01*
X8243671Y-22463865D01*
X8242000Y-22471548D01*
X8242000Y-24471885D01*
X7734000Y-24471885D01*
X7734000Y-21931885D01*
X8242000Y-21931885D01*
X8246475Y-21947124D01*
X8247865Y-21948329D01*
X8255548Y-21950000D01*
X10255885Y-21950000D01*
X10271124Y-21945525D01*
X10272329Y-21944135D01*
X10274000Y-21936452D01*
X10274000Y-19936115D01*
X10269525Y-19920876D01*
X10268135Y-19919671D01*
X10260452Y-19918000D01*
X8260115Y-19918000D01*
X8244876Y-19922475D01*
X8243671Y-19923865D01*
X8242000Y-19931548D01*
X8242000Y-21931885D01*
X7734000Y-21931885D01*
X7734000Y-19936115D01*
X7729525Y-19920876D01*
X7728135Y-19919671D01*
X7720452Y-19918000D01*
X6671225Y-19918000D01*
X6657694Y-19921973D01*
X6656257Y-19931966D01*
X6686565Y-20066446D01*
X6689645Y-20076275D01*
X6769770Y-20273603D01*
X6774413Y-20282794D01*
X6885694Y-20464388D01*
X6891777Y-20472699D01*
X7031213Y-20633667D01*
X7038580Y-20640883D01*
X7202434Y-20776916D01*
X7210881Y-20782831D01*
X7280479Y-20823501D01*
X7329203Y-20875140D01*
X7342274Y-20944923D01*
X7315543Y-21010694D01*
X7275087Y-21044053D01*
X7266462Y-21048542D01*
X7257738Y-21054036D01*
X7087433Y-21181905D01*
X7079726Y-21188748D01*
X6932590Y-21342717D01*
X6926104Y-21350727D01*
X6806098Y-21526649D01*
X6801000Y-21535623D01*
X6710681Y-21730199D01*
X6663857Y-21783566D01*
X6595614Y-21803147D01*
X6527618Y-21782724D01*
X6495435Y-21752538D01*
X6448074Y-21689114D01*
X6444622Y-21684491D01*
X6288271Y-21539963D01*
X6108201Y-21426347D01*
X5910441Y-21347449D01*
X5904781Y-21346323D01*
X5904777Y-21346322D01*
X5707282Y-21307038D01*
X5707280Y-21307038D01*
X5701615Y-21305911D01*
X5695840Y-21305835D01*
X5695836Y-21305835D01*
X5589161Y-21304439D01*
X5488716Y-21303124D01*
X5483019Y-21304103D01*
X5483018Y-21304103D01*
X5284564Y-21338203D01*
X5284561Y-21338204D01*
X5278874Y-21339181D01*
X5079116Y-21412875D01*
X5056472Y-21426347D01*
X4925075Y-21504521D01*
X4896134Y-21521739D01*
X4736054Y-21662125D01*
X4604238Y-21829333D01*
X4505100Y-22017762D01*
X4503386Y-22023283D01*
X4503384Y-22023287D01*
X4468402Y-22135947D01*
X4441961Y-22221102D01*
X4416936Y-22432544D01*
X4417314Y-22438310D01*
X4430207Y-22635020D01*
X4430861Y-22645006D01*
X4432282Y-22650602D01*
X4432283Y-22650607D01*
X4481851Y-22845777D01*
X4483272Y-22851372D01*
X4485689Y-22856615D01*
X4522389Y-22936223D01*
X4572411Y-23044731D01*
X4695296Y-23218609D01*
X4725253Y-23247792D01*
X4783318Y-23304356D01*
X4847809Y-23367181D01*
X4850305Y-23368848D01*
X4890146Y-23426521D01*
X4896500Y-23466029D01*
X4896500Y-24085955D01*
X4896208Y-24094523D01*
X4892424Y-24150034D01*
X4893729Y-24157511D01*
X4893729Y-24157514D01*
X4903002Y-24210647D01*
X4903965Y-24217171D01*
X4911355Y-24278235D01*
X4914042Y-24285345D01*
X4915246Y-24290248D01*
X4918114Y-24300734D01*
X4919561Y-24305526D01*
X4920866Y-24313004D01*
X4923918Y-24319956D01*
X4923918Y-24319957D01*
X4945595Y-24369341D01*
X4948086Y-24375446D01*
X4967145Y-24425882D01*
X4969831Y-24432989D01*
X4974131Y-24439246D01*
X4976467Y-24443714D01*
X4981725Y-24453160D01*
X4984307Y-24457526D01*
X4987362Y-24464485D01*
X5024823Y-24513304D01*
X5028686Y-24518623D01*
X5050249Y-24549996D01*
X5063534Y-24569326D01*
X5069203Y-24574377D01*
X5108323Y-24609232D01*
X5113598Y-24614213D01*
X5494595Y-24995210D01*
X5528621Y-25057522D01*
X5531500Y-25084305D01*
X5531500Y-31501366D01*
X5511498Y-31569487D01*
X5457842Y-31615980D01*
X5387568Y-31626084D01*
X5361274Y-31619349D01*
X5230316Y-31570255D01*
X5168134Y-31563500D01*
X3471866Y-31563500D01*
X3409684Y-31570255D01*
X3273295Y-31621385D01*
X3156739Y-31708739D01*
X3069385Y-31825295D01*
X3018255Y-31961684D01*
X3011500Y-32023866D01*
X3011500Y-33720134D01*
X3018255Y-33782316D01*
X3069385Y-33918705D01*
X3156739Y-34035261D01*
X3273295Y-34122615D01*
X3409684Y-34173745D01*
X3420474Y-34174917D01*
X3422606Y-34175803D01*
X3425222Y-34176425D01*
X3425121Y-34176848D01*
X3486035Y-34202155D01*
X3526463Y-34260517D01*
X3528922Y-34331471D01*
X3492629Y-34392490D01*
X3483969Y-34399489D01*
X3480207Y-34402646D01*
X3475700Y-34405802D01*
X3313802Y-34567700D01*
X3310645Y-34572208D01*
X3310643Y-34572211D01*
X3255902Y-34650389D01*
X3182477Y-34755251D01*
X3180154Y-34760233D01*
X3180151Y-34760238D01*
X3108500Y-34913896D01*
X3085716Y-34962757D01*
X3026457Y-35183913D01*
X3006502Y-35412000D01*
X3026457Y-35640087D01*
X3027881Y-35645400D01*
X3027881Y-35645402D01*
X3058372Y-35759193D01*
X3085716Y-35861243D01*
X3088039Y-35866224D01*
X3088039Y-35866225D01*
X3180151Y-36063762D01*
X3180154Y-36063767D01*
X3182477Y-36068749D01*
X3313802Y-36256300D01*
X3475700Y-36418198D01*
X3480208Y-36421355D01*
X3480211Y-36421357D01*
X3534521Y-36459385D01*
X3663251Y-36549523D01*
X3668233Y-36551846D01*
X3668238Y-36551849D01*
X3702457Y-36567805D01*
X3755742Y-36614722D01*
X3775203Y-36682999D01*
X3754661Y-36750959D01*
X3702457Y-36796195D01*
X3668238Y-36812151D01*
X3668233Y-36812154D01*
X3663251Y-36814477D01*
X3558389Y-36887902D01*
X3480211Y-36942643D01*
X3480208Y-36942645D01*
X3475700Y-36945802D01*
X3313802Y-37107700D01*
X3182477Y-37295251D01*
X3180154Y-37300233D01*
X3180151Y-37300238D01*
X3151686Y-37361282D01*
X3085716Y-37502757D01*
X3084294Y-37508065D01*
X3084293Y-37508067D01*
X3051040Y-37632168D01*
X3026457Y-37723913D01*
X3006502Y-37952000D01*
X3026457Y-38180087D01*
X3085716Y-38401243D01*
X3088039Y-38406224D01*
X3088039Y-38406225D01*
X3180151Y-38603762D01*
X3180154Y-38603767D01*
X3182477Y-38608749D01*
X3235781Y-38684875D01*
X3296916Y-38772184D01*
X3313802Y-38796300D01*
X3475700Y-38958198D01*
X3480208Y-38961355D01*
X3480211Y-38961357D01*
X3558389Y-39016098D01*
X3663251Y-39089523D01*
X3668233Y-39091846D01*
X3668238Y-39091849D01*
X3702457Y-39107805D01*
X3755742Y-39154722D01*
X3775203Y-39222999D01*
X3754661Y-39290959D01*
X3702457Y-39336195D01*
X3668238Y-39352151D01*
X3668233Y-39352154D01*
X3663251Y-39354477D01*
X3567454Y-39421555D01*
X3480211Y-39482643D01*
X3480208Y-39482645D01*
X3475700Y-39485802D01*
X3313802Y-39647700D01*
X3182477Y-39835251D01*
X3180154Y-39840233D01*
X3180151Y-39840238D01*
X3147043Y-39911239D01*
X3085716Y-40042757D01*
X3026457Y-40263913D01*
X3006502Y-40492000D01*
X3026457Y-40720087D01*
X3027881Y-40725400D01*
X3027881Y-40725402D01*
X3057436Y-40835700D01*
X3085716Y-40941243D01*
X3088039Y-40946224D01*
X3088039Y-40946225D01*
X3180151Y-41143762D01*
X3180154Y-41143767D01*
X3182477Y-41148749D01*
X3185634Y-41153257D01*
X3310640Y-41331784D01*
X3313802Y-41336300D01*
X3475700Y-41498198D01*
X3480208Y-41501355D01*
X3480211Y-41501357D01*
X3558389Y-41556098D01*
X3663251Y-41629523D01*
X3668233Y-41631846D01*
X3668238Y-41631849D01*
X3702457Y-41647805D01*
X3755742Y-41694722D01*
X3775203Y-41762999D01*
X3754661Y-41830959D01*
X3702457Y-41876195D01*
X3668238Y-41892151D01*
X3668233Y-41892154D01*
X3663251Y-41894477D01*
X3633123Y-41915573D01*
X3480211Y-42022643D01*
X3480208Y-42022645D01*
X3475700Y-42025802D01*
X3313802Y-42187700D01*
X3182477Y-42375251D01*
X3180154Y-42380233D01*
X3180151Y-42380238D01*
X3088041Y-42577770D01*
X3085716Y-42582757D01*
X3084294Y-42588065D01*
X3084293Y-42588067D01*
X3050139Y-42715532D01*
X3026457Y-42803913D01*
X3006502Y-43032000D01*
X3026457Y-43260087D01*
X3085716Y-43481243D01*
X3088039Y-43486224D01*
X3088039Y-43486225D01*
X3180151Y-43683762D01*
X3180154Y-43683767D01*
X3182477Y-43688749D01*
X3313802Y-43876300D01*
X3475700Y-44038198D01*
X3480208Y-44041355D01*
X3480211Y-44041357D01*
X3558389Y-44096098D01*
X3663251Y-44169523D01*
X3668233Y-44171846D01*
X3668238Y-44171849D01*
X3702457Y-44187805D01*
X3755742Y-44234722D01*
X3775203Y-44302999D01*
X3754661Y-44370959D01*
X3702457Y-44416195D01*
X3668238Y-44432151D01*
X3668233Y-44432154D01*
X3663251Y-44434477D01*
X3558389Y-44507902D01*
X3480211Y-44562643D01*
X3480208Y-44562645D01*
X3475700Y-44565802D01*
X3313802Y-44727700D01*
X3182477Y-44915251D01*
X3180154Y-44920233D01*
X3180151Y-44920238D01*
X3088039Y-45117775D01*
X3085716Y-45122757D01*
X3026457Y-45343913D01*
X3006502Y-45572000D01*
X3026457Y-45800087D01*
X3027881Y-45805400D01*
X3027881Y-45805402D01*
X3071169Y-45966952D01*
X3085716Y-46021243D01*
X3088039Y-46026224D01*
X3088039Y-46026225D01*
X3180151Y-46223762D01*
X3180154Y-46223767D01*
X3182477Y-46228749D01*
X3185634Y-46233257D01*
X3282153Y-46371100D01*
X3313802Y-46416300D01*
X3475700Y-46578198D01*
X3480208Y-46581355D01*
X3480211Y-46581357D01*
X3532166Y-46617736D01*
X3663251Y-46709523D01*
X3668233Y-46711846D01*
X3668238Y-46711849D01*
X3702457Y-46727805D01*
X3755742Y-46774722D01*
X3775203Y-46842999D01*
X3754661Y-46910959D01*
X3702457Y-46956195D01*
X3668238Y-46972151D01*
X3668233Y-46972154D01*
X3663251Y-46974477D01*
X3563192Y-47044539D01*
X3480211Y-47102643D01*
X3480208Y-47102645D01*
X3475700Y-47105802D01*
X3313802Y-47267700D01*
X3182477Y-47455251D01*
X3180154Y-47460233D01*
X3180151Y-47460238D01*
X3088039Y-47657775D01*
X3085716Y-47662757D01*
X3084294Y-47668065D01*
X3084293Y-47668067D01*
X3038799Y-47837852D01*
X3026457Y-47883913D01*
X3006502Y-48112000D01*
X3026457Y-48340087D01*
X3085716Y-48561243D01*
X3088039Y-48566224D01*
X3088039Y-48566225D01*
X3180151Y-48763762D01*
X3180154Y-48763767D01*
X3182477Y-48768749D01*
X3313802Y-48956300D01*
X3475700Y-49118198D01*
X3480208Y-49121355D01*
X3480211Y-49121357D01*
X3558389Y-49176098D01*
X3663251Y-49249523D01*
X3668233Y-49251846D01*
X3668238Y-49251849D01*
X3865775Y-49343961D01*
X3870757Y-49346284D01*
X3876065Y-49347706D01*
X3876067Y-49347707D01*
X4086598Y-49404119D01*
X4086600Y-49404119D01*
X4091913Y-49405543D01*
X4320000Y-49425498D01*
X4548087Y-49405543D01*
X4553400Y-49404119D01*
X4553402Y-49404119D01*
X4763933Y-49347707D01*
X4763935Y-49347706D01*
X4769243Y-49346284D01*
X4774225Y-49343961D01*
X4971762Y-49251849D01*
X4971767Y-49251846D01*
X4976749Y-49249523D01*
X5081611Y-49176098D01*
X5159789Y-49121357D01*
X5159792Y-49121355D01*
X5164300Y-49118198D01*
X5326198Y-48956300D01*
X5457523Y-48768749D01*
X5459846Y-48763767D01*
X5459849Y-48763762D01*
X5551961Y-48566225D01*
X5551961Y-48566224D01*
X5554284Y-48561243D01*
X5613543Y-48340087D01*
X5633498Y-48112000D01*
X5613543Y-47883913D01*
X5601201Y-47837852D01*
X5581965Y-47766062D01*
X6128493Y-47766062D01*
X6137789Y-47778077D01*
X6188994Y-47813931D01*
X6198489Y-47819414D01*
X6395947Y-47911490D01*
X6406239Y-47915236D01*
X6616688Y-47971625D01*
X6627481Y-47973528D01*
X6844525Y-47992517D01*
X6855475Y-47992517D01*
X7072519Y-47973528D01*
X7083312Y-47971625D01*
X7293761Y-47915236D01*
X7304053Y-47911490D01*
X7501511Y-47819414D01*
X7511006Y-47813931D01*
X7563048Y-47777491D01*
X7571424Y-47767012D01*
X7564356Y-47753566D01*
X6862812Y-47052022D01*
X6848868Y-47044408D01*
X6847035Y-47044539D01*
X6840420Y-47048790D01*
X6134923Y-47754287D01*
X6128493Y-47766062D01*
X5581965Y-47766062D01*
X5555707Y-47668067D01*
X5555706Y-47668065D01*
X5554284Y-47662757D01*
X5551961Y-47657775D01*
X5459849Y-47460238D01*
X5459846Y-47460233D01*
X5457523Y-47455251D01*
X5326198Y-47267700D01*
X5164300Y-47105802D01*
X5159792Y-47102645D01*
X5159789Y-47102643D01*
X5076808Y-47044539D01*
X4976749Y-46974477D01*
X4971767Y-46972154D01*
X4971762Y-46972151D01*
X4937543Y-46956195D01*
X4884258Y-46909278D01*
X4864797Y-46841001D01*
X4885339Y-46773041D01*
X4937543Y-46727805D01*
X4971762Y-46711849D01*
X4971767Y-46711846D01*
X4976749Y-46709523D01*
X5107834Y-46617736D01*
X5159789Y-46581357D01*
X5159792Y-46581355D01*
X5164300Y-46578198D01*
X5326198Y-46416300D01*
X5329357Y-46411789D01*
X5330502Y-46410425D01*
X5389613Y-46371100D01*
X5460600Y-46369976D01*
X5520927Y-46407409D01*
X5551439Y-46471515D01*
X5552542Y-46502401D01*
X5537483Y-46674526D01*
X5537483Y-46685475D01*
X5556472Y-46902519D01*
X5558375Y-46913312D01*
X5614764Y-47123761D01*
X5618510Y-47134053D01*
X5710586Y-47331511D01*
X5716069Y-47341006D01*
X5752509Y-47393048D01*
X5762988Y-47401424D01*
X5776434Y-47394356D01*
X6477978Y-46692812D01*
X6484356Y-46681132D01*
X7214408Y-46681132D01*
X7214539Y-46682965D01*
X7218790Y-46689580D01*
X7924287Y-47395077D01*
X7936062Y-47401507D01*
X7948077Y-47392211D01*
X7983931Y-47341006D01*
X7989414Y-47331511D01*
X8081490Y-47134053D01*
X8085236Y-47123761D01*
X8125293Y-46974265D01*
X8162245Y-46913642D01*
X8226105Y-46882621D01*
X8296600Y-46891049D01*
X8351347Y-46936252D01*
X8368707Y-46974265D01*
X8408764Y-47123761D01*
X8412510Y-47134053D01*
X8504586Y-47331511D01*
X8510069Y-47341006D01*
X8546509Y-47393048D01*
X8556988Y-47401424D01*
X8570434Y-47394356D01*
X9271978Y-46692812D01*
X9279592Y-46678868D01*
X9279461Y-46677035D01*
X9275210Y-46670420D01*
X8569713Y-45964923D01*
X8557938Y-45958493D01*
X8545923Y-45967789D01*
X8510069Y-46018994D01*
X8504586Y-46028489D01*
X8412510Y-46225947D01*
X8408764Y-46236239D01*
X8368707Y-46385735D01*
X8331755Y-46446358D01*
X8267895Y-46477379D01*
X8197400Y-46468951D01*
X8142653Y-46423748D01*
X8125293Y-46385735D01*
X8085236Y-46236239D01*
X8081490Y-46225947D01*
X7989414Y-46028489D01*
X7983931Y-46018994D01*
X7947491Y-45966952D01*
X7937012Y-45958576D01*
X7923566Y-45965644D01*
X7222022Y-46667188D01*
X7214408Y-46681132D01*
X6484356Y-46681132D01*
X6485592Y-46678868D01*
X6485461Y-46677035D01*
X6481210Y-46670420D01*
X5775713Y-45964923D01*
X5761769Y-45957309D01*
X5744188Y-45958566D01*
X5674814Y-45943475D01*
X5624612Y-45893273D01*
X5609520Y-45823899D01*
X5611715Y-45810914D01*
X5611164Y-45810817D01*
X5612119Y-45805402D01*
X5613543Y-45800087D01*
X5631662Y-45592988D01*
X6128576Y-45592988D01*
X6135644Y-45606434D01*
X6837188Y-46307978D01*
X6851132Y-46315592D01*
X6852965Y-46315461D01*
X6859580Y-46311210D01*
X7565077Y-45605713D01*
X7571507Y-45593938D01*
X7562211Y-45581923D01*
X7511006Y-45546069D01*
X7501511Y-45540586D01*
X7304053Y-45448510D01*
X7293761Y-45444764D01*
X7083312Y-45388375D01*
X7072519Y-45386472D01*
X6855475Y-45367483D01*
X6844525Y-45367483D01*
X6627481Y-45386472D01*
X6616688Y-45388375D01*
X6406239Y-45444764D01*
X6395947Y-45448510D01*
X6198489Y-45540586D01*
X6188994Y-45546069D01*
X6136952Y-45582509D01*
X6128576Y-45592988D01*
X5631662Y-45592988D01*
X5633498Y-45572000D01*
X5613543Y-45343913D01*
X5554284Y-45122757D01*
X5551961Y-45117775D01*
X5459849Y-44920238D01*
X5459846Y-44920233D01*
X5457523Y-44915251D01*
X5326198Y-44727700D01*
X5164300Y-44565802D01*
X5159792Y-44562645D01*
X5159789Y-44562643D01*
X5081611Y-44507902D01*
X4976749Y-44434477D01*
X4971767Y-44432154D01*
X4971762Y-44432151D01*
X4937543Y-44416195D01*
X4884258Y-44369278D01*
X4864797Y-44301001D01*
X4885339Y-44233041D01*
X4937543Y-44187805D01*
X4971762Y-44171849D01*
X4971767Y-44171846D01*
X4976749Y-44169523D01*
X5081611Y-44096098D01*
X5159789Y-44041357D01*
X5159792Y-44041355D01*
X5164300Y-44038198D01*
X5326198Y-43876300D01*
X5457523Y-43688749D01*
X5459846Y-43683767D01*
X5459849Y-43683762D01*
X5551961Y-43486225D01*
X5551961Y-43486224D01*
X5554284Y-43481243D01*
X5613543Y-43260087D01*
X5633498Y-43032000D01*
X5613543Y-42803913D01*
X5589861Y-42715532D01*
X5555707Y-42588067D01*
X5555706Y-42588065D01*
X5554284Y-42582757D01*
X5551959Y-42577770D01*
X5504144Y-42475229D01*
X5493483Y-42405038D01*
X5496542Y-42398197D01*
X5457094Y-42373285D01*
X5448448Y-42362291D01*
X5430564Y-42336749D01*
X5326198Y-42187700D01*
X5164300Y-42025802D01*
X5159792Y-42022645D01*
X5159789Y-42022643D01*
X5006877Y-41915573D01*
X4976749Y-41894477D01*
X4971767Y-41892154D01*
X4971762Y-41892151D01*
X4937543Y-41876195D01*
X4884258Y-41829278D01*
X4864797Y-41761001D01*
X4885339Y-41693041D01*
X4937543Y-41647805D01*
X4971762Y-41631849D01*
X4971767Y-41631846D01*
X4976749Y-41629523D01*
X5081611Y-41556098D01*
X5159789Y-41501357D01*
X5159792Y-41501355D01*
X5164300Y-41498198D01*
X5326198Y-41336300D01*
X5329357Y-41331789D01*
X5329361Y-41331784D01*
X5339504Y-41317298D01*
X5394961Y-41272969D01*
X5465580Y-41265660D01*
X5528941Y-41297690D01*
X5564926Y-41358892D01*
X5564424Y-41422178D01*
X5558463Y-41444427D01*
X5556457Y-41451913D01*
X5536502Y-41680000D01*
X5556457Y-41908087D01*
X5557881Y-41913400D01*
X5557881Y-41913402D01*
X5581587Y-42001871D01*
X5615716Y-42129243D01*
X5618039Y-42134225D01*
X5618041Y-42134230D01*
X5665856Y-42236771D01*
X5676517Y-42306962D01*
X5673458Y-42313803D01*
X5712906Y-42338715D01*
X5721549Y-42349706D01*
X5843802Y-42524300D01*
X6005700Y-42686198D01*
X6010208Y-42689355D01*
X6010211Y-42689357D01*
X6015191Y-42692844D01*
X6193251Y-42817523D01*
X6198233Y-42819846D01*
X6198238Y-42819849D01*
X6395775Y-42911961D01*
X6400757Y-42914284D01*
X6406065Y-42915706D01*
X6406067Y-42915707D01*
X6616598Y-42972119D01*
X6616600Y-42972119D01*
X6621913Y-42973543D01*
X6850000Y-42993498D01*
X7078087Y-42973543D01*
X7083400Y-42972119D01*
X7083402Y-42972119D01*
X7293933Y-42915707D01*
X7293935Y-42915706D01*
X7299243Y-42914284D01*
X7304225Y-42911961D01*
X7501762Y-42819849D01*
X7501767Y-42819846D01*
X7506749Y-42817523D01*
X7684809Y-42692844D01*
X7689789Y-42689357D01*
X7689792Y-42689355D01*
X7694300Y-42686198D01*
X7856198Y-42524300D01*
X7987523Y-42336749D01*
X7989846Y-42331767D01*
X7989849Y-42331762D01*
X8081961Y-42134225D01*
X8081961Y-42134224D01*
X8084284Y-42129243D01*
X8125293Y-41976196D01*
X8162245Y-41915573D01*
X8226106Y-41884552D01*
X8296600Y-41892980D01*
X8351347Y-41938183D01*
X8368707Y-41976195D01*
X8409716Y-42129243D01*
X8412039Y-42134224D01*
X8412039Y-42134225D01*
X8504151Y-42331762D01*
X8504154Y-42331767D01*
X8506477Y-42336749D01*
X8637802Y-42524300D01*
X8799700Y-42686198D01*
X8804208Y-42689355D01*
X8804211Y-42689357D01*
X8809191Y-42692844D01*
X8987251Y-42817523D01*
X8992233Y-42819846D01*
X8992238Y-42819849D01*
X9189775Y-42911961D01*
X9194757Y-42914284D01*
X9200065Y-42915706D01*
X9200067Y-42915707D01*
X9410598Y-42972119D01*
X9410600Y-42972119D01*
X9415913Y-42973543D01*
X9644000Y-42993498D01*
X9872087Y-42973543D01*
X9877400Y-42972119D01*
X9877402Y-42972119D01*
X10087933Y-42915707D01*
X10087935Y-42915706D01*
X10093243Y-42914284D01*
X10098225Y-42911961D01*
X10295762Y-42819849D01*
X10295767Y-42819846D01*
X10300749Y-42817523D01*
X10446407Y-42715532D01*
X10513681Y-42692844D01*
X10582542Y-42710129D01*
X10631126Y-42761899D01*
X10644199Y-42829725D01*
X10626502Y-43032000D01*
X10646457Y-43260087D01*
X10705716Y-43481243D01*
X10708039Y-43486224D01*
X10708039Y-43486225D01*
X10800151Y-43683762D01*
X10800154Y-43683767D01*
X10802477Y-43688749D01*
X10933802Y-43876300D01*
X11095700Y-44038198D01*
X11100208Y-44041355D01*
X11100211Y-44041357D01*
X11178389Y-44096098D01*
X11283251Y-44169523D01*
X11288233Y-44171846D01*
X11288238Y-44171849D01*
X11322457Y-44187805D01*
X11375742Y-44234722D01*
X11395203Y-44302999D01*
X11374661Y-44370959D01*
X11322457Y-44416195D01*
X11288238Y-44432151D01*
X11288233Y-44432154D01*
X11283251Y-44434477D01*
X11178389Y-44507902D01*
X11100211Y-44562643D01*
X11100208Y-44562645D01*
X11095700Y-44565802D01*
X10933802Y-44727700D01*
X10802477Y-44915251D01*
X10800154Y-44920233D01*
X10800151Y-44920238D01*
X10708039Y-45117775D01*
X10705716Y-45122757D01*
X10646457Y-45343913D01*
X10645978Y-45349393D01*
X10629102Y-45542277D01*
X10603238Y-45608395D01*
X10545735Y-45650035D01*
X10474847Y-45653975D01*
X10431310Y-45634508D01*
X10305006Y-45546069D01*
X10295511Y-45540586D01*
X10098053Y-45448510D01*
X10087761Y-45444764D01*
X9877312Y-45388375D01*
X9866519Y-45386472D01*
X9649475Y-45367483D01*
X9638525Y-45367483D01*
X9421481Y-45386472D01*
X9410688Y-45388375D01*
X9200239Y-45444764D01*
X9189947Y-45448510D01*
X8992489Y-45540586D01*
X8982994Y-45546069D01*
X8930952Y-45582509D01*
X8922576Y-45592988D01*
X8929644Y-45606434D01*
X9914115Y-46590905D01*
X9948141Y-46653217D01*
X9943076Y-46724032D01*
X9914115Y-46769095D01*
X8928923Y-47754287D01*
X8922493Y-47766062D01*
X8931789Y-47778077D01*
X8982994Y-47813931D01*
X8992489Y-47819414D01*
X9189947Y-47911490D01*
X9200239Y-47915236D01*
X9410688Y-47971625D01*
X9421481Y-47973528D01*
X9638525Y-47992517D01*
X9649475Y-47992517D01*
X9866519Y-47973528D01*
X9877312Y-47971625D01*
X10087761Y-47915236D01*
X10098053Y-47911490D01*
X10295511Y-47819414D01*
X10305007Y-47813931D01*
X10464821Y-47702028D01*
X10532095Y-47679340D01*
X10600956Y-47696625D01*
X10649540Y-47748395D01*
X10662422Y-47818213D01*
X10658799Y-47837852D01*
X10646457Y-47883913D01*
X10626502Y-48112000D01*
X10646457Y-48340087D01*
X10705716Y-48561243D01*
X10708039Y-48566224D01*
X10708039Y-48566225D01*
X10800151Y-48763762D01*
X10800154Y-48763767D01*
X10802477Y-48768749D01*
X10933802Y-48956300D01*
X11095700Y-49118198D01*
X11100208Y-49121355D01*
X11100211Y-49121357D01*
X11178389Y-49176098D01*
X11283251Y-49249523D01*
X11288233Y-49251846D01*
X11288238Y-49251849D01*
X11485775Y-49343961D01*
X11490757Y-49346284D01*
X11496065Y-49347706D01*
X11496067Y-49347707D01*
X11706598Y-49404119D01*
X11706600Y-49404119D01*
X11711913Y-49405543D01*
X11940000Y-49425498D01*
X12168087Y-49405543D01*
X12173400Y-49404119D01*
X12173402Y-49404119D01*
X12383933Y-49347707D01*
X12383935Y-49347706D01*
X12389243Y-49346284D01*
X12394225Y-49343961D01*
X12591762Y-49251849D01*
X12591767Y-49251846D01*
X12596749Y-49249523D01*
X12701611Y-49176098D01*
X12779789Y-49121357D01*
X12779792Y-49121355D01*
X12784300Y-49118198D01*
X12946198Y-48956300D01*
X13077523Y-48768749D01*
X13079846Y-48763767D01*
X13079849Y-48763762D01*
X13171961Y-48566225D01*
X13171961Y-48566224D01*
X13174284Y-48561243D01*
X13233543Y-48340087D01*
X13253498Y-48112000D01*
X13233543Y-47883913D01*
X13221201Y-47837852D01*
X13175707Y-47668067D01*
X13175706Y-47668065D01*
X13174284Y-47662757D01*
X13171961Y-47657775D01*
X13079849Y-47460238D01*
X13079846Y-47460233D01*
X13077523Y-47455251D01*
X12946198Y-47267700D01*
X12784300Y-47105802D01*
X12779792Y-47102645D01*
X12779789Y-47102643D01*
X12696808Y-47044539D01*
X12596749Y-46974477D01*
X12591767Y-46972154D01*
X12591762Y-46972151D01*
X12557543Y-46956195D01*
X12504258Y-46909278D01*
X12484797Y-46841001D01*
X12505339Y-46773041D01*
X12557543Y-46727805D01*
X12591762Y-46711849D01*
X12591767Y-46711846D01*
X12596749Y-46709523D01*
X12727834Y-46617736D01*
X12779789Y-46581357D01*
X12779792Y-46581355D01*
X12784300Y-46578198D01*
X12946198Y-46416300D01*
X12977848Y-46371100D01*
X13074366Y-46233257D01*
X13077523Y-46228749D01*
X13079846Y-46223767D01*
X13079849Y-46223762D01*
X13171961Y-46026225D01*
X13171961Y-46026224D01*
X13174284Y-46021243D01*
X13188832Y-45966952D01*
X13232119Y-45805402D01*
X13232119Y-45805400D01*
X13233543Y-45800087D01*
X13253498Y-45572000D01*
X13233543Y-45343913D01*
X13174284Y-45122757D01*
X13171961Y-45117775D01*
X13079849Y-44920238D01*
X13079846Y-44920233D01*
X13077523Y-44915251D01*
X12946198Y-44727700D01*
X12784300Y-44565802D01*
X12779792Y-44562645D01*
X12779789Y-44562643D01*
X12701611Y-44507902D01*
X12596749Y-44434477D01*
X12591767Y-44432154D01*
X12591762Y-44432151D01*
X12557543Y-44416195D01*
X12504258Y-44369278D01*
X12484797Y-44301001D01*
X12505339Y-44233041D01*
X12557543Y-44187805D01*
X12591762Y-44171849D01*
X12591767Y-44171846D01*
X12596749Y-44169523D01*
X12701611Y-44096098D01*
X12779789Y-44041357D01*
X12779792Y-44041355D01*
X12784300Y-44038198D01*
X12946198Y-43876300D01*
X13077523Y-43688749D01*
X13079846Y-43683767D01*
X13079849Y-43683762D01*
X13171961Y-43486225D01*
X13171961Y-43486224D01*
X13174284Y-43481243D01*
X13233543Y-43260087D01*
X13253498Y-43032000D01*
X13233543Y-42803913D01*
X13209861Y-42715532D01*
X13175707Y-42588067D01*
X13175706Y-42588065D01*
X13174284Y-42582757D01*
X13171959Y-42577770D01*
X13079849Y-42380238D01*
X13079846Y-42380233D01*
X13077523Y-42375251D01*
X12946198Y-42187700D01*
X12784300Y-42025802D01*
X12779792Y-42022645D01*
X12779789Y-42022643D01*
X12626877Y-41915573D01*
X12596749Y-41894477D01*
X12591767Y-41892154D01*
X12591762Y-41892151D01*
X12557543Y-41876195D01*
X12504258Y-41829278D01*
X12484797Y-41761001D01*
X12505339Y-41693041D01*
X12557543Y-41647805D01*
X12591762Y-41631849D01*
X12591767Y-41631846D01*
X12596749Y-41629523D01*
X12701611Y-41556098D01*
X12779789Y-41501357D01*
X12779792Y-41501355D01*
X12784300Y-41498198D01*
X12946198Y-41336300D01*
X12949361Y-41331784D01*
X13074366Y-41153257D01*
X13077523Y-41148749D01*
X13079846Y-41143767D01*
X13079849Y-41143762D01*
X13171961Y-40946225D01*
X13171961Y-40946224D01*
X13174284Y-40941243D01*
X13202565Y-40835700D01*
X13232119Y-40725402D01*
X13232119Y-40725400D01*
X13233543Y-40720087D01*
X13253498Y-40492000D01*
X13233543Y-40263913D01*
X13174284Y-40042757D01*
X13112957Y-39911239D01*
X13079849Y-39840238D01*
X13079846Y-39840233D01*
X13077523Y-39835251D01*
X12946198Y-39647700D01*
X12784300Y-39485802D01*
X12779792Y-39482645D01*
X12779789Y-39482643D01*
X12692546Y-39421555D01*
X12596749Y-39354477D01*
X12591767Y-39352154D01*
X12591762Y-39352151D01*
X12557543Y-39336195D01*
X12504258Y-39289278D01*
X12484797Y-39221001D01*
X12505339Y-39153041D01*
X12557543Y-39107805D01*
X12591762Y-39091849D01*
X12591767Y-39091846D01*
X12596749Y-39089523D01*
X12701611Y-39016098D01*
X12779789Y-38961357D01*
X12779792Y-38961355D01*
X12784300Y-38958198D01*
X12946198Y-38796300D01*
X12963085Y-38772184D01*
X13024219Y-38684875D01*
X13077523Y-38608749D01*
X13079846Y-38603767D01*
X13079849Y-38603762D01*
X13171961Y-38406225D01*
X13171961Y-38406224D01*
X13174284Y-38401243D01*
X13233543Y-38180087D01*
X13253498Y-37952000D01*
X13233543Y-37723913D01*
X13208960Y-37632168D01*
X13175707Y-37508067D01*
X13175706Y-37508065D01*
X13174284Y-37502757D01*
X13108314Y-37361282D01*
X13079849Y-37300238D01*
X13079846Y-37300233D01*
X13077523Y-37295251D01*
X12946198Y-37107700D01*
X12784300Y-36945802D01*
X12779792Y-36942645D01*
X12779789Y-36942643D01*
X12701611Y-36887902D01*
X12596749Y-36814477D01*
X12591767Y-36812154D01*
X12591762Y-36812151D01*
X12557543Y-36796195D01*
X12504258Y-36749278D01*
X12484797Y-36681001D01*
X12505339Y-36613041D01*
X12557543Y-36567805D01*
X12591762Y-36551849D01*
X12591767Y-36551846D01*
X12596749Y-36549523D01*
X12725479Y-36459385D01*
X12779789Y-36421357D01*
X12779792Y-36421355D01*
X12784300Y-36418198D01*
X12946198Y-36256300D01*
X13077523Y-36068749D01*
X13079846Y-36063767D01*
X13079849Y-36063762D01*
X13171961Y-35866225D01*
X13171961Y-35866224D01*
X13174284Y-35861243D01*
X13201629Y-35759193D01*
X13232119Y-35645402D01*
X13232119Y-35645400D01*
X13233543Y-35640087D01*
X13253498Y-35412000D01*
X13233543Y-35183913D01*
X13174284Y-34962757D01*
X13151500Y-34913896D01*
X13079849Y-34760238D01*
X13079846Y-34760233D01*
X13077523Y-34755251D01*
X13004098Y-34650389D01*
X12949357Y-34572211D01*
X12949355Y-34572208D01*
X12946198Y-34567700D01*
X12784300Y-34405802D01*
X12779792Y-34402645D01*
X12779789Y-34402643D01*
X12701611Y-34347902D01*
X12596749Y-34274477D01*
X12591767Y-34272154D01*
X12591762Y-34272151D01*
X12557543Y-34256195D01*
X12504258Y-34209278D01*
X12484797Y-34141001D01*
X12505339Y-34073041D01*
X12557543Y-34027805D01*
X12591762Y-34011849D01*
X12591767Y-34011846D01*
X12596749Y-34009523D01*
X12738458Y-33910297D01*
X12779789Y-33881357D01*
X12779792Y-33881355D01*
X12784300Y-33878198D01*
X12946198Y-33716300D01*
X13077523Y-33528749D01*
X13079846Y-33523767D01*
X13079849Y-33523762D01*
X13171961Y-33326225D01*
X13171961Y-33326224D01*
X13174284Y-33321243D01*
X13233543Y-33100087D01*
X13253498Y-32872000D01*
X13233543Y-32643913D01*
X13174284Y-32422757D01*
X13171961Y-32417775D01*
X13079849Y-32220238D01*
X13079846Y-32220233D01*
X13077523Y-32215251D01*
X12946198Y-32027700D01*
X12784300Y-31865802D01*
X12779792Y-31862645D01*
X12779789Y-31862643D01*
X12730228Y-31827940D01*
X12685900Y-31772482D01*
X12678591Y-31701863D01*
X12710622Y-31638503D01*
X12740933Y-31614793D01*
X12842948Y-31557661D01*
X12842951Y-31557659D01*
X12847990Y-31554837D01*
X13011690Y-31418690D01*
X13147837Y-31254990D01*
X13188648Y-31182117D01*
X13227213Y-31139846D01*
X13268067Y-31111768D01*
X13268068Y-31111767D01*
X13274326Y-31107466D01*
X13314233Y-31062676D01*
X13319213Y-31057402D01*
X14061210Y-30315405D01*
X14123522Y-30281379D01*
X14150305Y-30278500D01*
X14606000Y-30278500D01*
X14674121Y-30298502D01*
X14720614Y-30352158D01*
X14732000Y-30404500D01*
X14732000Y-105446000D01*
X14711998Y-105514121D01*
X14658342Y-105560614D01*
X14606000Y-105572000D01*
X1634000Y-105572000D01*
X1565879Y-105551998D01*
X1519386Y-105498342D01*
X1508000Y-105446000D01*
X1508000Y-103762817D01*
X6357514Y-103762817D01*
X6358095Y-103767837D01*
X6358095Y-103767841D01*
X6373923Y-103904631D01*
X6385415Y-104003956D01*
X6386791Y-104008820D01*
X6386792Y-104008823D01*
X6432476Y-104170266D01*
X6451510Y-104237532D01*
X6453644Y-104242108D01*
X6453646Y-104242114D01*
X6510446Y-104363922D01*
X6554099Y-104457536D01*
X6690544Y-104658307D01*
X6857332Y-104834681D01*
X6861358Y-104837759D01*
X6861359Y-104837760D01*
X7046154Y-104979047D01*
X7046158Y-104979050D01*
X7050174Y-104982120D01*
X7264109Y-105096831D01*
X7493631Y-105175862D01*
X7592978Y-105193022D01*
X7728926Y-105216504D01*
X7728932Y-105216505D01*
X7732836Y-105217179D01*
X7736797Y-105217359D01*
X7736798Y-105217359D01*
X7760506Y-105218436D01*
X7760525Y-105218436D01*
X7761925Y-105218500D01*
X8431001Y-105218500D01*
X8433509Y-105218298D01*
X8433514Y-105218298D01*
X8606924Y-105204346D01*
X8606929Y-105204345D01*
X8611965Y-105203940D01*
X8616873Y-105202734D01*
X8616876Y-105202734D01*
X8842792Y-105147244D01*
X8847706Y-105146037D01*
X8852358Y-105144062D01*
X8852362Y-105144061D01*
X9066498Y-105053165D01*
X9071156Y-105051188D01*
X9177037Y-104984511D01*
X9272288Y-104924528D01*
X9272291Y-104924526D01*
X9276567Y-104921833D01*
X9375422Y-104834681D01*
X9454858Y-104764650D01*
X9454861Y-104764647D01*
X9458655Y-104761302D01*
X9612734Y-104573722D01*
X9734841Y-104363922D01*
X9821833Y-104137298D01*
X9871474Y-103899680D01*
X9882486Y-103657183D01*
X9867235Y-103525373D01*
X9855167Y-103421071D01*
X9855166Y-103421067D01*
X9854585Y-103416044D01*
X9815517Y-103277978D01*
X9789866Y-103187331D01*
X9788490Y-103182468D01*
X9786356Y-103177892D01*
X9786354Y-103177886D01*
X9688038Y-102967046D01*
X9688036Y-102967042D01*
X9685901Y-102962464D01*
X9549456Y-102761693D01*
X9382668Y-102585319D01*
X9378641Y-102582240D01*
X9193846Y-102440953D01*
X9193842Y-102440950D01*
X9189826Y-102437880D01*
X8975891Y-102323169D01*
X8746369Y-102244138D01*
X8647022Y-102226978D01*
X8511074Y-102203496D01*
X8511068Y-102203495D01*
X8507164Y-102202821D01*
X8503203Y-102202641D01*
X8503202Y-102202641D01*
X8479494Y-102201564D01*
X8479475Y-102201564D01*
X8478075Y-102201500D01*
X7808999Y-102201500D01*
X7806491Y-102201702D01*
X7806486Y-102201702D01*
X7633076Y-102215654D01*
X7633071Y-102215655D01*
X7628035Y-102216060D01*
X7623127Y-102217266D01*
X7623124Y-102217266D01*
X7507007Y-102245787D01*
X7392294Y-102273963D01*
X7387642Y-102275938D01*
X7387638Y-102275939D01*
X7280252Y-102321522D01*
X7168844Y-102368812D01*
X7164560Y-102371510D01*
X6967712Y-102495472D01*
X6967709Y-102495474D01*
X6963433Y-102498167D01*
X6959639Y-102501512D01*
X6785142Y-102655350D01*
X6785139Y-102655353D01*
X6781345Y-102658698D01*
X6627266Y-102846278D01*
X6505159Y-103056078D01*
X6418167Y-103282702D01*
X6368526Y-103520320D01*
X6357514Y-103762817D01*
X1508000Y-103762817D01*
X1508000Y-95681114D01*
X6383275Y-95681114D01*
X6385325Y-95698830D01*
X6387285Y-95708727D01*
X6450604Y-95932494D01*
X6454116Y-95941938D01*
X6552399Y-96152705D01*
X6557378Y-96161471D01*
X6688087Y-96353802D01*
X6694419Y-96361677D01*
X6854186Y-96530626D01*
X6861695Y-96537387D01*
X7046426Y-96678625D01*
X7054905Y-96684089D01*
X7259847Y-96793978D01*
X7269099Y-96798020D01*
X7488971Y-96873727D01*
X7498743Y-96876236D01*
X7728971Y-96916004D01*
X7736843Y-96916859D01*
X7760551Y-96917936D01*
X7763384Y-96918000D01*
X7847885Y-96918000D01*
X7863124Y-96913525D01*
X7864329Y-96912135D01*
X7866000Y-96904452D01*
X7866000Y-96899885D01*
X8374000Y-96899885D01*
X8378475Y-96915124D01*
X8379865Y-96916329D01*
X8387548Y-96918000D01*
X8428456Y-96918000D01*
X8433488Y-96917798D01*
X8606843Y-96903850D01*
X8616796Y-96902238D01*
X8842633Y-96846767D01*
X8852203Y-96843584D01*
X9066265Y-96752720D01*
X9075207Y-96748045D01*
X9271987Y-96624126D01*
X9280060Y-96618086D01*
X9454500Y-96464297D01*
X9461504Y-96457044D01*
X9609110Y-96277346D01*
X9614866Y-96269064D01*
X9731841Y-96068081D01*
X9736203Y-96058976D01*
X9819537Y-95841885D01*
X9822388Y-95832196D01*
X9853821Y-95681736D01*
X9852698Y-95667675D01*
X9842590Y-95664000D01*
X8392115Y-95664000D01*
X8376876Y-95668475D01*
X8375671Y-95669865D01*
X8374000Y-95677548D01*
X8374000Y-96899885D01*
X7866000Y-96899885D01*
X7866000Y-95682115D01*
X7861525Y-95666876D01*
X7860135Y-95665671D01*
X7852452Y-95664000D01*
X6399410Y-95664000D01*
X6385324Y-95668136D01*
X6383275Y-95681114D01*
X1508000Y-95681114D01*
X1508000Y-95138264D01*
X6386179Y-95138264D01*
X6387302Y-95152325D01*
X6397410Y-95156000D01*
X7847885Y-95156000D01*
X7863124Y-95151525D01*
X7864329Y-95150135D01*
X7866000Y-95142452D01*
X7866000Y-95137885D01*
X8374000Y-95137885D01*
X8378475Y-95153124D01*
X8379865Y-95154329D01*
X8387548Y-95156000D01*
X9840590Y-95156000D01*
X9854676Y-95151864D01*
X9856725Y-95138886D01*
X9854675Y-95121170D01*
X9852715Y-95111273D01*
X9789396Y-94887506D01*
X9785884Y-94878062D01*
X9687601Y-94667295D01*
X9682622Y-94658529D01*
X9551913Y-94466198D01*
X9545581Y-94458323D01*
X9383435Y-94286858D01*
X9351163Y-94223620D01*
X9358203Y-94152973D01*
X9402320Y-94097348D01*
X9430753Y-94082303D01*
X9508054Y-94053324D01*
X9523649Y-94044786D01*
X9625724Y-93968285D01*
X9638285Y-93955724D01*
X9714786Y-93853649D01*
X9723324Y-93838054D01*
X9768478Y-93717606D01*
X9772105Y-93702351D01*
X9777631Y-93651486D01*
X9778000Y-93644672D01*
X9778000Y-93122115D01*
X9773525Y-93106876D01*
X9772135Y-93105671D01*
X9764452Y-93104000D01*
X8392115Y-93104000D01*
X8376876Y-93108475D01*
X8375671Y-93109865D01*
X8374000Y-93117548D01*
X8374000Y-95137885D01*
X7866000Y-95137885D01*
X7866000Y-93122115D01*
X7861525Y-93106876D01*
X7860135Y-93105671D01*
X7852452Y-93104000D01*
X6480116Y-93104000D01*
X6464877Y-93108475D01*
X6463672Y-93109865D01*
X6462001Y-93117548D01*
X6462001Y-93644669D01*
X6462371Y-93651490D01*
X6467895Y-93702352D01*
X6471521Y-93717604D01*
X6516676Y-93838054D01*
X6525214Y-93853649D01*
X6601715Y-93955724D01*
X6614276Y-93968285D01*
X6716351Y-94044786D01*
X6731948Y-94053325D01*
X6813624Y-94083944D01*
X6870389Y-94126585D01*
X6895089Y-94193147D01*
X6879882Y-94262496D01*
X6852721Y-94296440D01*
X6785495Y-94355708D01*
X6778496Y-94362956D01*
X6630890Y-94542654D01*
X6625134Y-94550936D01*
X6508159Y-94751919D01*
X6503797Y-94761024D01*
X6420463Y-94978115D01*
X6417612Y-94987804D01*
X6386179Y-95138264D01*
X1508000Y-95138264D01*
X1508000Y-92577885D01*
X6462000Y-92577885D01*
X6466475Y-92593124D01*
X6467865Y-92594329D01*
X6475548Y-92596000D01*
X7847885Y-92596000D01*
X7863124Y-92591525D01*
X7864329Y-92590135D01*
X7866000Y-92582452D01*
X7866000Y-92577885D01*
X8374000Y-92577885D01*
X8378475Y-92593124D01*
X8379865Y-92594329D01*
X8387548Y-92596000D01*
X9759884Y-92596000D01*
X9775123Y-92591525D01*
X9776328Y-92590135D01*
X9777999Y-92582452D01*
X9777999Y-92055331D01*
X9777629Y-92048510D01*
X9772105Y-91997648D01*
X9768479Y-91982396D01*
X9723324Y-91861946D01*
X9714786Y-91846351D01*
X9638285Y-91744276D01*
X9625724Y-91731715D01*
X9523649Y-91655214D01*
X9508054Y-91646676D01*
X9387606Y-91601522D01*
X9372351Y-91597895D01*
X9321486Y-91592369D01*
X9314672Y-91592000D01*
X8392115Y-91592000D01*
X8376876Y-91596475D01*
X8375671Y-91597865D01*
X8374000Y-91605548D01*
X8374000Y-92577885D01*
X7866000Y-92577885D01*
X7866000Y-91610116D01*
X7861525Y-91594877D01*
X7860135Y-91593672D01*
X7852452Y-91592001D01*
X6925331Y-91592001D01*
X6918510Y-91592371D01*
X6867648Y-91597895D01*
X6852396Y-91601521D01*
X6731946Y-91646676D01*
X6716351Y-91655214D01*
X6614276Y-91731715D01*
X6601715Y-91744276D01*
X6525214Y-91846351D01*
X6516676Y-91861946D01*
X6471522Y-91982394D01*
X6467895Y-91997649D01*
X6462369Y-92048514D01*
X6462000Y-92055328D01*
X6462000Y-92577885D01*
X1508000Y-92577885D01*
X1508000Y-89792817D01*
X6357514Y-89792817D01*
X6358095Y-89797837D01*
X6358095Y-89797841D01*
X6373923Y-89934631D01*
X6385415Y-90033956D01*
X6386791Y-90038820D01*
X6386792Y-90038823D01*
X6432476Y-90200266D01*
X6451510Y-90267532D01*
X6453644Y-90272108D01*
X6453646Y-90272114D01*
X6510446Y-90393922D01*
X6554099Y-90487536D01*
X6690544Y-90688307D01*
X6857332Y-90864681D01*
X6861358Y-90867759D01*
X6861359Y-90867760D01*
X7046154Y-91009047D01*
X7046158Y-91009050D01*
X7050174Y-91012120D01*
X7264109Y-91126831D01*
X7493631Y-91205862D01*
X7592978Y-91223022D01*
X7728926Y-91246504D01*
X7728932Y-91246505D01*
X7732836Y-91247179D01*
X7736797Y-91247359D01*
X7736798Y-91247359D01*
X7760506Y-91248436D01*
X7760525Y-91248436D01*
X7761925Y-91248500D01*
X8431001Y-91248500D01*
X8433509Y-91248298D01*
X8433514Y-91248298D01*
X8606924Y-91234346D01*
X8606929Y-91234345D01*
X8611965Y-91233940D01*
X8616873Y-91232734D01*
X8616876Y-91232734D01*
X8842792Y-91177244D01*
X8847706Y-91176037D01*
X8852358Y-91174062D01*
X8852362Y-91174061D01*
X9066498Y-91083165D01*
X9071156Y-91081188D01*
X9177037Y-91014511D01*
X9272288Y-90954528D01*
X9272291Y-90954526D01*
X9276567Y-90951833D01*
X9375422Y-90864681D01*
X9454858Y-90794650D01*
X9454861Y-90794647D01*
X9458655Y-90791302D01*
X9612734Y-90603722D01*
X9734841Y-90393922D01*
X9821833Y-90167298D01*
X9871474Y-89929680D01*
X9882486Y-89687183D01*
X9867235Y-89555373D01*
X9855167Y-89451071D01*
X9855166Y-89451067D01*
X9854585Y-89446044D01*
X9815517Y-89307978D01*
X9789866Y-89217331D01*
X9788490Y-89212468D01*
X9786356Y-89207892D01*
X9786354Y-89207886D01*
X9688038Y-88997046D01*
X9688036Y-88997042D01*
X9685901Y-88992464D01*
X9549456Y-88791693D01*
X9382668Y-88615319D01*
X9378641Y-88612240D01*
X9193846Y-88470953D01*
X9193842Y-88470950D01*
X9189826Y-88467880D01*
X8975891Y-88353169D01*
X8746369Y-88274138D01*
X8647022Y-88256978D01*
X8511074Y-88233496D01*
X8511068Y-88233495D01*
X8507164Y-88232821D01*
X8503203Y-88232641D01*
X8503202Y-88232641D01*
X8479494Y-88231564D01*
X8479475Y-88231564D01*
X8478075Y-88231500D01*
X7808999Y-88231500D01*
X7806491Y-88231702D01*
X7806486Y-88231702D01*
X7633076Y-88245654D01*
X7633071Y-88245655D01*
X7628035Y-88246060D01*
X7623127Y-88247266D01*
X7623124Y-88247266D01*
X7507007Y-88275787D01*
X7392294Y-88303963D01*
X7387642Y-88305938D01*
X7387638Y-88305939D01*
X7280252Y-88351522D01*
X7168844Y-88398812D01*
X7164560Y-88401510D01*
X6967712Y-88525472D01*
X6967709Y-88525474D01*
X6963433Y-88528167D01*
X6959639Y-88531512D01*
X6785142Y-88685350D01*
X6785139Y-88685353D01*
X6781345Y-88688698D01*
X6627266Y-88876278D01*
X6505159Y-89086078D01*
X6418167Y-89312702D01*
X6368526Y-89550320D01*
X6357514Y-89792817D01*
X1508000Y-89792817D01*
X1508000Y-81711114D01*
X6383275Y-81711114D01*
X6385325Y-81728830D01*
X6387285Y-81738727D01*
X6450604Y-81962494D01*
X6454116Y-81971938D01*
X6552399Y-82182705D01*
X6557378Y-82191471D01*
X6688087Y-82383802D01*
X6694419Y-82391677D01*
X6854186Y-82560626D01*
X6861695Y-82567387D01*
X7046426Y-82708625D01*
X7054905Y-82714089D01*
X7259847Y-82823978D01*
X7269099Y-82828020D01*
X7488971Y-82903727D01*
X7498743Y-82906236D01*
X7728971Y-82946004D01*
X7736843Y-82946859D01*
X7760551Y-82947936D01*
X7763384Y-82948000D01*
X7847885Y-82948000D01*
X7863124Y-82943525D01*
X7864329Y-82942135D01*
X7866000Y-82934452D01*
X7866000Y-82929885D01*
X8374000Y-82929885D01*
X8378475Y-82945124D01*
X8379865Y-82946329D01*
X8387548Y-82948000D01*
X8428456Y-82948000D01*
X8433488Y-82947798D01*
X8606843Y-82933850D01*
X8616796Y-82932238D01*
X8842633Y-82876767D01*
X8852203Y-82873584D01*
X9066265Y-82782720D01*
X9075207Y-82778045D01*
X9271987Y-82654126D01*
X9280060Y-82648086D01*
X9454500Y-82494297D01*
X9461504Y-82487044D01*
X9609110Y-82307346D01*
X9614866Y-82299064D01*
X9731841Y-82098081D01*
X9736203Y-82088976D01*
X9819537Y-81871885D01*
X9822388Y-81862196D01*
X9853821Y-81711736D01*
X9852698Y-81697675D01*
X9842590Y-81694000D01*
X8392115Y-81694000D01*
X8376876Y-81698475D01*
X8375671Y-81699865D01*
X8374000Y-81707548D01*
X8374000Y-82929885D01*
X7866000Y-82929885D01*
X7866000Y-81712115D01*
X7861525Y-81696876D01*
X7860135Y-81695671D01*
X7852452Y-81694000D01*
X6399410Y-81694000D01*
X6385324Y-81698136D01*
X6383275Y-81711114D01*
X1508000Y-81711114D01*
X1508000Y-81168264D01*
X6386179Y-81168264D01*
X6387302Y-81182325D01*
X6397410Y-81186000D01*
X7847885Y-81186000D01*
X7863124Y-81181525D01*
X7864329Y-81180135D01*
X7866000Y-81172452D01*
X7866000Y-81167885D01*
X8374000Y-81167885D01*
X8378475Y-81183124D01*
X8379865Y-81184329D01*
X8387548Y-81186000D01*
X9840590Y-81186000D01*
X9854676Y-81181864D01*
X9856725Y-81168886D01*
X9854675Y-81151170D01*
X9852715Y-81141273D01*
X9789396Y-80917506D01*
X9785884Y-80908062D01*
X9687601Y-80697295D01*
X9682622Y-80688529D01*
X9551913Y-80496198D01*
X9545581Y-80488323D01*
X9383435Y-80316858D01*
X9351163Y-80253620D01*
X9358203Y-80182973D01*
X9402320Y-80127348D01*
X9430753Y-80112303D01*
X9508054Y-80083324D01*
X9523649Y-80074786D01*
X9625724Y-79998285D01*
X9638285Y-79985724D01*
X9714786Y-79883649D01*
X9723324Y-79868054D01*
X9768478Y-79747606D01*
X9772105Y-79732351D01*
X9777631Y-79681486D01*
X9778000Y-79674672D01*
X9778000Y-79152115D01*
X9773525Y-79136876D01*
X9772135Y-79135671D01*
X9764452Y-79134000D01*
X8392115Y-79134000D01*
X8376876Y-79138475D01*
X8375671Y-79139865D01*
X8374000Y-79147548D01*
X8374000Y-81167885D01*
X7866000Y-81167885D01*
X7866000Y-79152115D01*
X7861525Y-79136876D01*
X7860135Y-79135671D01*
X7852452Y-79134000D01*
X6480116Y-79134000D01*
X6464877Y-79138475D01*
X6463672Y-79139865D01*
X6462001Y-79147548D01*
X6462001Y-79674669D01*
X6462371Y-79681490D01*
X6467895Y-79732352D01*
X6471521Y-79747604D01*
X6516676Y-79868054D01*
X6525214Y-79883649D01*
X6601715Y-79985724D01*
X6614276Y-79998285D01*
X6716351Y-80074786D01*
X6731948Y-80083325D01*
X6813624Y-80113944D01*
X6870389Y-80156585D01*
X6895089Y-80223147D01*
X6879882Y-80292496D01*
X6852721Y-80326440D01*
X6785495Y-80385708D01*
X6778496Y-80392956D01*
X6630890Y-80572654D01*
X6625134Y-80580936D01*
X6508159Y-80781919D01*
X6503797Y-80791024D01*
X6420463Y-81008115D01*
X6417612Y-81017804D01*
X6386179Y-81168264D01*
X1508000Y-81168264D01*
X1508000Y-78607885D01*
X6462000Y-78607885D01*
X6466475Y-78623124D01*
X6467865Y-78624329D01*
X6475548Y-78626000D01*
X7847885Y-78626000D01*
X7863124Y-78621525D01*
X7864329Y-78620135D01*
X7866000Y-78612452D01*
X7866000Y-78607885D01*
X8374000Y-78607885D01*
X8378475Y-78623124D01*
X8379865Y-78624329D01*
X8387548Y-78626000D01*
X9759884Y-78626000D01*
X9775123Y-78621525D01*
X9776328Y-78620135D01*
X9777999Y-78612452D01*
X9777999Y-78085331D01*
X9777629Y-78078510D01*
X9772105Y-78027648D01*
X9768479Y-78012396D01*
X9723324Y-77891946D01*
X9714786Y-77876351D01*
X9638285Y-77774276D01*
X9625724Y-77761715D01*
X9523649Y-77685214D01*
X9508054Y-77676676D01*
X9387606Y-77631522D01*
X9372351Y-77627895D01*
X9321486Y-77622369D01*
X9314672Y-77622000D01*
X8392115Y-77622000D01*
X8376876Y-77626475D01*
X8375671Y-77627865D01*
X8374000Y-77635548D01*
X8374000Y-78607885D01*
X7866000Y-78607885D01*
X7866000Y-77640116D01*
X7861525Y-77624877D01*
X7860135Y-77623672D01*
X7852452Y-77622001D01*
X6925331Y-77622001D01*
X6918510Y-77622371D01*
X6867648Y-77627895D01*
X6852396Y-77631521D01*
X6731946Y-77676676D01*
X6716351Y-77685214D01*
X6614276Y-77761715D01*
X6601715Y-77774276D01*
X6525214Y-77876351D01*
X6516676Y-77891946D01*
X6471522Y-78012394D01*
X6467895Y-78027649D01*
X6462369Y-78078514D01*
X6462000Y-78085328D01*
X6462000Y-78607885D01*
X1508000Y-78607885D01*
X1508000Y-75822817D01*
X6357514Y-75822817D01*
X6358095Y-75827837D01*
X6358095Y-75827841D01*
X6373923Y-75964631D01*
X6385415Y-76063956D01*
X6386791Y-76068820D01*
X6386792Y-76068823D01*
X6432476Y-76230266D01*
X6451510Y-76297532D01*
X6453644Y-76302108D01*
X6453646Y-76302114D01*
X6510446Y-76423922D01*
X6554099Y-76517536D01*
X6690544Y-76718307D01*
X6857332Y-76894681D01*
X6861358Y-76897759D01*
X6861359Y-76897760D01*
X7046154Y-77039047D01*
X7046158Y-77039050D01*
X7050174Y-77042120D01*
X7264109Y-77156831D01*
X7493631Y-77235862D01*
X7592978Y-77253022D01*
X7728926Y-77276504D01*
X7728932Y-77276505D01*
X7732836Y-77277179D01*
X7736797Y-77277359D01*
X7736798Y-77277359D01*
X7760506Y-77278436D01*
X7760525Y-77278436D01*
X7761925Y-77278500D01*
X8431001Y-77278500D01*
X8433509Y-77278298D01*
X8433514Y-77278298D01*
X8606924Y-77264346D01*
X8606929Y-77264345D01*
X8611965Y-77263940D01*
X8616873Y-77262734D01*
X8616876Y-77262734D01*
X8842792Y-77207244D01*
X8847706Y-77206037D01*
X8852358Y-77204062D01*
X8852362Y-77204061D01*
X9066498Y-77113165D01*
X9071156Y-77111188D01*
X9177037Y-77044511D01*
X9272288Y-76984528D01*
X9272291Y-76984526D01*
X9276567Y-76981833D01*
X9375422Y-76894681D01*
X9454858Y-76824650D01*
X9454861Y-76824647D01*
X9458655Y-76821302D01*
X9612734Y-76633722D01*
X9734841Y-76423922D01*
X9821833Y-76197298D01*
X9871474Y-75959680D01*
X9882486Y-75717183D01*
X9867235Y-75585373D01*
X9855167Y-75481071D01*
X9855166Y-75481067D01*
X9854585Y-75476044D01*
X9815517Y-75337978D01*
X9789866Y-75247331D01*
X9788490Y-75242468D01*
X9786356Y-75237892D01*
X9786354Y-75237886D01*
X9688038Y-75027046D01*
X9688036Y-75027042D01*
X9685901Y-75022464D01*
X9549456Y-74821693D01*
X9382668Y-74645319D01*
X9378641Y-74642240D01*
X9193846Y-74500953D01*
X9193842Y-74500950D01*
X9189826Y-74497880D01*
X8975891Y-74383169D01*
X8746369Y-74304138D01*
X8647022Y-74286978D01*
X8511074Y-74263496D01*
X8511068Y-74263495D01*
X8507164Y-74262821D01*
X8503203Y-74262641D01*
X8503202Y-74262641D01*
X8479494Y-74261564D01*
X8479475Y-74261564D01*
X8478075Y-74261500D01*
X7808999Y-74261500D01*
X7806491Y-74261702D01*
X7806486Y-74261702D01*
X7633076Y-74275654D01*
X7633071Y-74275655D01*
X7628035Y-74276060D01*
X7623127Y-74277266D01*
X7623124Y-74277266D01*
X7507007Y-74305787D01*
X7392294Y-74333963D01*
X7387642Y-74335938D01*
X7387638Y-74335939D01*
X7280252Y-74381522D01*
X7168844Y-74428812D01*
X7164560Y-74431510D01*
X6967712Y-74555472D01*
X6967709Y-74555474D01*
X6963433Y-74558167D01*
X6959639Y-74561512D01*
X6785142Y-74715350D01*
X6785139Y-74715353D01*
X6781345Y-74718698D01*
X6627266Y-74906278D01*
X6505159Y-75116078D01*
X6418167Y-75342702D01*
X6368526Y-75580320D01*
X6357514Y-75822817D01*
X1508000Y-75822817D01*
X1508000Y-67741114D01*
X6383275Y-67741114D01*
X6385325Y-67758830D01*
X6387285Y-67768727D01*
X6450604Y-67992494D01*
X6454116Y-68001938D01*
X6552399Y-68212705D01*
X6557378Y-68221471D01*
X6688087Y-68413802D01*
X6694419Y-68421677D01*
X6854186Y-68590626D01*
X6861695Y-68597387D01*
X7046426Y-68738625D01*
X7054905Y-68744089D01*
X7259847Y-68853978D01*
X7269099Y-68858020D01*
X7488971Y-68933727D01*
X7498743Y-68936236D01*
X7728971Y-68976004D01*
X7736843Y-68976859D01*
X7760551Y-68977936D01*
X7763384Y-68978000D01*
X7847885Y-68978000D01*
X7863124Y-68973525D01*
X7864329Y-68972135D01*
X7866000Y-68964452D01*
X7866000Y-68959885D01*
X8374000Y-68959885D01*
X8378475Y-68975124D01*
X8379865Y-68976329D01*
X8387548Y-68978000D01*
X8428456Y-68978000D01*
X8433488Y-68977798D01*
X8606843Y-68963850D01*
X8616796Y-68962238D01*
X8842633Y-68906767D01*
X8852203Y-68903584D01*
X9066265Y-68812720D01*
X9075207Y-68808045D01*
X9271987Y-68684126D01*
X9280060Y-68678086D01*
X9454500Y-68524297D01*
X9461504Y-68517044D01*
X9609110Y-68337346D01*
X9614866Y-68329064D01*
X9731841Y-68128081D01*
X9736203Y-68118976D01*
X9819537Y-67901885D01*
X9822388Y-67892196D01*
X9853821Y-67741736D01*
X9852698Y-67727675D01*
X9842590Y-67724000D01*
X8392115Y-67724000D01*
X8376876Y-67728475D01*
X8375671Y-67729865D01*
X8374000Y-67737548D01*
X8374000Y-68959885D01*
X7866000Y-68959885D01*
X7866000Y-67742115D01*
X7861525Y-67726876D01*
X7860135Y-67725671D01*
X7852452Y-67724000D01*
X6399410Y-67724000D01*
X6385324Y-67728136D01*
X6383275Y-67741114D01*
X1508000Y-67741114D01*
X1508000Y-67198264D01*
X6386179Y-67198264D01*
X6387302Y-67212325D01*
X6397410Y-67216000D01*
X7847885Y-67216000D01*
X7863124Y-67211525D01*
X7864329Y-67210135D01*
X7866000Y-67202452D01*
X7866000Y-67197885D01*
X8374000Y-67197885D01*
X8378475Y-67213124D01*
X8379865Y-67214329D01*
X8387548Y-67216000D01*
X9840590Y-67216000D01*
X9854676Y-67211864D01*
X9856725Y-67198886D01*
X9854675Y-67181170D01*
X9852715Y-67171273D01*
X9789396Y-66947506D01*
X9785884Y-66938062D01*
X9687601Y-66727295D01*
X9682622Y-66718529D01*
X9551913Y-66526198D01*
X9545581Y-66518323D01*
X9383435Y-66346858D01*
X9351163Y-66283620D01*
X9358203Y-66212973D01*
X9402320Y-66157348D01*
X9430753Y-66142303D01*
X9508054Y-66113324D01*
X9523649Y-66104786D01*
X9625724Y-66028285D01*
X9638285Y-66015724D01*
X9714786Y-65913649D01*
X9723324Y-65898054D01*
X9768478Y-65777606D01*
X9772105Y-65762351D01*
X9777631Y-65711486D01*
X9778000Y-65704672D01*
X9778000Y-65182115D01*
X9773525Y-65166876D01*
X9772135Y-65165671D01*
X9764452Y-65164000D01*
X8392115Y-65164000D01*
X8376876Y-65168475D01*
X8375671Y-65169865D01*
X8374000Y-65177548D01*
X8374000Y-67197885D01*
X7866000Y-67197885D01*
X7866000Y-65182115D01*
X7861525Y-65166876D01*
X7860135Y-65165671D01*
X7852452Y-65164000D01*
X6480116Y-65164000D01*
X6464877Y-65168475D01*
X6463672Y-65169865D01*
X6462001Y-65177548D01*
X6462001Y-65704669D01*
X6462371Y-65711490D01*
X6467895Y-65762352D01*
X6471521Y-65777604D01*
X6516676Y-65898054D01*
X6525214Y-65913649D01*
X6601715Y-66015724D01*
X6614276Y-66028285D01*
X6716351Y-66104786D01*
X6731948Y-66113325D01*
X6813624Y-66143944D01*
X6870389Y-66186585D01*
X6895089Y-66253147D01*
X6879882Y-66322496D01*
X6852721Y-66356440D01*
X6785495Y-66415708D01*
X6778496Y-66422956D01*
X6630890Y-66602654D01*
X6625134Y-66610936D01*
X6508159Y-66811919D01*
X6503797Y-66821024D01*
X6420463Y-67038115D01*
X6417612Y-67047804D01*
X6386179Y-67198264D01*
X1508000Y-67198264D01*
X1508000Y-64637885D01*
X6462000Y-64637885D01*
X6466475Y-64653124D01*
X6467865Y-64654329D01*
X6475548Y-64656000D01*
X7847885Y-64656000D01*
X7863124Y-64651525D01*
X7864329Y-64650135D01*
X7866000Y-64642452D01*
X7866000Y-64637885D01*
X8374000Y-64637885D01*
X8378475Y-64653124D01*
X8379865Y-64654329D01*
X8387548Y-64656000D01*
X9759884Y-64656000D01*
X9775123Y-64651525D01*
X9776328Y-64650135D01*
X9777999Y-64642452D01*
X9777999Y-64115331D01*
X9777629Y-64108510D01*
X9772105Y-64057648D01*
X9768479Y-64042396D01*
X9723324Y-63921946D01*
X9714786Y-63906351D01*
X9638285Y-63804276D01*
X9625724Y-63791715D01*
X9523649Y-63715214D01*
X9508054Y-63706676D01*
X9387606Y-63661522D01*
X9372351Y-63657895D01*
X9321486Y-63652369D01*
X9314672Y-63652000D01*
X8392115Y-63652000D01*
X8376876Y-63656475D01*
X8375671Y-63657865D01*
X8374000Y-63665548D01*
X8374000Y-64637885D01*
X7866000Y-64637885D01*
X7866000Y-63670116D01*
X7861525Y-63654877D01*
X7860135Y-63653672D01*
X7852452Y-63652001D01*
X6925331Y-63652001D01*
X6918510Y-63652371D01*
X6867648Y-63657895D01*
X6852396Y-63661521D01*
X6731946Y-63706676D01*
X6716351Y-63715214D01*
X6614276Y-63791715D01*
X6601715Y-63804276D01*
X6525214Y-63906351D01*
X6516676Y-63921946D01*
X6471522Y-64042394D01*
X6467895Y-64057649D01*
X6462369Y-64108514D01*
X6462000Y-64115328D01*
X6462000Y-64637885D01*
X1508000Y-64637885D01*
X1508000Y-61852817D01*
X6357514Y-61852817D01*
X6358095Y-61857837D01*
X6358095Y-61857841D01*
X6373923Y-61994631D01*
X6385415Y-62093956D01*
X6386791Y-62098820D01*
X6386792Y-62098823D01*
X6432476Y-62260266D01*
X6451510Y-62327532D01*
X6453644Y-62332108D01*
X6453646Y-62332114D01*
X6510446Y-62453922D01*
X6554099Y-62547536D01*
X6690544Y-62748307D01*
X6857332Y-62924681D01*
X6861358Y-62927759D01*
X6861359Y-62927760D01*
X7046154Y-63069047D01*
X7046158Y-63069050D01*
X7050174Y-63072120D01*
X7264109Y-63186831D01*
X7493631Y-63265862D01*
X7592978Y-63283022D01*
X7728926Y-63306504D01*
X7728932Y-63306505D01*
X7732836Y-63307179D01*
X7736797Y-63307359D01*
X7736798Y-63307359D01*
X7760506Y-63308436D01*
X7760525Y-63308436D01*
X7761925Y-63308500D01*
X8431001Y-63308500D01*
X8433509Y-63308298D01*
X8433514Y-63308298D01*
X8606924Y-63294346D01*
X8606929Y-63294345D01*
X8611965Y-63293940D01*
X8616873Y-63292734D01*
X8616876Y-63292734D01*
X8842792Y-63237244D01*
X8847706Y-63236037D01*
X8852358Y-63234062D01*
X8852362Y-63234061D01*
X9066498Y-63143165D01*
X9071156Y-63141188D01*
X9177037Y-63074511D01*
X9272288Y-63014528D01*
X9272291Y-63014526D01*
X9276567Y-63011833D01*
X9375422Y-62924681D01*
X9454858Y-62854650D01*
X9454861Y-62854647D01*
X9458655Y-62851302D01*
X9612734Y-62663722D01*
X9734841Y-62453922D01*
X9821833Y-62227298D01*
X9871474Y-61989680D01*
X9882486Y-61747183D01*
X9867235Y-61615373D01*
X9855167Y-61511071D01*
X9855166Y-61511067D01*
X9854585Y-61506044D01*
X9815517Y-61367978D01*
X9789866Y-61277331D01*
X9788490Y-61272468D01*
X9786356Y-61267892D01*
X9786354Y-61267886D01*
X9688038Y-61057046D01*
X9688036Y-61057042D01*
X9685901Y-61052464D01*
X9549456Y-60851693D01*
X9382668Y-60675319D01*
X9378641Y-60672240D01*
X9193846Y-60530953D01*
X9193842Y-60530950D01*
X9189826Y-60527880D01*
X8975891Y-60413169D01*
X8746369Y-60334138D01*
X8647022Y-60316978D01*
X8511074Y-60293496D01*
X8511068Y-60293495D01*
X8507164Y-60292821D01*
X8503203Y-60292641D01*
X8503202Y-60292641D01*
X8479494Y-60291564D01*
X8479475Y-60291564D01*
X8478075Y-60291500D01*
X7808999Y-60291500D01*
X7806491Y-60291702D01*
X7806486Y-60291702D01*
X7633076Y-60305654D01*
X7633071Y-60305655D01*
X7628035Y-60306060D01*
X7623127Y-60307266D01*
X7623124Y-60307266D01*
X7507007Y-60335787D01*
X7392294Y-60363963D01*
X7387642Y-60365938D01*
X7387638Y-60365939D01*
X7280252Y-60411522D01*
X7168844Y-60458812D01*
X7164560Y-60461510D01*
X6967712Y-60585472D01*
X6967709Y-60585474D01*
X6963433Y-60588167D01*
X6959639Y-60591512D01*
X6785142Y-60745350D01*
X6785139Y-60745353D01*
X6781345Y-60748698D01*
X6627266Y-60936278D01*
X6505159Y-61146078D01*
X6418167Y-61372702D01*
X6368526Y-61610320D01*
X6357514Y-61852817D01*
X1508000Y-61852817D01*
X1508000Y-53771114D01*
X6383275Y-53771114D01*
X6385325Y-53788830D01*
X6387285Y-53798727D01*
X6450604Y-54022494D01*
X6454116Y-54031938D01*
X6552399Y-54242705D01*
X6557378Y-54251471D01*
X6688087Y-54443802D01*
X6694419Y-54451677D01*
X6854186Y-54620626D01*
X6861695Y-54627387D01*
X7046426Y-54768625D01*
X7054905Y-54774089D01*
X7259847Y-54883978D01*
X7269099Y-54888020D01*
X7488971Y-54963727D01*
X7498743Y-54966236D01*
X7728971Y-55006004D01*
X7736843Y-55006859D01*
X7760551Y-55007936D01*
X7763384Y-55008000D01*
X7847885Y-55008000D01*
X7863124Y-55003525D01*
X7864329Y-55002135D01*
X7866000Y-54994452D01*
X7866000Y-54989885D01*
X8374000Y-54989885D01*
X8378475Y-55005124D01*
X8379865Y-55006329D01*
X8387548Y-55008000D01*
X8428456Y-55008000D01*
X8433488Y-55007798D01*
X8606843Y-54993850D01*
X8616796Y-54992238D01*
X8842633Y-54936767D01*
X8852203Y-54933584D01*
X9066265Y-54842720D01*
X9075207Y-54838045D01*
X9271987Y-54714126D01*
X9280060Y-54708086D01*
X9454500Y-54554297D01*
X9461504Y-54547044D01*
X9609110Y-54367346D01*
X9614866Y-54359064D01*
X9731841Y-54158081D01*
X9736203Y-54148976D01*
X9819537Y-53931885D01*
X9822388Y-53922196D01*
X9853821Y-53771736D01*
X9852698Y-53757675D01*
X9842590Y-53754000D01*
X8392115Y-53754000D01*
X8376876Y-53758475D01*
X8375671Y-53759865D01*
X8374000Y-53767548D01*
X8374000Y-54989885D01*
X7866000Y-54989885D01*
X7866000Y-53772115D01*
X7861525Y-53756876D01*
X7860135Y-53755671D01*
X7852452Y-53754000D01*
X6399410Y-53754000D01*
X6385324Y-53758136D01*
X6383275Y-53771114D01*
X1508000Y-53771114D01*
X1508000Y-53228264D01*
X6386179Y-53228264D01*
X6387302Y-53242325D01*
X6397410Y-53246000D01*
X7847885Y-53246000D01*
X7863124Y-53241525D01*
X7864329Y-53240135D01*
X7866000Y-53232452D01*
X7866000Y-53227885D01*
X8374000Y-53227885D01*
X8378475Y-53243124D01*
X8379865Y-53244329D01*
X8387548Y-53246000D01*
X9840590Y-53246000D01*
X9854676Y-53241864D01*
X9856725Y-53228886D01*
X9854675Y-53211170D01*
X9852715Y-53201273D01*
X9789396Y-52977506D01*
X9785884Y-52968062D01*
X9687601Y-52757295D01*
X9682622Y-52748529D01*
X9551913Y-52556198D01*
X9545581Y-52548323D01*
X9383435Y-52376858D01*
X9351163Y-52313620D01*
X9358203Y-52242973D01*
X9402320Y-52187348D01*
X9430753Y-52172303D01*
X9508054Y-52143324D01*
X9523649Y-52134786D01*
X9625724Y-52058285D01*
X9638285Y-52045724D01*
X9714786Y-51943649D01*
X9723324Y-51928054D01*
X9768478Y-51807606D01*
X9772105Y-51792351D01*
X9777631Y-51741486D01*
X9778000Y-51734672D01*
X9778000Y-51212115D01*
X9773525Y-51196876D01*
X9772135Y-51195671D01*
X9764452Y-51194000D01*
X8392115Y-51194000D01*
X8376876Y-51198475D01*
X8375671Y-51199865D01*
X8374000Y-51207548D01*
X8374000Y-53227885D01*
X7866000Y-53227885D01*
X7866000Y-51212115D01*
X7861525Y-51196876D01*
X7860135Y-51195671D01*
X7852452Y-51194000D01*
X6480116Y-51194000D01*
X6464877Y-51198475D01*
X6463672Y-51199865D01*
X6462001Y-51207548D01*
X6462001Y-51734669D01*
X6462371Y-51741490D01*
X6467895Y-51792352D01*
X6471521Y-51807604D01*
X6516676Y-51928054D01*
X6525214Y-51943649D01*
X6601715Y-52045724D01*
X6614276Y-52058285D01*
X6716351Y-52134786D01*
X6731948Y-52143325D01*
X6813624Y-52173944D01*
X6870389Y-52216585D01*
X6895089Y-52283147D01*
X6879882Y-52352496D01*
X6852721Y-52386440D01*
X6785495Y-52445708D01*
X6778496Y-52452956D01*
X6630890Y-52632654D01*
X6625134Y-52640936D01*
X6508159Y-52841919D01*
X6503797Y-52851024D01*
X6420463Y-53068115D01*
X6417612Y-53077804D01*
X6386179Y-53228264D01*
X1508000Y-53228264D01*
X1508000Y-50667885D01*
X6462000Y-50667885D01*
X6466475Y-50683124D01*
X6467865Y-50684329D01*
X6475548Y-50686000D01*
X7847885Y-50686000D01*
X7863124Y-50681525D01*
X7864329Y-50680135D01*
X7866000Y-50672452D01*
X7866000Y-50667885D01*
X8374000Y-50667885D01*
X8378475Y-50683124D01*
X8379865Y-50684329D01*
X8387548Y-50686000D01*
X9759884Y-50686000D01*
X9775123Y-50681525D01*
X9776328Y-50680135D01*
X9777999Y-50672452D01*
X9777999Y-50145331D01*
X9777629Y-50138510D01*
X9772105Y-50087648D01*
X9768479Y-50072396D01*
X9723324Y-49951946D01*
X9714786Y-49936351D01*
X9638285Y-49834276D01*
X9625724Y-49821715D01*
X9523649Y-49745214D01*
X9508054Y-49736676D01*
X9387606Y-49691522D01*
X9372351Y-49687895D01*
X9321486Y-49682369D01*
X9314672Y-49682000D01*
X8392115Y-49682000D01*
X8376876Y-49686475D01*
X8375671Y-49687865D01*
X8374000Y-49695548D01*
X8374000Y-50667885D01*
X7866000Y-50667885D01*
X7866000Y-49700116D01*
X7861525Y-49684877D01*
X7860135Y-49683672D01*
X7852452Y-49682001D01*
X6925331Y-49682001D01*
X6918510Y-49682371D01*
X6867648Y-49687895D01*
X6852396Y-49691521D01*
X6731946Y-49736676D01*
X6716351Y-49745214D01*
X6614276Y-49821715D01*
X6601715Y-49834276D01*
X6525214Y-49936351D01*
X6516676Y-49951946D01*
X6471522Y-50072394D01*
X6467895Y-50087649D01*
X6462369Y-50138514D01*
X6462000Y-50145328D01*
X6462000Y-50667885D01*
X1508000Y-50667885D01*
X1508000Y-30404500D01*
X1528002Y-30336379D01*
X1581658Y-30289886D01*
X1634000Y-30278500D01*
X3238134Y-30278500D01*
X3300316Y-30271745D01*
X3436705Y-30220615D01*
X3553261Y-30133261D01*
X3640615Y-30016705D01*
X3691745Y-29880316D01*
X3698500Y-29818134D01*
X3698500Y-28680305D01*
X3718502Y-28612184D01*
X3735405Y-28591210D01*
X3815459Y-28511156D01*
X3877771Y-28477130D01*
X3909498Y-28474348D01*
X4100891Y-28481869D01*
X4106600Y-28481041D01*
X4106604Y-28481041D01*
X4305890Y-28452145D01*
X4305894Y-28452144D01*
X4311605Y-28451316D01*
X4513223Y-28382876D01*
X4698993Y-28278840D01*
X4862693Y-28142693D01*
X4998840Y-27978993D01*
X5102876Y-27793223D01*
X5171316Y-27591605D01*
X5174865Y-27567134D01*
X5201337Y-27384561D01*
X5201337Y-27384559D01*
X5201869Y-27380891D01*
X5203463Y-27320000D01*
X5183981Y-27107976D01*
X5126186Y-26903052D01*
X5032015Y-26712092D01*
X4904622Y-26541491D01*
X4748271Y-26396963D01*
X4568201Y-26283347D01*
X4370441Y-26204449D01*
X4364781Y-26203323D01*
X4364777Y-26203322D01*
X4167282Y-26164038D01*
X4167280Y-26164038D01*
X4161615Y-26162911D01*
X4155840Y-26162835D01*
X4155836Y-26162835D01*
X4049161Y-26161439D01*
X3948716Y-26160124D01*
X3943019Y-26161103D01*
X3943018Y-26161103D01*
X3877799Y-26172310D01*
X3811528Y-26183697D01*
X3741004Y-26175520D01*
X3686096Y-26130513D01*
X3667986Y-26090213D01*
X3640474Y-25980684D01*
X3630431Y-25940702D01*
X3541354Y-25735840D01*
X3420014Y-25548277D01*
X3269670Y-25383051D01*
X3265619Y-25379852D01*
X3265615Y-25379848D01*
X3098414Y-25247800D01*
X3098410Y-25247798D01*
X3094359Y-25244598D01*
X2898789Y-25136638D01*
X2893920Y-25134914D01*
X2893916Y-25134912D01*
X2693087Y-25063795D01*
X2693083Y-25063794D01*
X2688212Y-25062069D01*
X2683122Y-25061162D01*
X2683117Y-25061161D01*
X2614291Y-25048902D01*
X2557403Y-25038768D01*
X2493847Y-25007131D01*
X2457484Y-24946154D01*
X2453500Y-24914722D01*
X2453500Y-22402305D01*
X2473502Y-22334184D01*
X2490405Y-22313210D01*
X6786029Y-18017586D01*
X6848341Y-17983560D01*
X6919156Y-17988625D01*
G37*
%TD.AperFunction*%
%TA.AperFunction,Conductor*%
G36*
X6472873Y-1528002D02*
G01*
X6519366Y-1581658D01*
X6529470Y-1651932D01*
X6519030Y-1683239D01*
X6519828Y-1683538D01*
X6471522Y-1812394D01*
X6467895Y-1827649D01*
X6462369Y-1878514D01*
X6462000Y-1885328D01*
X6462000Y-2407885D01*
X6466475Y-2423124D01*
X6467865Y-2424329D01*
X6475548Y-2426000D01*
X9759884Y-2426000D01*
X9775123Y-2421525D01*
X9776328Y-2420135D01*
X9777999Y-2412452D01*
X9777999Y-1885331D01*
X9777629Y-1878510D01*
X9772105Y-1827648D01*
X9768479Y-1812396D01*
X9720172Y-1683538D01*
X9722165Y-1682791D01*
X9709559Y-1625150D01*
X9734296Y-1558602D01*
X9791085Y-1515993D01*
X9835248Y-1508000D01*
X14606000Y-1508000D01*
X14674121Y-1528002D01*
X14720614Y-1581658D01*
X14732000Y-1634000D01*
X14732000Y-3381919D01*
X14711998Y-3450040D01*
X14658342Y-3496533D01*
X14595019Y-3507440D01*
X14470000Y-3496502D01*
X14241913Y-3516457D01*
X14236600Y-3517881D01*
X14236598Y-3517881D01*
X14026067Y-3574293D01*
X14026065Y-3574294D01*
X14020757Y-3575716D01*
X14015776Y-3578039D01*
X14015775Y-3578039D01*
X13818238Y-3670151D01*
X13818233Y-3670154D01*
X13813251Y-3672477D01*
X13797296Y-3683649D01*
X13630211Y-3800643D01*
X13630208Y-3800645D01*
X13625700Y-3803802D01*
X13463802Y-3965700D01*
X13332477Y-4153251D01*
X13330154Y-4158233D01*
X13330151Y-4158238D01*
X13314125Y-4192607D01*
X13235716Y-4360757D01*
X13234294Y-4366065D01*
X13234293Y-4366067D01*
X13200425Y-4492464D01*
X13176457Y-4581913D01*
X13156502Y-4810000D01*
X13176457Y-5038087D01*
X13177881Y-5043400D01*
X13177881Y-5043402D01*
X13217762Y-5192237D01*
X13235716Y-5259243D01*
X13238039Y-5264224D01*
X13238039Y-5264225D01*
X13330151Y-5461762D01*
X13330154Y-5461767D01*
X13332477Y-5466749D01*
X13463802Y-5654300D01*
X13625700Y-5816198D01*
X13630208Y-5819355D01*
X13630211Y-5819357D01*
X13708389Y-5874098D01*
X13813251Y-5947523D01*
X13818233Y-5949846D01*
X13818238Y-5949849D01*
X14015775Y-6041961D01*
X14020757Y-6044284D01*
X14026065Y-6045706D01*
X14026067Y-6045707D01*
X14236598Y-6102119D01*
X14236600Y-6102119D01*
X14241913Y-6103543D01*
X14470000Y-6123498D01*
X14595019Y-6112560D01*
X14664623Y-6126549D01*
X14715615Y-6175948D01*
X14732000Y-6238081D01*
X14732000Y-11002421D01*
X14711998Y-11070542D01*
X14658342Y-11117035D01*
X14595018Y-11127942D01*
X14475474Y-11117483D01*
X14464525Y-11117483D01*
X14247481Y-11136472D01*
X14236688Y-11138375D01*
X14026239Y-11194764D01*
X14015947Y-11198510D01*
X13818489Y-11290586D01*
X13808994Y-11296069D01*
X13756952Y-11332509D01*
X13748576Y-11342988D01*
X13755644Y-11356434D01*
X14695095Y-12295885D01*
X14729121Y-12358197D01*
X14732000Y-12384980D01*
X14732000Y-12475020D01*
X14711998Y-12543141D01*
X14695095Y-12564115D01*
X13754923Y-13504287D01*
X13748493Y-13516062D01*
X13757789Y-13528077D01*
X13808994Y-13563931D01*
X13818489Y-13569414D01*
X13853049Y-13585529D01*
X13906334Y-13632446D01*
X13925795Y-13700723D01*
X13905253Y-13768683D01*
X13853049Y-13813919D01*
X13818238Y-13830151D01*
X13818233Y-13830154D01*
X13813251Y-13832477D01*
X13708389Y-13905902D01*
X13630211Y-13960643D01*
X13630208Y-13960645D01*
X13625700Y-13963802D01*
X13463802Y-14125700D01*
X13332477Y-14313251D01*
X13330154Y-14318233D01*
X13330151Y-14318238D01*
X13249133Y-14491984D01*
X13235716Y-14520757D01*
X13176457Y-14741913D01*
X13156502Y-14970000D01*
X13176457Y-15198087D01*
X13235716Y-15419243D01*
X13238039Y-15424224D01*
X13238039Y-15424225D01*
X13330151Y-15621762D01*
X13330154Y-15621767D01*
X13332477Y-15626749D01*
X13335634Y-15631257D01*
X13458039Y-15806069D01*
X13463802Y-15814300D01*
X13625700Y-15976198D01*
X13630208Y-15979355D01*
X13630211Y-15979357D01*
X13643409Y-15988598D01*
X13813251Y-16107523D01*
X13818233Y-16109846D01*
X13818238Y-16109849D01*
X14015775Y-16201961D01*
X14020757Y-16204284D01*
X14026065Y-16205706D01*
X14026067Y-16205707D01*
X14236598Y-16262119D01*
X14236600Y-16262119D01*
X14241913Y-16263543D01*
X14470000Y-16283498D01*
X14595019Y-16272560D01*
X14664623Y-16286549D01*
X14715615Y-16335948D01*
X14732000Y-16398081D01*
X14732000Y-21162421D01*
X14711998Y-21230542D01*
X14658342Y-21277035D01*
X14595018Y-21287942D01*
X14475474Y-21277483D01*
X14464525Y-21277483D01*
X14247481Y-21296472D01*
X14236688Y-21298375D01*
X14026239Y-21354764D01*
X14015947Y-21358510D01*
X13818489Y-21450586D01*
X13808994Y-21456069D01*
X13756952Y-21492509D01*
X13748576Y-21502988D01*
X13755644Y-21516434D01*
X14695095Y-22455885D01*
X14729121Y-22518197D01*
X14732000Y-22544980D01*
X14732000Y-22635020D01*
X14711998Y-22703141D01*
X14695095Y-22724115D01*
X13754923Y-23664287D01*
X13748493Y-23676062D01*
X13757789Y-23688077D01*
X13808994Y-23723931D01*
X13818489Y-23729414D01*
X14015947Y-23821490D01*
X14026239Y-23825236D01*
X14236688Y-23881625D01*
X14247481Y-23883528D01*
X14464525Y-23902517D01*
X14475474Y-23902517D01*
X14595018Y-23892058D01*
X14664623Y-23906047D01*
X14715615Y-23955446D01*
X14732000Y-24017579D01*
X14732000Y-25051898D01*
X14711998Y-25120019D01*
X14658342Y-25166512D01*
X14588068Y-25176616D01*
X14545106Y-25162206D01*
X14503320Y-25139139D01*
X14503316Y-25139137D01*
X14498789Y-25136638D01*
X14493920Y-25134914D01*
X14493916Y-25134912D01*
X14293087Y-25063795D01*
X14293083Y-25063794D01*
X14288212Y-25062069D01*
X14283119Y-25061162D01*
X14283116Y-25061161D01*
X14073373Y-25023800D01*
X14073367Y-25023799D01*
X14068284Y-25022894D01*
X13994452Y-25021992D01*
X13850081Y-25020228D01*
X13850079Y-25020228D01*
X13844911Y-25020165D01*
X13624091Y-25053955D01*
X13411756Y-25123357D01*
X13213607Y-25226507D01*
X13209474Y-25229610D01*
X13209471Y-25229612D01*
X13185247Y-25247800D01*
X13034965Y-25360635D01*
X12880629Y-25522138D01*
X12853586Y-25561781D01*
X12798677Y-25606782D01*
X12728153Y-25614953D01*
X12664406Y-25583699D01*
X12627675Y-25522942D01*
X12623500Y-25490775D01*
X12623500Y-22595475D01*
X13157483Y-22595475D01*
X13176472Y-22812519D01*
X13178375Y-22823312D01*
X13234764Y-23033761D01*
X13238510Y-23044053D01*
X13330586Y-23241511D01*
X13336069Y-23251006D01*
X13372509Y-23303048D01*
X13382988Y-23311424D01*
X13396434Y-23304356D01*
X14097978Y-22602812D01*
X14105592Y-22588868D01*
X14105461Y-22587035D01*
X14101210Y-22580420D01*
X13395713Y-21874923D01*
X13383938Y-21868493D01*
X13371923Y-21877789D01*
X13336069Y-21928994D01*
X13330586Y-21938489D01*
X13238510Y-22135947D01*
X13234764Y-22146239D01*
X13178375Y-22356688D01*
X13176472Y-22367481D01*
X13157483Y-22584525D01*
X13157483Y-22595475D01*
X12623500Y-22595475D01*
X12623500Y-17548056D01*
X12623792Y-17539486D01*
X12623863Y-17538443D01*
X12627577Y-17483966D01*
X12616997Y-17423342D01*
X12616034Y-17416819D01*
X12609558Y-17363308D01*
X12609558Y-17363307D01*
X12608645Y-17355765D01*
X12605959Y-17348655D01*
X12604754Y-17343752D01*
X12601886Y-17333266D01*
X12600439Y-17328474D01*
X12599134Y-17320996D01*
X12596082Y-17314043D01*
X12574405Y-17264659D01*
X12571914Y-17258554D01*
X12552855Y-17208118D01*
X12552853Y-17208115D01*
X12550169Y-17201011D01*
X12545869Y-17194754D01*
X12543533Y-17190286D01*
X12538275Y-17180840D01*
X12535693Y-17176474D01*
X12532638Y-17169515D01*
X12495177Y-17120696D01*
X12491314Y-17115377D01*
X12460769Y-17070935D01*
X12456466Y-17064674D01*
X12411676Y-17024767D01*
X12406402Y-17019787D01*
X11920156Y-16533541D01*
X11914302Y-16527276D01*
X11882704Y-16491055D01*
X11877710Y-16485330D01*
X11827345Y-16449934D01*
X11822077Y-16446020D01*
X11779649Y-16412752D01*
X11773672Y-16408065D01*
X11766748Y-16404939D01*
X11762439Y-16402329D01*
X11753024Y-16396958D01*
X11748577Y-16394574D01*
X11742361Y-16390205D01*
X11685338Y-16367973D01*
X11625315Y-16319020D01*
X11610822Y-16296617D01*
X11610820Y-16296614D01*
X11608014Y-16292277D01*
X11457670Y-16127051D01*
X11453619Y-16123852D01*
X11453615Y-16123848D01*
X11286414Y-15991800D01*
X11286410Y-15991798D01*
X11282359Y-15988598D01*
X11259897Y-15976198D01*
X11230136Y-15959769D01*
X11086789Y-15880638D01*
X11081920Y-15878914D01*
X11081916Y-15878912D01*
X10881087Y-15807795D01*
X10881083Y-15807794D01*
X10876212Y-15806069D01*
X10871119Y-15805162D01*
X10871116Y-15805161D01*
X10661373Y-15767800D01*
X10661367Y-15767799D01*
X10656284Y-15766894D01*
X10582452Y-15765992D01*
X10438081Y-15764228D01*
X10438079Y-15764228D01*
X10432911Y-15764165D01*
X10212091Y-15797955D01*
X9999756Y-15867357D01*
X9801607Y-15970507D01*
X9797474Y-15973610D01*
X9797471Y-15973612D01*
X9773247Y-15991800D01*
X9622965Y-16104635D01*
X9557346Y-16173301D01*
X9472470Y-16262119D01*
X9468629Y-16266138D01*
X9467769Y-16267398D01*
X9410226Y-16307147D01*
X9370722Y-16313500D01*
X9338518Y-16313500D01*
X9304227Y-16317650D01*
X9263427Y-16322587D01*
X9248290Y-16323500D01*
X9152130Y-16323500D01*
X9084009Y-16303498D01*
X9058937Y-16282300D01*
X8921152Y-16130876D01*
X8921142Y-16130867D01*
X8917670Y-16127051D01*
X8913619Y-16123852D01*
X8913615Y-16123848D01*
X8746414Y-15991800D01*
X8746410Y-15991798D01*
X8742359Y-15988598D01*
X8719897Y-15976198D01*
X8690136Y-15959769D01*
X8546789Y-15880638D01*
X8541920Y-15878914D01*
X8541916Y-15878912D01*
X8341087Y-15807795D01*
X8341083Y-15807794D01*
X8336212Y-15806069D01*
X8331119Y-15805162D01*
X8331116Y-15805161D01*
X8121373Y-15767800D01*
X8121367Y-15767799D01*
X8116284Y-15766894D01*
X8042452Y-15765992D01*
X7898081Y-15764228D01*
X7898079Y-15764228D01*
X7892911Y-15764165D01*
X7672091Y-15797955D01*
X7459756Y-15867357D01*
X7261607Y-15970507D01*
X7257474Y-15973610D01*
X7257471Y-15973612D01*
X7233247Y-15991800D01*
X7082965Y-16104635D01*
X7025762Y-16164495D01*
X6932470Y-16262119D01*
X6928629Y-16266138D01*
X6928386Y-16265906D01*
X6872188Y-16304732D01*
X6824106Y-16310796D01*
X6811542Y-16309939D01*
X6811538Y-16309939D01*
X6803966Y-16309423D01*
X6796489Y-16310728D01*
X6796487Y-16310728D01*
X6728540Y-16322587D01*
X6640996Y-16337866D01*
X6634036Y-16340921D01*
X6634037Y-16340921D01*
X6498049Y-16400616D01*
X6489515Y-16404362D01*
X6388550Y-16481835D01*
X1723095Y-21147290D01*
X1660783Y-21181316D01*
X1589968Y-21176251D01*
X1533132Y-21133704D01*
X1508321Y-21067184D01*
X1508000Y-21058195D01*
X1508000Y-13592817D01*
X6357514Y-13592817D01*
X6358095Y-13597837D01*
X6358095Y-13597841D01*
X6383097Y-13813919D01*
X6385415Y-13833956D01*
X6386791Y-13838820D01*
X6386792Y-13838823D01*
X6432476Y-14000266D01*
X6451510Y-14067532D01*
X6453644Y-14072108D01*
X6453646Y-14072114D01*
X6510446Y-14193922D01*
X6554099Y-14287536D01*
X6690544Y-14488307D01*
X6857332Y-14664681D01*
X6861358Y-14667759D01*
X6861359Y-14667760D01*
X7046154Y-14809047D01*
X7046158Y-14809050D01*
X7050174Y-14812120D01*
X7264109Y-14926831D01*
X7493631Y-15005862D01*
X7592978Y-15023022D01*
X7728926Y-15046504D01*
X7728932Y-15046505D01*
X7732836Y-15047179D01*
X7736797Y-15047359D01*
X7736798Y-15047359D01*
X7760506Y-15048436D01*
X7760525Y-15048436D01*
X7761925Y-15048500D01*
X8431001Y-15048500D01*
X8433509Y-15048298D01*
X8433514Y-15048298D01*
X8606924Y-15034346D01*
X8606929Y-15034345D01*
X8611965Y-15033940D01*
X8616873Y-15032734D01*
X8616876Y-15032734D01*
X8842792Y-14977244D01*
X8847706Y-14976037D01*
X8852358Y-14974062D01*
X8852362Y-14974061D01*
X9066498Y-14883165D01*
X9071156Y-14881188D01*
X9177037Y-14814511D01*
X9272288Y-14754528D01*
X9272291Y-14754526D01*
X9276567Y-14751833D01*
X9375422Y-14664681D01*
X9454858Y-14594650D01*
X9454861Y-14594647D01*
X9458655Y-14591302D01*
X9461866Y-14587393D01*
X9609526Y-14407628D01*
X9609528Y-14407625D01*
X9612734Y-14403722D01*
X9734841Y-14193922D01*
X9821833Y-13967298D01*
X9822868Y-13962345D01*
X9870440Y-13734631D01*
X9870440Y-13734627D01*
X9871474Y-13729680D01*
X9882486Y-13487183D01*
X9867235Y-13355373D01*
X9855167Y-13251071D01*
X9855166Y-13251067D01*
X9854585Y-13246044D01*
X9815517Y-13107978D01*
X9789866Y-13017331D01*
X9788490Y-13012468D01*
X9786356Y-13007892D01*
X9786354Y-13007886D01*
X9688038Y-12797046D01*
X9688036Y-12797042D01*
X9685901Y-12792464D01*
X9549456Y-12591693D01*
X9401729Y-12435475D01*
X13157483Y-12435475D01*
X13176472Y-12652519D01*
X13178375Y-12663312D01*
X13234764Y-12873761D01*
X13238510Y-12884053D01*
X13330586Y-13081511D01*
X13336069Y-13091006D01*
X13372509Y-13143048D01*
X13382988Y-13151424D01*
X13396434Y-13144356D01*
X14097978Y-12442812D01*
X14105592Y-12428868D01*
X14105461Y-12427035D01*
X14101210Y-12420420D01*
X13395713Y-11714923D01*
X13383938Y-11708493D01*
X13371923Y-11717789D01*
X13336069Y-11768994D01*
X13330586Y-11778489D01*
X13238510Y-11975947D01*
X13234764Y-11986239D01*
X13178375Y-12196688D01*
X13176472Y-12207481D01*
X13157483Y-12424525D01*
X13157483Y-12435475D01*
X9401729Y-12435475D01*
X9382668Y-12415319D01*
X9378641Y-12412240D01*
X9193846Y-12270953D01*
X9193842Y-12270950D01*
X9189826Y-12267880D01*
X8975891Y-12153169D01*
X8746369Y-12074138D01*
X8647022Y-12056978D01*
X8511074Y-12033496D01*
X8511068Y-12033495D01*
X8507164Y-12032821D01*
X8503203Y-12032641D01*
X8503202Y-12032641D01*
X8479494Y-12031564D01*
X8479475Y-12031564D01*
X8478075Y-12031500D01*
X7808999Y-12031500D01*
X7806491Y-12031702D01*
X7806486Y-12031702D01*
X7633076Y-12045654D01*
X7633071Y-12045655D01*
X7628035Y-12046060D01*
X7623127Y-12047266D01*
X7623124Y-12047266D01*
X7507007Y-12075787D01*
X7392294Y-12103963D01*
X7387642Y-12105938D01*
X7387638Y-12105939D01*
X7280252Y-12151522D01*
X7168844Y-12198812D01*
X7164560Y-12201510D01*
X6967712Y-12325472D01*
X6967709Y-12325474D01*
X6963433Y-12328167D01*
X6959639Y-12331512D01*
X6785142Y-12485350D01*
X6785139Y-12485353D01*
X6781345Y-12488698D01*
X6778135Y-12492606D01*
X6778134Y-12492607D01*
X6646782Y-12652519D01*
X6627266Y-12676278D01*
X6624724Y-12680646D01*
X6512328Y-12873761D01*
X6505159Y-12886078D01*
X6418167Y-13112702D01*
X6417133Y-13117652D01*
X6417132Y-13117655D01*
X6410078Y-13151424D01*
X6368526Y-13350320D01*
X6357514Y-13592817D01*
X1508000Y-13592817D01*
X1508000Y-5292817D01*
X6357514Y-5292817D01*
X6358095Y-5297837D01*
X6358095Y-5297841D01*
X6377639Y-5466749D01*
X6385415Y-5533956D01*
X6386791Y-5538820D01*
X6386792Y-5538823D01*
X6432476Y-5700266D01*
X6451510Y-5767532D01*
X6453644Y-5772108D01*
X6453646Y-5772114D01*
X6536525Y-5949849D01*
X6554099Y-5987536D01*
X6556940Y-5991717D01*
X6556941Y-5991718D01*
X6592665Y-6044284D01*
X6690544Y-6188307D01*
X6857332Y-6364681D01*
X6861358Y-6367759D01*
X6861359Y-6367760D01*
X7046154Y-6509047D01*
X7046158Y-6509050D01*
X7050174Y-6512120D01*
X7264109Y-6626831D01*
X7493631Y-6705862D01*
X7592978Y-6723022D01*
X7728926Y-6746504D01*
X7728932Y-6746505D01*
X7732836Y-6747179D01*
X7736797Y-6747359D01*
X7736798Y-6747359D01*
X7760506Y-6748436D01*
X7760525Y-6748436D01*
X7761925Y-6748500D01*
X8431001Y-6748500D01*
X8433509Y-6748298D01*
X8433514Y-6748298D01*
X8606924Y-6734346D01*
X8606929Y-6734345D01*
X8611965Y-6733940D01*
X8616873Y-6732734D01*
X8616876Y-6732734D01*
X8842792Y-6677244D01*
X8847706Y-6676037D01*
X8852358Y-6674062D01*
X8852362Y-6674061D01*
X9066498Y-6583165D01*
X9071156Y-6581188D01*
X9177037Y-6514511D01*
X9272288Y-6454528D01*
X9272291Y-6454526D01*
X9276567Y-6451833D01*
X9375422Y-6364681D01*
X9454858Y-6294650D01*
X9454861Y-6294647D01*
X9458655Y-6291302D01*
X9546696Y-6184119D01*
X9609526Y-6107628D01*
X9609528Y-6107625D01*
X9612734Y-6103722D01*
X9734841Y-5893922D01*
X9821833Y-5667298D01*
X9822868Y-5662345D01*
X9870440Y-5434631D01*
X9870440Y-5434627D01*
X9871474Y-5429680D01*
X9882486Y-5187183D01*
X9867235Y-5055373D01*
X9855167Y-4951071D01*
X9855166Y-4951067D01*
X9854585Y-4946044D01*
X9815517Y-4807978D01*
X9789866Y-4717331D01*
X9788490Y-4712468D01*
X9786356Y-4707892D01*
X9786354Y-4707886D01*
X9688038Y-4497046D01*
X9688036Y-4497042D01*
X9685901Y-4492464D01*
X9549456Y-4291693D01*
X9545978Y-4288015D01*
X9383943Y-4116667D01*
X9351672Y-4053429D01*
X9358712Y-3982782D01*
X9402829Y-3927157D01*
X9431263Y-3912112D01*
X9508052Y-3883325D01*
X9523649Y-3874786D01*
X9625724Y-3798285D01*
X9638285Y-3785724D01*
X9714786Y-3683649D01*
X9723324Y-3668054D01*
X9768478Y-3547606D01*
X9772105Y-3532351D01*
X9777631Y-3481486D01*
X9778000Y-3474672D01*
X9778000Y-2952115D01*
X9773525Y-2936876D01*
X9772135Y-2935671D01*
X9764452Y-2934000D01*
X6480116Y-2934000D01*
X6464877Y-2938475D01*
X6463672Y-2939865D01*
X6462001Y-2947548D01*
X6462001Y-3474669D01*
X6462371Y-3481490D01*
X6467895Y-3532352D01*
X6471521Y-3547604D01*
X6516676Y-3668054D01*
X6525214Y-3683649D01*
X6601715Y-3785724D01*
X6614276Y-3798285D01*
X6716351Y-3874786D01*
X6731948Y-3883325D01*
X6813093Y-3913745D01*
X6869858Y-3956386D01*
X6894558Y-4022948D01*
X6879351Y-4092297D01*
X6852189Y-4126241D01*
X6785142Y-4185350D01*
X6785139Y-4185353D01*
X6781345Y-4188698D01*
X6778135Y-4192606D01*
X6778134Y-4192607D01*
X6699766Y-4288015D01*
X6627266Y-4376278D01*
X6624724Y-4380646D01*
X6510677Y-4576598D01*
X6505159Y-4586078D01*
X6503346Y-4590801D01*
X6421306Y-4804525D01*
X6418167Y-4812702D01*
X6417133Y-4817652D01*
X6417132Y-4817655D01*
X6371082Y-5038087D01*
X6368526Y-5050320D01*
X6357514Y-5292817D01*
X1508000Y-5292817D01*
X1508000Y-1634000D01*
X1528002Y-1565879D01*
X1581658Y-1519386D01*
X1634000Y-1508000D01*
X6404752Y-1508000D01*
X6472873Y-1528002D01*
G37*
%TD.AperFunction*%
%TD*%
M02*
