M48
; DRILL file {KiCad (6.0.7)} date Sat Dec 10 17:10:48 2022
; FORMAT={-:-/ absolute / inch / decimal}
; #@! TF.CreationDate,2022-12-10T17:10:48+02:00
; #@! TF.GenerationSoftware,Kicad,Pcbnew,(6.0.7)
; #@! TF.FileFunction,Plated,1,2,PTH
FMAT,2
INCH
; #@! TA.AperFunction,Plated,PTH,ViaDrill
T1C0.0315
; #@! TA.AperFunction,Plated,PTH,ComponentDrill
T2C0.0315
; #@! TA.AperFunction,Plated,PTH,ComponentDrill
T3C0.0394
; #@! TA.AperFunction,Plated,PTH,ComponentDrill
T4C0.0512
%
G90
G05
T1
X2.525Y-2.29
X2.6Y-1.805
X2.6Y-2.045
X2.64Y-2.6
X2.64Y-2.725
X2.7Y-2.35
X2.77Y-2.725
X2.8602Y-2.3652
T2
X2.5504Y-2.4548
X2.5504Y-2.5548
X2.5504Y-2.6548
X2.5504Y-2.7548
X2.5504Y-2.8548
X2.5504Y-2.9548
X2.5504Y-3.0548
X2.65Y-2.8016
X2.65Y-2.9984
X2.76Y-2.8016
X2.76Y-2.9984
X2.8504Y-2.4548
X2.8504Y-2.5548
X2.8504Y-2.6548
X2.8504Y-2.7548
X2.8504Y-2.8548
X2.8504Y-2.9548
X2.8504Y-3.0548
X2.95Y-1.35
X2.95Y-1.65
X2.95Y-1.75
X2.95Y-2.05
T3
X2.45Y-2.2
X2.45Y-2.3
X2.6948Y-1.8348
X2.6948Y-1.9348
X2.6948Y-2.0348
X2.6948Y-2.1348
X2.6948Y-2.2348
X2.7Y-1.2661
X2.7Y-3.1661
X2.7Y-3.7161
X2.7Y-4.2661
X2.7Y-4.8161
X2.7948Y-1.8348
X2.7948Y-1.9348
X2.7948Y-2.0348
X2.7948Y-2.1348
X2.7948Y-2.2348
X2.95Y-2.2
X2.95Y-2.3
T4
G00X2.7Y-1.3669
M15
G01X2.7Y-1.3669
M16
G05
G00X2.7Y-1.6937
M15
G01X2.7Y-1.6937
M16
G05
G00X2.7Y-3.2669
M15
G01X2.7Y-3.2669
M16
G05
G00X2.7Y-3.5937
M15
G01X2.7Y-3.5937
M16
G05
G00X2.7Y-3.8169
M15
G01X2.7Y-3.8169
M16
G05
G00X2.7Y-4.1437
M15
G01X2.7Y-4.1437
M16
G05
G00X2.7Y-4.3669
M15
G01X2.7Y-4.3669
M16
G05
G00X2.7Y-4.6937
M15
G01X2.7Y-4.6937
M16
G05
G00X2.7Y-4.9169
M15
G01X2.7Y-4.9169
M16
G05
G00X2.7Y-5.2437
M15
G01X2.7Y-5.2437
M16
G05
T0
M30
