%TF.GenerationSoftware,KiCad,Pcbnew,(6.0.1)*%
%TF.CreationDate,2022-12-13T19:10:28+02:00*%
%TF.ProjectId,BufferedMultFrontPlate3hp,42756666-6572-4656-944d-756c7446726f,rev?*%
%TF.SameCoordinates,Original*%
%TF.FileFunction,Copper,L1,Top*%
%TF.FilePolarity,Positive*%
%FSLAX46Y46*%
G04 Gerber Fmt 4.6, Leading zero omitted, Abs format (unit mm)*
G04 Created by KiCad (PCBNEW (6.0.1)) date 2022-12-13 19:10:28*
%MOMM*%
%LPD*%
G01*
G04 APERTURE LIST*
%TA.AperFunction,NonConductor*%
%ADD10C,0.200000*%
%TD*%
%ADD11C,0.300000*%
%TA.AperFunction,NonConductor*%
%ADD12C,0.300000*%
%TD*%
%TA.AperFunction,ComponentPad*%
%ADD13C,6.400000*%
%TD*%
%TA.AperFunction,ComponentPad*%
%ADD14C,3.200000*%
%TD*%
G04 APERTURE END LIST*
D10*
X10093200Y-61350400D02*
X11287000Y-60410600D01*
X8239000Y-50911000D02*
X10093200Y-51190400D01*
X5470400Y-41309800D02*
X11185400Y-41741600D01*
X8747000Y-35264600D02*
X8264400Y-34477200D01*
X8747000Y-55584600D02*
X8264400Y-54797200D01*
X6511800Y-47380400D02*
X6791200Y-48726600D01*
X10245600Y-38998400D02*
X6994400Y-40217600D01*
X8264400Y-54797200D02*
X6384800Y-54797200D01*
X11795000Y-49869600D02*
X11083800Y-49031400D01*
X6994400Y-50377600D02*
X7273800Y-48853600D01*
X6384800Y-44637200D02*
X5826000Y-46542200D01*
X7858000Y-55508400D02*
X7375400Y-56067200D01*
X5470400Y-51469800D02*
X11185400Y-51901600D01*
X11083800Y-59191400D02*
X10245600Y-59318400D01*
X11795000Y-39709600D02*
X11083800Y-38871400D01*
X8493000Y-36509200D02*
X8391400Y-35950400D01*
X7273800Y-38693600D02*
X7019800Y-36534600D01*
X7019800Y-36534600D02*
X8493000Y-36509200D01*
X5826000Y-56702200D02*
X5470400Y-61629800D01*
X10093200Y-51190400D02*
X11287000Y-50250600D01*
X11871200Y-51038000D02*
X11795000Y-49869600D01*
X10093200Y-41030400D02*
X11287000Y-40090600D01*
X11185400Y-41741600D02*
X11871200Y-40878000D01*
X8264400Y-34477200D02*
X6384800Y-34477200D01*
X6384800Y-34477200D02*
X5826000Y-36382200D01*
X11083800Y-38871400D02*
X10245600Y-38998400D01*
X5826000Y-46542200D02*
X5470400Y-51469800D01*
X7375400Y-45907200D02*
X8010400Y-46364400D01*
X6511800Y-57540400D02*
X6791200Y-58886600D01*
X8239000Y-40751000D02*
X10093200Y-41030400D01*
X11083800Y-49031400D02*
X10245600Y-49158400D01*
X8493000Y-56829200D02*
X8391400Y-56270400D01*
X11795000Y-60029600D02*
X11083800Y-59191400D01*
X7858000Y-35188400D02*
X7375400Y-35747200D01*
X6994400Y-60537600D02*
X7273800Y-59013600D01*
X11871200Y-40878000D02*
X11795000Y-39709600D01*
X11871200Y-61198000D02*
X11795000Y-60029600D01*
X6511800Y-37220400D02*
X6791200Y-38566600D01*
X8010400Y-36204400D02*
X8747000Y-35264600D01*
X7019800Y-46694600D02*
X8493000Y-46669200D01*
X8010400Y-56524400D02*
X8747000Y-55584600D01*
X8747000Y-45424600D02*
X8264400Y-44637200D01*
X7273800Y-59013600D02*
X7019800Y-56854600D01*
X8239000Y-61071000D02*
X10093200Y-61350400D01*
X7375400Y-35747200D02*
X8010400Y-36204400D01*
X7273800Y-48853600D02*
X7019800Y-46694600D01*
X7019800Y-56854600D02*
X8493000Y-56829200D01*
X10245600Y-49158400D02*
X6994400Y-50377600D01*
X8264400Y-44637200D02*
X6384800Y-44637200D01*
X11185400Y-51901600D02*
X11871200Y-51038000D01*
X5470400Y-61629800D02*
X11185400Y-62061600D01*
X10245600Y-59318400D02*
X6994400Y-60537600D01*
X11185400Y-62061600D02*
X11871200Y-61198000D01*
X8493000Y-46669200D02*
X8391400Y-46110400D01*
X7858000Y-45348400D02*
X7375400Y-45907200D01*
X7375400Y-56067200D02*
X8010400Y-56524400D01*
X5826000Y-36382200D02*
X5470400Y-41309800D01*
X6384800Y-54797200D02*
X5826000Y-56702200D01*
X8010400Y-46364400D02*
X8747000Y-45424600D01*
X6994400Y-40217600D02*
X7273800Y-38693600D01*
D11*
D12*
X7834285Y-13616571D02*
X7834285Y-12116571D01*
X8548571Y-13616571D02*
X8548571Y-12116571D01*
X9405714Y-13616571D01*
X9405714Y-12116571D01*
D11*
D12*
X7120000Y-116891571D02*
X7405714Y-116891571D01*
X7548571Y-116963000D01*
X7691428Y-117105857D01*
X7762857Y-117391571D01*
X7762857Y-117891571D01*
X7691428Y-118177285D01*
X7548571Y-118320142D01*
X7405714Y-118391571D01*
X7120000Y-118391571D01*
X6977142Y-118320142D01*
X6834285Y-118177285D01*
X6762857Y-117891571D01*
X6762857Y-117391571D01*
X6834285Y-117105857D01*
X6977142Y-116963000D01*
X7120000Y-116891571D01*
X8405714Y-116891571D02*
X8405714Y-118105857D01*
X8477142Y-118248714D01*
X8548571Y-118320142D01*
X8691428Y-118391571D01*
X8977142Y-118391571D01*
X9120000Y-118320142D01*
X9191428Y-118248714D01*
X9262857Y-118105857D01*
X9262857Y-116891571D01*
X9762857Y-116891571D02*
X10620000Y-116891571D01*
X10191428Y-118391571D02*
X10191428Y-116891571D01*
D11*
D12*
X6655714Y-28133357D02*
X6870000Y-28204785D01*
X6941428Y-28276214D01*
X7012857Y-28419071D01*
X7012857Y-28633357D01*
X6941428Y-28776214D01*
X6870000Y-28847642D01*
X6727142Y-28919071D01*
X6155714Y-28919071D01*
X6155714Y-27419071D01*
X6655714Y-27419071D01*
X6798571Y-27490500D01*
X6870000Y-27561928D01*
X6941428Y-27704785D01*
X6941428Y-27847642D01*
X6870000Y-27990500D01*
X6798571Y-28061928D01*
X6655714Y-28133357D01*
X6155714Y-28133357D01*
X7655714Y-27419071D02*
X7655714Y-28633357D01*
X7727142Y-28776214D01*
X7798571Y-28847642D01*
X7941428Y-28919071D01*
X8227142Y-28919071D01*
X8370000Y-28847642D01*
X8441428Y-28776214D01*
X8512857Y-28633357D01*
X8512857Y-27419071D01*
X9727142Y-28133357D02*
X9227142Y-28133357D01*
X9227142Y-28919071D02*
X9227142Y-27419071D01*
X9941428Y-27419071D01*
X11012857Y-28133357D02*
X10512857Y-28133357D01*
X10512857Y-28919071D02*
X10512857Y-27419071D01*
X11227142Y-27419071D01*
X4870000Y-31334071D02*
X4870000Y-29834071D01*
X5370000Y-30905500D01*
X5870000Y-29834071D01*
X5870000Y-31334071D01*
X6584285Y-29834071D02*
X6584285Y-31048357D01*
X6655714Y-31191214D01*
X6727142Y-31262642D01*
X6870000Y-31334071D01*
X7155714Y-31334071D01*
X7298571Y-31262642D01*
X7370000Y-31191214D01*
X7441428Y-31048357D01*
X7441428Y-29834071D01*
X8870000Y-31334071D02*
X8155714Y-31334071D01*
X8155714Y-29834071D01*
X9155714Y-29834071D02*
X10012857Y-29834071D01*
X9584285Y-31334071D02*
X9584285Y-29834071D01*
X11655714Y-31334071D02*
X11655714Y-29834071D01*
X12370000Y-31334071D02*
X12370000Y-29834071D01*
D11*
D12*
X7120000Y-74981571D02*
X7405714Y-74981571D01*
X7548571Y-75053000D01*
X7691428Y-75195857D01*
X7762857Y-75481571D01*
X7762857Y-75981571D01*
X7691428Y-76267285D01*
X7548571Y-76410142D01*
X7405714Y-76481571D01*
X7120000Y-76481571D01*
X6977142Y-76410142D01*
X6834285Y-76267285D01*
X6762857Y-75981571D01*
X6762857Y-75481571D01*
X6834285Y-75195857D01*
X6977142Y-75053000D01*
X7120000Y-74981571D01*
X8405714Y-74981571D02*
X8405714Y-76195857D01*
X8477142Y-76338714D01*
X8548571Y-76410142D01*
X8691428Y-76481571D01*
X8977142Y-76481571D01*
X9120000Y-76410142D01*
X9191428Y-76338714D01*
X9262857Y-76195857D01*
X9262857Y-74981571D01*
X9762857Y-74981571D02*
X10620000Y-74981571D01*
X10191428Y-76481571D02*
X10191428Y-74981571D01*
D11*
D12*
X7120000Y-88951571D02*
X7405714Y-88951571D01*
X7548571Y-89023000D01*
X7691428Y-89165857D01*
X7762857Y-89451571D01*
X7762857Y-89951571D01*
X7691428Y-90237285D01*
X7548571Y-90380142D01*
X7405714Y-90451571D01*
X7120000Y-90451571D01*
X6977142Y-90380142D01*
X6834285Y-90237285D01*
X6762857Y-89951571D01*
X6762857Y-89451571D01*
X6834285Y-89165857D01*
X6977142Y-89023000D01*
X7120000Y-88951571D01*
X8405714Y-88951571D02*
X8405714Y-90165857D01*
X8477142Y-90308714D01*
X8548571Y-90380142D01*
X8691428Y-90451571D01*
X8977142Y-90451571D01*
X9120000Y-90380142D01*
X9191428Y-90308714D01*
X9262857Y-90165857D01*
X9262857Y-88951571D01*
X9762857Y-88951571D02*
X10620000Y-88951571D01*
X10191428Y-90451571D02*
X10191428Y-88951571D01*
D11*
D12*
X7120000Y-102921571D02*
X7405714Y-102921571D01*
X7548571Y-102993000D01*
X7691428Y-103135857D01*
X7762857Y-103421571D01*
X7762857Y-103921571D01*
X7691428Y-104207285D01*
X7548571Y-104350142D01*
X7405714Y-104421571D01*
X7120000Y-104421571D01*
X6977142Y-104350142D01*
X6834285Y-104207285D01*
X6762857Y-103921571D01*
X6762857Y-103421571D01*
X6834285Y-103135857D01*
X6977142Y-102993000D01*
X7120000Y-102921571D01*
X8405714Y-102921571D02*
X8405714Y-104135857D01*
X8477142Y-104278714D01*
X8548571Y-104350142D01*
X8691428Y-104421571D01*
X8977142Y-104421571D01*
X9120000Y-104350142D01*
X9191428Y-104278714D01*
X9262857Y-104135857D01*
X9262857Y-102921571D01*
X9762857Y-102921571D02*
X10620000Y-102921571D01*
X10191428Y-104421571D02*
X10191428Y-102921571D01*
D11*
D12*
X6191428Y-122836571D02*
X6191428Y-121336571D01*
X6905714Y-122836571D02*
X6905714Y-121336571D01*
X7762857Y-122836571D02*
X7120000Y-121979428D01*
X7762857Y-121336571D02*
X6905714Y-122193714D01*
X9548571Y-122693714D02*
X9620000Y-122765142D01*
X9548571Y-122836571D01*
X9477142Y-122765142D01*
X9548571Y-122693714D01*
X9548571Y-122836571D01*
X9548571Y-121908000D02*
X9620000Y-121979428D01*
X9548571Y-122050857D01*
X9477142Y-121979428D01*
X9548571Y-121908000D01*
X9548571Y-122050857D01*
X10262857Y-122836571D02*
X10262857Y-121336571D01*
X10620000Y-121336571D01*
X10834285Y-121408000D01*
X10977142Y-121550857D01*
X11048571Y-121693714D01*
X11120000Y-121979428D01*
X11120000Y-122193714D01*
X11048571Y-122479428D01*
X10977142Y-122622285D01*
X10834285Y-122765142D01*
X10620000Y-122836571D01*
X10262857Y-122836571D01*
D13*
%TO.P,,*%
%TO.N,*%
X8620000Y-96758000D03*
%TD*%
%TO.P,REF\u002A\u002A,*%
%TO.N,*%
X8620000Y-96758000D03*
%TD*%
%TO.P,REF\u002A\u002A,*%
%TO.N,*%
X8620000Y-110728000D03*
%TD*%
D14*
%TO.P,REF158\u002C4,*%
%TO.N,*%
X8500000Y-126500000D03*
%TD*%
%TO.P,REF\u002A\u002A,*%
%TO.N,*%
X8500000Y-4000000D03*
%TD*%
D13*
%TO.P,REF\u002A\u002A,*%
%TO.N,*%
X8620000Y-68818000D03*
%TD*%
%TO.P,,*%
%TO.N,*%
X8620000Y-82788000D03*
%TD*%
%TO.P,REF\u002A\u002A,*%
%TO.N,*%
X8620000Y-20558000D03*
%TD*%
%TA.AperFunction,NonConductor*%
G36*
X6443380Y-39069508D02*
G01*
X6448485Y-39073910D01*
X6448487Y-39073912D01*
X6454739Y-39079303D01*
X6487908Y-39095319D01*
X6540552Y-39142951D01*
X6559089Y-39211485D01*
X6557053Y-39231499D01*
X6489530Y-39599802D01*
X6433053Y-39907856D01*
X6401095Y-39971253D01*
X6339935Y-40007308D01*
X6268991Y-40004573D01*
X6210787Y-39963918D01*
X6183803Y-39898249D01*
X6183446Y-39876065D01*
X6197329Y-39683696D01*
X6235420Y-39155857D01*
X6260273Y-39089353D01*
X6317136Y-39046843D01*
X6387955Y-39041824D01*
X6443380Y-39069508D01*
G37*
%TD.AperFunction*%
%TA.AperFunction,NonConductor*%
G36*
X10667512Y-39569644D02*
G01*
X10721518Y-39615729D01*
X10742035Y-39683696D01*
X10722549Y-39751967D01*
X10693977Y-39783653D01*
X9966570Y-40356292D01*
X9900673Y-40382712D01*
X9869858Y-40381882D01*
X9220963Y-40284103D01*
X9156583Y-40254174D01*
X9118604Y-40194190D01*
X9119084Y-40123195D01*
X9157870Y-40063730D01*
X9195493Y-40041534D01*
X10387211Y-39594640D01*
X10412577Y-39588039D01*
X10597164Y-39560072D01*
X10667512Y-39569644D01*
G37*
%TD.AperFunction*%
%TA.AperFunction,NonConductor*%
G36*
X6363788Y-40273941D02*
G01*
X6397379Y-40334517D01*
X6400755Y-40349076D01*
X6401202Y-40351080D01*
X6416727Y-40423427D01*
X6419049Y-40427963D01*
X6420200Y-40432925D01*
X6424084Y-40440213D01*
X6424085Y-40440215D01*
X6454991Y-40498203D01*
X6455950Y-40500039D01*
X6489683Y-40565926D01*
X6493100Y-40569706D01*
X6495496Y-40574202D01*
X6495982Y-40574722D01*
X6517221Y-40639147D01*
X6499468Y-40707888D01*
X6447368Y-40756118D01*
X6381796Y-40768928D01*
X6245657Y-40758642D01*
X6179237Y-40733564D01*
X6136919Y-40676558D01*
X6129477Y-40623931D01*
X6148963Y-40353910D01*
X6173816Y-40287405D01*
X6230679Y-40244895D01*
X6301498Y-40239876D01*
X6363788Y-40273941D01*
G37*
%TD.AperFunction*%
%TA.AperFunction,NonConductor*%
G36*
X6443380Y-49229508D02*
G01*
X6448485Y-49233910D01*
X6448487Y-49233912D01*
X6454739Y-49239303D01*
X6487908Y-49255319D01*
X6540552Y-49302951D01*
X6559089Y-49371485D01*
X6557053Y-49391499D01*
X6489530Y-49759802D01*
X6433053Y-50067856D01*
X6401095Y-50131253D01*
X6339935Y-50167308D01*
X6268991Y-50164573D01*
X6210787Y-50123918D01*
X6183803Y-50058249D01*
X6183446Y-50036065D01*
X6197329Y-49843696D01*
X6235420Y-49315857D01*
X6260273Y-49249353D01*
X6317136Y-49206843D01*
X6387955Y-49201824D01*
X6443380Y-49229508D01*
G37*
%TD.AperFunction*%
%TA.AperFunction,NonConductor*%
G36*
X10667512Y-49729644D02*
G01*
X10721518Y-49775729D01*
X10742035Y-49843696D01*
X10722549Y-49911967D01*
X10693977Y-49943653D01*
X9966570Y-50516292D01*
X9900673Y-50542712D01*
X9869858Y-50541882D01*
X9220963Y-50444103D01*
X9156583Y-50414174D01*
X9118604Y-50354190D01*
X9119084Y-50283195D01*
X9157870Y-50223730D01*
X9195493Y-50201534D01*
X10387211Y-49754640D01*
X10412577Y-49748039D01*
X10597164Y-49720072D01*
X10667512Y-49729644D01*
G37*
%TD.AperFunction*%
%TA.AperFunction,NonConductor*%
G36*
X6363788Y-50433941D02*
G01*
X6397379Y-50494517D01*
X6400755Y-50509076D01*
X6401202Y-50511080D01*
X6416727Y-50583427D01*
X6419049Y-50587963D01*
X6420200Y-50592925D01*
X6424084Y-50600213D01*
X6424085Y-50600215D01*
X6454991Y-50658203D01*
X6455950Y-50660039D01*
X6489683Y-50725926D01*
X6493100Y-50729706D01*
X6495496Y-50734202D01*
X6495982Y-50734722D01*
X6517221Y-50799147D01*
X6499468Y-50867888D01*
X6447368Y-50916118D01*
X6381796Y-50928928D01*
X6245657Y-50918642D01*
X6179237Y-50893564D01*
X6136919Y-50836558D01*
X6129477Y-50783931D01*
X6148963Y-50513910D01*
X6173816Y-50447405D01*
X6230679Y-50404895D01*
X6301498Y-50399876D01*
X6363788Y-50433941D01*
G37*
%TD.AperFunction*%
%TA.AperFunction,NonConductor*%
G36*
X6443380Y-59389508D02*
G01*
X6448485Y-59393910D01*
X6448487Y-59393912D01*
X6454739Y-59399303D01*
X6487908Y-59415319D01*
X6540552Y-59462951D01*
X6559089Y-59531485D01*
X6557053Y-59551499D01*
X6489530Y-59919802D01*
X6433053Y-60227856D01*
X6401095Y-60291253D01*
X6339935Y-60327308D01*
X6268991Y-60324573D01*
X6210787Y-60283918D01*
X6183803Y-60218249D01*
X6183446Y-60196065D01*
X6197329Y-60003696D01*
X6235420Y-59475857D01*
X6260273Y-59409353D01*
X6317136Y-59366843D01*
X6387955Y-59361824D01*
X6443380Y-59389508D01*
G37*
%TD.AperFunction*%
%TA.AperFunction,NonConductor*%
G36*
X10667512Y-59889644D02*
G01*
X10721518Y-59935729D01*
X10742035Y-60003696D01*
X10722549Y-60071967D01*
X10693977Y-60103653D01*
X9966570Y-60676292D01*
X9900673Y-60702712D01*
X9869858Y-60701882D01*
X9220963Y-60604103D01*
X9156583Y-60574174D01*
X9118604Y-60514190D01*
X9119084Y-60443195D01*
X9157870Y-60383730D01*
X9195493Y-60361534D01*
X10387211Y-59914640D01*
X10412577Y-59908039D01*
X10597164Y-59880072D01*
X10667512Y-59889644D01*
G37*
%TD.AperFunction*%
%TA.AperFunction,NonConductor*%
G36*
X6363788Y-60593941D02*
G01*
X6397379Y-60654517D01*
X6400755Y-60669076D01*
X6401202Y-60671080D01*
X6416727Y-60743427D01*
X6419049Y-60747963D01*
X6420200Y-60752925D01*
X6424084Y-60760213D01*
X6424085Y-60760215D01*
X6454991Y-60818203D01*
X6455950Y-60820039D01*
X6489683Y-60885926D01*
X6493100Y-60889706D01*
X6495496Y-60894202D01*
X6495982Y-60894722D01*
X6517221Y-60959147D01*
X6499468Y-61027888D01*
X6447368Y-61076118D01*
X6381796Y-61088928D01*
X6245657Y-61078642D01*
X6179237Y-61053564D01*
X6136919Y-60996558D01*
X6129477Y-60943931D01*
X6148963Y-60673910D01*
X6173816Y-60607405D01*
X6230679Y-60564895D01*
X6301498Y-60559876D01*
X6363788Y-60593941D01*
G37*
%TD.AperFunction*%
%TA.AperFunction,NonConductor*%
G36*
X15594121Y-1528002D02*
G01*
X15640614Y-1581658D01*
X15652000Y-1634000D01*
X15652000Y-128866000D01*
X15631998Y-128934121D01*
X15578342Y-128980614D01*
X15526000Y-128992000D01*
X1634000Y-128992000D01*
X1565879Y-128971998D01*
X1519386Y-128918342D01*
X1508000Y-128866000D01*
X1508000Y-124473500D01*
X5026286Y-124473500D01*
X7324281Y-124473500D01*
X7392402Y-124493502D01*
X7438895Y-124547158D01*
X7448999Y-124617432D01*
X7419505Y-124682012D01*
X7388987Y-124707616D01*
X7297521Y-124762357D01*
X7297517Y-124762360D01*
X7293839Y-124764561D01*
X7069472Y-124944313D01*
X6871577Y-125152851D01*
X6703814Y-125386317D01*
X6569288Y-125640392D01*
X6470489Y-125910373D01*
X6409245Y-126191264D01*
X6386689Y-126477869D01*
X6403238Y-126764883D01*
X6404063Y-126769088D01*
X6404064Y-126769096D01*
X6436010Y-126931921D01*
X6458586Y-127046995D01*
X6459973Y-127051045D01*
X6459974Y-127051050D01*
X6550321Y-127314930D01*
X6551710Y-127318986D01*
X6680885Y-127575822D01*
X6843721Y-127812750D01*
X7037206Y-128025388D01*
X7040501Y-128028143D01*
X7040502Y-128028144D01*
X7091258Y-128070582D01*
X7257759Y-128209798D01*
X7501298Y-128362571D01*
X7763318Y-128480877D01*
X7767437Y-128482097D01*
X8034857Y-128561311D01*
X8034862Y-128561312D01*
X8038970Y-128562529D01*
X8043204Y-128563177D01*
X8043209Y-128563178D01*
X8291811Y-128601219D01*
X8323153Y-128606015D01*
X8469485Y-128608314D01*
X8606317Y-128610464D01*
X8606323Y-128610464D01*
X8610608Y-128610531D01*
X8614860Y-128610016D01*
X8614868Y-128610016D01*
X8891756Y-128576508D01*
X8891761Y-128576507D01*
X8896017Y-128575992D01*
X9174097Y-128503039D01*
X9439704Y-128393021D01*
X9687922Y-128247974D01*
X9914159Y-128070582D01*
X9955285Y-128028144D01*
X10111244Y-127867206D01*
X10114227Y-127864128D01*
X10116760Y-127860680D01*
X10116764Y-127860675D01*
X10281887Y-127635886D01*
X10284425Y-127632431D01*
X10421604Y-127379779D01*
X10523225Y-127110848D01*
X10587407Y-126830613D01*
X10612963Y-126544260D01*
X10613427Y-126500000D01*
X10593873Y-126213175D01*
X10589336Y-126191264D01*
X10536443Y-125935855D01*
X10535574Y-125931658D01*
X10439607Y-125660657D01*
X10307750Y-125405188D01*
X10294488Y-125386317D01*
X10144904Y-125173482D01*
X10142441Y-125169977D01*
X9946740Y-124959378D01*
X9724268Y-124777287D01*
X9609461Y-124706933D01*
X9561830Y-124654285D01*
X9550223Y-124584244D01*
X9578326Y-124519046D01*
X9637217Y-124479392D01*
X9675296Y-124473500D01*
X12213715Y-124473500D01*
X12213715Y-119842500D01*
X11696857Y-119842500D01*
X11628736Y-119822498D01*
X11582243Y-119768842D01*
X11570857Y-119716500D01*
X11570857Y-115397500D01*
X5669143Y-115397500D01*
X5669143Y-119716500D01*
X5649141Y-119784621D01*
X5595485Y-119831114D01*
X5543143Y-119842500D01*
X5026286Y-119842500D01*
X5026286Y-124473500D01*
X1508000Y-124473500D01*
X1508000Y-110728000D01*
X4906411Y-110728000D01*
X4926754Y-111116176D01*
X4987562Y-111500099D01*
X5088167Y-111875562D01*
X5227468Y-112238453D01*
X5403938Y-112584794D01*
X5615643Y-112910793D01*
X5860266Y-113212876D01*
X6135124Y-113487734D01*
X6437207Y-113732357D01*
X6763205Y-113944062D01*
X6766139Y-113945557D01*
X6766146Y-113945561D01*
X7106607Y-114119034D01*
X7109547Y-114120532D01*
X7472438Y-114259833D01*
X7847901Y-114360438D01*
X8051793Y-114392732D01*
X8228576Y-114420732D01*
X8228584Y-114420733D01*
X8231824Y-114421246D01*
X8620000Y-114441589D01*
X9008176Y-114421246D01*
X9011416Y-114420733D01*
X9011424Y-114420732D01*
X9188207Y-114392732D01*
X9392099Y-114360438D01*
X9767562Y-114259833D01*
X10130453Y-114120532D01*
X10133393Y-114119034D01*
X10473854Y-113945561D01*
X10473861Y-113945557D01*
X10476795Y-113944062D01*
X10802793Y-113732357D01*
X11104876Y-113487734D01*
X11379734Y-113212876D01*
X11624357Y-112910793D01*
X11836062Y-112584794D01*
X12012532Y-112238453D01*
X12151833Y-111875562D01*
X12252438Y-111500099D01*
X12313246Y-111116176D01*
X12333589Y-110728000D01*
X12313246Y-110339824D01*
X12252438Y-109955901D01*
X12151833Y-109580438D01*
X12012532Y-109217547D01*
X11836062Y-108871206D01*
X11624357Y-108545207D01*
X11379734Y-108243124D01*
X11104876Y-107968266D01*
X10802793Y-107723643D01*
X10476795Y-107511938D01*
X10473861Y-107510443D01*
X10473854Y-107510439D01*
X10133393Y-107336966D01*
X10130453Y-107335468D01*
X9767562Y-107196167D01*
X9392099Y-107095562D01*
X9188207Y-107063268D01*
X9011424Y-107035268D01*
X9011416Y-107035267D01*
X9008176Y-107034754D01*
X8620000Y-107014411D01*
X8231824Y-107034754D01*
X8228584Y-107035267D01*
X8228576Y-107035268D01*
X8051793Y-107063268D01*
X7847901Y-107095562D01*
X7472438Y-107196167D01*
X7109547Y-107335468D01*
X7106607Y-107336966D01*
X6766147Y-107510439D01*
X6766140Y-107510443D01*
X6763206Y-107511938D01*
X6437207Y-107723643D01*
X6135124Y-107968266D01*
X5860266Y-108243124D01*
X5615643Y-108545207D01*
X5403938Y-108871206D01*
X5227468Y-109217547D01*
X5088167Y-109580438D01*
X4987562Y-109955901D01*
X4926754Y-110339824D01*
X4906411Y-110728000D01*
X1508000Y-110728000D01*
X1508000Y-106058500D01*
X5669143Y-106058500D01*
X11570857Y-106058500D01*
X11570857Y-101427500D01*
X5669143Y-101427500D01*
X5669143Y-106058500D01*
X1508000Y-106058500D01*
X1508000Y-96758000D01*
X4906411Y-96758000D01*
X4926754Y-97146176D01*
X4987562Y-97530099D01*
X5088167Y-97905562D01*
X5227468Y-98268453D01*
X5403938Y-98614794D01*
X5615643Y-98940793D01*
X5860266Y-99242876D01*
X6135124Y-99517734D01*
X6437207Y-99762357D01*
X6763205Y-99974062D01*
X6766139Y-99975557D01*
X6766146Y-99975561D01*
X7106607Y-100149034D01*
X7109547Y-100150532D01*
X7472438Y-100289833D01*
X7847901Y-100390438D01*
X8051793Y-100422732D01*
X8228576Y-100450732D01*
X8228584Y-100450733D01*
X8231824Y-100451246D01*
X8620000Y-100471589D01*
X9008176Y-100451246D01*
X9011416Y-100450733D01*
X9011424Y-100450732D01*
X9188207Y-100422732D01*
X9392099Y-100390438D01*
X9767562Y-100289833D01*
X10130453Y-100150532D01*
X10133393Y-100149034D01*
X10473854Y-99975561D01*
X10473861Y-99975557D01*
X10476795Y-99974062D01*
X10802793Y-99762357D01*
X11104876Y-99517734D01*
X11379734Y-99242876D01*
X11624357Y-98940793D01*
X11836062Y-98614794D01*
X12012532Y-98268453D01*
X12151833Y-97905562D01*
X12252438Y-97530099D01*
X12313246Y-97146176D01*
X12333589Y-96758000D01*
X12313246Y-96369824D01*
X12252438Y-95985901D01*
X12151833Y-95610438D01*
X12012532Y-95247547D01*
X11836062Y-94901206D01*
X11624357Y-94575207D01*
X11379734Y-94273124D01*
X11104876Y-93998266D01*
X10802793Y-93753643D01*
X10476795Y-93541938D01*
X10473861Y-93540443D01*
X10473854Y-93540439D01*
X10133393Y-93366966D01*
X10130453Y-93365468D01*
X9767562Y-93226167D01*
X9392099Y-93125562D01*
X9188207Y-93093268D01*
X9011424Y-93065268D01*
X9011416Y-93065267D01*
X9008176Y-93064754D01*
X8620000Y-93044411D01*
X8231824Y-93064754D01*
X8228584Y-93065267D01*
X8228576Y-93065268D01*
X8051793Y-93093268D01*
X7847901Y-93125562D01*
X7472438Y-93226167D01*
X7109547Y-93365468D01*
X7106607Y-93366966D01*
X6766147Y-93540439D01*
X6766140Y-93540443D01*
X6763206Y-93541938D01*
X6437207Y-93753643D01*
X6135124Y-93998266D01*
X5860266Y-94273124D01*
X5615643Y-94575207D01*
X5403938Y-94901206D01*
X5227468Y-95247547D01*
X5088167Y-95610438D01*
X4987562Y-95985901D01*
X4926754Y-96369824D01*
X4906411Y-96758000D01*
X1508000Y-96758000D01*
X1508000Y-92088500D01*
X5669143Y-92088500D01*
X11570857Y-92088500D01*
X11570857Y-87457500D01*
X5669143Y-87457500D01*
X5669143Y-92088500D01*
X1508000Y-92088500D01*
X1508000Y-82788000D01*
X4906411Y-82788000D01*
X4926754Y-83176176D01*
X4987562Y-83560099D01*
X5088167Y-83935562D01*
X5227468Y-84298453D01*
X5403938Y-84644794D01*
X5615643Y-84970793D01*
X5860266Y-85272876D01*
X6135124Y-85547734D01*
X6437207Y-85792357D01*
X6763205Y-86004062D01*
X6766139Y-86005557D01*
X6766146Y-86005561D01*
X7106607Y-86179034D01*
X7109547Y-86180532D01*
X7472438Y-86319833D01*
X7847901Y-86420438D01*
X8051793Y-86452732D01*
X8228576Y-86480732D01*
X8228584Y-86480733D01*
X8231824Y-86481246D01*
X8620000Y-86501589D01*
X9008176Y-86481246D01*
X9011416Y-86480733D01*
X9011424Y-86480732D01*
X9188207Y-86452732D01*
X9392099Y-86420438D01*
X9767562Y-86319833D01*
X10130453Y-86180532D01*
X10133393Y-86179034D01*
X10473854Y-86005561D01*
X10473861Y-86005557D01*
X10476795Y-86004062D01*
X10802793Y-85792357D01*
X11104876Y-85547734D01*
X11379734Y-85272876D01*
X11624357Y-84970793D01*
X11836062Y-84644794D01*
X12012532Y-84298453D01*
X12151833Y-83935562D01*
X12252438Y-83560099D01*
X12313246Y-83176176D01*
X12333589Y-82788000D01*
X12313246Y-82399824D01*
X12252438Y-82015901D01*
X12151833Y-81640438D01*
X12012532Y-81277547D01*
X11836062Y-80931206D01*
X11624357Y-80605207D01*
X11379734Y-80303124D01*
X11104876Y-80028266D01*
X10802793Y-79783643D01*
X10476795Y-79571938D01*
X10473861Y-79570443D01*
X10473854Y-79570439D01*
X10133393Y-79396966D01*
X10130453Y-79395468D01*
X9767562Y-79256167D01*
X9392099Y-79155562D01*
X9188207Y-79123268D01*
X9011424Y-79095268D01*
X9011416Y-79095267D01*
X9008176Y-79094754D01*
X8620000Y-79074411D01*
X8231824Y-79094754D01*
X8228584Y-79095267D01*
X8228576Y-79095268D01*
X8051793Y-79123268D01*
X7847901Y-79155562D01*
X7472438Y-79256167D01*
X7109547Y-79395468D01*
X7106607Y-79396966D01*
X6766147Y-79570439D01*
X6766140Y-79570443D01*
X6763206Y-79571938D01*
X6437207Y-79783643D01*
X6135124Y-80028266D01*
X5860266Y-80303124D01*
X5615643Y-80605207D01*
X5403938Y-80931206D01*
X5227468Y-81277547D01*
X5088167Y-81640438D01*
X4987562Y-82015901D01*
X4926754Y-82399824D01*
X4906411Y-82788000D01*
X1508000Y-82788000D01*
X1508000Y-78118500D01*
X5669143Y-78118500D01*
X11570857Y-78118500D01*
X11570857Y-73487500D01*
X5669143Y-73487500D01*
X5669143Y-78118500D01*
X1508000Y-78118500D01*
X1508000Y-68818000D01*
X4906411Y-68818000D01*
X4926754Y-69206176D01*
X4987562Y-69590099D01*
X5088167Y-69965562D01*
X5227468Y-70328453D01*
X5403938Y-70674794D01*
X5615643Y-71000793D01*
X5860266Y-71302876D01*
X6135124Y-71577734D01*
X6437207Y-71822357D01*
X6763205Y-72034062D01*
X6766139Y-72035557D01*
X6766146Y-72035561D01*
X7106607Y-72209034D01*
X7109547Y-72210532D01*
X7472438Y-72349833D01*
X7847901Y-72450438D01*
X8051793Y-72482732D01*
X8228576Y-72510732D01*
X8228584Y-72510733D01*
X8231824Y-72511246D01*
X8620000Y-72531589D01*
X9008176Y-72511246D01*
X9011416Y-72510733D01*
X9011424Y-72510732D01*
X9188207Y-72482732D01*
X9392099Y-72450438D01*
X9767562Y-72349833D01*
X10130453Y-72210532D01*
X10133393Y-72209034D01*
X10473854Y-72035561D01*
X10473861Y-72035557D01*
X10476795Y-72034062D01*
X10802793Y-71822357D01*
X11104876Y-71577734D01*
X11379734Y-71302876D01*
X11624357Y-71000793D01*
X11836062Y-70674794D01*
X12012532Y-70328453D01*
X12151833Y-69965562D01*
X12252438Y-69590099D01*
X12313246Y-69206176D01*
X12333589Y-68818000D01*
X12313246Y-68429824D01*
X12252438Y-68045901D01*
X12151833Y-67670438D01*
X12012532Y-67307547D01*
X11836062Y-66961206D01*
X11624357Y-66635207D01*
X11379734Y-66333124D01*
X11104876Y-66058266D01*
X10802793Y-65813643D01*
X10476795Y-65601938D01*
X10473861Y-65600443D01*
X10473854Y-65600439D01*
X10133393Y-65426966D01*
X10130453Y-65425468D01*
X9767562Y-65286167D01*
X9392099Y-65185562D01*
X9188207Y-65153268D01*
X9011424Y-65125268D01*
X9011416Y-65125267D01*
X9008176Y-65124754D01*
X8620000Y-65104411D01*
X8231824Y-65124754D01*
X8228584Y-65125267D01*
X8228576Y-65125268D01*
X8051793Y-65153268D01*
X7847901Y-65185562D01*
X7472438Y-65286167D01*
X7109547Y-65425468D01*
X7106607Y-65426966D01*
X6766147Y-65600439D01*
X6766140Y-65600443D01*
X6763206Y-65601938D01*
X6437207Y-65813643D01*
X6135124Y-66058266D01*
X5860266Y-66333124D01*
X5615643Y-66635207D01*
X5403938Y-66961206D01*
X5227468Y-67307547D01*
X5088167Y-67670438D01*
X4987562Y-68045901D01*
X4926754Y-68429824D01*
X4906411Y-68818000D01*
X1508000Y-68818000D01*
X1508000Y-61583598D01*
X4858897Y-61583598D01*
X4860868Y-61619075D01*
X4861147Y-61624106D01*
X4861168Y-61624964D01*
X4861109Y-61625781D01*
X4861244Y-61628068D01*
X4863379Y-61664315D01*
X4863403Y-61664736D01*
X4867775Y-61743441D01*
X4868101Y-61744433D01*
X4868162Y-61745472D01*
X4893052Y-61820417D01*
X4917721Y-61895539D01*
X4918291Y-61896411D01*
X4918620Y-61897401D01*
X4962069Y-61963363D01*
X5005332Y-62029528D01*
X5006110Y-62030224D01*
X5006683Y-62031094D01*
X5012687Y-62036429D01*
X5012688Y-62036431D01*
X5065613Y-62083466D01*
X5065930Y-62083749D01*
X5118664Y-62130934D01*
X5118671Y-62130939D01*
X5124636Y-62136276D01*
X5125567Y-62136747D01*
X5126346Y-62137439D01*
X5133498Y-62141025D01*
X5133500Y-62141026D01*
X5196958Y-62172841D01*
X5267503Y-62208508D01*
X5268524Y-62208722D01*
X5269456Y-62209189D01*
X5277291Y-62210801D01*
X5277293Y-62210802D01*
X5314806Y-62218521D01*
X5346614Y-62225066D01*
X5346812Y-62225107D01*
X5382581Y-62232594D01*
X5382603Y-62232598D01*
X5384859Y-62233070D01*
X5385681Y-62233132D01*
X5386527Y-62233279D01*
X5426260Y-62241455D01*
X5456897Y-62239650D01*
X5473794Y-62239790D01*
X10042318Y-62584967D01*
X11065036Y-62662239D01*
X11079129Y-62664759D01*
X11079138Y-62664700D01*
X11087309Y-62665914D01*
X11095246Y-62668183D01*
X11153711Y-62669156D01*
X11161101Y-62669497D01*
X11175201Y-62670563D01*
X11175212Y-62670563D01*
X11179326Y-62670874D01*
X11183449Y-62670645D01*
X11183454Y-62670645D01*
X11192678Y-62670133D01*
X11201758Y-62669956D01*
X11247063Y-62670710D01*
X11247066Y-62670710D01*
X11255314Y-62670847D01*
X11263318Y-62668844D01*
X11263322Y-62668844D01*
X11265232Y-62668366D01*
X11288831Y-62664792D01*
X11299041Y-62664225D01*
X11349942Y-62647510D01*
X11358668Y-62644990D01*
X11410617Y-62631993D01*
X11417840Y-62627982D01*
X11419558Y-62627028D01*
X11441420Y-62617471D01*
X11443291Y-62616857D01*
X11443295Y-62616855D01*
X11451139Y-62614279D01*
X11495968Y-62584967D01*
X11503747Y-62580272D01*
X11543351Y-62558277D01*
X11543352Y-62558276D01*
X11550571Y-62554267D01*
X11557925Y-62547153D01*
X11576564Y-62532267D01*
X11585127Y-62526668D01*
X11620836Y-62486759D01*
X11627122Y-62480222D01*
X11636751Y-62470909D01*
X11648132Y-62456577D01*
X11652893Y-62450931D01*
X11686373Y-62413515D01*
X11686375Y-62413511D01*
X11691876Y-62407364D01*
X11695599Y-62400000D01*
X11700259Y-62393174D01*
X11700308Y-62393208D01*
X11708029Y-62381151D01*
X11820287Y-62239790D01*
X12306133Y-61627983D01*
X12321758Y-61611582D01*
X12325919Y-61607935D01*
X12325922Y-61607932D01*
X12332131Y-61602490D01*
X12359931Y-61560914D01*
X12365999Y-61552597D01*
X12369544Y-61548133D01*
X12369546Y-61548130D01*
X12372111Y-61544900D01*
X12383333Y-61526190D01*
X12386637Y-61520977D01*
X12416525Y-61476277D01*
X12416527Y-61476274D01*
X12421116Y-61469410D01*
X12423773Y-61461592D01*
X12426806Y-61455446D01*
X12429534Y-61449159D01*
X12433781Y-61442077D01*
X12450822Y-61382465D01*
X12452669Y-61376556D01*
X12469967Y-61325652D01*
X12472624Y-61317834D01*
X12473167Y-61309594D01*
X12474508Y-61302864D01*
X12475514Y-61296090D01*
X12477783Y-61288154D01*
X12478815Y-61226136D01*
X12479069Y-61219978D01*
X12480504Y-61198194D01*
X12480177Y-61193183D01*
X12479865Y-61188387D01*
X12479615Y-61178095D01*
X12480310Y-61136338D01*
X12480310Y-61136336D01*
X12480447Y-61128087D01*
X12478445Y-61120083D01*
X12478444Y-61120078D01*
X12477100Y-61114707D01*
X12473600Y-61092328D01*
X12402091Y-59995858D01*
X12401976Y-59993843D01*
X12400790Y-59969706D01*
X12398337Y-59919802D01*
X12386762Y-59883780D01*
X12383134Y-59869775D01*
X12377372Y-59840761D01*
X12375765Y-59832667D01*
X12364257Y-59809311D01*
X12357328Y-59792180D01*
X12349361Y-59767389D01*
X12328859Y-59735593D01*
X12321729Y-59723002D01*
X12308657Y-59696472D01*
X12308654Y-59696468D01*
X12305006Y-59689064D01*
X12256105Y-59633267D01*
X12254838Y-59631797D01*
X11585611Y-58843066D01*
X11573815Y-58826659D01*
X11567230Y-58815750D01*
X11562961Y-58808677D01*
X11532070Y-58778966D01*
X11527171Y-58773752D01*
X11527161Y-58773762D01*
X11524296Y-58770802D01*
X11521625Y-58767654D01*
X11518569Y-58764884D01*
X11518558Y-58764873D01*
X11500172Y-58748211D01*
X11497457Y-58745677D01*
X11447577Y-58697703D01*
X11440660Y-58693887D01*
X11438639Y-58692443D01*
X11432784Y-58687137D01*
X11371271Y-58655542D01*
X11367983Y-58653791D01*
X11314642Y-58624365D01*
X11307404Y-58620372D01*
X11299729Y-58618475D01*
X11297414Y-58617608D01*
X11290381Y-58613996D01*
X11282311Y-58612253D01*
X11282310Y-58612253D01*
X11222781Y-58599398D01*
X11219166Y-58598561D01*
X11151992Y-58581957D01*
X11144083Y-58582111D01*
X11141627Y-58581873D01*
X11133898Y-58580204D01*
X11125655Y-58580609D01*
X11125653Y-58580609D01*
X11064803Y-58583600D01*
X11061072Y-58583728D01*
X11046618Y-58584010D01*
X11032116Y-58584292D01*
X11028040Y-58584910D01*
X11023923Y-58585260D01*
X11023922Y-58585247D01*
X11016804Y-58585959D01*
X11001926Y-58586691D01*
X10982255Y-58587657D01*
X10982252Y-58587658D01*
X10974002Y-58588063D01*
X10954210Y-58594423D01*
X10954008Y-58594488D01*
X10934337Y-58599107D01*
X10221583Y-58707099D01*
X10198438Y-58708449D01*
X10194480Y-58708315D01*
X10194479Y-58708315D01*
X10186226Y-58708035D01*
X10178185Y-58709900D01*
X10178182Y-58709900D01*
X10156747Y-58714871D01*
X10135972Y-58719689D01*
X10126391Y-58721522D01*
X10119200Y-58722611D01*
X10119187Y-58722614D01*
X10115121Y-58723230D01*
X10095629Y-58728862D01*
X10089179Y-58730540D01*
X10069427Y-58735121D01*
X10065558Y-58736572D01*
X10058768Y-58739118D01*
X10049500Y-58742190D01*
X10007866Y-58754219D01*
X10007864Y-58754220D01*
X9999934Y-58756511D01*
X9990271Y-58762344D01*
X9989470Y-58762827D01*
X9968602Y-58772930D01*
X7994292Y-59513296D01*
X7923485Y-59518487D01*
X7861113Y-59484572D01*
X7826977Y-59422320D01*
X7826116Y-59372600D01*
X7865588Y-59157299D01*
X7868277Y-59145735D01*
X7878391Y-59109971D01*
X7878392Y-59109964D01*
X7880638Y-59102022D01*
X7881556Y-59035426D01*
X7881704Y-59030818D01*
X7884645Y-58972548D01*
X7884645Y-58972546D01*
X7885061Y-58964299D01*
X7875530Y-58919885D01*
X7873590Y-58908180D01*
X7864000Y-58826659D01*
X7718420Y-57589228D01*
X7730326Y-57519237D01*
X7778182Y-57466793D01*
X7841384Y-57448525D01*
X8120490Y-57443713D01*
X8424969Y-57438464D01*
X8435469Y-57438803D01*
X8442803Y-57440388D01*
X8451051Y-57439984D01*
X8451052Y-57439984D01*
X8467464Y-57439180D01*
X8511133Y-57437040D01*
X8515077Y-57436910D01*
X8543322Y-57436423D01*
X8547408Y-57435813D01*
X8549583Y-57435633D01*
X8559147Y-57434688D01*
X8580212Y-57433656D01*
X8602701Y-57432554D01*
X8610566Y-57430028D01*
X8621963Y-57426368D01*
X8641891Y-57421713D01*
X8642740Y-57421586D01*
X8661908Y-57418726D01*
X8669480Y-57415435D01*
X8669482Y-57415435D01*
X8701913Y-57401342D01*
X8713600Y-57396938D01*
X8747264Y-57386126D01*
X8747263Y-57386126D01*
X8755123Y-57383602D01*
X8772125Y-57372643D01*
X8790174Y-57362987D01*
X8801159Y-57358214D01*
X8801163Y-57358211D01*
X8808733Y-57354922D01*
X8826988Y-57340407D01*
X8842868Y-57327782D01*
X8853018Y-57320503D01*
X8882738Y-57301345D01*
X8889681Y-57296870D01*
X8903278Y-57281872D01*
X8918204Y-57267882D01*
X8927576Y-57260430D01*
X8934041Y-57255290D01*
X8938957Y-57248650D01*
X8959992Y-57220237D01*
X8967909Y-57210582D01*
X8991661Y-57184382D01*
X8991663Y-57184380D01*
X8997206Y-57178265D01*
X9006454Y-57160267D01*
X9017253Y-57142887D01*
X9024378Y-57133262D01*
X9029294Y-57126622D01*
X9045288Y-57086044D01*
X9050438Y-57074667D01*
X9066596Y-57043220D01*
X9066596Y-57043219D01*
X9070371Y-57035873D01*
X9072115Y-57027802D01*
X9072117Y-57027797D01*
X9074647Y-57016091D01*
X9080580Y-56996505D01*
X9084969Y-56985370D01*
X9084969Y-56985369D01*
X9087998Y-56977685D01*
X9092945Y-56934352D01*
X9094975Y-56922029D01*
X9102444Y-56887467D01*
X9104188Y-56879397D01*
X9103198Y-56859184D01*
X9103860Y-56838732D01*
X9105219Y-56826830D01*
X9105219Y-56826829D01*
X9106155Y-56818628D01*
X9099717Y-56775489D01*
X9098775Y-56765962D01*
X9098523Y-56763766D01*
X9098321Y-56759642D01*
X9097584Y-56755590D01*
X9097583Y-56755579D01*
X9093273Y-56731876D01*
X9092620Y-56727932D01*
X9092076Y-56724282D01*
X9085410Y-56679615D01*
X9083746Y-56668463D01*
X9083745Y-56668459D01*
X9082526Y-56660292D01*
X9079535Y-56653410D01*
X9077147Y-56643186D01*
X9014339Y-56297741D01*
X9021833Y-56227140D01*
X9039138Y-56197474D01*
X9176856Y-56021765D01*
X9184619Y-56012768D01*
X9185446Y-56011896D01*
X9191865Y-56006698D01*
X9231036Y-55952773D01*
X9233785Y-55949131D01*
X9250111Y-55928302D01*
X9252752Y-55923834D01*
X9259275Y-55913901D01*
X9281101Y-55883855D01*
X9285953Y-55877176D01*
X9292566Y-55859945D01*
X9301735Y-55840971D01*
X9306923Y-55832195D01*
X9306923Y-55832194D01*
X9311124Y-55825088D01*
X9318082Y-55800151D01*
X9323320Y-55781374D01*
X9327050Y-55770089D01*
X9340353Y-55735425D01*
X9343312Y-55727715D01*
X9345240Y-55709359D01*
X9349186Y-55688664D01*
X9351924Y-55678849D01*
X9354145Y-55670889D01*
X9354611Y-55625517D01*
X9355293Y-55613649D01*
X9359172Y-55576718D01*
X9360035Y-55568502D01*
X9357145Y-55550262D01*
X9355600Y-55529257D01*
X9355704Y-55519069D01*
X9355789Y-55510807D01*
X9353735Y-55502812D01*
X9353734Y-55502807D01*
X9344495Y-55466852D01*
X9342084Y-55455216D01*
X9336272Y-55418542D01*
X9334980Y-55410386D01*
X9327471Y-55393524D01*
X9320539Y-55373625D01*
X9318003Y-55363757D01*
X9315947Y-55355755D01*
X9293660Y-55316221D01*
X9288316Y-55305599D01*
X9287887Y-55304636D01*
X9286204Y-55300856D01*
X9272372Y-55278288D01*
X9270047Y-55274333D01*
X9237331Y-55216299D01*
X9231555Y-55210403D01*
X9230837Y-55209447D01*
X9224157Y-55199621D01*
X9039748Y-54898744D01*
X8812982Y-54528758D01*
X8804001Y-54511132D01*
X8798648Y-54498207D01*
X8798645Y-54498203D01*
X8795487Y-54490577D01*
X8790163Y-54483638D01*
X8770160Y-54457571D01*
X8766569Y-54452346D01*
X8766497Y-54452397D01*
X8764114Y-54449025D01*
X8761959Y-54445509D01*
X8759367Y-54442308D01*
X8759363Y-54442303D01*
X8742935Y-54422020D01*
X8740888Y-54419423D01*
X8703056Y-54370120D01*
X8698030Y-54363570D01*
X8691617Y-54358649D01*
X8691589Y-54358622D01*
X8686497Y-54352335D01*
X8629493Y-54310925D01*
X8626910Y-54308996D01*
X8571023Y-54266113D01*
X8563546Y-54263016D01*
X8563524Y-54263003D01*
X8556976Y-54258247D01*
X8491258Y-54233027D01*
X8488185Y-54231801D01*
X8423120Y-54204850D01*
X8415098Y-54203794D01*
X8415065Y-54203786D01*
X8407515Y-54200888D01*
X8337467Y-54193531D01*
X8334237Y-54193148D01*
X8304247Y-54189200D01*
X8300124Y-54189200D01*
X8296006Y-54188930D01*
X8296012Y-54188843D01*
X8289678Y-54188511D01*
X8256517Y-54185028D01*
X8248301Y-54184165D01*
X8240142Y-54185458D01*
X8240140Y-54185458D01*
X8226328Y-54187647D01*
X8206607Y-54189200D01*
X6441587Y-54189200D01*
X6422206Y-54187700D01*
X6407392Y-54185394D01*
X6407385Y-54185394D01*
X6399228Y-54184124D01*
X6391017Y-54185009D01*
X6358868Y-54188474D01*
X6353184Y-54188780D01*
X6353194Y-54188930D01*
X6349075Y-54189200D01*
X6344953Y-54189200D01*
X6313960Y-54193280D01*
X6311159Y-54193616D01*
X6240061Y-54201279D01*
X6233282Y-54203902D01*
X6226080Y-54204850D01*
X6218448Y-54208011D01*
X6218449Y-54208011D01*
X6160089Y-54232184D01*
X6157338Y-54233286D01*
X6090757Y-54259047D01*
X6084893Y-54263331D01*
X6078177Y-54266113D01*
X6021517Y-54309591D01*
X6019166Y-54311351D01*
X5969713Y-54347481D01*
X5961492Y-54353487D01*
X5956932Y-54359148D01*
X5951170Y-54363570D01*
X5946147Y-54370116D01*
X5946146Y-54370117D01*
X5907697Y-54420224D01*
X5905882Y-54422533D01*
X5861075Y-54478167D01*
X5858139Y-54484810D01*
X5853713Y-54490577D01*
X5850553Y-54498207D01*
X5850551Y-54498211D01*
X5826379Y-54556567D01*
X5825212Y-54559292D01*
X5814272Y-54584041D01*
X5812598Y-54587828D01*
X5811434Y-54591796D01*
X5810019Y-54595664D01*
X5809878Y-54595613D01*
X5807986Y-54600975D01*
X5792450Y-54638480D01*
X5791372Y-54646667D01*
X5791371Y-54646671D01*
X5789415Y-54661531D01*
X5785400Y-54680548D01*
X5296284Y-56347989D01*
X5261162Y-56467722D01*
X5252895Y-56488721D01*
X5246611Y-56501256D01*
X5244947Y-56509344D01*
X5236579Y-56550010D01*
X5234069Y-56560085D01*
X5232530Y-56565330D01*
X5232528Y-56565339D01*
X5231366Y-56569300D01*
X5227970Y-56591111D01*
X5226891Y-56597085D01*
X5222445Y-56618694D01*
X5222149Y-56622798D01*
X5221754Y-56628267D01*
X5220582Y-56638575D01*
X5212924Y-56687772D01*
X5213809Y-56695979D01*
X5214427Y-56701714D01*
X5214825Y-56724282D01*
X4924398Y-60748770D01*
X4898787Y-61103676D01*
X4867529Y-61536816D01*
X4865184Y-61553558D01*
X4858897Y-61583598D01*
X1508000Y-61583598D01*
X1508000Y-51423598D01*
X4858897Y-51423598D01*
X4860868Y-51459075D01*
X4861147Y-51464106D01*
X4861168Y-51464964D01*
X4861109Y-51465781D01*
X4861244Y-51468068D01*
X4863379Y-51504315D01*
X4863403Y-51504736D01*
X4867775Y-51583441D01*
X4868101Y-51584433D01*
X4868162Y-51585472D01*
X4893052Y-51660417D01*
X4917721Y-51735539D01*
X4918291Y-51736411D01*
X4918620Y-51737401D01*
X4962069Y-51803363D01*
X5005332Y-51869528D01*
X5006110Y-51870224D01*
X5006683Y-51871094D01*
X5012687Y-51876429D01*
X5012688Y-51876431D01*
X5065613Y-51923466D01*
X5065930Y-51923749D01*
X5118664Y-51970934D01*
X5118671Y-51970939D01*
X5124636Y-51976276D01*
X5125567Y-51976747D01*
X5126346Y-51977439D01*
X5133498Y-51981025D01*
X5133500Y-51981026D01*
X5196958Y-52012841D01*
X5267503Y-52048508D01*
X5268524Y-52048722D01*
X5269456Y-52049189D01*
X5277291Y-52050801D01*
X5277293Y-52050802D01*
X5314806Y-52058521D01*
X5346614Y-52065066D01*
X5346812Y-52065107D01*
X5382581Y-52072594D01*
X5382603Y-52072598D01*
X5384859Y-52073070D01*
X5385681Y-52073132D01*
X5386527Y-52073279D01*
X5426260Y-52081455D01*
X5456897Y-52079650D01*
X5473794Y-52079790D01*
X10042318Y-52424967D01*
X11065036Y-52502239D01*
X11079129Y-52504759D01*
X11079138Y-52504700D01*
X11087309Y-52505914D01*
X11095246Y-52508183D01*
X11153711Y-52509156D01*
X11161101Y-52509497D01*
X11175201Y-52510563D01*
X11175212Y-52510563D01*
X11179326Y-52510874D01*
X11183449Y-52510645D01*
X11183454Y-52510645D01*
X11192678Y-52510133D01*
X11201758Y-52509956D01*
X11247063Y-52510710D01*
X11247066Y-52510710D01*
X11255314Y-52510847D01*
X11263318Y-52508844D01*
X11263322Y-52508844D01*
X11265232Y-52508366D01*
X11288831Y-52504792D01*
X11299041Y-52504225D01*
X11349942Y-52487510D01*
X11358668Y-52484990D01*
X11410617Y-52471993D01*
X11417840Y-52467982D01*
X11419558Y-52467028D01*
X11441420Y-52457471D01*
X11443291Y-52456857D01*
X11443295Y-52456855D01*
X11451139Y-52454279D01*
X11495968Y-52424967D01*
X11503747Y-52420272D01*
X11543351Y-52398277D01*
X11543352Y-52398276D01*
X11550571Y-52394267D01*
X11557925Y-52387153D01*
X11576564Y-52372267D01*
X11585127Y-52366668D01*
X11620836Y-52326759D01*
X11627122Y-52320222D01*
X11636751Y-52310909D01*
X11648132Y-52296577D01*
X11652893Y-52290931D01*
X11686373Y-52253515D01*
X11686375Y-52253511D01*
X11691876Y-52247364D01*
X11695599Y-52240000D01*
X11700259Y-52233174D01*
X11700308Y-52233208D01*
X11708029Y-52221151D01*
X11820287Y-52079790D01*
X12306133Y-51467983D01*
X12321758Y-51451582D01*
X12325919Y-51447935D01*
X12325922Y-51447932D01*
X12332131Y-51442490D01*
X12359931Y-51400914D01*
X12365999Y-51392597D01*
X12369544Y-51388133D01*
X12369546Y-51388130D01*
X12372111Y-51384900D01*
X12383333Y-51366190D01*
X12386637Y-51360977D01*
X12416525Y-51316277D01*
X12416527Y-51316274D01*
X12421116Y-51309410D01*
X12423773Y-51301592D01*
X12426806Y-51295446D01*
X12429534Y-51289159D01*
X12433781Y-51282077D01*
X12450822Y-51222465D01*
X12452669Y-51216556D01*
X12469967Y-51165652D01*
X12472624Y-51157834D01*
X12473167Y-51149594D01*
X12474508Y-51142864D01*
X12475514Y-51136090D01*
X12477783Y-51128154D01*
X12478815Y-51066136D01*
X12479069Y-51059978D01*
X12480504Y-51038194D01*
X12480177Y-51033183D01*
X12479865Y-51028387D01*
X12479615Y-51018095D01*
X12480310Y-50976338D01*
X12480310Y-50976336D01*
X12480447Y-50968087D01*
X12478445Y-50960083D01*
X12478444Y-50960078D01*
X12477100Y-50954707D01*
X12473600Y-50932328D01*
X12402091Y-49835858D01*
X12401976Y-49833843D01*
X12400790Y-49809706D01*
X12398337Y-49759802D01*
X12386762Y-49723780D01*
X12383134Y-49709775D01*
X12377372Y-49680761D01*
X12375765Y-49672667D01*
X12364257Y-49649311D01*
X12357328Y-49632180D01*
X12349361Y-49607389D01*
X12328859Y-49575593D01*
X12321729Y-49563002D01*
X12308657Y-49536472D01*
X12308654Y-49536468D01*
X12305006Y-49529064D01*
X12256105Y-49473267D01*
X12254838Y-49471797D01*
X11585611Y-48683066D01*
X11573815Y-48666659D01*
X11567230Y-48655750D01*
X11562961Y-48648677D01*
X11532070Y-48618966D01*
X11527171Y-48613752D01*
X11527161Y-48613762D01*
X11524296Y-48610802D01*
X11521625Y-48607654D01*
X11518569Y-48604884D01*
X11518558Y-48604873D01*
X11500172Y-48588211D01*
X11497457Y-48585677D01*
X11447577Y-48537703D01*
X11440660Y-48533887D01*
X11438639Y-48532443D01*
X11432784Y-48527137D01*
X11371271Y-48495542D01*
X11367983Y-48493791D01*
X11314642Y-48464365D01*
X11307404Y-48460372D01*
X11299729Y-48458475D01*
X11297414Y-48457608D01*
X11290381Y-48453996D01*
X11282311Y-48452253D01*
X11282310Y-48452253D01*
X11222781Y-48439398D01*
X11219166Y-48438561D01*
X11151992Y-48421957D01*
X11144083Y-48422111D01*
X11141627Y-48421873D01*
X11133898Y-48420204D01*
X11125655Y-48420609D01*
X11125653Y-48420609D01*
X11064803Y-48423600D01*
X11061072Y-48423728D01*
X11046618Y-48424010D01*
X11032116Y-48424292D01*
X11028040Y-48424910D01*
X11023923Y-48425260D01*
X11023922Y-48425247D01*
X11016804Y-48425959D01*
X11001926Y-48426691D01*
X10982255Y-48427657D01*
X10982252Y-48427658D01*
X10974002Y-48428063D01*
X10954210Y-48434423D01*
X10954008Y-48434488D01*
X10934337Y-48439107D01*
X10221583Y-48547099D01*
X10198438Y-48548449D01*
X10194480Y-48548315D01*
X10194479Y-48548315D01*
X10186226Y-48548035D01*
X10178185Y-48549900D01*
X10178182Y-48549900D01*
X10156747Y-48554871D01*
X10135972Y-48559689D01*
X10126391Y-48561522D01*
X10119200Y-48562611D01*
X10119187Y-48562614D01*
X10115121Y-48563230D01*
X10095629Y-48568862D01*
X10089179Y-48570540D01*
X10069427Y-48575121D01*
X10065558Y-48576572D01*
X10058768Y-48579118D01*
X10049500Y-48582190D01*
X10007866Y-48594219D01*
X10007864Y-48594220D01*
X9999934Y-48596511D01*
X9990271Y-48602344D01*
X9989470Y-48602827D01*
X9968602Y-48612930D01*
X7994292Y-49353296D01*
X7923485Y-49358487D01*
X7861113Y-49324572D01*
X7826977Y-49262320D01*
X7826116Y-49212600D01*
X7865588Y-48997299D01*
X7868277Y-48985735D01*
X7878391Y-48949971D01*
X7878392Y-48949964D01*
X7880638Y-48942022D01*
X7881556Y-48875426D01*
X7881704Y-48870818D01*
X7884645Y-48812548D01*
X7884645Y-48812546D01*
X7885061Y-48804299D01*
X7875530Y-48759885D01*
X7873590Y-48748180D01*
X7864000Y-48666659D01*
X7718420Y-47429228D01*
X7730326Y-47359237D01*
X7778182Y-47306793D01*
X7841384Y-47288525D01*
X8120490Y-47283713D01*
X8424969Y-47278464D01*
X8435469Y-47278803D01*
X8442803Y-47280388D01*
X8451051Y-47279984D01*
X8451052Y-47279984D01*
X8467464Y-47279180D01*
X8511133Y-47277040D01*
X8515077Y-47276910D01*
X8543322Y-47276423D01*
X8547408Y-47275813D01*
X8549583Y-47275633D01*
X8559147Y-47274688D01*
X8580212Y-47273656D01*
X8602701Y-47272554D01*
X8610566Y-47270028D01*
X8621963Y-47266368D01*
X8641891Y-47261713D01*
X8642740Y-47261586D01*
X8661908Y-47258726D01*
X8669480Y-47255435D01*
X8669482Y-47255435D01*
X8701913Y-47241342D01*
X8713600Y-47236938D01*
X8747264Y-47226126D01*
X8747263Y-47226126D01*
X8755123Y-47223602D01*
X8772125Y-47212643D01*
X8790174Y-47202987D01*
X8801159Y-47198214D01*
X8801163Y-47198211D01*
X8808733Y-47194922D01*
X8826988Y-47180407D01*
X8842868Y-47167782D01*
X8853018Y-47160503D01*
X8882738Y-47141345D01*
X8889681Y-47136870D01*
X8903278Y-47121872D01*
X8918204Y-47107882D01*
X8927576Y-47100430D01*
X8934041Y-47095290D01*
X8938957Y-47088650D01*
X8959992Y-47060237D01*
X8967909Y-47050582D01*
X8991661Y-47024382D01*
X8991663Y-47024380D01*
X8997206Y-47018265D01*
X9006454Y-47000267D01*
X9017253Y-46982887D01*
X9024378Y-46973262D01*
X9029294Y-46966622D01*
X9045288Y-46926044D01*
X9050438Y-46914667D01*
X9066596Y-46883220D01*
X9066596Y-46883219D01*
X9070371Y-46875873D01*
X9072115Y-46867802D01*
X9072117Y-46867797D01*
X9074647Y-46856091D01*
X9080580Y-46836505D01*
X9084969Y-46825370D01*
X9084969Y-46825369D01*
X9087998Y-46817685D01*
X9092945Y-46774352D01*
X9094975Y-46762029D01*
X9102444Y-46727467D01*
X9104188Y-46719397D01*
X9103198Y-46699184D01*
X9103860Y-46678732D01*
X9105219Y-46666830D01*
X9105219Y-46666829D01*
X9106155Y-46658628D01*
X9099717Y-46615489D01*
X9098775Y-46605962D01*
X9098523Y-46603766D01*
X9098321Y-46599642D01*
X9097584Y-46595590D01*
X9097583Y-46595579D01*
X9093273Y-46571876D01*
X9092620Y-46567932D01*
X9092076Y-46564282D01*
X9085410Y-46519615D01*
X9083746Y-46508463D01*
X9083745Y-46508459D01*
X9082526Y-46500292D01*
X9079535Y-46493410D01*
X9077147Y-46483186D01*
X9014339Y-46137741D01*
X9021833Y-46067140D01*
X9039138Y-46037474D01*
X9176856Y-45861765D01*
X9184619Y-45852768D01*
X9185446Y-45851896D01*
X9191865Y-45846698D01*
X9231036Y-45792773D01*
X9233785Y-45789131D01*
X9250111Y-45768302D01*
X9252752Y-45763834D01*
X9259275Y-45753901D01*
X9281101Y-45723855D01*
X9285953Y-45717176D01*
X9292566Y-45699945D01*
X9301735Y-45680971D01*
X9306923Y-45672195D01*
X9306923Y-45672194D01*
X9311124Y-45665088D01*
X9318082Y-45640151D01*
X9323320Y-45621374D01*
X9327050Y-45610089D01*
X9340353Y-45575425D01*
X9343312Y-45567715D01*
X9345240Y-45549359D01*
X9349186Y-45528664D01*
X9351924Y-45518849D01*
X9354145Y-45510889D01*
X9354611Y-45465517D01*
X9355293Y-45453649D01*
X9359172Y-45416718D01*
X9360035Y-45408502D01*
X9357145Y-45390262D01*
X9355600Y-45369257D01*
X9355704Y-45359069D01*
X9355789Y-45350807D01*
X9353735Y-45342812D01*
X9353734Y-45342807D01*
X9344495Y-45306852D01*
X9342084Y-45295216D01*
X9336272Y-45258542D01*
X9334980Y-45250386D01*
X9327471Y-45233524D01*
X9320539Y-45213625D01*
X9318003Y-45203757D01*
X9315947Y-45195755D01*
X9293660Y-45156221D01*
X9288316Y-45145599D01*
X9287887Y-45144636D01*
X9286204Y-45140856D01*
X9272372Y-45118288D01*
X9270047Y-45114333D01*
X9237331Y-45056299D01*
X9231555Y-45050403D01*
X9230837Y-45049447D01*
X9224157Y-45039621D01*
X9039748Y-44738744D01*
X8812982Y-44368758D01*
X8804001Y-44351132D01*
X8798648Y-44338207D01*
X8798645Y-44338203D01*
X8795487Y-44330577D01*
X8790163Y-44323638D01*
X8770160Y-44297571D01*
X8766569Y-44292346D01*
X8766497Y-44292397D01*
X8764114Y-44289025D01*
X8761959Y-44285509D01*
X8759367Y-44282308D01*
X8759363Y-44282303D01*
X8742935Y-44262020D01*
X8740888Y-44259423D01*
X8703056Y-44210120D01*
X8698030Y-44203570D01*
X8691617Y-44198649D01*
X8691589Y-44198622D01*
X8686497Y-44192335D01*
X8629493Y-44150925D01*
X8626910Y-44148996D01*
X8571023Y-44106113D01*
X8563546Y-44103016D01*
X8563524Y-44103003D01*
X8556976Y-44098247D01*
X8491258Y-44073027D01*
X8488185Y-44071801D01*
X8423120Y-44044850D01*
X8415098Y-44043794D01*
X8415065Y-44043786D01*
X8407515Y-44040888D01*
X8337467Y-44033531D01*
X8334237Y-44033148D01*
X8304247Y-44029200D01*
X8300124Y-44029200D01*
X8296006Y-44028930D01*
X8296012Y-44028843D01*
X8289678Y-44028511D01*
X8256517Y-44025028D01*
X8248301Y-44024165D01*
X8240142Y-44025458D01*
X8240140Y-44025458D01*
X8226328Y-44027647D01*
X8206607Y-44029200D01*
X6441587Y-44029200D01*
X6422206Y-44027700D01*
X6407392Y-44025394D01*
X6407385Y-44025394D01*
X6399228Y-44024124D01*
X6391017Y-44025009D01*
X6358868Y-44028474D01*
X6353184Y-44028780D01*
X6353194Y-44028930D01*
X6349075Y-44029200D01*
X6344953Y-44029200D01*
X6313960Y-44033280D01*
X6311159Y-44033616D01*
X6240061Y-44041279D01*
X6233282Y-44043902D01*
X6226080Y-44044850D01*
X6218448Y-44048011D01*
X6218449Y-44048011D01*
X6160089Y-44072184D01*
X6157338Y-44073286D01*
X6090757Y-44099047D01*
X6084893Y-44103331D01*
X6078177Y-44106113D01*
X6021517Y-44149591D01*
X6019166Y-44151351D01*
X5969713Y-44187481D01*
X5961492Y-44193487D01*
X5956932Y-44199148D01*
X5951170Y-44203570D01*
X5946147Y-44210116D01*
X5946146Y-44210117D01*
X5907697Y-44260224D01*
X5905882Y-44262533D01*
X5861075Y-44318167D01*
X5858139Y-44324810D01*
X5853713Y-44330577D01*
X5850553Y-44338207D01*
X5850551Y-44338211D01*
X5826379Y-44396567D01*
X5825212Y-44399292D01*
X5814272Y-44424041D01*
X5812598Y-44427828D01*
X5811434Y-44431796D01*
X5810019Y-44435664D01*
X5809878Y-44435613D01*
X5807986Y-44440975D01*
X5792450Y-44478480D01*
X5791372Y-44486667D01*
X5791371Y-44486671D01*
X5789415Y-44501531D01*
X5785400Y-44520548D01*
X5296284Y-46187989D01*
X5261162Y-46307722D01*
X5252895Y-46328721D01*
X5246611Y-46341256D01*
X5244947Y-46349344D01*
X5236579Y-46390010D01*
X5234069Y-46400085D01*
X5232530Y-46405330D01*
X5232528Y-46405339D01*
X5231366Y-46409300D01*
X5227970Y-46431111D01*
X5226891Y-46437085D01*
X5222445Y-46458694D01*
X5222149Y-46462798D01*
X5221754Y-46468267D01*
X5220582Y-46478575D01*
X5212924Y-46527772D01*
X5213809Y-46535979D01*
X5214427Y-46541714D01*
X5214825Y-46564282D01*
X4924398Y-50588770D01*
X4898787Y-50943676D01*
X4867529Y-51376816D01*
X4865184Y-51393558D01*
X4858897Y-51423598D01*
X1508000Y-51423598D01*
X1508000Y-41263598D01*
X4858897Y-41263598D01*
X4860868Y-41299075D01*
X4861147Y-41304106D01*
X4861168Y-41304964D01*
X4861109Y-41305781D01*
X4861244Y-41308068D01*
X4863379Y-41344315D01*
X4863403Y-41344736D01*
X4867775Y-41423441D01*
X4868101Y-41424433D01*
X4868162Y-41425472D01*
X4893052Y-41500417D01*
X4917721Y-41575539D01*
X4918291Y-41576411D01*
X4918620Y-41577401D01*
X4962069Y-41643363D01*
X5005332Y-41709528D01*
X5006110Y-41710224D01*
X5006683Y-41711094D01*
X5012687Y-41716429D01*
X5012688Y-41716431D01*
X5065613Y-41763466D01*
X5065930Y-41763749D01*
X5118664Y-41810934D01*
X5118671Y-41810939D01*
X5124636Y-41816276D01*
X5125567Y-41816747D01*
X5126346Y-41817439D01*
X5133498Y-41821025D01*
X5133500Y-41821026D01*
X5196958Y-41852841D01*
X5267503Y-41888508D01*
X5268524Y-41888722D01*
X5269456Y-41889189D01*
X5277291Y-41890801D01*
X5277293Y-41890802D01*
X5314806Y-41898521D01*
X5346614Y-41905066D01*
X5346812Y-41905107D01*
X5382581Y-41912594D01*
X5382603Y-41912598D01*
X5384859Y-41913070D01*
X5385681Y-41913132D01*
X5386527Y-41913279D01*
X5426260Y-41921455D01*
X5456897Y-41919650D01*
X5473794Y-41919790D01*
X10042318Y-42264967D01*
X11065036Y-42342239D01*
X11079129Y-42344759D01*
X11079138Y-42344700D01*
X11087309Y-42345914D01*
X11095246Y-42348183D01*
X11153711Y-42349156D01*
X11161101Y-42349497D01*
X11175201Y-42350563D01*
X11175212Y-42350563D01*
X11179326Y-42350874D01*
X11183449Y-42350645D01*
X11183454Y-42350645D01*
X11192678Y-42350133D01*
X11201758Y-42349956D01*
X11247063Y-42350710D01*
X11247066Y-42350710D01*
X11255314Y-42350847D01*
X11263318Y-42348844D01*
X11263322Y-42348844D01*
X11265232Y-42348366D01*
X11288831Y-42344792D01*
X11299041Y-42344225D01*
X11349942Y-42327510D01*
X11358668Y-42324990D01*
X11410617Y-42311993D01*
X11417840Y-42307982D01*
X11419558Y-42307028D01*
X11441420Y-42297471D01*
X11443291Y-42296857D01*
X11443295Y-42296855D01*
X11451139Y-42294279D01*
X11495968Y-42264967D01*
X11503747Y-42260272D01*
X11543351Y-42238277D01*
X11543352Y-42238276D01*
X11550571Y-42234267D01*
X11557925Y-42227153D01*
X11576564Y-42212267D01*
X11585127Y-42206668D01*
X11620836Y-42166759D01*
X11627122Y-42160222D01*
X11636751Y-42150909D01*
X11648132Y-42136577D01*
X11652893Y-42130931D01*
X11686373Y-42093515D01*
X11686375Y-42093511D01*
X11691876Y-42087364D01*
X11695599Y-42080000D01*
X11700259Y-42073174D01*
X11700308Y-42073208D01*
X11708029Y-42061151D01*
X11820287Y-41919790D01*
X12306133Y-41307983D01*
X12321758Y-41291582D01*
X12325919Y-41287935D01*
X12325922Y-41287932D01*
X12332131Y-41282490D01*
X12359931Y-41240914D01*
X12365999Y-41232597D01*
X12369544Y-41228133D01*
X12369546Y-41228130D01*
X12372111Y-41224900D01*
X12383333Y-41206190D01*
X12386637Y-41200977D01*
X12416525Y-41156277D01*
X12416527Y-41156274D01*
X12421116Y-41149410D01*
X12423773Y-41141592D01*
X12426806Y-41135446D01*
X12429534Y-41129159D01*
X12433781Y-41122077D01*
X12450822Y-41062465D01*
X12452669Y-41056556D01*
X12469967Y-41005652D01*
X12472624Y-40997834D01*
X12473167Y-40989594D01*
X12474508Y-40982864D01*
X12475514Y-40976090D01*
X12477783Y-40968154D01*
X12478815Y-40906136D01*
X12479069Y-40899978D01*
X12480504Y-40878194D01*
X12480177Y-40873183D01*
X12479865Y-40868387D01*
X12479615Y-40858095D01*
X12480310Y-40816338D01*
X12480310Y-40816336D01*
X12480447Y-40808087D01*
X12478445Y-40800083D01*
X12478444Y-40800078D01*
X12477100Y-40794707D01*
X12473600Y-40772328D01*
X12402091Y-39675858D01*
X12401976Y-39673843D01*
X12400790Y-39649706D01*
X12398337Y-39599802D01*
X12386762Y-39563780D01*
X12383134Y-39549775D01*
X12377372Y-39520761D01*
X12375765Y-39512667D01*
X12364257Y-39489311D01*
X12357328Y-39472180D01*
X12349361Y-39447389D01*
X12328859Y-39415593D01*
X12321729Y-39403002D01*
X12308657Y-39376472D01*
X12308654Y-39376468D01*
X12305006Y-39369064D01*
X12256105Y-39313267D01*
X12254838Y-39311797D01*
X11585611Y-38523066D01*
X11573815Y-38506659D01*
X11567230Y-38495750D01*
X11562961Y-38488677D01*
X11532070Y-38458966D01*
X11527171Y-38453752D01*
X11527161Y-38453762D01*
X11524296Y-38450802D01*
X11521625Y-38447654D01*
X11518569Y-38444884D01*
X11518558Y-38444873D01*
X11500172Y-38428211D01*
X11497457Y-38425677D01*
X11447577Y-38377703D01*
X11440660Y-38373887D01*
X11438639Y-38372443D01*
X11432784Y-38367137D01*
X11371271Y-38335542D01*
X11367983Y-38333791D01*
X11314642Y-38304365D01*
X11307404Y-38300372D01*
X11299729Y-38298475D01*
X11297414Y-38297608D01*
X11290381Y-38293996D01*
X11282311Y-38292253D01*
X11282310Y-38292253D01*
X11222781Y-38279398D01*
X11219166Y-38278561D01*
X11151992Y-38261957D01*
X11144083Y-38262111D01*
X11141627Y-38261873D01*
X11133898Y-38260204D01*
X11125655Y-38260609D01*
X11125653Y-38260609D01*
X11064803Y-38263600D01*
X11061072Y-38263728D01*
X11046618Y-38264010D01*
X11032116Y-38264292D01*
X11028040Y-38264910D01*
X11023923Y-38265260D01*
X11023922Y-38265247D01*
X11016804Y-38265959D01*
X11001926Y-38266691D01*
X10982255Y-38267657D01*
X10982252Y-38267658D01*
X10974002Y-38268063D01*
X10954210Y-38274423D01*
X10954008Y-38274488D01*
X10934337Y-38279107D01*
X10221583Y-38387099D01*
X10198438Y-38388449D01*
X10194480Y-38388315D01*
X10194479Y-38388315D01*
X10186226Y-38388035D01*
X10178185Y-38389900D01*
X10178182Y-38389900D01*
X10156747Y-38394871D01*
X10135972Y-38399689D01*
X10126391Y-38401522D01*
X10119200Y-38402611D01*
X10119187Y-38402614D01*
X10115121Y-38403230D01*
X10095629Y-38408862D01*
X10089179Y-38410540D01*
X10069427Y-38415121D01*
X10065558Y-38416572D01*
X10058768Y-38419118D01*
X10049500Y-38422190D01*
X10007866Y-38434219D01*
X10007864Y-38434220D01*
X9999934Y-38436511D01*
X9990271Y-38442344D01*
X9989470Y-38442827D01*
X9968602Y-38452930D01*
X7994292Y-39193296D01*
X7923485Y-39198487D01*
X7861113Y-39164572D01*
X7826977Y-39102320D01*
X7826116Y-39052600D01*
X7865588Y-38837299D01*
X7868277Y-38825735D01*
X7878391Y-38789971D01*
X7878392Y-38789964D01*
X7880638Y-38782022D01*
X7881556Y-38715426D01*
X7881704Y-38710818D01*
X7884645Y-38652548D01*
X7884645Y-38652546D01*
X7885061Y-38644299D01*
X7875530Y-38599885D01*
X7873590Y-38588180D01*
X7864000Y-38506659D01*
X7718420Y-37269228D01*
X7730326Y-37199237D01*
X7778182Y-37146793D01*
X7841384Y-37128525D01*
X8120490Y-37123713D01*
X8424969Y-37118464D01*
X8435469Y-37118803D01*
X8442803Y-37120388D01*
X8451051Y-37119984D01*
X8451052Y-37119984D01*
X8467464Y-37119180D01*
X8511133Y-37117040D01*
X8515077Y-37116910D01*
X8543322Y-37116423D01*
X8547408Y-37115813D01*
X8549583Y-37115633D01*
X8559147Y-37114688D01*
X8580212Y-37113656D01*
X8602701Y-37112554D01*
X8610566Y-37110028D01*
X8621963Y-37106368D01*
X8641891Y-37101713D01*
X8642740Y-37101586D01*
X8661908Y-37098726D01*
X8669480Y-37095435D01*
X8669482Y-37095435D01*
X8701913Y-37081342D01*
X8713600Y-37076938D01*
X8747264Y-37066126D01*
X8747263Y-37066126D01*
X8755123Y-37063602D01*
X8772125Y-37052643D01*
X8790174Y-37042987D01*
X8801159Y-37038214D01*
X8801163Y-37038211D01*
X8808733Y-37034922D01*
X8826988Y-37020407D01*
X8842868Y-37007782D01*
X8853018Y-37000503D01*
X8882738Y-36981345D01*
X8889681Y-36976870D01*
X8903278Y-36961872D01*
X8918204Y-36947882D01*
X8927576Y-36940430D01*
X8934041Y-36935290D01*
X8938957Y-36928650D01*
X8959992Y-36900237D01*
X8967909Y-36890582D01*
X8991661Y-36864382D01*
X8991663Y-36864380D01*
X8997206Y-36858265D01*
X9006454Y-36840267D01*
X9017253Y-36822887D01*
X9024378Y-36813262D01*
X9029294Y-36806622D01*
X9045288Y-36766044D01*
X9050438Y-36754667D01*
X9066596Y-36723220D01*
X9066596Y-36723219D01*
X9070371Y-36715873D01*
X9072115Y-36707802D01*
X9072117Y-36707797D01*
X9074647Y-36696091D01*
X9080580Y-36676505D01*
X9084969Y-36665370D01*
X9084969Y-36665369D01*
X9087998Y-36657685D01*
X9092945Y-36614352D01*
X9094975Y-36602029D01*
X9102444Y-36567467D01*
X9104188Y-36559397D01*
X9103198Y-36539184D01*
X9103860Y-36518732D01*
X9105219Y-36506830D01*
X9105219Y-36506829D01*
X9106155Y-36498628D01*
X9099717Y-36455489D01*
X9098775Y-36445962D01*
X9098523Y-36443766D01*
X9098321Y-36439642D01*
X9097584Y-36435590D01*
X9097583Y-36435579D01*
X9093273Y-36411876D01*
X9092620Y-36407932D01*
X9092076Y-36404282D01*
X9085410Y-36359615D01*
X9083746Y-36348463D01*
X9083745Y-36348459D01*
X9082526Y-36340292D01*
X9079535Y-36333410D01*
X9077147Y-36323186D01*
X9014339Y-35977741D01*
X9021833Y-35907140D01*
X9039138Y-35877474D01*
X9176856Y-35701765D01*
X9184619Y-35692768D01*
X9185446Y-35691896D01*
X9191865Y-35686698D01*
X9231036Y-35632773D01*
X9233785Y-35629131D01*
X9250111Y-35608302D01*
X9252752Y-35603834D01*
X9259275Y-35593901D01*
X9281101Y-35563855D01*
X9285953Y-35557176D01*
X9292566Y-35539945D01*
X9301735Y-35520971D01*
X9306923Y-35512195D01*
X9306923Y-35512194D01*
X9311124Y-35505088D01*
X9318082Y-35480151D01*
X9323320Y-35461374D01*
X9327050Y-35450089D01*
X9340353Y-35415425D01*
X9343312Y-35407715D01*
X9345240Y-35389359D01*
X9349186Y-35368664D01*
X9351924Y-35358849D01*
X9354145Y-35350889D01*
X9354611Y-35305517D01*
X9355293Y-35293649D01*
X9359172Y-35256718D01*
X9360035Y-35248502D01*
X9357145Y-35230262D01*
X9355600Y-35209257D01*
X9355704Y-35199069D01*
X9355789Y-35190807D01*
X9353735Y-35182812D01*
X9353734Y-35182807D01*
X9344495Y-35146852D01*
X9342084Y-35135216D01*
X9336272Y-35098542D01*
X9334980Y-35090386D01*
X9327471Y-35073524D01*
X9320539Y-35053625D01*
X9318003Y-35043757D01*
X9315947Y-35035755D01*
X9293660Y-34996221D01*
X9288316Y-34985599D01*
X9287887Y-34984636D01*
X9286204Y-34980856D01*
X9272372Y-34958288D01*
X9270047Y-34954333D01*
X9237331Y-34896299D01*
X9231555Y-34890403D01*
X9230837Y-34889447D01*
X9224157Y-34879621D01*
X9039748Y-34578744D01*
X8812982Y-34208758D01*
X8804001Y-34191132D01*
X8798648Y-34178207D01*
X8798645Y-34178203D01*
X8795487Y-34170577D01*
X8790163Y-34163638D01*
X8770160Y-34137571D01*
X8766569Y-34132346D01*
X8766497Y-34132397D01*
X8764114Y-34129025D01*
X8761959Y-34125509D01*
X8759367Y-34122308D01*
X8759363Y-34122303D01*
X8742935Y-34102020D01*
X8740888Y-34099423D01*
X8703056Y-34050120D01*
X8698030Y-34043570D01*
X8691617Y-34038649D01*
X8691589Y-34038622D01*
X8686497Y-34032335D01*
X8629493Y-33990925D01*
X8626910Y-33988996D01*
X8571023Y-33946113D01*
X8563546Y-33943016D01*
X8563524Y-33943003D01*
X8556976Y-33938247D01*
X8491258Y-33913027D01*
X8488185Y-33911801D01*
X8423120Y-33884850D01*
X8415098Y-33883794D01*
X8415065Y-33883786D01*
X8407515Y-33880888D01*
X8337467Y-33873531D01*
X8334237Y-33873148D01*
X8304247Y-33869200D01*
X8300124Y-33869200D01*
X8296006Y-33868930D01*
X8296012Y-33868843D01*
X8289678Y-33868511D01*
X8256517Y-33865028D01*
X8248301Y-33864165D01*
X8240142Y-33865458D01*
X8240140Y-33865458D01*
X8226328Y-33867647D01*
X8206607Y-33869200D01*
X6441587Y-33869200D01*
X6422206Y-33867700D01*
X6407392Y-33865394D01*
X6407385Y-33865394D01*
X6399228Y-33864124D01*
X6391017Y-33865009D01*
X6358868Y-33868474D01*
X6353184Y-33868780D01*
X6353194Y-33868930D01*
X6349075Y-33869200D01*
X6344953Y-33869200D01*
X6313960Y-33873280D01*
X6311159Y-33873616D01*
X6240061Y-33881279D01*
X6233282Y-33883902D01*
X6226080Y-33884850D01*
X6218448Y-33888011D01*
X6218449Y-33888011D01*
X6160089Y-33912184D01*
X6157338Y-33913286D01*
X6090757Y-33939047D01*
X6084893Y-33943331D01*
X6078177Y-33946113D01*
X6021517Y-33989591D01*
X6019166Y-33991351D01*
X5969713Y-34027481D01*
X5961492Y-34033487D01*
X5956932Y-34039148D01*
X5951170Y-34043570D01*
X5946147Y-34050116D01*
X5946146Y-34050117D01*
X5907697Y-34100224D01*
X5905882Y-34102533D01*
X5861075Y-34158167D01*
X5858139Y-34164810D01*
X5853713Y-34170577D01*
X5850553Y-34178207D01*
X5850551Y-34178211D01*
X5826379Y-34236567D01*
X5825212Y-34239292D01*
X5814272Y-34264041D01*
X5812598Y-34267828D01*
X5811434Y-34271796D01*
X5810019Y-34275664D01*
X5809878Y-34275613D01*
X5807986Y-34280975D01*
X5792450Y-34318480D01*
X5791372Y-34326667D01*
X5791371Y-34326671D01*
X5789415Y-34341531D01*
X5785400Y-34360548D01*
X5296284Y-36027989D01*
X5261162Y-36147722D01*
X5252895Y-36168721D01*
X5246611Y-36181256D01*
X5244947Y-36189344D01*
X5236579Y-36230010D01*
X5234069Y-36240085D01*
X5232530Y-36245330D01*
X5232528Y-36245339D01*
X5231366Y-36249300D01*
X5227970Y-36271111D01*
X5226891Y-36277085D01*
X5222445Y-36298694D01*
X5222149Y-36302798D01*
X5221754Y-36308267D01*
X5220582Y-36318575D01*
X5212924Y-36367772D01*
X5213809Y-36375979D01*
X5214427Y-36381714D01*
X5214825Y-36404282D01*
X4924398Y-40428770D01*
X4898787Y-40783676D01*
X4867529Y-41216816D01*
X4865184Y-41233558D01*
X4858897Y-41263598D01*
X1508000Y-41263598D01*
X1508000Y-32971000D01*
X3704857Y-32971000D01*
X13535143Y-32971000D01*
X13535143Y-25925000D01*
X3704857Y-25925000D01*
X3704857Y-32971000D01*
X1508000Y-32971000D01*
X1508000Y-20558000D01*
X4906411Y-20558000D01*
X4926754Y-20946176D01*
X4987562Y-21330099D01*
X5088167Y-21705562D01*
X5227468Y-22068453D01*
X5403938Y-22414794D01*
X5615643Y-22740793D01*
X5860266Y-23042876D01*
X6135124Y-23317734D01*
X6437207Y-23562357D01*
X6763205Y-23774062D01*
X6766139Y-23775557D01*
X6766146Y-23775561D01*
X7106607Y-23949034D01*
X7109547Y-23950532D01*
X7472438Y-24089833D01*
X7847901Y-24190438D01*
X8051793Y-24222732D01*
X8228576Y-24250732D01*
X8228584Y-24250733D01*
X8231824Y-24251246D01*
X8620000Y-24271589D01*
X9008176Y-24251246D01*
X9011416Y-24250733D01*
X9011424Y-24250732D01*
X9188207Y-24222732D01*
X9392099Y-24190438D01*
X9767562Y-24089833D01*
X10130453Y-23950532D01*
X10133393Y-23949034D01*
X10473854Y-23775561D01*
X10473861Y-23775557D01*
X10476795Y-23774062D01*
X10802793Y-23562357D01*
X11104876Y-23317734D01*
X11379734Y-23042876D01*
X11624357Y-22740793D01*
X11836062Y-22414794D01*
X12012532Y-22068453D01*
X12151833Y-21705562D01*
X12252438Y-21330099D01*
X12313246Y-20946176D01*
X12333589Y-20558000D01*
X12313246Y-20169824D01*
X12252438Y-19785901D01*
X12151833Y-19410438D01*
X12012532Y-19047547D01*
X11836062Y-18701206D01*
X11624357Y-18375207D01*
X11379734Y-18073124D01*
X11104876Y-17798266D01*
X10802793Y-17553643D01*
X10476795Y-17341938D01*
X10473861Y-17340443D01*
X10473854Y-17340439D01*
X10133393Y-17166966D01*
X10130453Y-17165468D01*
X9767562Y-17026167D01*
X9392099Y-16925562D01*
X9188207Y-16893268D01*
X9011424Y-16865268D01*
X9011416Y-16865267D01*
X9008176Y-16864754D01*
X8620000Y-16844411D01*
X8231824Y-16864754D01*
X8228584Y-16865267D01*
X8228576Y-16865268D01*
X8051793Y-16893268D01*
X7847901Y-16925562D01*
X7472438Y-17026167D01*
X7109547Y-17165468D01*
X7106607Y-17166966D01*
X6766147Y-17340439D01*
X6766140Y-17340443D01*
X6763206Y-17341938D01*
X6437207Y-17553643D01*
X6135124Y-17798266D01*
X5860266Y-18073124D01*
X5615643Y-18375207D01*
X5403938Y-18701206D01*
X5227468Y-19047547D01*
X5088167Y-19410438D01*
X4987562Y-19785901D01*
X4926754Y-20169824D01*
X4906411Y-20558000D01*
X1508000Y-20558000D01*
X1508000Y-15253500D01*
X6669143Y-15253500D01*
X10570857Y-15253500D01*
X10570857Y-10622500D01*
X6669143Y-10622500D01*
X6669143Y-15253500D01*
X1508000Y-15253500D01*
X1508000Y-3977869D01*
X6386689Y-3977869D01*
X6403238Y-4264883D01*
X6404063Y-4269088D01*
X6404064Y-4269096D01*
X6436010Y-4431921D01*
X6458586Y-4546995D01*
X6459973Y-4551045D01*
X6459974Y-4551050D01*
X6550321Y-4814930D01*
X6551710Y-4818986D01*
X6680885Y-5075822D01*
X6843721Y-5312750D01*
X7037206Y-5525388D01*
X7040501Y-5528143D01*
X7040502Y-5528144D01*
X7091258Y-5570582D01*
X7257759Y-5709798D01*
X7501298Y-5862571D01*
X7763318Y-5980877D01*
X7767437Y-5982097D01*
X8034857Y-6061311D01*
X8034862Y-6061312D01*
X8038970Y-6062529D01*
X8043204Y-6063177D01*
X8043209Y-6063178D01*
X8291811Y-6101219D01*
X8323153Y-6106015D01*
X8469485Y-6108314D01*
X8606317Y-6110464D01*
X8606323Y-6110464D01*
X8610608Y-6110531D01*
X8614860Y-6110016D01*
X8614868Y-6110016D01*
X8891756Y-6076508D01*
X8891761Y-6076507D01*
X8896017Y-6075992D01*
X9174097Y-6003039D01*
X9439704Y-5893021D01*
X9687922Y-5747974D01*
X9914159Y-5570582D01*
X9955285Y-5528144D01*
X10111244Y-5367206D01*
X10114227Y-5364128D01*
X10116760Y-5360680D01*
X10116764Y-5360675D01*
X10281887Y-5135886D01*
X10284425Y-5132431D01*
X10421604Y-4879779D01*
X10523225Y-4610848D01*
X10587407Y-4330613D01*
X10612963Y-4044260D01*
X10613427Y-4000000D01*
X10593873Y-3713175D01*
X10589336Y-3691264D01*
X10536443Y-3435855D01*
X10535574Y-3431658D01*
X10439607Y-3160657D01*
X10307750Y-2905188D01*
X10294488Y-2886317D01*
X10144904Y-2673482D01*
X10142441Y-2669977D01*
X9946740Y-2459378D01*
X9724268Y-2277287D01*
X9479142Y-2127073D01*
X9461048Y-2119130D01*
X9219830Y-2013243D01*
X9215898Y-2011517D01*
X9189963Y-2004129D01*
X8943534Y-1933932D01*
X8943535Y-1933932D01*
X8939406Y-1932756D01*
X8726704Y-1902485D01*
X8659036Y-1892854D01*
X8659034Y-1892854D01*
X8654784Y-1892249D01*
X8650495Y-1892227D01*
X8650488Y-1892226D01*
X8371583Y-1890765D01*
X8371576Y-1890765D01*
X8367297Y-1890743D01*
X8363053Y-1891302D01*
X8363049Y-1891302D01*
X8237660Y-1907810D01*
X8082266Y-1928268D01*
X8078126Y-1929401D01*
X8078124Y-1929401D01*
X8001311Y-1950415D01*
X7804964Y-2004129D01*
X7801016Y-2005813D01*
X7544476Y-2115237D01*
X7544472Y-2115239D01*
X7540524Y-2116923D01*
X7415960Y-2191473D01*
X7297521Y-2262357D01*
X7297517Y-2262360D01*
X7293839Y-2264561D01*
X7069472Y-2444313D01*
X6871577Y-2652851D01*
X6703814Y-2886317D01*
X6569288Y-3140392D01*
X6470489Y-3410373D01*
X6409245Y-3691264D01*
X6386689Y-3977869D01*
X1508000Y-3977869D01*
X1508000Y-1634000D01*
X1528002Y-1565879D01*
X1581658Y-1519386D01*
X1634000Y-1508000D01*
X15526000Y-1508000D01*
X15594121Y-1528002D01*
G37*
%TD.AperFunction*%
M02*
