%TF.GenerationSoftware,KiCad,Pcbnew,(6.0.1)*%
%TF.CreationDate,2022-12-13T10:22:34+02:00*%
%TF.ProjectId,EurorackDualPitchQuantizerFront,4575726f-7261-4636-9b44-75616c506974,rev?*%
%TF.SameCoordinates,Original*%
%TF.FileFunction,Plated,1,2,PTH,Mixed*%
%TF.FilePolarity,Positive*%
%FSLAX46Y46*%
G04 Gerber Fmt 4.6, Leading zero omitted, Abs format (unit mm)*
G04 Created by KiCad (PCBNEW (6.0.1)) date 2022-12-13 10:22:34*
%MOMM*%
%LPD*%
G01*
G04 APERTURE LIST*
%TA.AperFunction,ViaDrill*%
%ADD10C,0.800000*%
%TD*%
%TA.AperFunction,ComponentDrill*%
%ADD11C,0.800000*%
%TD*%
%TA.AperFunction,ComponentDrill*%
%ADD12C,0.900000*%
%TD*%
%TA.AperFunction,ComponentDrill*%
%ADD13C,1.000000*%
%TD*%
%TA.AperFunction,ComponentDrill*%
%ADD14C,1.100000*%
%TD*%
G04 aperture for slot hole*
%TA.AperFunction,ComponentDrill*%
%ADD15O,1.300000X1.300000*%
%TD*%
%TA.AperFunction,ComponentDrill*%
%ADD16C,3.200000*%
%TD*%
G04 APERTURE END LIST*
D10*
X14986000Y-36576000D03*
X18542000Y-65278000D03*
X19304000Y-44196000D03*
X19304000Y-85344000D03*
X19380200Y-90957400D03*
X19970500Y-46990000D03*
X20574000Y-64262000D03*
X21590000Y-49530000D03*
X22098000Y-77724000D03*
X28448000Y-109474000D03*
X28702000Y-106426000D03*
X28702000Y-119380000D03*
X32004000Y-107950000D03*
X32943800Y-29895800D03*
X34163000Y-22479000D03*
X34163000Y-33147000D03*
X34163000Y-43561000D03*
X34163000Y-54229000D03*
X34163000Y-64643000D03*
X34163000Y-75057000D03*
X34163000Y-85979000D03*
X38100000Y-96774000D03*
X43561000Y-26289000D03*
X43561000Y-36957000D03*
X43561000Y-57785000D03*
X43561000Y-68199000D03*
X43561000Y-78867000D03*
X44958000Y-96774000D03*
X49530000Y-117602000D03*
X49555400Y-38912800D03*
X53594000Y-120142000D03*
X55118000Y-108458000D03*
X57043000Y-43180000D03*
X61996000Y-32258000D03*
X62758000Y-63500000D03*
X62758000Y-74930000D03*
X63393000Y-53340000D03*
X64028000Y-44704000D03*
X64663000Y-21590000D03*
X64663000Y-65405000D03*
X65298000Y-57150000D03*
X65298000Y-85725000D03*
X66568000Y-27305000D03*
X66568000Y-72390000D03*
D11*
%TO.C,U1*%
X16256000Y-39370000D03*
X16256000Y-41910000D03*
X16256000Y-44450000D03*
X16256000Y-46990000D03*
X16256000Y-49530000D03*
X16256000Y-52070000D03*
X16256000Y-54610000D03*
X16256000Y-57150000D03*
%TO.C,U2*%
X16256000Y-65278000D03*
X16256000Y-67818000D03*
X16256000Y-70358000D03*
X16256000Y-72898000D03*
X16256000Y-75438000D03*
X16256000Y-77978000D03*
X16256000Y-80518000D03*
X16256000Y-83058000D03*
%TO.C,R5*%
X16764000Y-87630000D03*
%TO.C,U1*%
X23876000Y-39370000D03*
X23876000Y-41910000D03*
X23876000Y-44450000D03*
X23876000Y-46990000D03*
X23876000Y-49530000D03*
X23876000Y-52070000D03*
X23876000Y-54610000D03*
X23876000Y-57150000D03*
%TO.C,U2*%
X23876000Y-65278000D03*
X23876000Y-67818000D03*
X23876000Y-70358000D03*
X23876000Y-72898000D03*
X23876000Y-75438000D03*
X23876000Y-77978000D03*
X23876000Y-80518000D03*
X23876000Y-83058000D03*
%TO.C,R5*%
X24384000Y-87630000D03*
%TO.C,R4*%
X29972000Y-29972000D03*
%TO.C,R2*%
X30099000Y-40640000D03*
%TO.C,R12*%
X30099000Y-51054000D03*
%TO.C,R11*%
X30099000Y-61595000D03*
%TO.C,R9*%
X30226000Y-72263000D03*
%TO.C,R7*%
X30226000Y-83058000D03*
%TO.C,R27*%
X35560000Y-101854000D03*
X35560000Y-109474000D03*
%TO.C,R4*%
X37592000Y-29972000D03*
%TO.C,R2*%
X37719000Y-40640000D03*
%TO.C,R12*%
X37719000Y-51054000D03*
%TO.C,R11*%
X37719000Y-61595000D03*
%TO.C,R9*%
X37846000Y-72263000D03*
%TO.C,R7*%
X37846000Y-83058000D03*
%TO.C,R13*%
X38100000Y-104648000D03*
%TO.C,R3*%
X39751000Y-33782000D03*
%TO.C,R6*%
X39751000Y-86487000D03*
%TO.C,R1*%
X39869000Y-44366000D03*
%TO.C,R10*%
X39878000Y-65278000D03*
%TO.C,R8*%
X39878000Y-75819000D03*
%TO.C,R13*%
X45720000Y-104648000D03*
%TO.C,R3*%
X47371000Y-33782000D03*
%TO.C,R6*%
X47371000Y-86487000D03*
%TO.C,R1*%
X47489000Y-44366000D03*
%TO.C,R10*%
X47498000Y-65278000D03*
%TO.C,R8*%
X47498000Y-75819000D03*
%TO.C,R26*%
X48260000Y-101854000D03*
X48260000Y-109474000D03*
%TO.C,R14*%
X48514000Y-89535000D03*
%TO.C,R23*%
X50053000Y-36195000D03*
%TO.C,R25*%
X50058000Y-25400000D03*
%TO.C,R20*%
X50058000Y-57150000D03*
%TO.C,R18*%
X50058000Y-67945000D03*
%TO.C,R16*%
X50058000Y-78740000D03*
%TO.C,R21*%
X53360000Y-48260000D03*
%TO.C,R15*%
X55011000Y-81915000D03*
%TO.C,R24*%
X55138000Y-29210000D03*
%TO.C,R19*%
X55138000Y-60960000D03*
%TO.C,R17*%
X55138000Y-71120000D03*
%TO.C,R22*%
X55143000Y-40005000D03*
%TO.C,R14*%
X56134000Y-89535000D03*
%TO.C,R23*%
X57673000Y-36195000D03*
%TO.C,R25*%
X57678000Y-25400000D03*
%TO.C,R20*%
X57678000Y-57150000D03*
%TO.C,R18*%
X57678000Y-67945000D03*
%TO.C,R16*%
X57678000Y-78740000D03*
%TO.C,R21*%
X60980000Y-48260000D03*
%TO.C,R15*%
X62631000Y-81915000D03*
%TO.C,R24*%
X62758000Y-29210000D03*
%TO.C,R19*%
X62758000Y-60960000D03*
%TO.C,R17*%
X62758000Y-71120000D03*
%TO.C,R22*%
X62763000Y-40005000D03*
D12*
%TO.C,D14*%
X39370000Y-99314000D03*
X39370000Y-101854000D03*
%TO.C,D13*%
X43922000Y-99319000D03*
X43922000Y-101859000D03*
%TO.C,D12*%
X50053000Y-21590000D03*
%TO.C,D10*%
X50053000Y-32385000D03*
%TO.C,D7*%
X50053000Y-53340000D03*
%TO.C,D5*%
X50053000Y-64135000D03*
%TO.C,D3*%
X50053000Y-74930000D03*
%TO.C,D1*%
X50053000Y-85725000D03*
%TO.C,D8*%
X50180000Y-43180000D03*
%TO.C,D12*%
X52593000Y-21590000D03*
%TO.C,D10*%
X52593000Y-32385000D03*
%TO.C,D7*%
X52593000Y-53340000D03*
%TO.C,D5*%
X52593000Y-64135000D03*
%TO.C,D3*%
X52593000Y-74930000D03*
%TO.C,D1*%
X52593000Y-85725000D03*
%TO.C,D8*%
X52720000Y-43180000D03*
%TO.C,D4*%
X60086000Y-67310000D03*
%TO.C,D11*%
X60213000Y-25400000D03*
%TO.C,D9*%
X60213000Y-36195000D03*
%TO.C,D6*%
X60213000Y-57150000D03*
%TO.C,D2*%
X60213000Y-78105000D03*
%TO.C,D4*%
X62626000Y-67310000D03*
%TO.C,D11*%
X62753000Y-25400000D03*
%TO.C,D9*%
X62753000Y-36195000D03*
%TO.C,D6*%
X62753000Y-57150000D03*
%TO.C,D2*%
X62753000Y-78105000D03*
D13*
%TO.C,J11*%
X14126000Y-94996000D03*
%TO.C,J12*%
X14126000Y-106172000D03*
%TO.C,J5*%
X14126000Y-117348000D03*
%TO.C,J1*%
X19050000Y-27686000D03*
X19050000Y-30226000D03*
X19050000Y-32766000D03*
%TO.C,J10*%
X38110000Y-117602000D03*
%TO.C,J13*%
X40127000Y-96774000D03*
%TO.C,J10*%
X40650000Y-117602000D03*
%TO.C,J4*%
X40889000Y-120650000D03*
%TO.C,J13*%
X42667000Y-96774000D03*
%TO.C,J3*%
X42946000Y-90424000D03*
%TO.C,J10*%
X43190000Y-117602000D03*
%TO.C,J4*%
X43429000Y-120650000D03*
%TO.C,J3*%
X45486000Y-90424000D03*
%TO.C,J10*%
X45730000Y-117602000D03*
%TO.C,J9*%
X67965000Y-41651000D03*
X67965000Y-44191000D03*
X67965000Y-46731000D03*
X67965000Y-49271000D03*
X67965000Y-51811000D03*
X67965000Y-54351000D03*
X67965000Y-56891000D03*
X67965000Y-59431000D03*
X67965000Y-61971000D03*
X67965000Y-64511000D03*
X67965000Y-67051000D03*
X67965000Y-69591000D03*
%TO.C,J8*%
X69948000Y-94996000D03*
%TO.C,J7*%
X69948000Y-106172000D03*
%TO.C,J6*%
X69948000Y-117348000D03*
D14*
%TO.C,SW2*%
X30659000Y-33056000D03*
X30659000Y-37556000D03*
%TO.C,SW12*%
X30775000Y-43618000D03*
X30775000Y-48118000D03*
%TO.C,SW4*%
X30786000Y-22466000D03*
X30786000Y-26966000D03*
%TO.C,SW9*%
X30786000Y-64679000D03*
X30786000Y-69179000D03*
%TO.C,SW7*%
X30786000Y-75220000D03*
X30786000Y-79720000D03*
%TO.C,SW5*%
X30786000Y-86142000D03*
X30786000Y-90642000D03*
%TO.C,SW11*%
X30792000Y-54101000D03*
X30792000Y-58601000D03*
%TO.C,SW2*%
X37159000Y-33056000D03*
X37159000Y-37556000D03*
%TO.C,SW12*%
X37275000Y-43618000D03*
X37275000Y-48118000D03*
%TO.C,SW4*%
X37286000Y-22466000D03*
X37286000Y-26966000D03*
%TO.C,SW9*%
X37286000Y-64679000D03*
X37286000Y-69179000D03*
%TO.C,SW7*%
X37286000Y-75220000D03*
X37286000Y-79720000D03*
%TO.C,SW5*%
X37286000Y-86142000D03*
X37286000Y-90642000D03*
%TO.C,SW11*%
X37292000Y-54101000D03*
X37292000Y-58601000D03*
%TO.C,SW13*%
X38660000Y-107732000D03*
X38660000Y-112232000D03*
%TO.C,SW1*%
X40259000Y-36830000D03*
X40259000Y-41330000D03*
%TO.C,SW10*%
X40291000Y-57821000D03*
X40291000Y-62321000D03*
%TO.C,SW3*%
X40311000Y-26198000D03*
X40311000Y-30698000D03*
%TO.C,SW6*%
X40311000Y-78903000D03*
X40311000Y-83403000D03*
%TO.C,SW8*%
X40325000Y-68297000D03*
X40325000Y-72797000D03*
%TO.C,SW13*%
X45160000Y-107732000D03*
X45160000Y-112232000D03*
%TO.C,SW1*%
X46759000Y-36830000D03*
X46759000Y-41330000D03*
%TO.C,SW10*%
X46791000Y-57821000D03*
X46791000Y-62321000D03*
%TO.C,SW3*%
X46811000Y-26198000D03*
X46811000Y-30698000D03*
%TO.C,SW6*%
X46811000Y-78903000D03*
X46811000Y-83403000D03*
%TO.C,SW8*%
X46825000Y-68297000D03*
X46825000Y-72797000D03*
D15*
%TO.C,J11*%
X16686000Y-94996000D03*
%TO.C,J12*%
X16686000Y-106172000D03*
%TO.C,J5*%
X16686000Y-117348000D03*
%TO.C,J11*%
X24986000Y-94996000D03*
%TO.C,J12*%
X24986000Y-106172000D03*
%TO.C,J5*%
X24986000Y-117348000D03*
%TO.C,J8*%
X59088000Y-94996000D03*
%TO.C,J7*%
X59088000Y-106172000D03*
%TO.C,J6*%
X59088000Y-117348000D03*
%TO.C,J8*%
X67388000Y-94996000D03*
%TO.C,J7*%
X67388000Y-106172000D03*
%TO.C,J6*%
X67388000Y-117348000D03*
D16*
%TO.C,REF\u002A\u002A*%
X43434000Y-21336000D03*
X45212000Y-50800000D03*
X50546000Y-95758000D03*
M02*
