%FSLAX45Y45*%
G04 Gerber Fmt 4.5, Leading zero omitted, Abs format (unit mm)*
G04 Created by KiCad (PCBNEW (6.0.1)) date 2022-12-13 14:11:29*
%MOMM*%
%LPD*%
G01*
G04 APERTURE LIST*
%TA.AperFunction,Profile*%
%ADD10C,0.100000*%
%TD*%
%ADD11C,0.200000*%
%ADD12C,0.080000*%
%ADD13C,0.090000*%
%ADD14C,0.100000*%
%ADD15C,0.110000*%
%ADD16C,0.130000*%
%ADD17C,0.150000*%
G04 APERTURE END LIST*
D10*
X2000000Y-2000000D02*
X7800000Y-2000000D01*
X7800000Y-2000000D02*
X7800000Y-12100000D01*
X7800000Y-12100000D02*
X2000000Y-12100000D01*
X2000000Y-12100000D02*
X2000000Y-2000000D01*
D11*
D12*
X2510000Y-2960000D02*
X2590000Y-3040000D01*
X2590000Y-2960000D02*
X2510000Y-3040000D01*
X2702550Y-8621400D02*
X2782550Y-8701400D01*
X2782550Y-8621400D02*
X2702550Y-8701400D01*
X2825000Y-8800000D02*
X2905000Y-8880000D01*
X2905000Y-8800000D02*
X2825000Y-8880000D01*
X2881297Y-5160585D02*
X2961297Y-5240585D01*
X2961297Y-5160585D02*
X2881297Y-5240585D01*
X2950000Y-8605000D02*
X3030000Y-8685000D01*
X3030000Y-8605000D02*
X2950000Y-8685000D01*
X3007550Y-5010000D02*
X3087550Y-5090000D01*
X3087550Y-5010000D02*
X3007550Y-5090000D01*
X3110000Y-4160000D02*
X3190000Y-4240000D01*
X3190000Y-4160000D02*
X3110000Y-4240000D01*
X3135000Y-8710000D02*
X3215000Y-8790000D01*
X3215000Y-8710000D02*
X3135000Y-8790000D01*
X3210000Y-3510000D02*
X3290000Y-3590000D01*
X3290000Y-3510000D02*
X3210000Y-3590000D01*
X3210000Y-4660000D02*
X3290000Y-4740000D01*
X3290000Y-4660000D02*
X3210000Y-4740000D01*
X3520000Y-6890000D02*
X3600000Y-6970000D01*
X3600000Y-6890000D02*
X3520000Y-6970000D01*
X3560000Y-11285000D02*
X3640000Y-11365000D01*
X3640000Y-11285000D02*
X3560000Y-11365000D01*
X3590000Y-5310000D02*
X3670000Y-5390000D01*
X3670000Y-5310000D02*
X3590000Y-5390000D01*
X3710000Y-3260000D02*
X3790000Y-3340000D01*
X3790000Y-3260000D02*
X3710000Y-3340000D01*
X3807177Y-2177450D02*
X3887177Y-2257450D01*
X3887177Y-2177450D02*
X3807177Y-2257450D01*
X3810000Y-3710000D02*
X3890000Y-3790000D01*
X3890000Y-3710000D02*
X3810000Y-3790000D01*
X4075000Y-11155000D02*
X4155000Y-11235000D01*
X4155000Y-11155000D02*
X4075000Y-11235000D01*
X4110000Y-3110000D02*
X4190000Y-3190000D01*
X4190000Y-3110000D02*
X4110000Y-3190000D01*
X4160000Y-2510000D02*
X4240000Y-2590000D01*
X4240000Y-2510000D02*
X4160000Y-2590000D01*
X4235000Y-4905000D02*
X4315000Y-4985000D01*
X4315000Y-4905000D02*
X4235000Y-4985000D01*
X4354200Y-2157100D02*
X4434200Y-2237100D01*
X4434200Y-2157100D02*
X4354200Y-2237100D01*
X4360000Y-3160000D02*
X4440000Y-3240000D01*
X4440000Y-3160000D02*
X4360000Y-3240000D01*
X4415000Y-5435000D02*
X4495000Y-5515000D01*
X4495000Y-5435000D02*
X4415000Y-5515000D01*
X4495000Y-8890000D02*
X4575000Y-8970000D01*
X4575000Y-8890000D02*
X4495000Y-8970000D01*
X4835000Y-2435000D02*
X4915000Y-2515000D01*
X4915000Y-2435000D02*
X4835000Y-2515000D01*
X4880000Y-8715000D02*
X4960000Y-8795000D01*
X4960000Y-8715000D02*
X4880000Y-8795000D01*
X5110000Y-2435000D02*
X5190000Y-2515000D01*
X5190000Y-2435000D02*
X5110000Y-2515000D01*
X5130000Y-6005000D02*
X5210000Y-6085000D01*
X5210000Y-6005000D02*
X5130000Y-6085000D01*
X5360000Y-9840000D02*
X5440000Y-9920000D01*
X5440000Y-9840000D02*
X5360000Y-9920000D01*
X5400000Y-8820000D02*
X5480000Y-8900000D01*
X5480000Y-8820000D02*
X5400000Y-8900000D01*
X5460000Y-3610000D02*
X5540000Y-3690000D01*
X5540000Y-3610000D02*
X5460000Y-3690000D01*
X5610000Y-3060000D02*
X5690000Y-3140000D01*
X5690000Y-3060000D02*
X5610000Y-3140000D01*
X5645000Y-7510000D02*
X5725000Y-7590000D01*
X5725000Y-7510000D02*
X5645000Y-7590000D01*
X5860000Y-4160000D02*
X5940000Y-4240000D01*
X5940000Y-4160000D02*
X5860000Y-4240000D01*
X6060000Y-8640000D02*
X6140000Y-8720000D01*
X6140000Y-8640000D02*
X6060000Y-8720000D01*
X6410000Y-5160000D02*
X6490000Y-5240000D01*
X6490000Y-5160000D02*
X6410000Y-5240000D01*
X6410000Y-10270000D02*
X6490000Y-10350000D01*
X6490000Y-10270000D02*
X6410000Y-10350000D01*
X6440000Y-8270000D02*
X6520000Y-8350000D01*
X6520000Y-8270000D02*
X6440000Y-8350000D01*
X6560000Y-2285000D02*
X6640000Y-2365000D01*
X6640000Y-2285000D02*
X6560000Y-2365000D01*
X6680000Y-9280000D02*
X6760000Y-9360000D01*
X6760000Y-9280000D02*
X6680000Y-9360000D01*
X6741486Y-2412162D02*
X6821486Y-2492162D01*
X6821486Y-2412162D02*
X6741486Y-2492162D01*
X6805000Y-9745000D02*
X6885000Y-9825000D01*
X6885000Y-9745000D02*
X6805000Y-9825000D01*
X6970000Y-8620000D02*
X7050000Y-8700000D01*
X7050000Y-8620000D02*
X6970000Y-8700000D01*
X7090000Y-10305000D02*
X7170000Y-10385000D01*
X7170000Y-10305000D02*
X7090000Y-10385000D01*
X7135000Y-10685000D02*
X7215000Y-10765000D01*
X7215000Y-10685000D02*
X7135000Y-10765000D01*
X7505000Y-10545000D02*
X7585000Y-10625000D01*
X7585000Y-10545000D02*
X7505000Y-10625000D01*
X2305000Y-4580000D02*
G75*
G03*
X2305000Y-4580000I-40000J0D01*
G01*
X2390000Y-2375000D02*
G75*
G03*
X2390000Y-2375000I-40000J0D01*
G01*
X2555000Y-4580000D02*
G75*
G03*
X2555000Y-4580000I-40000J0D01*
G01*
X2630800Y-9245600D02*
G75*
G03*
X2630800Y-9245600I-40000J0D01*
G01*
X2630800Y-10007600D02*
G75*
G03*
X2630800Y-10007600I-40000J0D01*
G01*
X2640000Y-2375000D02*
G75*
G03*
X2640000Y-2375000I-40000J0D01*
G01*
X2878000Y-2363700D02*
G75*
G03*
X2878000Y-2363700I-40000J0D01*
G01*
X2878000Y-2617700D02*
G75*
G03*
X2878000Y-2617700I-40000J0D01*
G01*
X2878000Y-2871700D02*
G75*
G03*
X2878000Y-2871700I-40000J0D01*
G01*
X2878000Y-3125700D02*
G75*
G03*
X2878000Y-3125700I-40000J0D01*
G01*
X2878000Y-3379700D02*
G75*
G03*
X2878000Y-3379700I-40000J0D01*
G01*
X2878000Y-3633700D02*
G75*
G03*
X2878000Y-3633700I-40000J0D01*
G01*
X2878000Y-3887700D02*
G75*
G03*
X2878000Y-3887700I-40000J0D01*
G01*
X2878000Y-4141700D02*
G75*
G03*
X2878000Y-4141700I-40000J0D01*
G01*
X3640000Y-2363700D02*
G75*
G03*
X3640000Y-2363700I-40000J0D01*
G01*
X3640000Y-2617700D02*
G75*
G03*
X3640000Y-2617700I-40000J0D01*
G01*
X3640000Y-2871700D02*
G75*
G03*
X3640000Y-2871700I-40000J0D01*
G01*
X3640000Y-3125700D02*
G75*
G03*
X3640000Y-3125700I-40000J0D01*
G01*
X3640000Y-3379700D02*
G75*
G03*
X3640000Y-3379700I-40000J0D01*
G01*
X3640000Y-3633700D02*
G75*
G03*
X3640000Y-3633700I-40000J0D01*
G01*
X3640000Y-3887700D02*
G75*
G03*
X3640000Y-3887700I-40000J0D01*
G01*
X3640000Y-4141700D02*
G75*
G03*
X3640000Y-4141700I-40000J0D01*
G01*
X3750000Y-9240000D02*
G75*
G03*
X3750000Y-9240000I-40000J0D01*
G01*
X3750000Y-10002000D02*
G75*
G03*
X3750000Y-10002000I-40000J0D01*
G01*
X4259000Y-2750000D02*
G75*
G03*
X4259000Y-2750000I-40000J0D01*
G01*
X4259000Y-3512000D02*
G75*
G03*
X4259000Y-3512000I-40000J0D01*
G01*
X4534000Y-4980000D02*
G75*
G03*
X4534000Y-4980000I-40000J0D01*
G01*
X4535000Y-4695000D02*
G75*
G03*
X4535000Y-4695000I-40000J0D01*
G01*
X4785000Y-4695000D02*
G75*
G03*
X4785000Y-4695000I-40000J0D01*
G01*
X4870000Y-9243000D02*
G75*
G03*
X4870000Y-9243000I-40000J0D01*
G01*
X4870000Y-10005000D02*
G75*
G03*
X4870000Y-10005000I-40000J0D01*
G01*
X4878000Y-5485000D02*
G75*
G03*
X4878000Y-5485000I-40000J0D01*
G01*
X4890000Y-2650000D02*
G75*
G03*
X4890000Y-2650000I-40000J0D01*
G01*
X4890000Y-3412000D02*
G75*
G03*
X4890000Y-3412000I-40000J0D01*
G01*
X4910000Y-5770000D02*
G75*
G03*
X4910000Y-5770000I-40000J0D01*
G01*
X5160000Y-5770000D02*
G75*
G03*
X5160000Y-5770000I-40000J0D01*
G01*
X5190000Y-2650000D02*
G75*
G03*
X5190000Y-2650000I-40000J0D01*
G01*
X5190000Y-3412000D02*
G75*
G03*
X5190000Y-3412000I-40000J0D01*
G01*
X5296000Y-4980000D02*
G75*
G03*
X5296000Y-4980000I-40000J0D01*
G01*
X5505000Y-5749000D02*
G75*
G03*
X5505000Y-5749000I-40000J0D01*
G01*
X5505000Y-6511000D02*
G75*
G03*
X5505000Y-6511000I-40000J0D01*
G01*
X5540000Y-2719000D02*
G75*
G03*
X5540000Y-2719000I-40000J0D01*
G01*
X5540000Y-3481000D02*
G75*
G03*
X5540000Y-3481000I-40000J0D01*
G01*
X5595000Y-4218000D02*
G75*
G03*
X5595000Y-4218000I-40000J0D01*
G01*
X5595000Y-4980000D02*
G75*
G03*
X5595000Y-4980000I-40000J0D01*
G01*
X5640000Y-5485000D02*
G75*
G03*
X5640000Y-5485000I-40000J0D01*
G01*
X5804000Y-7130000D02*
G75*
G03*
X5804000Y-7130000I-40000J0D01*
G01*
X5965000Y-2525000D02*
G75*
G03*
X5965000Y-2525000I-40000J0D01*
G01*
X5965000Y-2775000D02*
G75*
G03*
X5965000Y-2775000I-40000J0D01*
G01*
X6005000Y-9194800D02*
G75*
G03*
X6005000Y-9194800I-40000J0D01*
G01*
X6005000Y-9956800D02*
G75*
G03*
X6005000Y-9956800I-40000J0D01*
G01*
X6278000Y-2400000D02*
G75*
G03*
X6278000Y-2400000I-40000J0D01*
G01*
X6278000Y-2654000D02*
G75*
G03*
X6278000Y-2654000I-40000J0D01*
G01*
X6278000Y-2908000D02*
G75*
G03*
X6278000Y-2908000I-40000J0D01*
G01*
X6278000Y-3162000D02*
G75*
G03*
X6278000Y-3162000I-40000J0D01*
G01*
X6278000Y-3416000D02*
G75*
G03*
X6278000Y-3416000I-40000J0D01*
G01*
X6278000Y-3670000D02*
G75*
G03*
X6278000Y-3670000I-40000J0D01*
G01*
X6278000Y-3924000D02*
G75*
G03*
X6278000Y-3924000I-40000J0D01*
G01*
X6278000Y-4178000D02*
G75*
G03*
X6278000Y-4178000I-40000J0D01*
G01*
X6566000Y-7130000D02*
G75*
G03*
X6566000Y-7130000I-40000J0D01*
G01*
X6660000Y-9956000D02*
G75*
G03*
X6660000Y-9956000I-40000J0D01*
G01*
X6660000Y-10210000D02*
G75*
G03*
X6660000Y-10210000I-40000J0D01*
G01*
X6660000Y-10464000D02*
G75*
G03*
X6660000Y-10464000I-40000J0D01*
G01*
X6660000Y-10718000D02*
G75*
G03*
X6660000Y-10718000I-40000J0D01*
G01*
X6660000Y-10972000D02*
G75*
G03*
X6660000Y-10972000I-40000J0D01*
G01*
X6660000Y-11226000D02*
G75*
G03*
X6660000Y-11226000I-40000J0D01*
G01*
X6660000Y-11480000D02*
G75*
G03*
X6660000Y-11480000I-40000J0D01*
G01*
X6864000Y-7150000D02*
G75*
G03*
X6864000Y-7150000I-40000J0D01*
G01*
X6940000Y-10850000D02*
G75*
G03*
X6940000Y-10850000I-40000J0D01*
G01*
X6940000Y-11100000D02*
G75*
G03*
X6940000Y-11100000I-40000J0D01*
G01*
X7040000Y-2400000D02*
G75*
G03*
X7040000Y-2400000I-40000J0D01*
G01*
X7040000Y-2654000D02*
G75*
G03*
X7040000Y-2654000I-40000J0D01*
G01*
X7040000Y-2908000D02*
G75*
G03*
X7040000Y-2908000I-40000J0D01*
G01*
X7040000Y-3162000D02*
G75*
G03*
X7040000Y-3162000I-40000J0D01*
G01*
X7040000Y-3416000D02*
G75*
G03*
X7040000Y-3416000I-40000J0D01*
G01*
X7040000Y-3670000D02*
G75*
G03*
X7040000Y-3670000I-40000J0D01*
G01*
X7040000Y-3924000D02*
G75*
G03*
X7040000Y-3924000I-40000J0D01*
G01*
X7040000Y-4178000D02*
G75*
G03*
X7040000Y-4178000I-40000J0D01*
G01*
X7422000Y-9956000D02*
G75*
G03*
X7422000Y-9956000I-40000J0D01*
G01*
X7422000Y-10210000D02*
G75*
G03*
X7422000Y-10210000I-40000J0D01*
G01*
X7422000Y-10464000D02*
G75*
G03*
X7422000Y-10464000I-40000J0D01*
G01*
X7422000Y-10718000D02*
G75*
G03*
X7422000Y-10718000I-40000J0D01*
G01*
X7422000Y-10972000D02*
G75*
G03*
X7422000Y-10972000I-40000J0D01*
G01*
X7422000Y-11226000D02*
G75*
G03*
X7422000Y-11226000I-40000J0D01*
G01*
X7422000Y-11480000D02*
G75*
G03*
X7422000Y-11480000I-40000J0D01*
G01*
X7626000Y-7150000D02*
G75*
G03*
X7626000Y-7150000I-40000J0D01*
G01*
X7675000Y-4979000D02*
G75*
G03*
X7675000Y-4979000I-40000J0D01*
G01*
X7675000Y-5741000D02*
G75*
G03*
X7675000Y-5741000I-40000J0D01*
G01*
D13*
X2590800Y-10191700D02*
X2590800Y-10281700D01*
X2545800Y-10236700D02*
X2635800Y-10236700D01*
X2590800Y-10445700D02*
X2590800Y-10535700D01*
X2545800Y-10490700D02*
X2635800Y-10490700D01*
X3715000Y-10186000D02*
X3715000Y-10276000D01*
X3670000Y-10231000D02*
X3760000Y-10231000D01*
X3715000Y-10440000D02*
X3715000Y-10530000D01*
X3670000Y-10485000D02*
X3760000Y-10485000D01*
X4840000Y-10186000D02*
X4840000Y-10276000D01*
X4795000Y-10231000D02*
X4885000Y-10231000D01*
X4840000Y-10440000D02*
X4840000Y-10530000D01*
X4795000Y-10485000D02*
X4885000Y-10485000D01*
X5965000Y-10216000D02*
X5965000Y-10306000D01*
X5920000Y-10261000D02*
X6010000Y-10261000D01*
X5965000Y-10470000D02*
X5965000Y-10560000D01*
X5920000Y-10515000D02*
X6010000Y-10515000D01*
D14*
X2523556Y-4937556D02*
X2523556Y-4866844D01*
X2452844Y-4866844D01*
X2452844Y-4937556D01*
X2523556Y-4937556D01*
X2523556Y-5191556D02*
X2523556Y-5120844D01*
X2452844Y-5120844D01*
X2452844Y-5191556D01*
X2523556Y-5191556D01*
X2523556Y-5445556D02*
X2523556Y-5374844D01*
X2452844Y-5374844D01*
X2452844Y-5445556D01*
X2523556Y-5445556D01*
X2523556Y-5699556D02*
X2523556Y-5628844D01*
X2452844Y-5628844D01*
X2452844Y-5699556D01*
X2523556Y-5699556D01*
X2523556Y-5953556D02*
X2523556Y-5882844D01*
X2452844Y-5882844D01*
X2452844Y-5953556D01*
X2523556Y-5953556D01*
X2523556Y-6207556D02*
X2523556Y-6136844D01*
X2452844Y-6136844D01*
X2452844Y-6207556D01*
X2523556Y-6207556D01*
X2523556Y-6461556D02*
X2523556Y-6390844D01*
X2452844Y-6390844D01*
X2452844Y-6461556D01*
X2523556Y-6461556D01*
X2523556Y-6715556D02*
X2523556Y-6644844D01*
X2452844Y-6644844D01*
X2452844Y-6715556D01*
X2523556Y-6715556D01*
X2523556Y-6969556D02*
X2523556Y-6898844D01*
X2452844Y-6898844D01*
X2452844Y-6969556D01*
X2523556Y-6969556D01*
X2523556Y-7223556D02*
X2523556Y-7152844D01*
X2452844Y-7152844D01*
X2452844Y-7223556D01*
X2523556Y-7223556D01*
X2523556Y-7477556D02*
X2523556Y-7406844D01*
X2452844Y-7406844D01*
X2452844Y-7477556D01*
X2523556Y-7477556D01*
X2523556Y-7731556D02*
X2523556Y-7660844D01*
X2452844Y-7660844D01*
X2452844Y-7731556D01*
X2523556Y-7731556D01*
X2523556Y-7985556D02*
X2523556Y-7914844D01*
X2452844Y-7914844D01*
X2452844Y-7985556D01*
X2523556Y-7985556D01*
X2523556Y-8239556D02*
X2523556Y-8168844D01*
X2452844Y-8168844D01*
X2452844Y-8239556D01*
X2523556Y-8239556D01*
X2523556Y-8493556D02*
X2523556Y-8422844D01*
X2452844Y-8422844D01*
X2452844Y-8493556D01*
X2523556Y-8493556D01*
X2626156Y-12008556D02*
X2626156Y-11937844D01*
X2555444Y-11937844D01*
X2555444Y-12008556D01*
X2626156Y-12008556D01*
X3750356Y-12008556D02*
X3750356Y-11937844D01*
X3679644Y-11937844D01*
X3679644Y-12008556D01*
X3750356Y-12008556D01*
X4047556Y-4937556D02*
X4047556Y-4866844D01*
X3976844Y-4866844D01*
X3976844Y-4937556D01*
X4047556Y-4937556D01*
X4047556Y-5191556D02*
X4047556Y-5120844D01*
X3976844Y-5120844D01*
X3976844Y-5191556D01*
X4047556Y-5191556D01*
X4047556Y-5445556D02*
X4047556Y-5374844D01*
X3976844Y-5374844D01*
X3976844Y-5445556D01*
X4047556Y-5445556D01*
X4047556Y-5699556D02*
X4047556Y-5628844D01*
X3976844Y-5628844D01*
X3976844Y-5699556D01*
X4047556Y-5699556D01*
X4047556Y-5953556D02*
X4047556Y-5882844D01*
X3976844Y-5882844D01*
X3976844Y-5953556D01*
X4047556Y-5953556D01*
X4047556Y-6207556D02*
X4047556Y-6136844D01*
X3976844Y-6136844D01*
X3976844Y-6207556D01*
X4047556Y-6207556D01*
X4047556Y-6461556D02*
X4047556Y-6390844D01*
X3976844Y-6390844D01*
X3976844Y-6461556D01*
X4047556Y-6461556D01*
X4047556Y-6715556D02*
X4047556Y-6644844D01*
X3976844Y-6644844D01*
X3976844Y-6715556D01*
X4047556Y-6715556D01*
X4047556Y-6969556D02*
X4047556Y-6898844D01*
X3976844Y-6898844D01*
X3976844Y-6969556D01*
X4047556Y-6969556D01*
X4047556Y-7223556D02*
X4047556Y-7152844D01*
X3976844Y-7152844D01*
X3976844Y-7223556D01*
X4047556Y-7223556D01*
X4047556Y-7477556D02*
X4047556Y-7406844D01*
X3976844Y-7406844D01*
X3976844Y-7477556D01*
X4047556Y-7477556D01*
X4047556Y-7731556D02*
X4047556Y-7660844D01*
X3976844Y-7660844D01*
X3976844Y-7731556D01*
X4047556Y-7731556D01*
X4047556Y-7985556D02*
X4047556Y-7914844D01*
X3976844Y-7914844D01*
X3976844Y-7985556D01*
X4047556Y-7985556D01*
X4047556Y-8239556D02*
X4047556Y-8168844D01*
X3976844Y-8168844D01*
X3976844Y-8239556D01*
X4047556Y-8239556D01*
X4047556Y-8493556D02*
X4047556Y-8422844D01*
X3976844Y-8422844D01*
X3976844Y-8493556D01*
X4047556Y-8493556D01*
X4300356Y-2359106D02*
X4300356Y-2288394D01*
X4229644Y-2288394D01*
X4229644Y-2359106D01*
X4300356Y-2359106D01*
X4300356Y-3883106D02*
X4300356Y-3812394D01*
X4229644Y-3812394D01*
X4229644Y-3883106D01*
X4300356Y-3883106D01*
X4554356Y-2359106D02*
X4554356Y-2288394D01*
X4483644Y-2288394D01*
X4483644Y-2359106D01*
X4554356Y-2359106D01*
X4554356Y-3883106D02*
X4554356Y-3812394D01*
X4483644Y-3812394D01*
X4483644Y-3883106D01*
X4554356Y-3883106D01*
X4808356Y-2359106D02*
X4808356Y-2288394D01*
X4737644Y-2288394D01*
X4737644Y-2359106D01*
X4808356Y-2359106D01*
X4808356Y-3883106D02*
X4808356Y-3812394D01*
X4737644Y-3812394D01*
X4737644Y-3883106D01*
X4808356Y-3883106D01*
X4875356Y-12008556D02*
X4875356Y-11937844D01*
X4804644Y-11937844D01*
X4804644Y-12008556D01*
X4875356Y-12008556D01*
X5062356Y-2359106D02*
X5062356Y-2288394D01*
X4991644Y-2288394D01*
X4991644Y-2359106D01*
X5062356Y-2359106D01*
X5062356Y-3883106D02*
X5062356Y-3812394D01*
X4991644Y-3812394D01*
X4991644Y-3883106D01*
X5062356Y-3883106D01*
X5316356Y-2359106D02*
X5316356Y-2288394D01*
X5245644Y-2288394D01*
X5245644Y-2359106D01*
X5316356Y-2359106D01*
X5316356Y-3883106D02*
X5316356Y-3812394D01*
X5245644Y-3812394D01*
X5245644Y-3883106D01*
X5316356Y-3883106D01*
X5570356Y-2359106D02*
X5570356Y-2288394D01*
X5499644Y-2288394D01*
X5499644Y-2359106D01*
X5570356Y-2359106D01*
X5570356Y-3883106D02*
X5570356Y-3812394D01*
X5499644Y-3812394D01*
X5499644Y-3883106D01*
X5570356Y-3883106D01*
X5914356Y-5017756D02*
X5914356Y-4947044D01*
X5843644Y-4947044D01*
X5843644Y-5017756D01*
X5914356Y-5017756D01*
X5914356Y-5267756D02*
X5914356Y-5197044D01*
X5843644Y-5197044D01*
X5843644Y-5267756D01*
X5914356Y-5267756D01*
X5914356Y-5517756D02*
X5914356Y-5447044D01*
X5843644Y-5447044D01*
X5843644Y-5517756D01*
X5914356Y-5517756D01*
X6000356Y-12008556D02*
X6000356Y-11937844D01*
X5929644Y-11937844D01*
X5929644Y-12008556D01*
X6000356Y-12008556D01*
X6475356Y-7822856D02*
X6475356Y-7752144D01*
X6404644Y-7752144D01*
X6404644Y-7822856D01*
X6475356Y-7822856D01*
X6475356Y-8076856D02*
X6475356Y-8006144D01*
X6404644Y-8006144D01*
X6404644Y-8076856D01*
X6475356Y-8076856D01*
X6729356Y-7822856D02*
X6729356Y-7752144D01*
X6658644Y-7752144D01*
X6658644Y-7822856D01*
X6729356Y-7822856D01*
X6729356Y-8076856D02*
X6729356Y-8006144D01*
X6658644Y-8006144D01*
X6658644Y-8076856D01*
X6729356Y-8076856D01*
X6983356Y-7822856D02*
X6983356Y-7752144D01*
X6912644Y-7752144D01*
X6912644Y-7822856D01*
X6983356Y-7822856D01*
X6983356Y-8076856D02*
X6983356Y-8006144D01*
X6912644Y-8006144D01*
X6912644Y-8076856D01*
X6983356Y-8076856D01*
X7237356Y-7822856D02*
X7237356Y-7752144D01*
X7166644Y-7752144D01*
X7166644Y-7822856D01*
X7237356Y-7822856D01*
X7237356Y-8076856D02*
X7237356Y-8006144D01*
X7166644Y-8006144D01*
X7166644Y-8076856D01*
X7237356Y-8076856D01*
X7364356Y-5017756D02*
X7364356Y-4947044D01*
X7293644Y-4947044D01*
X7293644Y-5017756D01*
X7364356Y-5017756D01*
X7364356Y-5517756D02*
X7364356Y-5447044D01*
X7293644Y-5447044D01*
X7293644Y-5517756D01*
X7364356Y-5517756D01*
X7491356Y-7822856D02*
X7491356Y-7752144D01*
X7420644Y-7752144D01*
X7420644Y-7822856D01*
X7491356Y-7822856D01*
X7491356Y-8076856D02*
X7491356Y-8006144D01*
X7420644Y-8006144D01*
X7420644Y-8076856D01*
X7491356Y-8076856D01*
D15*
X5821800Y-6434000D02*
X5876800Y-6379000D01*
X5821800Y-6324000D01*
X5766800Y-6379000D01*
X5821800Y-6434000D01*
X5821800Y-6884000D02*
X5876800Y-6829000D01*
X5821800Y-6774000D01*
X5766800Y-6829000D01*
X5821800Y-6884000D01*
X6471800Y-6434000D02*
X6526800Y-6379000D01*
X6471800Y-6324000D01*
X6416800Y-6379000D01*
X6471800Y-6434000D01*
X6471800Y-6884000D02*
X6526800Y-6829000D01*
X6471800Y-6774000D01*
X6416800Y-6829000D01*
X6471800Y-6884000D01*
X6888600Y-6434000D02*
X6943600Y-6379000D01*
X6888600Y-6324000D01*
X6833600Y-6379000D01*
X6888600Y-6434000D01*
X6888600Y-6884000D02*
X6943600Y-6829000D01*
X6888600Y-6774000D01*
X6833600Y-6829000D01*
X6888600Y-6884000D01*
X7538600Y-6434000D02*
X7593600Y-6379000D01*
X7538600Y-6324000D01*
X7483600Y-6379000D01*
X7538600Y-6434000D01*
X7538600Y-6884000D02*
X7593600Y-6829000D01*
X7538600Y-6774000D01*
X7483600Y-6829000D01*
X7538600Y-6884000D01*
D16*
X2525800Y-10822200D02*
X2655800Y-10952200D01*
X2655800Y-10822200D02*
X2525800Y-10952200D01*
X2655800Y-10887200D02*
G75*
G03*
X2655800Y-10887200I-65000J0D01*
G01*
D11*
X2590800Y-10942200D02*
X2590800Y-10942200D01*
X2590800Y-10832200D02*
X2590800Y-10832200D01*
X2590800Y-10942200D02*
G75*
G03*
X2590800Y-10832200I0J55000D01*
G01*
X2590800Y-10832200D02*
G75*
G03*
X2590800Y-10942200I0J-55000D01*
G01*
D16*
X2525800Y-11652200D02*
X2655800Y-11782200D01*
X2655800Y-11652200D02*
X2525800Y-11782200D01*
X2655800Y-11717200D02*
G75*
G03*
X2655800Y-11717200I-65000J0D01*
G01*
D11*
X2590800Y-11772200D02*
X2590800Y-11772200D01*
X2590800Y-11662200D02*
X2590800Y-11662200D01*
X2590800Y-11772200D02*
G75*
G03*
X2590800Y-11662200I0J55000D01*
G01*
X2590800Y-11662200D02*
G75*
G03*
X2590800Y-11772200I0J-55000D01*
G01*
D16*
X3650000Y-10822200D02*
X3780000Y-10952200D01*
X3780000Y-10822200D02*
X3650000Y-10952200D01*
X3780000Y-10887200D02*
G75*
G03*
X3780000Y-10887200I-65000J0D01*
G01*
D11*
X3715000Y-10942200D02*
X3715000Y-10942200D01*
X3715000Y-10832200D02*
X3715000Y-10832200D01*
X3715000Y-10942200D02*
G75*
G03*
X3715000Y-10832200I0J55000D01*
G01*
X3715000Y-10832200D02*
G75*
G03*
X3715000Y-10942200I0J-55000D01*
G01*
D16*
X3650000Y-11652200D02*
X3780000Y-11782200D01*
X3780000Y-11652200D02*
X3650000Y-11782200D01*
X3780000Y-11717200D02*
G75*
G03*
X3780000Y-11717200I-65000J0D01*
G01*
D11*
X3715000Y-11772200D02*
X3715000Y-11772200D01*
X3715000Y-11662200D02*
X3715000Y-11662200D01*
X3715000Y-11772200D02*
G75*
G03*
X3715000Y-11662200I0J55000D01*
G01*
X3715000Y-11662200D02*
G75*
G03*
X3715000Y-11772200I0J-55000D01*
G01*
D16*
X4775000Y-10822200D02*
X4905000Y-10952200D01*
X4905000Y-10822200D02*
X4775000Y-10952200D01*
X4905000Y-10887200D02*
G75*
G03*
X4905000Y-10887200I-65000J0D01*
G01*
D11*
X4840000Y-10942200D02*
X4840000Y-10942200D01*
X4840000Y-10832200D02*
X4840000Y-10832200D01*
X4840000Y-10942200D02*
G75*
G03*
X4840000Y-10832200I0J55000D01*
G01*
X4840000Y-10832200D02*
G75*
G03*
X4840000Y-10942200I0J-55000D01*
G01*
D16*
X4775000Y-11652200D02*
X4905000Y-11782200D01*
X4905000Y-11652200D02*
X4775000Y-11782200D01*
X4905000Y-11717200D02*
G75*
G03*
X4905000Y-11717200I-65000J0D01*
G01*
D11*
X4840000Y-11772200D02*
X4840000Y-11772200D01*
X4840000Y-11662200D02*
X4840000Y-11662200D01*
X4840000Y-11772200D02*
G75*
G03*
X4840000Y-11662200I0J55000D01*
G01*
X4840000Y-11662200D02*
G75*
G03*
X4840000Y-11772200I0J-55000D01*
G01*
D16*
X5900000Y-10822200D02*
X6030000Y-10952200D01*
X6030000Y-10822200D02*
X5900000Y-10952200D01*
X6030000Y-10887200D02*
G75*
G03*
X6030000Y-10887200I-65000J0D01*
G01*
D11*
X5965000Y-10942200D02*
X5965000Y-10942200D01*
X5965000Y-10832200D02*
X5965000Y-10832200D01*
X5965000Y-10942200D02*
G75*
G03*
X5965000Y-10832200I0J55000D01*
G01*
X5965000Y-10832200D02*
G75*
G03*
X5965000Y-10942200I0J-55000D01*
G01*
D16*
X5900000Y-11652200D02*
X6030000Y-11782200D01*
X6030000Y-11652200D02*
X5900000Y-11782200D01*
X6030000Y-11717200D02*
G75*
G03*
X6030000Y-11717200I-65000J0D01*
G01*
D11*
X5965000Y-11772200D02*
X5965000Y-11772200D01*
X5965000Y-11662200D02*
X5965000Y-11662200D01*
X5965000Y-11772200D02*
G75*
G03*
X5965000Y-11662200I0J55000D01*
G01*
X5965000Y-11662200D02*
G75*
G03*
X5965000Y-11772200I0J-55000D01*
G01*
D17*
X6554000Y-4597400D02*
X6704000Y-4747400D01*
X6704000Y-4597400D02*
X6554000Y-4747400D01*
X6629000Y-4597400D02*
X6629000Y-4747400D01*
X6554000Y-4672400D02*
X6704000Y-4672400D01*
D11*
X6564000Y-4737400D02*
X6694000Y-4737400D01*
X6564000Y-4607400D02*
X6694000Y-4607400D01*
X6694000Y-4737400D02*
G75*
G03*
X6694000Y-4607400I0J65000D01*
G01*
X6564000Y-4607400D02*
G75*
G03*
X6564000Y-4737400I0J-65000D01*
G01*
D17*
X6554000Y-5717400D02*
X6704000Y-5867400D01*
X6704000Y-5717400D02*
X6554000Y-5867400D01*
X6629000Y-5717400D02*
X6629000Y-5867400D01*
X6554000Y-5792400D02*
X6704000Y-5792400D01*
D11*
X6564000Y-5857400D02*
X6694000Y-5857400D01*
X6564000Y-5727400D02*
X6694000Y-5727400D01*
X6694000Y-5857400D02*
G75*
G03*
X6694000Y-5727400I0J65000D01*
G01*
X6564000Y-5727400D02*
G75*
G03*
X6564000Y-5857400I0J-65000D01*
G01*
X2252619Y-12415476D02*
X2252619Y-12215476D01*
X2300238Y-12215476D01*
X2328810Y-12225000D01*
X2347857Y-12244048D01*
X2357381Y-12263095D01*
X2366905Y-12301190D01*
X2366905Y-12329762D01*
X2357381Y-12367857D01*
X2347857Y-12386905D01*
X2328810Y-12405952D01*
X2300238Y-12415476D01*
X2252619Y-12415476D01*
X2452619Y-12415476D02*
X2452619Y-12282143D01*
X2452619Y-12320238D02*
X2462143Y-12301190D01*
X2471667Y-12291667D01*
X2490714Y-12282143D01*
X2509762Y-12282143D01*
X2576429Y-12415476D02*
X2576429Y-12282143D01*
X2576429Y-12215476D02*
X2566905Y-12225000D01*
X2576429Y-12234524D01*
X2585952Y-12225000D01*
X2576429Y-12215476D01*
X2576429Y-12234524D01*
X2700238Y-12415476D02*
X2681190Y-12405952D01*
X2671667Y-12386905D01*
X2671667Y-12215476D01*
X2805000Y-12415476D02*
X2785952Y-12405952D01*
X2776429Y-12386905D01*
X2776429Y-12215476D01*
X3033571Y-12415476D02*
X3033571Y-12215476D01*
X3100238Y-12358333D01*
X3166905Y-12215476D01*
X3166905Y-12415476D01*
X3347857Y-12415476D02*
X3347857Y-12310714D01*
X3338333Y-12291667D01*
X3319286Y-12282143D01*
X3281190Y-12282143D01*
X3262143Y-12291667D01*
X3347857Y-12405952D02*
X3328809Y-12415476D01*
X3281190Y-12415476D01*
X3262143Y-12405952D01*
X3252619Y-12386905D01*
X3252619Y-12367857D01*
X3262143Y-12348809D01*
X3281190Y-12339286D01*
X3328809Y-12339286D01*
X3347857Y-12329762D01*
X3443095Y-12282143D02*
X3443095Y-12482143D01*
X3443095Y-12291667D02*
X3462143Y-12282143D01*
X3500238Y-12282143D01*
X3519286Y-12291667D01*
X3528809Y-12301190D01*
X3538333Y-12320238D01*
X3538333Y-12377381D01*
X3528809Y-12396428D01*
X3519286Y-12405952D01*
X3500238Y-12415476D01*
X3462143Y-12415476D01*
X3443095Y-12405952D01*
X3624048Y-12396428D02*
X3633571Y-12405952D01*
X3624048Y-12415476D01*
X3614524Y-12405952D01*
X3624048Y-12396428D01*
X3624048Y-12415476D01*
X3624048Y-12291667D02*
X3633571Y-12301190D01*
X3624048Y-12310714D01*
X3614524Y-12301190D01*
X3624048Y-12291667D01*
X3624048Y-12310714D01*
D12*
X1915000Y-12705000D02*
X1995000Y-12785000D01*
X1995000Y-12705000D02*
X1915000Y-12785000D01*
D11*
X2290714Y-12635476D02*
X2309762Y-12635476D01*
X2328810Y-12645000D01*
X2338333Y-12654524D01*
X2347857Y-12673571D01*
X2357381Y-12711667D01*
X2357381Y-12759286D01*
X2347857Y-12797381D01*
X2338333Y-12816428D01*
X2328810Y-12825952D01*
X2309762Y-12835476D01*
X2290714Y-12835476D01*
X2271667Y-12825952D01*
X2262143Y-12816428D01*
X2252619Y-12797381D01*
X2243095Y-12759286D01*
X2243095Y-12711667D01*
X2252619Y-12673571D01*
X2262143Y-12654524D01*
X2271667Y-12645000D01*
X2290714Y-12635476D01*
X2443095Y-12816428D02*
X2452619Y-12825952D01*
X2443095Y-12835476D01*
X2433571Y-12825952D01*
X2443095Y-12816428D01*
X2443095Y-12835476D01*
X2566905Y-12721190D02*
X2547857Y-12711667D01*
X2538333Y-12702143D01*
X2528810Y-12683095D01*
X2528810Y-12673571D01*
X2538333Y-12654524D01*
X2547857Y-12645000D01*
X2566905Y-12635476D01*
X2605000Y-12635476D01*
X2624048Y-12645000D01*
X2633571Y-12654524D01*
X2643095Y-12673571D01*
X2643095Y-12683095D01*
X2633571Y-12702143D01*
X2624048Y-12711667D01*
X2605000Y-12721190D01*
X2566905Y-12721190D01*
X2547857Y-12730714D01*
X2538333Y-12740238D01*
X2528810Y-12759286D01*
X2528810Y-12797381D01*
X2538333Y-12816428D01*
X2547857Y-12825952D01*
X2566905Y-12835476D01*
X2605000Y-12835476D01*
X2624048Y-12825952D01*
X2633571Y-12816428D01*
X2643095Y-12797381D01*
X2643095Y-12759286D01*
X2633571Y-12740238D01*
X2624048Y-12730714D01*
X2605000Y-12721190D01*
X2766905Y-12635476D02*
X2785952Y-12635476D01*
X2805000Y-12645000D01*
X2814524Y-12654524D01*
X2824048Y-12673571D01*
X2833571Y-12711667D01*
X2833571Y-12759286D01*
X2824048Y-12797381D01*
X2814524Y-12816428D01*
X2805000Y-12825952D01*
X2785952Y-12835476D01*
X2766905Y-12835476D01*
X2747857Y-12825952D01*
X2738333Y-12816428D01*
X2728810Y-12797381D01*
X2719286Y-12759286D01*
X2719286Y-12711667D01*
X2728810Y-12673571D01*
X2738333Y-12654524D01*
X2747857Y-12645000D01*
X2766905Y-12635476D01*
X2957381Y-12635476D02*
X2976428Y-12635476D01*
X2995476Y-12645000D01*
X3005000Y-12654524D01*
X3014524Y-12673571D01*
X3024048Y-12711667D01*
X3024048Y-12759286D01*
X3014524Y-12797381D01*
X3005000Y-12816428D01*
X2995476Y-12825952D01*
X2976428Y-12835476D01*
X2957381Y-12835476D01*
X2938333Y-12825952D01*
X2928809Y-12816428D01*
X2919286Y-12797381D01*
X2909762Y-12759286D01*
X2909762Y-12711667D01*
X2919286Y-12673571D01*
X2928809Y-12654524D01*
X2938333Y-12645000D01*
X2957381Y-12635476D01*
X3109762Y-12835476D02*
X3109762Y-12702143D01*
X3109762Y-12721190D02*
X3119286Y-12711667D01*
X3138333Y-12702143D01*
X3166905Y-12702143D01*
X3185952Y-12711667D01*
X3195476Y-12730714D01*
X3195476Y-12835476D01*
X3195476Y-12730714D02*
X3205000Y-12711667D01*
X3224048Y-12702143D01*
X3252619Y-12702143D01*
X3271667Y-12711667D01*
X3281190Y-12730714D01*
X3281190Y-12835476D01*
X3376428Y-12835476D02*
X3376428Y-12702143D01*
X3376428Y-12721190D02*
X3385952Y-12711667D01*
X3405000Y-12702143D01*
X3433571Y-12702143D01*
X3452619Y-12711667D01*
X3462143Y-12730714D01*
X3462143Y-12835476D01*
X3462143Y-12730714D02*
X3471667Y-12711667D01*
X3490714Y-12702143D01*
X3519286Y-12702143D01*
X3538333Y-12711667D01*
X3547857Y-12730714D01*
X3547857Y-12835476D01*
X3938333Y-12625952D02*
X3766905Y-12883095D01*
X4195476Y-12635476D02*
X4214524Y-12635476D01*
X4233571Y-12645000D01*
X4243095Y-12654524D01*
X4252619Y-12673571D01*
X4262143Y-12711667D01*
X4262143Y-12759286D01*
X4252619Y-12797381D01*
X4243095Y-12816428D01*
X4233571Y-12825952D01*
X4214524Y-12835476D01*
X4195476Y-12835476D01*
X4176428Y-12825952D01*
X4166905Y-12816428D01*
X4157381Y-12797381D01*
X4147857Y-12759286D01*
X4147857Y-12711667D01*
X4157381Y-12673571D01*
X4166905Y-12654524D01*
X4176428Y-12645000D01*
X4195476Y-12635476D01*
X4347857Y-12816428D02*
X4357381Y-12825952D01*
X4347857Y-12835476D01*
X4338333Y-12825952D01*
X4347857Y-12816428D01*
X4347857Y-12835476D01*
X4481190Y-12635476D02*
X4500238Y-12635476D01*
X4519286Y-12645000D01*
X4528810Y-12654524D01*
X4538333Y-12673571D01*
X4547857Y-12711667D01*
X4547857Y-12759286D01*
X4538333Y-12797381D01*
X4528810Y-12816428D01*
X4519286Y-12825952D01*
X4500238Y-12835476D01*
X4481190Y-12835476D01*
X4462143Y-12825952D01*
X4452619Y-12816428D01*
X4443095Y-12797381D01*
X4433571Y-12759286D01*
X4433571Y-12711667D01*
X4443095Y-12673571D01*
X4452619Y-12654524D01*
X4462143Y-12645000D01*
X4481190Y-12635476D01*
X4614524Y-12635476D02*
X4738333Y-12635476D01*
X4671667Y-12711667D01*
X4700238Y-12711667D01*
X4719286Y-12721190D01*
X4728810Y-12730714D01*
X4738333Y-12749762D01*
X4738333Y-12797381D01*
X4728810Y-12816428D01*
X4719286Y-12825952D01*
X4700238Y-12835476D01*
X4643095Y-12835476D01*
X4624048Y-12825952D01*
X4614524Y-12816428D01*
X4928810Y-12835476D02*
X4814524Y-12835476D01*
X4871667Y-12835476D02*
X4871667Y-12635476D01*
X4852619Y-12664048D01*
X4833571Y-12683095D01*
X4814524Y-12692619D01*
X5109762Y-12635476D02*
X5014524Y-12635476D01*
X5005000Y-12730714D01*
X5014524Y-12721190D01*
X5033571Y-12711667D01*
X5081190Y-12711667D01*
X5100238Y-12721190D01*
X5109762Y-12730714D01*
X5119286Y-12749762D01*
X5119286Y-12797381D01*
X5109762Y-12816428D01*
X5100238Y-12825952D01*
X5081190Y-12835476D01*
X5033571Y-12835476D01*
X5014524Y-12825952D01*
X5005000Y-12816428D01*
X5195476Y-12635476D02*
X5195476Y-12673571D01*
X5271667Y-12635476D02*
X5271667Y-12673571D01*
X5566905Y-12911667D02*
X5557381Y-12902143D01*
X5538333Y-12873571D01*
X5528810Y-12854524D01*
X5519286Y-12825952D01*
X5509762Y-12778333D01*
X5509762Y-12740238D01*
X5519286Y-12692619D01*
X5528810Y-12664048D01*
X5538333Y-12645000D01*
X5557381Y-12616428D01*
X5566905Y-12606905D01*
X5728809Y-12702143D02*
X5728809Y-12835476D01*
X5681190Y-12625952D02*
X5633571Y-12768809D01*
X5757381Y-12768809D01*
X5919286Y-12635476D02*
X5881190Y-12635476D01*
X5862143Y-12645000D01*
X5852619Y-12654524D01*
X5833571Y-12683095D01*
X5824048Y-12721190D01*
X5824048Y-12797381D01*
X5833571Y-12816428D01*
X5843095Y-12825952D01*
X5862143Y-12835476D01*
X5900238Y-12835476D01*
X5919286Y-12825952D01*
X5928809Y-12816428D01*
X5938333Y-12797381D01*
X5938333Y-12749762D01*
X5928809Y-12730714D01*
X5919286Y-12721190D01*
X5900238Y-12711667D01*
X5862143Y-12711667D01*
X5843095Y-12721190D01*
X5833571Y-12730714D01*
X5824048Y-12749762D01*
X6176428Y-12835476D02*
X6176428Y-12635476D01*
X6262143Y-12835476D02*
X6262143Y-12730714D01*
X6252619Y-12711667D01*
X6233571Y-12702143D01*
X6205000Y-12702143D01*
X6185952Y-12711667D01*
X6176428Y-12721190D01*
X6385952Y-12835476D02*
X6366905Y-12825952D01*
X6357381Y-12816428D01*
X6347857Y-12797381D01*
X6347857Y-12740238D01*
X6357381Y-12721190D01*
X6366905Y-12711667D01*
X6385952Y-12702143D01*
X6414524Y-12702143D01*
X6433571Y-12711667D01*
X6443095Y-12721190D01*
X6452619Y-12740238D01*
X6452619Y-12797381D01*
X6443095Y-12816428D01*
X6433571Y-12825952D01*
X6414524Y-12835476D01*
X6385952Y-12835476D01*
X6566905Y-12835476D02*
X6547857Y-12825952D01*
X6538333Y-12806905D01*
X6538333Y-12635476D01*
X6719286Y-12825952D02*
X6700238Y-12835476D01*
X6662143Y-12835476D01*
X6643095Y-12825952D01*
X6633571Y-12806905D01*
X6633571Y-12730714D01*
X6643095Y-12711667D01*
X6662143Y-12702143D01*
X6700238Y-12702143D01*
X6719286Y-12711667D01*
X6728809Y-12730714D01*
X6728809Y-12749762D01*
X6633571Y-12768809D01*
X6805000Y-12825952D02*
X6824048Y-12835476D01*
X6862143Y-12835476D01*
X6881190Y-12825952D01*
X6890714Y-12806905D01*
X6890714Y-12797381D01*
X6881190Y-12778333D01*
X6862143Y-12768809D01*
X6833571Y-12768809D01*
X6814524Y-12759286D01*
X6805000Y-12740238D01*
X6805000Y-12730714D01*
X6814524Y-12711667D01*
X6833571Y-12702143D01*
X6862143Y-12702143D01*
X6881190Y-12711667D01*
X6957381Y-12911667D02*
X6966905Y-12902143D01*
X6985952Y-12873571D01*
X6995476Y-12854524D01*
X7005000Y-12825952D01*
X7014524Y-12778333D01*
X7014524Y-12740238D01*
X7005000Y-12692619D01*
X6995476Y-12664048D01*
X6985952Y-12645000D01*
X6966905Y-12616428D01*
X6957381Y-12606905D01*
D12*
X1995000Y-13009000D02*
G75*
G03*
X1995000Y-13009000I-40000J0D01*
G01*
D11*
X2290714Y-12899476D02*
X2309762Y-12899476D01*
X2328810Y-12909000D01*
X2338333Y-12918524D01*
X2347857Y-12937571D01*
X2357381Y-12975667D01*
X2357381Y-13023286D01*
X2347857Y-13061381D01*
X2338333Y-13080428D01*
X2328810Y-13089952D01*
X2309762Y-13099476D01*
X2290714Y-13099476D01*
X2271667Y-13089952D01*
X2262143Y-13080428D01*
X2252619Y-13061381D01*
X2243095Y-13023286D01*
X2243095Y-12975667D01*
X2252619Y-12937571D01*
X2262143Y-12918524D01*
X2271667Y-12909000D01*
X2290714Y-12899476D01*
X2443095Y-13080428D02*
X2452619Y-13089952D01*
X2443095Y-13099476D01*
X2433571Y-13089952D01*
X2443095Y-13080428D01*
X2443095Y-13099476D01*
X2566905Y-12985190D02*
X2547857Y-12975667D01*
X2538333Y-12966143D01*
X2528810Y-12947095D01*
X2528810Y-12937571D01*
X2538333Y-12918524D01*
X2547857Y-12909000D01*
X2566905Y-12899476D01*
X2605000Y-12899476D01*
X2624048Y-12909000D01*
X2633571Y-12918524D01*
X2643095Y-12937571D01*
X2643095Y-12947095D01*
X2633571Y-12966143D01*
X2624048Y-12975667D01*
X2605000Y-12985190D01*
X2566905Y-12985190D01*
X2547857Y-12994714D01*
X2538333Y-13004238D01*
X2528810Y-13023286D01*
X2528810Y-13061381D01*
X2538333Y-13080428D01*
X2547857Y-13089952D01*
X2566905Y-13099476D01*
X2605000Y-13099476D01*
X2624048Y-13089952D01*
X2633571Y-13080428D01*
X2643095Y-13061381D01*
X2643095Y-13023286D01*
X2633571Y-13004238D01*
X2624048Y-12994714D01*
X2605000Y-12985190D01*
X2766905Y-12899476D02*
X2785952Y-12899476D01*
X2805000Y-12909000D01*
X2814524Y-12918524D01*
X2824048Y-12937571D01*
X2833571Y-12975667D01*
X2833571Y-13023286D01*
X2824048Y-13061381D01*
X2814524Y-13080428D01*
X2805000Y-13089952D01*
X2785952Y-13099476D01*
X2766905Y-13099476D01*
X2747857Y-13089952D01*
X2738333Y-13080428D01*
X2728810Y-13061381D01*
X2719286Y-13023286D01*
X2719286Y-12975667D01*
X2728810Y-12937571D01*
X2738333Y-12918524D01*
X2747857Y-12909000D01*
X2766905Y-12899476D01*
X2957381Y-12899476D02*
X2976428Y-12899476D01*
X2995476Y-12909000D01*
X3005000Y-12918524D01*
X3014524Y-12937571D01*
X3024048Y-12975667D01*
X3024048Y-13023286D01*
X3014524Y-13061381D01*
X3005000Y-13080428D01*
X2995476Y-13089952D01*
X2976428Y-13099476D01*
X2957381Y-13099476D01*
X2938333Y-13089952D01*
X2928809Y-13080428D01*
X2919286Y-13061381D01*
X2909762Y-13023286D01*
X2909762Y-12975667D01*
X2919286Y-12937571D01*
X2928809Y-12918524D01*
X2938333Y-12909000D01*
X2957381Y-12899476D01*
X3109762Y-13099476D02*
X3109762Y-12966143D01*
X3109762Y-12985190D02*
X3119286Y-12975667D01*
X3138333Y-12966143D01*
X3166905Y-12966143D01*
X3185952Y-12975667D01*
X3195476Y-12994714D01*
X3195476Y-13099476D01*
X3195476Y-12994714D02*
X3205000Y-12975667D01*
X3224048Y-12966143D01*
X3252619Y-12966143D01*
X3271667Y-12975667D01*
X3281190Y-12994714D01*
X3281190Y-13099476D01*
X3376428Y-13099476D02*
X3376428Y-12966143D01*
X3376428Y-12985190D02*
X3385952Y-12975667D01*
X3405000Y-12966143D01*
X3433571Y-12966143D01*
X3452619Y-12975667D01*
X3462143Y-12994714D01*
X3462143Y-13099476D01*
X3462143Y-12994714D02*
X3471667Y-12975667D01*
X3490714Y-12966143D01*
X3519286Y-12966143D01*
X3538333Y-12975667D01*
X3547857Y-12994714D01*
X3547857Y-13099476D01*
X3938333Y-12889952D02*
X3766905Y-13147095D01*
X4195476Y-12899476D02*
X4214524Y-12899476D01*
X4233571Y-12909000D01*
X4243095Y-12918524D01*
X4252619Y-12937571D01*
X4262143Y-12975667D01*
X4262143Y-13023286D01*
X4252619Y-13061381D01*
X4243095Y-13080428D01*
X4233571Y-13089952D01*
X4214524Y-13099476D01*
X4195476Y-13099476D01*
X4176428Y-13089952D01*
X4166905Y-13080428D01*
X4157381Y-13061381D01*
X4147857Y-13023286D01*
X4147857Y-12975667D01*
X4157381Y-12937571D01*
X4166905Y-12918524D01*
X4176428Y-12909000D01*
X4195476Y-12899476D01*
X4347857Y-13080428D02*
X4357381Y-13089952D01*
X4347857Y-13099476D01*
X4338333Y-13089952D01*
X4347857Y-13080428D01*
X4347857Y-13099476D01*
X4481190Y-12899476D02*
X4500238Y-12899476D01*
X4519286Y-12909000D01*
X4528810Y-12918524D01*
X4538333Y-12937571D01*
X4547857Y-12975667D01*
X4547857Y-13023286D01*
X4538333Y-13061381D01*
X4528810Y-13080428D01*
X4519286Y-13089952D01*
X4500238Y-13099476D01*
X4481190Y-13099476D01*
X4462143Y-13089952D01*
X4452619Y-13080428D01*
X4443095Y-13061381D01*
X4433571Y-13023286D01*
X4433571Y-12975667D01*
X4443095Y-12937571D01*
X4452619Y-12918524D01*
X4462143Y-12909000D01*
X4481190Y-12899476D01*
X4614524Y-12899476D02*
X4738333Y-12899476D01*
X4671667Y-12975667D01*
X4700238Y-12975667D01*
X4719286Y-12985190D01*
X4728810Y-12994714D01*
X4738333Y-13013762D01*
X4738333Y-13061381D01*
X4728810Y-13080428D01*
X4719286Y-13089952D01*
X4700238Y-13099476D01*
X4643095Y-13099476D01*
X4624048Y-13089952D01*
X4614524Y-13080428D01*
X4928810Y-13099476D02*
X4814524Y-13099476D01*
X4871667Y-13099476D02*
X4871667Y-12899476D01*
X4852619Y-12928048D01*
X4833571Y-12947095D01*
X4814524Y-12956619D01*
X5109762Y-12899476D02*
X5014524Y-12899476D01*
X5005000Y-12994714D01*
X5014524Y-12985190D01*
X5033571Y-12975667D01*
X5081190Y-12975667D01*
X5100238Y-12985190D01*
X5109762Y-12994714D01*
X5119286Y-13013762D01*
X5119286Y-13061381D01*
X5109762Y-13080428D01*
X5100238Y-13089952D01*
X5081190Y-13099476D01*
X5033571Y-13099476D01*
X5014524Y-13089952D01*
X5005000Y-13080428D01*
X5195476Y-12899476D02*
X5195476Y-12937571D01*
X5271667Y-12899476D02*
X5271667Y-12937571D01*
X5566905Y-13175667D02*
X5557381Y-13166143D01*
X5538333Y-13137571D01*
X5528810Y-13118524D01*
X5519286Y-13089952D01*
X5509762Y-13042333D01*
X5509762Y-13004238D01*
X5519286Y-12956619D01*
X5528810Y-12928048D01*
X5538333Y-12909000D01*
X5557381Y-12880428D01*
X5566905Y-12870905D01*
X5671667Y-12985190D02*
X5652619Y-12975667D01*
X5643095Y-12966143D01*
X5633571Y-12947095D01*
X5633571Y-12937571D01*
X5643095Y-12918524D01*
X5652619Y-12909000D01*
X5671667Y-12899476D01*
X5709762Y-12899476D01*
X5728809Y-12909000D01*
X5738333Y-12918524D01*
X5747857Y-12937571D01*
X5747857Y-12947095D01*
X5738333Y-12966143D01*
X5728809Y-12975667D01*
X5709762Y-12985190D01*
X5671667Y-12985190D01*
X5652619Y-12994714D01*
X5643095Y-13004238D01*
X5633571Y-13023286D01*
X5633571Y-13061381D01*
X5643095Y-13080428D01*
X5652619Y-13089952D01*
X5671667Y-13099476D01*
X5709762Y-13099476D01*
X5728809Y-13089952D01*
X5738333Y-13080428D01*
X5747857Y-13061381D01*
X5747857Y-13023286D01*
X5738333Y-13004238D01*
X5728809Y-12994714D01*
X5709762Y-12985190D01*
X5862143Y-12985190D02*
X5843095Y-12975667D01*
X5833571Y-12966143D01*
X5824048Y-12947095D01*
X5824048Y-12937571D01*
X5833571Y-12918524D01*
X5843095Y-12909000D01*
X5862143Y-12899476D01*
X5900238Y-12899476D01*
X5919286Y-12909000D01*
X5928809Y-12918524D01*
X5938333Y-12937571D01*
X5938333Y-12947095D01*
X5928809Y-12966143D01*
X5919286Y-12975667D01*
X5900238Y-12985190D01*
X5862143Y-12985190D01*
X5843095Y-12994714D01*
X5833571Y-13004238D01*
X5824048Y-13023286D01*
X5824048Y-13061381D01*
X5833571Y-13080428D01*
X5843095Y-13089952D01*
X5862143Y-13099476D01*
X5900238Y-13099476D01*
X5919286Y-13089952D01*
X5928809Y-13080428D01*
X5938333Y-13061381D01*
X5938333Y-13023286D01*
X5928809Y-13004238D01*
X5919286Y-12994714D01*
X5900238Y-12985190D01*
X6176428Y-13099476D02*
X6176428Y-12899476D01*
X6262143Y-13099476D02*
X6262143Y-12994714D01*
X6252619Y-12975667D01*
X6233571Y-12966143D01*
X6205000Y-12966143D01*
X6185952Y-12975667D01*
X6176428Y-12985190D01*
X6385952Y-13099476D02*
X6366905Y-13089952D01*
X6357381Y-13080428D01*
X6347857Y-13061381D01*
X6347857Y-13004238D01*
X6357381Y-12985190D01*
X6366905Y-12975667D01*
X6385952Y-12966143D01*
X6414524Y-12966143D01*
X6433571Y-12975667D01*
X6443095Y-12985190D01*
X6452619Y-13004238D01*
X6452619Y-13061381D01*
X6443095Y-13080428D01*
X6433571Y-13089952D01*
X6414524Y-13099476D01*
X6385952Y-13099476D01*
X6566905Y-13099476D02*
X6547857Y-13089952D01*
X6538333Y-13070905D01*
X6538333Y-12899476D01*
X6719286Y-13089952D02*
X6700238Y-13099476D01*
X6662143Y-13099476D01*
X6643095Y-13089952D01*
X6633571Y-13070905D01*
X6633571Y-12994714D01*
X6643095Y-12975667D01*
X6662143Y-12966143D01*
X6700238Y-12966143D01*
X6719286Y-12975667D01*
X6728809Y-12994714D01*
X6728809Y-13013762D01*
X6633571Y-13032809D01*
X6805000Y-13089952D02*
X6824048Y-13099476D01*
X6862143Y-13099476D01*
X6881190Y-13089952D01*
X6890714Y-13070905D01*
X6890714Y-13061381D01*
X6881190Y-13042333D01*
X6862143Y-13032809D01*
X6833571Y-13032809D01*
X6814524Y-13023286D01*
X6805000Y-13004238D01*
X6805000Y-12994714D01*
X6814524Y-12975667D01*
X6833571Y-12966143D01*
X6862143Y-12966143D01*
X6881190Y-12975667D01*
X6957381Y-13175667D02*
X6966905Y-13166143D01*
X6985952Y-13137571D01*
X6995476Y-13118524D01*
X7005000Y-13089952D01*
X7014524Y-13042333D01*
X7014524Y-13004238D01*
X7005000Y-12956619D01*
X6995476Y-12928048D01*
X6985952Y-12909000D01*
X6966905Y-12880428D01*
X6957381Y-12870905D01*
D13*
X1950000Y-13228000D02*
X1950000Y-13318000D01*
X1905000Y-13273000D02*
X1995000Y-13273000D01*
D11*
X2290714Y-13163476D02*
X2309762Y-13163476D01*
X2328810Y-13173000D01*
X2338333Y-13182524D01*
X2347857Y-13201571D01*
X2357381Y-13239667D01*
X2357381Y-13287286D01*
X2347857Y-13325381D01*
X2338333Y-13344428D01*
X2328810Y-13353952D01*
X2309762Y-13363476D01*
X2290714Y-13363476D01*
X2271667Y-13353952D01*
X2262143Y-13344428D01*
X2252619Y-13325381D01*
X2243095Y-13287286D01*
X2243095Y-13239667D01*
X2252619Y-13201571D01*
X2262143Y-13182524D01*
X2271667Y-13173000D01*
X2290714Y-13163476D01*
X2443095Y-13344428D02*
X2452619Y-13353952D01*
X2443095Y-13363476D01*
X2433571Y-13353952D01*
X2443095Y-13344428D01*
X2443095Y-13363476D01*
X2547857Y-13363476D02*
X2585952Y-13363476D01*
X2605000Y-13353952D01*
X2614524Y-13344428D01*
X2633571Y-13315857D01*
X2643095Y-13277762D01*
X2643095Y-13201571D01*
X2633571Y-13182524D01*
X2624048Y-13173000D01*
X2605000Y-13163476D01*
X2566905Y-13163476D01*
X2547857Y-13173000D01*
X2538333Y-13182524D01*
X2528810Y-13201571D01*
X2528810Y-13249190D01*
X2538333Y-13268238D01*
X2547857Y-13277762D01*
X2566905Y-13287286D01*
X2605000Y-13287286D01*
X2624048Y-13277762D01*
X2633571Y-13268238D01*
X2643095Y-13249190D01*
X2766905Y-13163476D02*
X2785952Y-13163476D01*
X2805000Y-13173000D01*
X2814524Y-13182524D01*
X2824048Y-13201571D01*
X2833571Y-13239667D01*
X2833571Y-13287286D01*
X2824048Y-13325381D01*
X2814524Y-13344428D01*
X2805000Y-13353952D01*
X2785952Y-13363476D01*
X2766905Y-13363476D01*
X2747857Y-13353952D01*
X2738333Y-13344428D01*
X2728810Y-13325381D01*
X2719286Y-13287286D01*
X2719286Y-13239667D01*
X2728810Y-13201571D01*
X2738333Y-13182524D01*
X2747857Y-13173000D01*
X2766905Y-13163476D01*
X2957381Y-13163476D02*
X2976428Y-13163476D01*
X2995476Y-13173000D01*
X3005000Y-13182524D01*
X3014524Y-13201571D01*
X3024048Y-13239667D01*
X3024048Y-13287286D01*
X3014524Y-13325381D01*
X3005000Y-13344428D01*
X2995476Y-13353952D01*
X2976428Y-13363476D01*
X2957381Y-13363476D01*
X2938333Y-13353952D01*
X2928809Y-13344428D01*
X2919286Y-13325381D01*
X2909762Y-13287286D01*
X2909762Y-13239667D01*
X2919286Y-13201571D01*
X2928809Y-13182524D01*
X2938333Y-13173000D01*
X2957381Y-13163476D01*
X3109762Y-13363476D02*
X3109762Y-13230143D01*
X3109762Y-13249190D02*
X3119286Y-13239667D01*
X3138333Y-13230143D01*
X3166905Y-13230143D01*
X3185952Y-13239667D01*
X3195476Y-13258714D01*
X3195476Y-13363476D01*
X3195476Y-13258714D02*
X3205000Y-13239667D01*
X3224048Y-13230143D01*
X3252619Y-13230143D01*
X3271667Y-13239667D01*
X3281190Y-13258714D01*
X3281190Y-13363476D01*
X3376428Y-13363476D02*
X3376428Y-13230143D01*
X3376428Y-13249190D02*
X3385952Y-13239667D01*
X3405000Y-13230143D01*
X3433571Y-13230143D01*
X3452619Y-13239667D01*
X3462143Y-13258714D01*
X3462143Y-13363476D01*
X3462143Y-13258714D02*
X3471667Y-13239667D01*
X3490714Y-13230143D01*
X3519286Y-13230143D01*
X3538333Y-13239667D01*
X3547857Y-13258714D01*
X3547857Y-13363476D01*
X3938333Y-13153952D02*
X3766905Y-13411095D01*
X4195476Y-13163476D02*
X4214524Y-13163476D01*
X4233571Y-13173000D01*
X4243095Y-13182524D01*
X4252619Y-13201571D01*
X4262143Y-13239667D01*
X4262143Y-13287286D01*
X4252619Y-13325381D01*
X4243095Y-13344428D01*
X4233571Y-13353952D01*
X4214524Y-13363476D01*
X4195476Y-13363476D01*
X4176428Y-13353952D01*
X4166905Y-13344428D01*
X4157381Y-13325381D01*
X4147857Y-13287286D01*
X4147857Y-13239667D01*
X4157381Y-13201571D01*
X4166905Y-13182524D01*
X4176428Y-13173000D01*
X4195476Y-13163476D01*
X4347857Y-13344428D02*
X4357381Y-13353952D01*
X4347857Y-13363476D01*
X4338333Y-13353952D01*
X4347857Y-13344428D01*
X4347857Y-13363476D01*
X4481190Y-13163476D02*
X4500238Y-13163476D01*
X4519286Y-13173000D01*
X4528810Y-13182524D01*
X4538333Y-13201571D01*
X4547857Y-13239667D01*
X4547857Y-13287286D01*
X4538333Y-13325381D01*
X4528810Y-13344428D01*
X4519286Y-13353952D01*
X4500238Y-13363476D01*
X4481190Y-13363476D01*
X4462143Y-13353952D01*
X4452619Y-13344428D01*
X4443095Y-13325381D01*
X4433571Y-13287286D01*
X4433571Y-13239667D01*
X4443095Y-13201571D01*
X4452619Y-13182524D01*
X4462143Y-13173000D01*
X4481190Y-13163476D01*
X4614524Y-13163476D02*
X4738333Y-13163476D01*
X4671667Y-13239667D01*
X4700238Y-13239667D01*
X4719286Y-13249190D01*
X4728810Y-13258714D01*
X4738333Y-13277762D01*
X4738333Y-13325381D01*
X4728810Y-13344428D01*
X4719286Y-13353952D01*
X4700238Y-13363476D01*
X4643095Y-13363476D01*
X4624048Y-13353952D01*
X4614524Y-13344428D01*
X4919286Y-13163476D02*
X4824048Y-13163476D01*
X4814524Y-13258714D01*
X4824048Y-13249190D01*
X4843095Y-13239667D01*
X4890714Y-13239667D01*
X4909762Y-13249190D01*
X4919286Y-13258714D01*
X4928810Y-13277762D01*
X4928810Y-13325381D01*
X4919286Y-13344428D01*
X4909762Y-13353952D01*
X4890714Y-13363476D01*
X4843095Y-13363476D01*
X4824048Y-13353952D01*
X4814524Y-13344428D01*
X5100238Y-13230143D02*
X5100238Y-13363476D01*
X5052619Y-13153952D02*
X5005000Y-13296809D01*
X5128810Y-13296809D01*
X5195476Y-13163476D02*
X5195476Y-13201571D01*
X5271667Y-13163476D02*
X5271667Y-13201571D01*
X5566905Y-13439667D02*
X5557381Y-13430143D01*
X5538333Y-13401571D01*
X5528810Y-13382524D01*
X5519286Y-13353952D01*
X5509762Y-13306333D01*
X5509762Y-13268238D01*
X5519286Y-13220619D01*
X5528810Y-13192048D01*
X5538333Y-13173000D01*
X5557381Y-13144428D01*
X5566905Y-13134905D01*
X5671667Y-13249190D02*
X5652619Y-13239667D01*
X5643095Y-13230143D01*
X5633571Y-13211095D01*
X5633571Y-13201571D01*
X5643095Y-13182524D01*
X5652619Y-13173000D01*
X5671667Y-13163476D01*
X5709762Y-13163476D01*
X5728809Y-13173000D01*
X5738333Y-13182524D01*
X5747857Y-13201571D01*
X5747857Y-13211095D01*
X5738333Y-13230143D01*
X5728809Y-13239667D01*
X5709762Y-13249190D01*
X5671667Y-13249190D01*
X5652619Y-13258714D01*
X5643095Y-13268238D01*
X5633571Y-13287286D01*
X5633571Y-13325381D01*
X5643095Y-13344428D01*
X5652619Y-13353952D01*
X5671667Y-13363476D01*
X5709762Y-13363476D01*
X5728809Y-13353952D01*
X5738333Y-13344428D01*
X5747857Y-13325381D01*
X5747857Y-13287286D01*
X5738333Y-13268238D01*
X5728809Y-13258714D01*
X5709762Y-13249190D01*
X5985952Y-13363476D02*
X5985952Y-13163476D01*
X6071667Y-13363476D02*
X6071667Y-13258714D01*
X6062143Y-13239667D01*
X6043095Y-13230143D01*
X6014524Y-13230143D01*
X5995476Y-13239667D01*
X5985952Y-13249190D01*
X6195476Y-13363476D02*
X6176428Y-13353952D01*
X6166905Y-13344428D01*
X6157381Y-13325381D01*
X6157381Y-13268238D01*
X6166905Y-13249190D01*
X6176428Y-13239667D01*
X6195476Y-13230143D01*
X6224048Y-13230143D01*
X6243095Y-13239667D01*
X6252619Y-13249190D01*
X6262143Y-13268238D01*
X6262143Y-13325381D01*
X6252619Y-13344428D01*
X6243095Y-13353952D01*
X6224048Y-13363476D01*
X6195476Y-13363476D01*
X6376428Y-13363476D02*
X6357381Y-13353952D01*
X6347857Y-13334905D01*
X6347857Y-13163476D01*
X6528809Y-13353952D02*
X6509762Y-13363476D01*
X6471667Y-13363476D01*
X6452619Y-13353952D01*
X6443095Y-13334905D01*
X6443095Y-13258714D01*
X6452619Y-13239667D01*
X6471667Y-13230143D01*
X6509762Y-13230143D01*
X6528809Y-13239667D01*
X6538333Y-13258714D01*
X6538333Y-13277762D01*
X6443095Y-13296809D01*
X6614524Y-13353952D02*
X6633571Y-13363476D01*
X6671667Y-13363476D01*
X6690714Y-13353952D01*
X6700238Y-13334905D01*
X6700238Y-13325381D01*
X6690714Y-13306333D01*
X6671667Y-13296809D01*
X6643095Y-13296809D01*
X6624048Y-13287286D01*
X6614524Y-13268238D01*
X6614524Y-13258714D01*
X6624048Y-13239667D01*
X6643095Y-13230143D01*
X6671667Y-13230143D01*
X6690714Y-13239667D01*
X6766905Y-13439667D02*
X6776428Y-13430143D01*
X6795476Y-13401571D01*
X6805000Y-13382524D01*
X6814524Y-13353952D01*
X6824048Y-13306333D01*
X6824048Y-13268238D01*
X6814524Y-13220619D01*
X6805000Y-13192048D01*
X6795476Y-13173000D01*
X6776428Y-13144428D01*
X6766905Y-13134905D01*
D14*
X1980356Y-13572356D02*
X1980356Y-13501644D01*
X1909644Y-13501644D01*
X1909644Y-13572356D01*
X1980356Y-13572356D01*
D11*
X2357381Y-13627476D02*
X2243095Y-13627476D01*
X2300238Y-13627476D02*
X2300238Y-13427476D01*
X2281190Y-13456048D01*
X2262143Y-13475095D01*
X2243095Y-13484619D01*
X2443095Y-13608428D02*
X2452619Y-13617952D01*
X2443095Y-13627476D01*
X2433571Y-13617952D01*
X2443095Y-13608428D01*
X2443095Y-13627476D01*
X2576429Y-13427476D02*
X2595476Y-13427476D01*
X2614524Y-13437000D01*
X2624048Y-13446524D01*
X2633571Y-13465571D01*
X2643095Y-13503667D01*
X2643095Y-13551286D01*
X2633571Y-13589381D01*
X2624048Y-13608428D01*
X2614524Y-13617952D01*
X2595476Y-13627476D01*
X2576429Y-13627476D01*
X2557381Y-13617952D01*
X2547857Y-13608428D01*
X2538333Y-13589381D01*
X2528810Y-13551286D01*
X2528810Y-13503667D01*
X2538333Y-13465571D01*
X2547857Y-13446524D01*
X2557381Y-13437000D01*
X2576429Y-13427476D01*
X2766905Y-13427476D02*
X2785952Y-13427476D01*
X2805000Y-13437000D01*
X2814524Y-13446524D01*
X2824048Y-13465571D01*
X2833571Y-13503667D01*
X2833571Y-13551286D01*
X2824048Y-13589381D01*
X2814524Y-13608428D01*
X2805000Y-13617952D01*
X2785952Y-13627476D01*
X2766905Y-13627476D01*
X2747857Y-13617952D01*
X2738333Y-13608428D01*
X2728810Y-13589381D01*
X2719286Y-13551286D01*
X2719286Y-13503667D01*
X2728810Y-13465571D01*
X2738333Y-13446524D01*
X2747857Y-13437000D01*
X2766905Y-13427476D01*
X2957381Y-13427476D02*
X2976428Y-13427476D01*
X2995476Y-13437000D01*
X3005000Y-13446524D01*
X3014524Y-13465571D01*
X3024048Y-13503667D01*
X3024048Y-13551286D01*
X3014524Y-13589381D01*
X3005000Y-13608428D01*
X2995476Y-13617952D01*
X2976428Y-13627476D01*
X2957381Y-13627476D01*
X2938333Y-13617952D01*
X2928809Y-13608428D01*
X2919286Y-13589381D01*
X2909762Y-13551286D01*
X2909762Y-13503667D01*
X2919286Y-13465571D01*
X2928809Y-13446524D01*
X2938333Y-13437000D01*
X2957381Y-13427476D01*
X3109762Y-13627476D02*
X3109762Y-13494143D01*
X3109762Y-13513190D02*
X3119286Y-13503667D01*
X3138333Y-13494143D01*
X3166905Y-13494143D01*
X3185952Y-13503667D01*
X3195476Y-13522714D01*
X3195476Y-13627476D01*
X3195476Y-13522714D02*
X3205000Y-13503667D01*
X3224048Y-13494143D01*
X3252619Y-13494143D01*
X3271667Y-13503667D01*
X3281190Y-13522714D01*
X3281190Y-13627476D01*
X3376428Y-13627476D02*
X3376428Y-13494143D01*
X3376428Y-13513190D02*
X3385952Y-13503667D01*
X3405000Y-13494143D01*
X3433571Y-13494143D01*
X3452619Y-13503667D01*
X3462143Y-13522714D01*
X3462143Y-13627476D01*
X3462143Y-13522714D02*
X3471667Y-13503667D01*
X3490714Y-13494143D01*
X3519286Y-13494143D01*
X3538333Y-13503667D01*
X3547857Y-13522714D01*
X3547857Y-13627476D01*
X3938333Y-13417952D02*
X3766905Y-13675095D01*
X4195476Y-13427476D02*
X4214524Y-13427476D01*
X4233571Y-13437000D01*
X4243095Y-13446524D01*
X4252619Y-13465571D01*
X4262143Y-13503667D01*
X4262143Y-13551286D01*
X4252619Y-13589381D01*
X4243095Y-13608428D01*
X4233571Y-13617952D01*
X4214524Y-13627476D01*
X4195476Y-13627476D01*
X4176428Y-13617952D01*
X4166905Y-13608428D01*
X4157381Y-13589381D01*
X4147857Y-13551286D01*
X4147857Y-13503667D01*
X4157381Y-13465571D01*
X4166905Y-13446524D01*
X4176428Y-13437000D01*
X4195476Y-13427476D01*
X4347857Y-13608428D02*
X4357381Y-13617952D01*
X4347857Y-13627476D01*
X4338333Y-13617952D01*
X4347857Y-13608428D01*
X4347857Y-13627476D01*
X4481190Y-13427476D02*
X4500238Y-13427476D01*
X4519286Y-13437000D01*
X4528810Y-13446524D01*
X4538333Y-13465571D01*
X4547857Y-13503667D01*
X4547857Y-13551286D01*
X4538333Y-13589381D01*
X4528810Y-13608428D01*
X4519286Y-13617952D01*
X4500238Y-13627476D01*
X4481190Y-13627476D01*
X4462143Y-13617952D01*
X4452619Y-13608428D01*
X4443095Y-13589381D01*
X4433571Y-13551286D01*
X4433571Y-13503667D01*
X4443095Y-13465571D01*
X4452619Y-13446524D01*
X4462143Y-13437000D01*
X4481190Y-13427476D01*
X4614524Y-13427476D02*
X4738333Y-13427476D01*
X4671667Y-13503667D01*
X4700238Y-13503667D01*
X4719286Y-13513190D01*
X4728810Y-13522714D01*
X4738333Y-13541762D01*
X4738333Y-13589381D01*
X4728810Y-13608428D01*
X4719286Y-13617952D01*
X4700238Y-13627476D01*
X4643095Y-13627476D01*
X4624048Y-13617952D01*
X4614524Y-13608428D01*
X4833571Y-13627476D02*
X4871667Y-13627476D01*
X4890714Y-13617952D01*
X4900238Y-13608428D01*
X4919286Y-13579857D01*
X4928810Y-13541762D01*
X4928810Y-13465571D01*
X4919286Y-13446524D01*
X4909762Y-13437000D01*
X4890714Y-13427476D01*
X4852619Y-13427476D01*
X4833571Y-13437000D01*
X4824048Y-13446524D01*
X4814524Y-13465571D01*
X4814524Y-13513190D01*
X4824048Y-13532238D01*
X4833571Y-13541762D01*
X4852619Y-13551286D01*
X4890714Y-13551286D01*
X4909762Y-13541762D01*
X4919286Y-13532238D01*
X4928810Y-13513190D01*
X5100238Y-13494143D02*
X5100238Y-13627476D01*
X5052619Y-13417952D02*
X5005000Y-13560809D01*
X5128810Y-13560809D01*
X5195476Y-13427476D02*
X5195476Y-13465571D01*
X5271667Y-13427476D02*
X5271667Y-13465571D01*
X5566905Y-13703667D02*
X5557381Y-13694143D01*
X5538333Y-13665571D01*
X5528810Y-13646524D01*
X5519286Y-13617952D01*
X5509762Y-13570333D01*
X5509762Y-13532238D01*
X5519286Y-13484619D01*
X5528810Y-13456048D01*
X5538333Y-13437000D01*
X5557381Y-13408428D01*
X5566905Y-13398905D01*
X5728809Y-13427476D02*
X5690714Y-13427476D01*
X5671667Y-13437000D01*
X5662143Y-13446524D01*
X5643095Y-13475095D01*
X5633571Y-13513190D01*
X5633571Y-13589381D01*
X5643095Y-13608428D01*
X5652619Y-13617952D01*
X5671667Y-13627476D01*
X5709762Y-13627476D01*
X5728809Y-13617952D01*
X5738333Y-13608428D01*
X5747857Y-13589381D01*
X5747857Y-13541762D01*
X5738333Y-13522714D01*
X5728809Y-13513190D01*
X5709762Y-13503667D01*
X5671667Y-13503667D01*
X5652619Y-13513190D01*
X5643095Y-13522714D01*
X5633571Y-13541762D01*
X5938333Y-13627476D02*
X5824048Y-13627476D01*
X5881190Y-13627476D02*
X5881190Y-13427476D01*
X5862143Y-13456048D01*
X5843095Y-13475095D01*
X5824048Y-13484619D01*
X6176428Y-13627476D02*
X6176428Y-13427476D01*
X6262143Y-13627476D02*
X6262143Y-13522714D01*
X6252619Y-13503667D01*
X6233571Y-13494143D01*
X6205000Y-13494143D01*
X6185952Y-13503667D01*
X6176428Y-13513190D01*
X6385952Y-13627476D02*
X6366905Y-13617952D01*
X6357381Y-13608428D01*
X6347857Y-13589381D01*
X6347857Y-13532238D01*
X6357381Y-13513190D01*
X6366905Y-13503667D01*
X6385952Y-13494143D01*
X6414524Y-13494143D01*
X6433571Y-13503667D01*
X6443095Y-13513190D01*
X6452619Y-13532238D01*
X6452619Y-13589381D01*
X6443095Y-13608428D01*
X6433571Y-13617952D01*
X6414524Y-13627476D01*
X6385952Y-13627476D01*
X6566905Y-13627476D02*
X6547857Y-13617952D01*
X6538333Y-13598905D01*
X6538333Y-13427476D01*
X6719286Y-13617952D02*
X6700238Y-13627476D01*
X6662143Y-13627476D01*
X6643095Y-13617952D01*
X6633571Y-13598905D01*
X6633571Y-13522714D01*
X6643095Y-13503667D01*
X6662143Y-13494143D01*
X6700238Y-13494143D01*
X6719286Y-13503667D01*
X6728809Y-13522714D01*
X6728809Y-13541762D01*
X6633571Y-13560809D01*
X6805000Y-13617952D02*
X6824048Y-13627476D01*
X6862143Y-13627476D01*
X6881190Y-13617952D01*
X6890714Y-13598905D01*
X6890714Y-13589381D01*
X6881190Y-13570333D01*
X6862143Y-13560809D01*
X6833571Y-13560809D01*
X6814524Y-13551286D01*
X6805000Y-13532238D01*
X6805000Y-13522714D01*
X6814524Y-13503667D01*
X6833571Y-13494143D01*
X6862143Y-13494143D01*
X6881190Y-13503667D01*
X6957381Y-13703667D02*
X6966905Y-13694143D01*
X6985952Y-13665571D01*
X6995476Y-13646524D01*
X7005000Y-13617952D01*
X7014524Y-13570333D01*
X7014524Y-13532238D01*
X7005000Y-13484619D01*
X6995476Y-13456048D01*
X6985952Y-13437000D01*
X6966905Y-13408428D01*
X6957381Y-13398905D01*
D15*
X1940000Y-13856000D02*
X1995000Y-13801000D01*
X1940000Y-13746000D01*
X1885000Y-13801000D01*
X1940000Y-13856000D01*
D11*
X2357381Y-13891476D02*
X2243095Y-13891476D01*
X2300238Y-13891476D02*
X2300238Y-13691476D01*
X2281190Y-13720048D01*
X2262143Y-13739095D01*
X2243095Y-13748619D01*
X2443095Y-13872428D02*
X2452619Y-13881952D01*
X2443095Y-13891476D01*
X2433571Y-13881952D01*
X2443095Y-13872428D01*
X2443095Y-13891476D01*
X2643095Y-13891476D02*
X2528810Y-13891476D01*
X2585952Y-13891476D02*
X2585952Y-13691476D01*
X2566905Y-13720048D01*
X2547857Y-13739095D01*
X2528810Y-13748619D01*
X2766905Y-13691476D02*
X2785952Y-13691476D01*
X2805000Y-13701000D01*
X2814524Y-13710524D01*
X2824048Y-13729571D01*
X2833571Y-13767667D01*
X2833571Y-13815286D01*
X2824048Y-13853381D01*
X2814524Y-13872428D01*
X2805000Y-13881952D01*
X2785952Y-13891476D01*
X2766905Y-13891476D01*
X2747857Y-13881952D01*
X2738333Y-13872428D01*
X2728810Y-13853381D01*
X2719286Y-13815286D01*
X2719286Y-13767667D01*
X2728810Y-13729571D01*
X2738333Y-13710524D01*
X2747857Y-13701000D01*
X2766905Y-13691476D01*
X2957381Y-13691476D02*
X2976428Y-13691476D01*
X2995476Y-13701000D01*
X3005000Y-13710524D01*
X3014524Y-13729571D01*
X3024048Y-13767667D01*
X3024048Y-13815286D01*
X3014524Y-13853381D01*
X3005000Y-13872428D01*
X2995476Y-13881952D01*
X2976428Y-13891476D01*
X2957381Y-13891476D01*
X2938333Y-13881952D01*
X2928809Y-13872428D01*
X2919286Y-13853381D01*
X2909762Y-13815286D01*
X2909762Y-13767667D01*
X2919286Y-13729571D01*
X2928809Y-13710524D01*
X2938333Y-13701000D01*
X2957381Y-13691476D01*
X3109762Y-13891476D02*
X3109762Y-13758143D01*
X3109762Y-13777190D02*
X3119286Y-13767667D01*
X3138333Y-13758143D01*
X3166905Y-13758143D01*
X3185952Y-13767667D01*
X3195476Y-13786714D01*
X3195476Y-13891476D01*
X3195476Y-13786714D02*
X3205000Y-13767667D01*
X3224048Y-13758143D01*
X3252619Y-13758143D01*
X3271667Y-13767667D01*
X3281190Y-13786714D01*
X3281190Y-13891476D01*
X3376428Y-13891476D02*
X3376428Y-13758143D01*
X3376428Y-13777190D02*
X3385952Y-13767667D01*
X3405000Y-13758143D01*
X3433571Y-13758143D01*
X3452619Y-13767667D01*
X3462143Y-13786714D01*
X3462143Y-13891476D01*
X3462143Y-13786714D02*
X3471667Y-13767667D01*
X3490714Y-13758143D01*
X3519286Y-13758143D01*
X3538333Y-13767667D01*
X3547857Y-13786714D01*
X3547857Y-13891476D01*
X3938333Y-13681952D02*
X3766905Y-13939095D01*
X4195476Y-13691476D02*
X4214524Y-13691476D01*
X4233571Y-13701000D01*
X4243095Y-13710524D01*
X4252619Y-13729571D01*
X4262143Y-13767667D01*
X4262143Y-13815286D01*
X4252619Y-13853381D01*
X4243095Y-13872428D01*
X4233571Y-13881952D01*
X4214524Y-13891476D01*
X4195476Y-13891476D01*
X4176428Y-13881952D01*
X4166905Y-13872428D01*
X4157381Y-13853381D01*
X4147857Y-13815286D01*
X4147857Y-13767667D01*
X4157381Y-13729571D01*
X4166905Y-13710524D01*
X4176428Y-13701000D01*
X4195476Y-13691476D01*
X4347857Y-13872428D02*
X4357381Y-13881952D01*
X4347857Y-13891476D01*
X4338333Y-13881952D01*
X4347857Y-13872428D01*
X4347857Y-13891476D01*
X4481190Y-13691476D02*
X4500238Y-13691476D01*
X4519286Y-13701000D01*
X4528810Y-13710524D01*
X4538333Y-13729571D01*
X4547857Y-13767667D01*
X4547857Y-13815286D01*
X4538333Y-13853381D01*
X4528810Y-13872428D01*
X4519286Y-13881952D01*
X4500238Y-13891476D01*
X4481190Y-13891476D01*
X4462143Y-13881952D01*
X4452619Y-13872428D01*
X4443095Y-13853381D01*
X4433571Y-13815286D01*
X4433571Y-13767667D01*
X4443095Y-13729571D01*
X4452619Y-13710524D01*
X4462143Y-13701000D01*
X4481190Y-13691476D01*
X4719286Y-13758143D02*
X4719286Y-13891476D01*
X4671667Y-13681952D02*
X4624048Y-13824809D01*
X4747857Y-13824809D01*
X4805000Y-13691476D02*
X4928810Y-13691476D01*
X4862143Y-13767667D01*
X4890714Y-13767667D01*
X4909762Y-13777190D01*
X4919286Y-13786714D01*
X4928810Y-13805762D01*
X4928810Y-13853381D01*
X4919286Y-13872428D01*
X4909762Y-13881952D01*
X4890714Y-13891476D01*
X4833571Y-13891476D01*
X4814524Y-13881952D01*
X4805000Y-13872428D01*
X4995476Y-13691476D02*
X5119286Y-13691476D01*
X5052619Y-13767667D01*
X5081190Y-13767667D01*
X5100238Y-13777190D01*
X5109762Y-13786714D01*
X5119286Y-13805762D01*
X5119286Y-13853381D01*
X5109762Y-13872428D01*
X5100238Y-13881952D01*
X5081190Y-13891476D01*
X5024048Y-13891476D01*
X5005000Y-13881952D01*
X4995476Y-13872428D01*
X5195476Y-13691476D02*
X5195476Y-13729571D01*
X5271667Y-13691476D02*
X5271667Y-13729571D01*
X5566905Y-13967667D02*
X5557381Y-13958143D01*
X5538333Y-13929571D01*
X5528810Y-13910524D01*
X5519286Y-13881952D01*
X5509762Y-13834333D01*
X5509762Y-13796238D01*
X5519286Y-13748619D01*
X5528810Y-13720048D01*
X5538333Y-13701000D01*
X5557381Y-13672428D01*
X5566905Y-13662905D01*
X5671667Y-13777190D02*
X5652619Y-13767667D01*
X5643095Y-13758143D01*
X5633571Y-13739095D01*
X5633571Y-13729571D01*
X5643095Y-13710524D01*
X5652619Y-13701000D01*
X5671667Y-13691476D01*
X5709762Y-13691476D01*
X5728809Y-13701000D01*
X5738333Y-13710524D01*
X5747857Y-13729571D01*
X5747857Y-13739095D01*
X5738333Y-13758143D01*
X5728809Y-13767667D01*
X5709762Y-13777190D01*
X5671667Y-13777190D01*
X5652619Y-13786714D01*
X5643095Y-13796238D01*
X5633571Y-13815286D01*
X5633571Y-13853381D01*
X5643095Y-13872428D01*
X5652619Y-13881952D01*
X5671667Y-13891476D01*
X5709762Y-13891476D01*
X5728809Y-13881952D01*
X5738333Y-13872428D01*
X5747857Y-13853381D01*
X5747857Y-13815286D01*
X5738333Y-13796238D01*
X5728809Y-13786714D01*
X5709762Y-13777190D01*
X5985952Y-13891476D02*
X5985952Y-13691476D01*
X6071667Y-13891476D02*
X6071667Y-13786714D01*
X6062143Y-13767667D01*
X6043095Y-13758143D01*
X6014524Y-13758143D01*
X5995476Y-13767667D01*
X5985952Y-13777190D01*
X6195476Y-13891476D02*
X6176428Y-13881952D01*
X6166905Y-13872428D01*
X6157381Y-13853381D01*
X6157381Y-13796238D01*
X6166905Y-13777190D01*
X6176428Y-13767667D01*
X6195476Y-13758143D01*
X6224048Y-13758143D01*
X6243095Y-13767667D01*
X6252619Y-13777190D01*
X6262143Y-13796238D01*
X6262143Y-13853381D01*
X6252619Y-13872428D01*
X6243095Y-13881952D01*
X6224048Y-13891476D01*
X6195476Y-13891476D01*
X6376428Y-13891476D02*
X6357381Y-13881952D01*
X6347857Y-13862905D01*
X6347857Y-13691476D01*
X6528809Y-13881952D02*
X6509762Y-13891476D01*
X6471667Y-13891476D01*
X6452619Y-13881952D01*
X6443095Y-13862905D01*
X6443095Y-13786714D01*
X6452619Y-13767667D01*
X6471667Y-13758143D01*
X6509762Y-13758143D01*
X6528809Y-13767667D01*
X6538333Y-13786714D01*
X6538333Y-13805762D01*
X6443095Y-13824809D01*
X6614524Y-13881952D02*
X6633571Y-13891476D01*
X6671667Y-13891476D01*
X6690714Y-13881952D01*
X6700238Y-13862905D01*
X6700238Y-13853381D01*
X6690714Y-13834333D01*
X6671667Y-13824809D01*
X6643095Y-13824809D01*
X6624048Y-13815286D01*
X6614524Y-13796238D01*
X6614524Y-13786714D01*
X6624048Y-13767667D01*
X6643095Y-13758143D01*
X6671667Y-13758143D01*
X6690714Y-13767667D01*
X6766905Y-13967667D02*
X6776428Y-13958143D01*
X6795476Y-13929571D01*
X6805000Y-13910524D01*
X6814524Y-13881952D01*
X6824048Y-13834333D01*
X6824048Y-13796238D01*
X6814524Y-13748619D01*
X6805000Y-13720048D01*
X6795476Y-13701000D01*
X6776428Y-13672428D01*
X6766905Y-13662905D01*
D16*
X1865000Y-14000000D02*
X1995000Y-14130000D01*
X1995000Y-14000000D02*
X1865000Y-14130000D01*
X1995000Y-14065000D02*
G75*
G03*
X1995000Y-14065000I-65000J0D01*
G01*
D11*
X2357381Y-14155476D02*
X2243095Y-14155476D01*
X2300238Y-14155476D02*
X2300238Y-13955476D01*
X2281190Y-13984048D01*
X2262143Y-14003095D01*
X2243095Y-14012619D01*
X2443095Y-14136428D02*
X2452619Y-14145952D01*
X2443095Y-14155476D01*
X2433571Y-14145952D01*
X2443095Y-14136428D01*
X2443095Y-14155476D01*
X2519286Y-13955476D02*
X2643095Y-13955476D01*
X2576429Y-14031667D01*
X2605000Y-14031667D01*
X2624048Y-14041190D01*
X2633571Y-14050714D01*
X2643095Y-14069762D01*
X2643095Y-14117381D01*
X2633571Y-14136428D01*
X2624048Y-14145952D01*
X2605000Y-14155476D01*
X2547857Y-14155476D01*
X2528810Y-14145952D01*
X2519286Y-14136428D01*
X2766905Y-13955476D02*
X2785952Y-13955476D01*
X2805000Y-13965000D01*
X2814524Y-13974524D01*
X2824048Y-13993571D01*
X2833571Y-14031667D01*
X2833571Y-14079286D01*
X2824048Y-14117381D01*
X2814524Y-14136428D01*
X2805000Y-14145952D01*
X2785952Y-14155476D01*
X2766905Y-14155476D01*
X2747857Y-14145952D01*
X2738333Y-14136428D01*
X2728810Y-14117381D01*
X2719286Y-14079286D01*
X2719286Y-14031667D01*
X2728810Y-13993571D01*
X2738333Y-13974524D01*
X2747857Y-13965000D01*
X2766905Y-13955476D01*
X2957381Y-13955476D02*
X2976428Y-13955476D01*
X2995476Y-13965000D01*
X3005000Y-13974524D01*
X3014524Y-13993571D01*
X3024048Y-14031667D01*
X3024048Y-14079286D01*
X3014524Y-14117381D01*
X3005000Y-14136428D01*
X2995476Y-14145952D01*
X2976428Y-14155476D01*
X2957381Y-14155476D01*
X2938333Y-14145952D01*
X2928809Y-14136428D01*
X2919286Y-14117381D01*
X2909762Y-14079286D01*
X2909762Y-14031667D01*
X2919286Y-13993571D01*
X2928809Y-13974524D01*
X2938333Y-13965000D01*
X2957381Y-13955476D01*
X3109762Y-14155476D02*
X3109762Y-14022143D01*
X3109762Y-14041190D02*
X3119286Y-14031667D01*
X3138333Y-14022143D01*
X3166905Y-14022143D01*
X3185952Y-14031667D01*
X3195476Y-14050714D01*
X3195476Y-14155476D01*
X3195476Y-14050714D02*
X3205000Y-14031667D01*
X3224048Y-14022143D01*
X3252619Y-14022143D01*
X3271667Y-14031667D01*
X3281190Y-14050714D01*
X3281190Y-14155476D01*
X3376428Y-14155476D02*
X3376428Y-14022143D01*
X3376428Y-14041190D02*
X3385952Y-14031667D01*
X3405000Y-14022143D01*
X3433571Y-14022143D01*
X3452619Y-14031667D01*
X3462143Y-14050714D01*
X3462143Y-14155476D01*
X3462143Y-14050714D02*
X3471667Y-14031667D01*
X3490714Y-14022143D01*
X3519286Y-14022143D01*
X3538333Y-14031667D01*
X3547857Y-14050714D01*
X3547857Y-14155476D01*
X3938333Y-13945952D02*
X3766905Y-14203095D01*
X4195476Y-13955476D02*
X4214524Y-13955476D01*
X4233571Y-13965000D01*
X4243095Y-13974524D01*
X4252619Y-13993571D01*
X4262143Y-14031667D01*
X4262143Y-14079286D01*
X4252619Y-14117381D01*
X4243095Y-14136428D01*
X4233571Y-14145952D01*
X4214524Y-14155476D01*
X4195476Y-14155476D01*
X4176428Y-14145952D01*
X4166905Y-14136428D01*
X4157381Y-14117381D01*
X4147857Y-14079286D01*
X4147857Y-14031667D01*
X4157381Y-13993571D01*
X4166905Y-13974524D01*
X4176428Y-13965000D01*
X4195476Y-13955476D01*
X4347857Y-14136428D02*
X4357381Y-14145952D01*
X4347857Y-14155476D01*
X4338333Y-14145952D01*
X4347857Y-14136428D01*
X4347857Y-14155476D01*
X4481190Y-13955476D02*
X4500238Y-13955476D01*
X4519286Y-13965000D01*
X4528810Y-13974524D01*
X4538333Y-13993571D01*
X4547857Y-14031667D01*
X4547857Y-14079286D01*
X4538333Y-14117381D01*
X4528810Y-14136428D01*
X4519286Y-14145952D01*
X4500238Y-14155476D01*
X4481190Y-14155476D01*
X4462143Y-14145952D01*
X4452619Y-14136428D01*
X4443095Y-14117381D01*
X4433571Y-14079286D01*
X4433571Y-14031667D01*
X4443095Y-13993571D01*
X4452619Y-13974524D01*
X4462143Y-13965000D01*
X4481190Y-13955476D01*
X4728810Y-13955476D02*
X4633571Y-13955476D01*
X4624048Y-14050714D01*
X4633571Y-14041190D01*
X4652619Y-14031667D01*
X4700238Y-14031667D01*
X4719286Y-14041190D01*
X4728810Y-14050714D01*
X4738333Y-14069762D01*
X4738333Y-14117381D01*
X4728810Y-14136428D01*
X4719286Y-14145952D01*
X4700238Y-14155476D01*
X4652619Y-14155476D01*
X4633571Y-14145952D01*
X4624048Y-14136428D01*
X4928810Y-14155476D02*
X4814524Y-14155476D01*
X4871667Y-14155476D02*
X4871667Y-13955476D01*
X4852619Y-13984048D01*
X4833571Y-14003095D01*
X4814524Y-14012619D01*
X5005000Y-13974524D02*
X5014524Y-13965000D01*
X5033571Y-13955476D01*
X5081190Y-13955476D01*
X5100238Y-13965000D01*
X5109762Y-13974524D01*
X5119286Y-13993571D01*
X5119286Y-14012619D01*
X5109762Y-14041190D01*
X4995476Y-14155476D01*
X5119286Y-14155476D01*
X5195476Y-13955476D02*
X5195476Y-13993571D01*
X5271667Y-13955476D02*
X5271667Y-13993571D01*
X5566905Y-14231667D02*
X5557381Y-14222143D01*
X5538333Y-14193571D01*
X5528810Y-14174524D01*
X5519286Y-14145952D01*
X5509762Y-14098333D01*
X5509762Y-14060238D01*
X5519286Y-14012619D01*
X5528810Y-13984048D01*
X5538333Y-13965000D01*
X5557381Y-13936428D01*
X5566905Y-13926905D01*
X5681190Y-13955476D02*
X5700238Y-13955476D01*
X5719286Y-13965000D01*
X5728809Y-13974524D01*
X5738333Y-13993571D01*
X5747857Y-14031667D01*
X5747857Y-14079286D01*
X5738333Y-14117381D01*
X5728809Y-14136428D01*
X5719286Y-14145952D01*
X5700238Y-14155476D01*
X5681190Y-14155476D01*
X5662143Y-14145952D01*
X5652619Y-14136428D01*
X5643095Y-14117381D01*
X5633571Y-14079286D01*
X5633571Y-14031667D01*
X5643095Y-13993571D01*
X5652619Y-13974524D01*
X5662143Y-13965000D01*
X5681190Y-13955476D01*
X5985952Y-14155476D02*
X5985952Y-13955476D01*
X6071667Y-14155476D02*
X6071667Y-14050714D01*
X6062143Y-14031667D01*
X6043095Y-14022143D01*
X6014524Y-14022143D01*
X5995476Y-14031667D01*
X5985952Y-14041190D01*
X6195476Y-14155476D02*
X6176428Y-14145952D01*
X6166905Y-14136428D01*
X6157381Y-14117381D01*
X6157381Y-14060238D01*
X6166905Y-14041190D01*
X6176428Y-14031667D01*
X6195476Y-14022143D01*
X6224048Y-14022143D01*
X6243095Y-14031667D01*
X6252619Y-14041190D01*
X6262143Y-14060238D01*
X6262143Y-14117381D01*
X6252619Y-14136428D01*
X6243095Y-14145952D01*
X6224048Y-14155476D01*
X6195476Y-14155476D01*
X6376428Y-14155476D02*
X6357381Y-14145952D01*
X6347857Y-14126905D01*
X6347857Y-13955476D01*
X6528809Y-14145952D02*
X6509762Y-14155476D01*
X6471667Y-14155476D01*
X6452619Y-14145952D01*
X6443095Y-14126905D01*
X6443095Y-14050714D01*
X6452619Y-14031667D01*
X6471667Y-14022143D01*
X6509762Y-14022143D01*
X6528809Y-14031667D01*
X6538333Y-14050714D01*
X6538333Y-14069762D01*
X6443095Y-14088809D01*
X6614524Y-14145952D02*
X6633571Y-14155476D01*
X6671667Y-14155476D01*
X6690714Y-14145952D01*
X6700238Y-14126905D01*
X6700238Y-14117381D01*
X6690714Y-14098333D01*
X6671667Y-14088809D01*
X6643095Y-14088809D01*
X6624048Y-14079286D01*
X6614524Y-14060238D01*
X6614524Y-14050714D01*
X6624048Y-14031667D01*
X6643095Y-14022143D01*
X6671667Y-14022143D01*
X6690714Y-14031667D01*
X6938333Y-14079286D02*
X7090714Y-14079286D01*
X7014524Y-14155476D02*
X7014524Y-14003095D01*
X7366905Y-14041190D02*
X7347857Y-14031667D01*
X7338333Y-14022143D01*
X7328809Y-14003095D01*
X7328809Y-13993571D01*
X7338333Y-13974524D01*
X7347857Y-13965000D01*
X7366905Y-13955476D01*
X7405000Y-13955476D01*
X7424048Y-13965000D01*
X7433571Y-13974524D01*
X7443095Y-13993571D01*
X7443095Y-14003095D01*
X7433571Y-14022143D01*
X7424048Y-14031667D01*
X7405000Y-14041190D01*
X7366905Y-14041190D01*
X7347857Y-14050714D01*
X7338333Y-14060238D01*
X7328809Y-14079286D01*
X7328809Y-14117381D01*
X7338333Y-14136428D01*
X7347857Y-14145952D01*
X7366905Y-14155476D01*
X7405000Y-14155476D01*
X7424048Y-14145952D01*
X7433571Y-14136428D01*
X7443095Y-14117381D01*
X7443095Y-14079286D01*
X7433571Y-14060238D01*
X7424048Y-14050714D01*
X7405000Y-14041190D01*
X7671667Y-14145952D02*
X7690714Y-14155476D01*
X7728809Y-14155476D01*
X7747857Y-14145952D01*
X7757381Y-14126905D01*
X7757381Y-14117381D01*
X7747857Y-14098333D01*
X7728809Y-14088809D01*
X7700238Y-14088809D01*
X7681190Y-14079286D01*
X7671667Y-14060238D01*
X7671667Y-14050714D01*
X7681190Y-14031667D01*
X7700238Y-14022143D01*
X7728809Y-14022143D01*
X7747857Y-14031667D01*
X7871667Y-14155476D02*
X7852619Y-14145952D01*
X7843095Y-14126905D01*
X7843095Y-13955476D01*
X7976428Y-14155476D02*
X7957381Y-14145952D01*
X7947857Y-14136428D01*
X7938333Y-14117381D01*
X7938333Y-14060238D01*
X7947857Y-14041190D01*
X7957381Y-14031667D01*
X7976428Y-14022143D01*
X8005000Y-14022143D01*
X8024048Y-14031667D01*
X8033571Y-14041190D01*
X8043095Y-14060238D01*
X8043095Y-14117381D01*
X8033571Y-14136428D01*
X8024048Y-14145952D01*
X8005000Y-14155476D01*
X7976428Y-14155476D01*
X8100238Y-14022143D02*
X8176428Y-14022143D01*
X8128809Y-13955476D02*
X8128809Y-14126905D01*
X8138333Y-14145952D01*
X8157381Y-14155476D01*
X8176428Y-14155476D01*
X8233571Y-14145952D02*
X8252619Y-14155476D01*
X8290714Y-14155476D01*
X8309762Y-14145952D01*
X8319286Y-14126905D01*
X8319286Y-14117381D01*
X8309762Y-14098333D01*
X8290714Y-14088809D01*
X8262143Y-14088809D01*
X8243095Y-14079286D01*
X8233571Y-14060238D01*
X8233571Y-14050714D01*
X8243095Y-14031667D01*
X8262143Y-14022143D01*
X8290714Y-14022143D01*
X8309762Y-14031667D01*
X8385952Y-14231667D02*
X8395476Y-14222143D01*
X8414524Y-14193571D01*
X8424048Y-14174524D01*
X8433571Y-14145952D01*
X8443095Y-14098333D01*
X8443095Y-14060238D01*
X8433571Y-14012619D01*
X8424048Y-13984048D01*
X8414524Y-13965000D01*
X8395476Y-13936428D01*
X8385952Y-13926905D01*
D17*
X1845000Y-14254000D02*
X1995000Y-14404000D01*
X1995000Y-14254000D02*
X1845000Y-14404000D01*
X1920000Y-14254000D02*
X1920000Y-14404000D01*
X1845000Y-14329000D02*
X1995000Y-14329000D01*
D11*
X2357381Y-14419476D02*
X2243095Y-14419476D01*
X2300238Y-14419476D02*
X2300238Y-14219476D01*
X2281190Y-14248048D01*
X2262143Y-14267095D01*
X2243095Y-14276619D01*
X2443095Y-14400428D02*
X2452619Y-14409952D01*
X2443095Y-14419476D01*
X2433571Y-14409952D01*
X2443095Y-14400428D01*
X2443095Y-14419476D01*
X2633571Y-14219476D02*
X2538333Y-14219476D01*
X2528810Y-14314714D01*
X2538333Y-14305190D01*
X2557381Y-14295667D01*
X2605000Y-14295667D01*
X2624048Y-14305190D01*
X2633571Y-14314714D01*
X2643095Y-14333762D01*
X2643095Y-14381381D01*
X2633571Y-14400428D01*
X2624048Y-14409952D01*
X2605000Y-14419476D01*
X2557381Y-14419476D01*
X2538333Y-14409952D01*
X2528810Y-14400428D01*
X2766905Y-14219476D02*
X2785952Y-14219476D01*
X2805000Y-14229000D01*
X2814524Y-14238524D01*
X2824048Y-14257571D01*
X2833571Y-14295667D01*
X2833571Y-14343286D01*
X2824048Y-14381381D01*
X2814524Y-14400428D01*
X2805000Y-14409952D01*
X2785952Y-14419476D01*
X2766905Y-14419476D01*
X2747857Y-14409952D01*
X2738333Y-14400428D01*
X2728810Y-14381381D01*
X2719286Y-14343286D01*
X2719286Y-14295667D01*
X2728810Y-14257571D01*
X2738333Y-14238524D01*
X2747857Y-14229000D01*
X2766905Y-14219476D01*
X2957381Y-14219476D02*
X2976428Y-14219476D01*
X2995476Y-14229000D01*
X3005000Y-14238524D01*
X3014524Y-14257571D01*
X3024048Y-14295667D01*
X3024048Y-14343286D01*
X3014524Y-14381381D01*
X3005000Y-14400428D01*
X2995476Y-14409952D01*
X2976428Y-14419476D01*
X2957381Y-14419476D01*
X2938333Y-14409952D01*
X2928809Y-14400428D01*
X2919286Y-14381381D01*
X2909762Y-14343286D01*
X2909762Y-14295667D01*
X2919286Y-14257571D01*
X2928809Y-14238524D01*
X2938333Y-14229000D01*
X2957381Y-14219476D01*
X3109762Y-14419476D02*
X3109762Y-14286143D01*
X3109762Y-14305190D02*
X3119286Y-14295667D01*
X3138333Y-14286143D01*
X3166905Y-14286143D01*
X3185952Y-14295667D01*
X3195476Y-14314714D01*
X3195476Y-14419476D01*
X3195476Y-14314714D02*
X3205000Y-14295667D01*
X3224048Y-14286143D01*
X3252619Y-14286143D01*
X3271667Y-14295667D01*
X3281190Y-14314714D01*
X3281190Y-14419476D01*
X3376428Y-14419476D02*
X3376428Y-14286143D01*
X3376428Y-14305190D02*
X3385952Y-14295667D01*
X3405000Y-14286143D01*
X3433571Y-14286143D01*
X3452619Y-14295667D01*
X3462143Y-14314714D01*
X3462143Y-14419476D01*
X3462143Y-14314714D02*
X3471667Y-14295667D01*
X3490714Y-14286143D01*
X3519286Y-14286143D01*
X3538333Y-14295667D01*
X3547857Y-14314714D01*
X3547857Y-14419476D01*
X3938333Y-14209952D02*
X3766905Y-14467095D01*
X4195476Y-14219476D02*
X4214524Y-14219476D01*
X4233571Y-14229000D01*
X4243095Y-14238524D01*
X4252619Y-14257571D01*
X4262143Y-14295667D01*
X4262143Y-14343286D01*
X4252619Y-14381381D01*
X4243095Y-14400428D01*
X4233571Y-14409952D01*
X4214524Y-14419476D01*
X4195476Y-14419476D01*
X4176428Y-14409952D01*
X4166905Y-14400428D01*
X4157381Y-14381381D01*
X4147857Y-14343286D01*
X4147857Y-14295667D01*
X4157381Y-14257571D01*
X4166905Y-14238524D01*
X4176428Y-14229000D01*
X4195476Y-14219476D01*
X4347857Y-14400428D02*
X4357381Y-14409952D01*
X4347857Y-14419476D01*
X4338333Y-14409952D01*
X4347857Y-14400428D01*
X4347857Y-14419476D01*
X4481190Y-14219476D02*
X4500238Y-14219476D01*
X4519286Y-14229000D01*
X4528810Y-14238524D01*
X4538333Y-14257571D01*
X4547857Y-14295667D01*
X4547857Y-14343286D01*
X4538333Y-14381381D01*
X4528810Y-14400428D01*
X4519286Y-14409952D01*
X4500238Y-14419476D01*
X4481190Y-14419476D01*
X4462143Y-14409952D01*
X4452619Y-14400428D01*
X4443095Y-14381381D01*
X4433571Y-14343286D01*
X4433571Y-14295667D01*
X4443095Y-14257571D01*
X4452619Y-14238524D01*
X4462143Y-14229000D01*
X4481190Y-14219476D01*
X4728810Y-14219476D02*
X4633571Y-14219476D01*
X4624048Y-14314714D01*
X4633571Y-14305190D01*
X4652619Y-14295667D01*
X4700238Y-14295667D01*
X4719286Y-14305190D01*
X4728810Y-14314714D01*
X4738333Y-14333762D01*
X4738333Y-14381381D01*
X4728810Y-14400428D01*
X4719286Y-14409952D01*
X4700238Y-14419476D01*
X4652619Y-14419476D01*
X4633571Y-14409952D01*
X4624048Y-14400428D01*
X4833571Y-14419476D02*
X4871667Y-14419476D01*
X4890714Y-14409952D01*
X4900238Y-14400428D01*
X4919286Y-14371857D01*
X4928810Y-14333762D01*
X4928810Y-14257571D01*
X4919286Y-14238524D01*
X4909762Y-14229000D01*
X4890714Y-14219476D01*
X4852619Y-14219476D01*
X4833571Y-14229000D01*
X4824048Y-14238524D01*
X4814524Y-14257571D01*
X4814524Y-14305190D01*
X4824048Y-14324238D01*
X4833571Y-14333762D01*
X4852619Y-14343286D01*
X4890714Y-14343286D01*
X4909762Y-14333762D01*
X4919286Y-14324238D01*
X4928810Y-14305190D01*
X5119286Y-14419476D02*
X5005000Y-14419476D01*
X5062143Y-14419476D02*
X5062143Y-14219476D01*
X5043095Y-14248048D01*
X5024048Y-14267095D01*
X5005000Y-14276619D01*
X5195476Y-14219476D02*
X5195476Y-14257571D01*
X5271667Y-14219476D02*
X5271667Y-14257571D01*
X5566905Y-14495667D02*
X5557381Y-14486143D01*
X5538333Y-14457571D01*
X5528810Y-14438524D01*
X5519286Y-14409952D01*
X5509762Y-14362333D01*
X5509762Y-14324238D01*
X5519286Y-14276619D01*
X5528810Y-14248048D01*
X5538333Y-14229000D01*
X5557381Y-14200428D01*
X5566905Y-14190905D01*
X5681190Y-14219476D02*
X5700238Y-14219476D01*
X5719286Y-14229000D01*
X5728809Y-14238524D01*
X5738333Y-14257571D01*
X5747857Y-14295667D01*
X5747857Y-14343286D01*
X5738333Y-14381381D01*
X5728809Y-14400428D01*
X5719286Y-14409952D01*
X5700238Y-14419476D01*
X5681190Y-14419476D01*
X5662143Y-14409952D01*
X5652619Y-14400428D01*
X5643095Y-14381381D01*
X5633571Y-14343286D01*
X5633571Y-14295667D01*
X5643095Y-14257571D01*
X5652619Y-14238524D01*
X5662143Y-14229000D01*
X5681190Y-14219476D01*
X5985952Y-14419476D02*
X5985952Y-14219476D01*
X6071667Y-14419476D02*
X6071667Y-14314714D01*
X6062143Y-14295667D01*
X6043095Y-14286143D01*
X6014524Y-14286143D01*
X5995476Y-14295667D01*
X5985952Y-14305190D01*
X6195476Y-14419476D02*
X6176428Y-14409952D01*
X6166905Y-14400428D01*
X6157381Y-14381381D01*
X6157381Y-14324238D01*
X6166905Y-14305190D01*
X6176428Y-14295667D01*
X6195476Y-14286143D01*
X6224048Y-14286143D01*
X6243095Y-14295667D01*
X6252619Y-14305190D01*
X6262143Y-14324238D01*
X6262143Y-14381381D01*
X6252619Y-14400428D01*
X6243095Y-14409952D01*
X6224048Y-14419476D01*
X6195476Y-14419476D01*
X6376428Y-14419476D02*
X6357381Y-14409952D01*
X6347857Y-14390905D01*
X6347857Y-14219476D01*
X6528809Y-14409952D02*
X6509762Y-14419476D01*
X6471667Y-14419476D01*
X6452619Y-14409952D01*
X6443095Y-14390905D01*
X6443095Y-14314714D01*
X6452619Y-14295667D01*
X6471667Y-14286143D01*
X6509762Y-14286143D01*
X6528809Y-14295667D01*
X6538333Y-14314714D01*
X6538333Y-14333762D01*
X6443095Y-14352809D01*
X6614524Y-14409952D02*
X6633571Y-14419476D01*
X6671667Y-14419476D01*
X6690714Y-14409952D01*
X6700238Y-14390905D01*
X6700238Y-14381381D01*
X6690714Y-14362333D01*
X6671667Y-14352809D01*
X6643095Y-14352809D01*
X6624048Y-14343286D01*
X6614524Y-14324238D01*
X6614524Y-14314714D01*
X6624048Y-14295667D01*
X6643095Y-14286143D01*
X6671667Y-14286143D01*
X6690714Y-14295667D01*
X6938333Y-14343286D02*
X7090714Y-14343286D01*
X7014524Y-14419476D02*
X7014524Y-14267095D01*
X7328809Y-14238524D02*
X7338333Y-14229000D01*
X7357381Y-14219476D01*
X7405000Y-14219476D01*
X7424048Y-14229000D01*
X7433571Y-14238524D01*
X7443095Y-14257571D01*
X7443095Y-14276619D01*
X7433571Y-14305190D01*
X7319286Y-14419476D01*
X7443095Y-14419476D01*
X7671667Y-14409952D02*
X7690714Y-14419476D01*
X7728809Y-14419476D01*
X7747857Y-14409952D01*
X7757381Y-14390905D01*
X7757381Y-14381381D01*
X7747857Y-14362333D01*
X7728809Y-14352809D01*
X7700238Y-14352809D01*
X7681190Y-14343286D01*
X7671667Y-14324238D01*
X7671667Y-14314714D01*
X7681190Y-14295667D01*
X7700238Y-14286143D01*
X7728809Y-14286143D01*
X7747857Y-14295667D01*
X7871667Y-14419476D02*
X7852619Y-14409952D01*
X7843095Y-14390905D01*
X7843095Y-14219476D01*
X7976428Y-14419476D02*
X7957381Y-14409952D01*
X7947857Y-14400428D01*
X7938333Y-14381381D01*
X7938333Y-14324238D01*
X7947857Y-14305190D01*
X7957381Y-14295667D01*
X7976428Y-14286143D01*
X8005000Y-14286143D01*
X8024048Y-14295667D01*
X8033571Y-14305190D01*
X8043095Y-14324238D01*
X8043095Y-14381381D01*
X8033571Y-14400428D01*
X8024048Y-14409952D01*
X8005000Y-14419476D01*
X7976428Y-14419476D01*
X8100238Y-14286143D02*
X8176428Y-14286143D01*
X8128809Y-14219476D02*
X8128809Y-14390905D01*
X8138333Y-14409952D01*
X8157381Y-14419476D01*
X8176428Y-14419476D01*
X8233571Y-14409952D02*
X8252619Y-14419476D01*
X8290714Y-14419476D01*
X8309762Y-14409952D01*
X8319286Y-14390905D01*
X8319286Y-14381381D01*
X8309762Y-14362333D01*
X8290714Y-14352809D01*
X8262143Y-14352809D01*
X8243095Y-14343286D01*
X8233571Y-14324238D01*
X8233571Y-14314714D01*
X8243095Y-14295667D01*
X8262143Y-14286143D01*
X8290714Y-14286143D01*
X8309762Y-14295667D01*
X8385952Y-14495667D02*
X8395476Y-14486143D01*
X8414524Y-14457571D01*
X8424048Y-14438524D01*
X8433571Y-14409952D01*
X8443095Y-14362333D01*
X8443095Y-14324238D01*
X8433571Y-14276619D01*
X8424048Y-14248048D01*
X8414524Y-14229000D01*
X8395476Y-14200428D01*
X8385952Y-14190905D01*
M02*
