%TF.GenerationSoftware,KiCad,Pcbnew,(6.0.1)*%
%TF.CreationDate,2022-12-13T14:11:31+02:00*%
%TF.ProjectId,ArduinoClockModule,41726475-696e-46f4-936c-6f636b4d6f64,rev?*%
%TF.SameCoordinates,Original*%
%TF.FileFunction,Plated,1,2,PTH,Mixed*%
%TF.FilePolarity,Positive*%
%FSLAX46Y46*%
G04 Gerber Fmt 4.6, Leading zero omitted, Abs format (unit mm)*
G04 Created by KiCad (PCBNEW (6.0.1)) date 2022-12-13 14:11:31*
%MOMM*%
%LPD*%
G01*
G04 APERTURE LIST*
%TA.AperFunction,ViaDrill*%
%ADD10C,0.800000*%
%TD*%
%TA.AperFunction,ComponentDrill*%
%ADD11C,0.800000*%
%TD*%
%TA.AperFunction,ComponentDrill*%
%ADD12C,0.900000*%
%TD*%
%TA.AperFunction,ComponentDrill*%
%ADD13C,1.000000*%
%TD*%
%TA.AperFunction,ComponentDrill*%
%ADD14C,1.100000*%
%TD*%
G04 aperture for slot hole*
%TA.AperFunction,ComponentDrill*%
%ADD15O,1.300000X1.300000*%
%TD*%
G04 aperture for slot hole*
%TA.AperFunction,ComponentDrill*%
%ADD16O,2.800000X1.500000*%
%TD*%
G04 APERTURE END LIST*
D10*
X25500000Y-30000000D03*
X27425500Y-86614000D03*
X28650000Y-88400000D03*
X29212967Y-52005846D03*
X29900000Y-86450000D03*
X30475500Y-50500000D03*
X31500000Y-42000000D03*
X31750000Y-87500000D03*
X32500000Y-35500000D03*
X32500000Y-47000000D03*
X35600000Y-69300000D03*
X36000000Y-113250000D03*
X36300000Y-53500000D03*
X37500000Y-33000000D03*
X38471774Y-22174500D03*
X38500000Y-37500000D03*
X41150000Y-111950000D03*
X41500000Y-31500000D03*
X42000000Y-25500000D03*
X42750000Y-49450000D03*
X43942000Y-21971000D03*
X44000000Y-32000000D03*
X44550000Y-54750000D03*
X45350000Y-89300000D03*
X48750000Y-24750000D03*
X49200000Y-87550000D03*
X51500000Y-24750000D03*
X51700000Y-60450000D03*
X54000000Y-98800000D03*
X54400000Y-88600000D03*
X55000000Y-36500000D03*
X56500000Y-31000000D03*
X56850000Y-75500000D03*
X59000000Y-42000000D03*
X61000000Y-86800000D03*
X64500000Y-52000000D03*
X64500000Y-103100000D03*
X64800000Y-83100000D03*
X66000000Y-23250000D03*
X67200000Y-93200000D03*
X67814856Y-24521619D03*
X68450000Y-97850000D03*
X70100000Y-86600000D03*
X71300000Y-103450000D03*
X71750000Y-107250000D03*
X75450000Y-105850000D03*
D11*
%TO.C,C3*%
X22650000Y-45800000D03*
%TO.C,C4*%
X23500000Y-23750000D03*
%TO.C,C3*%
X25150000Y-45800000D03*
%TO.C,R4*%
X25908000Y-92456000D03*
X25908000Y-100076000D03*
%TO.C,C4*%
X26000000Y-23750000D03*
%TO.C,U4*%
X28380000Y-23637000D03*
X28380000Y-26177000D03*
X28380000Y-28717000D03*
X28380000Y-31257000D03*
X28380000Y-33797000D03*
X28380000Y-36337000D03*
X28380000Y-38877000D03*
X28380000Y-41417000D03*
X36000000Y-23637000D03*
X36000000Y-26177000D03*
X36000000Y-28717000D03*
X36000000Y-31257000D03*
X36000000Y-33797000D03*
X36000000Y-36337000D03*
X36000000Y-38877000D03*
X36000000Y-41417000D03*
%TO.C,R1*%
X37100000Y-92400000D03*
X37100000Y-100020000D03*
%TO.C,R16*%
X42190000Y-27500000D03*
X42190000Y-35120000D03*
%TO.C,R9*%
X44940000Y-49800000D03*
%TO.C,C1*%
X44950000Y-46950000D03*
X47450000Y-46950000D03*
%TO.C,R2*%
X48300000Y-92430000D03*
X48300000Y-100050000D03*
%TO.C,R10*%
X48380000Y-54850000D03*
%TO.C,R15*%
X48500000Y-26500000D03*
X48500000Y-34120000D03*
%TO.C,C2*%
X48700000Y-57700000D03*
X51200000Y-57700000D03*
%TO.C,R14*%
X51500000Y-26500000D03*
X51500000Y-34120000D03*
%TO.C,R9*%
X52560000Y-49800000D03*
%TO.C,R12*%
X54650000Y-57490000D03*
X54650000Y-65110000D03*
%TO.C,R13*%
X55000000Y-27190000D03*
X55000000Y-34810000D03*
%TO.C,R11*%
X55550000Y-42180000D03*
X55550000Y-49800000D03*
%TO.C,R10*%
X56000000Y-54850000D03*
%TO.C,R18*%
X57640000Y-71300000D03*
%TO.C,C5*%
X59250000Y-25250000D03*
X59250000Y-27750000D03*
%TO.C,R3*%
X59650000Y-91948000D03*
X59650000Y-99568000D03*
%TO.C,U5*%
X62380000Y-24000000D03*
X62380000Y-26540000D03*
X62380000Y-29080000D03*
X62380000Y-31620000D03*
X62380000Y-34160000D03*
X62380000Y-36700000D03*
X62380000Y-39240000D03*
X62380000Y-41780000D03*
%TO.C,R18*%
X65260000Y-71300000D03*
%TO.C,U1*%
X66200000Y-99560000D03*
X66200000Y-102100000D03*
X66200000Y-104640000D03*
X66200000Y-107180000D03*
X66200000Y-109720000D03*
X66200000Y-112260000D03*
X66200000Y-114800000D03*
%TO.C,R17*%
X68240000Y-71500000D03*
%TO.C,C6*%
X69000000Y-108500000D03*
X69000000Y-111000000D03*
%TO.C,U5*%
X70000000Y-24000000D03*
X70000000Y-26540000D03*
X70000000Y-29080000D03*
X70000000Y-31620000D03*
X70000000Y-34160000D03*
X70000000Y-36700000D03*
X70000000Y-39240000D03*
X70000000Y-41780000D03*
%TO.C,U1*%
X73820000Y-99560000D03*
X73820000Y-102100000D03*
X73820000Y-104640000D03*
X73820000Y-107180000D03*
X73820000Y-109720000D03*
X73820000Y-112260000D03*
X73820000Y-114800000D03*
%TO.C,R17*%
X75860000Y-71500000D03*
%TO.C,R19*%
X76350000Y-49790000D03*
X76350000Y-57410000D03*
D12*
%TO.C,D4*%
X25908000Y-102367000D03*
X25908000Y-104907000D03*
%TO.C,D1*%
X37150000Y-102310000D03*
X37150000Y-104850000D03*
%TO.C,D2*%
X48400000Y-102310000D03*
X48400000Y-104850000D03*
%TO.C,D3*%
X59650000Y-102610000D03*
X59650000Y-105150000D03*
D13*
%TO.C,A1*%
X24882000Y-49022000D03*
X24882000Y-51562000D03*
X24882000Y-54102000D03*
X24882000Y-56642000D03*
X24882000Y-59182000D03*
X24882000Y-61722000D03*
X24882000Y-64262000D03*
X24882000Y-66802000D03*
X24882000Y-69342000D03*
X24882000Y-71882000D03*
X24882000Y-74422000D03*
X24882000Y-76962000D03*
X24882000Y-79502000D03*
X24882000Y-82042000D03*
X24882000Y-84582000D03*
%TO.C,J2*%
X25908000Y-119732000D03*
%TO.C,J4*%
X37150000Y-119732000D03*
%TO.C,A1*%
X40122000Y-49022000D03*
X40122000Y-51562000D03*
X40122000Y-54102000D03*
X40122000Y-56642000D03*
X40122000Y-59182000D03*
X40122000Y-61722000D03*
X40122000Y-64262000D03*
X40122000Y-66802000D03*
X40122000Y-69342000D03*
X40122000Y-71882000D03*
X40122000Y-74422000D03*
X40122000Y-76962000D03*
X40122000Y-79502000D03*
X40122000Y-82042000D03*
X40122000Y-84582000D03*
%TO.C,U6*%
X42650000Y-23237500D03*
X42650000Y-38477500D03*
X45190000Y-23237500D03*
X45190000Y-38477500D03*
X47730000Y-23237500D03*
X47730000Y-38477500D03*
%TO.C,J1*%
X48400000Y-119732000D03*
%TO.C,U6*%
X50270000Y-23237500D03*
X50270000Y-38477500D03*
X52810000Y-23237500D03*
X52810000Y-38477500D03*
X55350000Y-23237500D03*
X55350000Y-38477500D03*
%TO.C,SW3*%
X58790000Y-49824000D03*
X58790000Y-52324000D03*
X58790000Y-54824000D03*
%TO.C,J3*%
X59650000Y-119732000D03*
%TO.C,J5*%
X64400000Y-77875000D03*
X64400000Y-80415000D03*
X66940000Y-77875000D03*
X66940000Y-80415000D03*
X69480000Y-77875000D03*
X69480000Y-80415000D03*
X72020000Y-77875000D03*
X72020000Y-80415000D03*
%TO.C,SW3*%
X73290000Y-49824000D03*
X73290000Y-54824000D03*
%TO.C,J5*%
X74560000Y-77875000D03*
X74560000Y-80415000D03*
D14*
%TO.C,SW2*%
X58218000Y-63790000D03*
X58218000Y-68290000D03*
X64718000Y-63790000D03*
X64718000Y-68290000D03*
%TO.C,SW1*%
X68886000Y-63790000D03*
X68886000Y-68290000D03*
X75386000Y-63790000D03*
X75386000Y-68290000D03*
D15*
%TO.C,J2*%
X25908000Y-108872000D03*
X25908000Y-117172000D03*
%TO.C,J4*%
X37150000Y-108872000D03*
X37150000Y-117172000D03*
%TO.C,J1*%
X48400000Y-108872000D03*
X48400000Y-117172000D03*
%TO.C,J3*%
X59650000Y-108872000D03*
X59650000Y-117172000D03*
D16*
%TO.C,SW3*%
X66290000Y-46724000D03*
X66290000Y-57924000D03*
M02*
