%FSLAX45Y45*%
G04 Gerber Fmt 4.5, Leading zero omitted, Abs format (unit mm)*
G04 Created by KiCad (PCBNEW (6.0.1)) date 2022-12-13 14:11:29*
%MOMM*%
%LPD*%
G01*
G04 APERTURE LIST*
%TA.AperFunction,Profile*%
%ADD10C,0.100000*%
%TD*%
%ADD11C,0.200000*%
G04 APERTURE END LIST*
D10*
X2000000Y-2000000D02*
X7800000Y-2000000D01*
X7800000Y-2000000D02*
X7800000Y-12100000D01*
X7800000Y-12100000D02*
X2000000Y-12100000D01*
X2000000Y-12100000D02*
X2000000Y-2000000D01*
D11*
X2252619Y-12415476D02*
X2252619Y-12215476D01*
X2300238Y-12215476D01*
X2328810Y-12225000D01*
X2347857Y-12244048D01*
X2357381Y-12263095D01*
X2366905Y-12301190D01*
X2366905Y-12329762D01*
X2357381Y-12367857D01*
X2347857Y-12386905D01*
X2328810Y-12405952D01*
X2300238Y-12415476D01*
X2252619Y-12415476D01*
X2452619Y-12415476D02*
X2452619Y-12282143D01*
X2452619Y-12320238D02*
X2462143Y-12301190D01*
X2471667Y-12291667D01*
X2490714Y-12282143D01*
X2509762Y-12282143D01*
X2576429Y-12415476D02*
X2576429Y-12282143D01*
X2576429Y-12215476D02*
X2566905Y-12225000D01*
X2576429Y-12234524D01*
X2585952Y-12225000D01*
X2576429Y-12215476D01*
X2576429Y-12234524D01*
X2700238Y-12415476D02*
X2681190Y-12405952D01*
X2671667Y-12386905D01*
X2671667Y-12215476D01*
X2805000Y-12415476D02*
X2785952Y-12405952D01*
X2776429Y-12386905D01*
X2776429Y-12215476D01*
X3033571Y-12415476D02*
X3033571Y-12215476D01*
X3100238Y-12358333D01*
X3166905Y-12215476D01*
X3166905Y-12415476D01*
X3347857Y-12415476D02*
X3347857Y-12310714D01*
X3338333Y-12291667D01*
X3319286Y-12282143D01*
X3281190Y-12282143D01*
X3262143Y-12291667D01*
X3347857Y-12405952D02*
X3328809Y-12415476D01*
X3281190Y-12415476D01*
X3262143Y-12405952D01*
X3252619Y-12386905D01*
X3252619Y-12367857D01*
X3262143Y-12348809D01*
X3281190Y-12339286D01*
X3328809Y-12339286D01*
X3347857Y-12329762D01*
X3443095Y-12282143D02*
X3443095Y-12482143D01*
X3443095Y-12291667D02*
X3462143Y-12282143D01*
X3500238Y-12282143D01*
X3519286Y-12291667D01*
X3528809Y-12301190D01*
X3538333Y-12320238D01*
X3538333Y-12377381D01*
X3528809Y-12396428D01*
X3519286Y-12405952D01*
X3500238Y-12415476D01*
X3462143Y-12415476D01*
X3443095Y-12405952D01*
X3624048Y-12396428D02*
X3633571Y-12405952D01*
X3624048Y-12415476D01*
X3614524Y-12405952D01*
X3624048Y-12396428D01*
X3624048Y-12415476D01*
X3624048Y-12291667D02*
X3633571Y-12301190D01*
X3624048Y-12310714D01*
X3614524Y-12301190D01*
X3624048Y-12291667D01*
X3624048Y-12310714D01*
M02*
