%TF.GenerationSoftware,KiCad,Pcbnew,(6.0.1-0)*%
%TF.CreationDate,2022-12-09T16:12:34+02:00*%
%TF.ProjectId,BufferedMult,42756666-6572-4656-944d-756c742e6b69,rev?*%
%TF.SameCoordinates,Original*%
%TF.FileFunction,Copper,L1,Top*%
%TF.FilePolarity,Positive*%
%FSLAX46Y46*%
G04 Gerber Fmt 4.6, Leading zero omitted, Abs format (unit mm)*
G04 Created by KiCad (PCBNEW (6.0.1-0)) date 2022-12-09 16:12:34*
%MOMM*%
%LPD*%
G01*
G04 APERTURE LIST*
G04 Aperture macros list*
%AMOutline4P*
0 Free polygon, 4 corners , with rotation*
0 The origin of the aperture is its center*
0 number of corners: always 4*
0 $1 to $8 corner X, Y*
0 $9 Rotation angle, in degrees counterclockwise*
0 create outline with 4 corners*
4,1,4,$1,$2,$3,$4,$5,$6,$7,$8,$1,$2,$9*%
G04 Aperture macros list end*
%TA.AperFunction,ComponentPad*%
%ADD10Outline4P,-1.000000X-1.000000X1.000000X-1.000000X1.000000X1.000000X-1.000000X1.000000X270.000000*%
%TD*%
%TA.AperFunction,ComponentPad*%
%ADD11C,2.000000*%
%TD*%
%TA.AperFunction,ComponentPad*%
%ADD12O,1.600000X1.600000*%
%TD*%
%TA.AperFunction,ComponentPad*%
%ADD13R,1.600000X1.600000*%
%TD*%
%TA.AperFunction,ComponentPad*%
%ADD14O,1.700000X1.700000*%
%TD*%
%TA.AperFunction,ComponentPad*%
%ADD15R,1.700000X1.700000*%
%TD*%
%TA.AperFunction,Conductor*%
%ADD16C,0.350000*%
%TD*%
G04 APERTURE END LIST*
D10*
%TO.P,J1,T*%
%TO.N,GND*%
X5080000Y-91088000D03*
D11*
%TO.P,J1,S*%
%TO.N,Net-(J3-PadS)*%
X5080000Y-101948000D03*
%TO.P,J1,P*%
%TO.N,N/C*%
X5080000Y-93648000D03*
%TD*%
D10*
%TO.P,J1,T*%
%TO.N,GND*%
X5080000Y-77372000D03*
D11*
%TO.P,J1,S*%
%TO.N,Net-(J5-PadS)*%
X5080000Y-88232000D03*
%TO.P,J1,P*%
%TO.N,N/C*%
X5080000Y-79932000D03*
%TD*%
D10*
%TO.P,J1,T*%
%TO.N,GND*%
X5080000Y-63656000D03*
D11*
%TO.P,J1,S*%
%TO.N,Net-(J2-PadS)*%
X5080000Y-74516000D03*
%TO.P,J1,P*%
%TO.N,N/C*%
X5080000Y-66216000D03*
%TD*%
%TO.P,J1,P*%
%TO.N,N/C*%
X5080000Y-52500000D03*
%TO.P,J1,S*%
%TO.N,Net-(J4-PadS)*%
X5080000Y-60800000D03*
D10*
%TO.P,J1,T*%
%TO.N,GND*%
X5080000Y-49940000D03*
%TD*%
D12*
%TO.P,U1,14*%
%TO.N,Net-(J5-PadS)*%
X8900000Y-31872000D03*
%TO.P,U1,13,-*%
X8900000Y-34412000D03*
%TO.P,U1,12,+*%
%TO.N,Net-(J1-PadS)*%
X8900000Y-36952000D03*
%TO.P,U1,11,V-*%
%TO.N,-12V*%
X8900000Y-39492000D03*
%TO.P,U1,10,+*%
%TO.N,Net-(J1-PadS)*%
X8900000Y-42032000D03*
%TO.P,U1,9,-*%
%TO.N,Net-(J3-PadS)*%
X8900000Y-44572000D03*
%TO.P,U1,8*%
X8900000Y-47112000D03*
%TO.P,U1,7*%
%TO.N,Net-(J2-PadS)*%
X1280000Y-47112000D03*
%TO.P,U1,6,-*%
X1280000Y-44572000D03*
%TO.P,U1,5,+*%
%TO.N,Net-(J1-PadS)*%
X1280000Y-42032000D03*
%TO.P,U1,4,V+*%
%TO.N,+12V*%
X1280000Y-39492000D03*
%TO.P,U1,3,+*%
%TO.N,Net-(J1-PadS)*%
X1280000Y-36952000D03*
%TO.P,U1,2,-*%
%TO.N,Net-(J4-PadS)*%
X1280000Y-34412000D03*
D13*
%TO.P,U1,1*%
X1280000Y-31872000D03*
%TD*%
D10*
%TO.P,J1,T*%
%TO.N,GND*%
X5080000Y-1172000D03*
D11*
%TO.P,J1,S*%
%TO.N,Net-(J1-PadS)*%
X5080000Y-12032000D03*
%TO.P,J1,P*%
%TO.N,N/C*%
X5080000Y-3732000D03*
%TD*%
D14*
%TO.P,J7,2,Pin_2*%
%TO.N,-12V*%
X1270000Y-6350000D03*
D15*
%TO.P,J7,1,Pin_1*%
%TO.N,+12V*%
X1270000Y-8890000D03*
%TD*%
D14*
%TO.P,J6,10,Pin_10*%
%TO.N,-12V*%
X5593000Y-26167000D03*
%TO.P,J6,9,Pin_9*%
X8133000Y-26167000D03*
%TO.P,J6,8,Pin_8*%
%TO.N,GND*%
X5593000Y-23627000D03*
%TO.P,J6,7,Pin_7*%
X8133000Y-23627000D03*
%TO.P,J6,6,Pin_6*%
X5593000Y-21087000D03*
%TO.P,J6,5,Pin_5*%
X8133000Y-21087000D03*
%TO.P,J6,4,Pin_4*%
X5593000Y-18547000D03*
%TO.P,J6,3,Pin_3*%
X8133000Y-18547000D03*
%TO.P,J6,2,Pin_2*%
%TO.N,+12V*%
X5593000Y-16007000D03*
D15*
%TO.P,J6,1,Pin_1*%
X8133000Y-16007000D03*
%TD*%
D14*
%TO.P,J8,2,Pin_2*%
%TO.N,-12V*%
X8890000Y-6350000D03*
D15*
%TO.P,J8,1,Pin_1*%
%TO.N,+12V*%
X8890000Y-8890000D03*
%TD*%
D16*
%TO.N,-12V*%
X9640000Y-24660000D02*
X9640000Y-12520000D01*
X6640000Y-7320000D02*
X5670000Y-6350000D01*
X5670000Y-6350000D02*
X1270000Y-6350000D01*
X8133000Y-26167000D02*
X9640000Y-24660000D01*
X9640000Y-12520000D02*
X8240000Y-11120000D01*
X8240000Y-11120000D02*
X7040000Y-11120000D01*
X6640000Y-10720000D02*
X6640000Y-7320000D01*
X7040000Y-11120000D02*
X6640000Y-10720000D01*
X6640000Y-7320000D02*
X7840000Y-6120000D01*
X7840000Y-6120000D02*
X8660000Y-6120000D01*
X8660000Y-6120000D02*
X8890000Y-6350000D01*
%TO.N,Net-(J1-PadS)*%
X2921000Y-40391000D02*
X4562000Y-42032000D01*
X4562000Y-42032000D02*
X8900000Y-42032000D01*
X2921000Y-36957000D02*
X2926000Y-36952000D01*
X2926000Y-36952000D02*
X1280000Y-36952000D01*
X1280000Y-42032000D02*
X2921000Y-40391000D01*
X3208000Y-12032000D02*
X2159000Y-13081000D01*
X5080000Y-12032000D02*
X3208000Y-12032000D01*
X2159000Y-13081000D02*
X2159000Y-29083000D01*
X3302000Y-36576000D02*
X3302000Y-30226000D01*
X2926000Y-36952000D02*
X3302000Y-36576000D01*
X2921000Y-40391000D02*
X2921000Y-36957000D01*
X2159000Y-29083000D02*
X3302000Y-30226000D01*
X8900000Y-36952000D02*
X2926000Y-36952000D01*
%TO.N,-12V*%
X5583000Y-26167000D02*
X8123000Y-26167000D01*
%TD*%
%TA.AperFunction,Conductor*%
%TO.N,GND*%
G36*
X2965032Y-41417749D02*
G01*
X3010095Y-41446710D01*
X4058844Y-42495459D01*
X4064698Y-42501724D01*
X4101290Y-42543670D01*
X4151626Y-42579046D01*
X4156912Y-42582972D01*
X4205328Y-42620935D01*
X4212249Y-42624060D01*
X4216564Y-42626673D01*
X4225976Y-42632042D01*
X4230424Y-42634427D01*
X4236639Y-42638795D01*
X4243716Y-42641554D01*
X4293952Y-42661140D01*
X4300034Y-42663697D01*
X4324368Y-42674684D01*
X4356104Y-42689014D01*
X4363576Y-42690399D01*
X4368427Y-42691919D01*
X4378757Y-42694862D01*
X4383696Y-42696130D01*
X4390772Y-42698889D01*
X4398303Y-42699881D01*
X4398305Y-42699881D01*
X4451785Y-42706922D01*
X4458279Y-42707950D01*
X4518767Y-42719160D01*
X4526348Y-42718723D01*
X4526349Y-42718723D01*
X4578625Y-42715709D01*
X4585877Y-42715500D01*
X7715617Y-42715500D01*
X7783738Y-42735502D01*
X7818829Y-42769228D01*
X7893802Y-42876300D01*
X8055700Y-43038198D01*
X8060208Y-43041355D01*
X8060211Y-43041357D01*
X8128000Y-43088823D01*
X8243251Y-43169523D01*
X8248233Y-43171846D01*
X8248238Y-43171849D01*
X8282457Y-43187805D01*
X8335742Y-43234722D01*
X8355203Y-43302999D01*
X8334661Y-43370959D01*
X8282457Y-43416195D01*
X8248238Y-43432151D01*
X8248233Y-43432154D01*
X8243251Y-43434477D01*
X8148000Y-43501173D01*
X8060211Y-43562643D01*
X8060208Y-43562645D01*
X8055700Y-43565802D01*
X7893802Y-43727700D01*
X7762477Y-43915251D01*
X7760154Y-43920233D01*
X7760151Y-43920238D01*
X7668039Y-44117775D01*
X7665716Y-44122757D01*
X7606457Y-44343913D01*
X7586502Y-44572000D01*
X7606457Y-44800087D01*
X7665716Y-45021243D01*
X7668039Y-45026224D01*
X7668039Y-45026225D01*
X7760151Y-45223762D01*
X7760154Y-45223767D01*
X7762477Y-45228749D01*
X7893802Y-45416300D01*
X8055700Y-45578198D01*
X8060208Y-45581355D01*
X8060211Y-45581357D01*
X8128000Y-45628823D01*
X8243251Y-45709523D01*
X8248233Y-45711846D01*
X8248238Y-45711849D01*
X8282457Y-45727805D01*
X8335742Y-45774722D01*
X8355203Y-45842999D01*
X8334661Y-45910959D01*
X8282457Y-45956195D01*
X8248238Y-45972151D01*
X8248233Y-45972154D01*
X8243251Y-45974477D01*
X8148000Y-46041173D01*
X8060211Y-46102643D01*
X8060208Y-46102645D01*
X8055700Y-46105802D01*
X7893802Y-46267700D01*
X7762477Y-46455251D01*
X7760154Y-46460233D01*
X7760151Y-46460238D01*
X7668039Y-46657775D01*
X7665716Y-46662757D01*
X7606457Y-46883913D01*
X7586502Y-47112000D01*
X7606457Y-47340087D01*
X7665716Y-47561243D01*
X7668039Y-47566224D01*
X7668039Y-47566225D01*
X7760151Y-47763762D01*
X7760154Y-47763767D01*
X7762477Y-47768749D01*
X7893802Y-47956300D01*
X8055700Y-48118198D01*
X8060208Y-48121355D01*
X8060211Y-48121357D01*
X8128000Y-48168823D01*
X8243251Y-48249523D01*
X8248233Y-48251846D01*
X8248238Y-48251849D01*
X8445775Y-48343961D01*
X8450757Y-48346284D01*
X8456065Y-48347706D01*
X8456067Y-48347707D01*
X8666598Y-48404119D01*
X8666600Y-48404119D01*
X8671913Y-48405543D01*
X8900000Y-48425498D01*
X9128087Y-48405543D01*
X9133400Y-48404119D01*
X9133402Y-48404119D01*
X9343933Y-48347707D01*
X9343935Y-48347706D01*
X9349243Y-48346284D01*
X9472750Y-48288692D01*
X9542942Y-48278031D01*
X9607755Y-48307011D01*
X9646611Y-48366431D01*
X9652000Y-48402887D01*
X9652000Y-104446000D01*
X9631998Y-104514121D01*
X9578342Y-104560614D01*
X9526000Y-104572000D01*
X634000Y-104572000D01*
X565879Y-104551998D01*
X519386Y-104498342D01*
X508000Y-104446000D01*
X508000Y-101948000D01*
X3566835Y-101948000D01*
X3585465Y-102184711D01*
X3640895Y-102415594D01*
X3731760Y-102634963D01*
X3734346Y-102639183D01*
X3853241Y-102833202D01*
X3853245Y-102833208D01*
X3855824Y-102837416D01*
X4010031Y-103017969D01*
X4190584Y-103172176D01*
X4194792Y-103174755D01*
X4194798Y-103174759D01*
X4388817Y-103293654D01*
X4393037Y-103296240D01*
X4397607Y-103298133D01*
X4397611Y-103298135D01*
X4607833Y-103385211D01*
X4612406Y-103387105D01*
X4692609Y-103406360D01*
X4838476Y-103441380D01*
X4838482Y-103441381D01*
X4843289Y-103442535D01*
X5080000Y-103461165D01*
X5316711Y-103442535D01*
X5321518Y-103441381D01*
X5321524Y-103441380D01*
X5467391Y-103406360D01*
X5547594Y-103387105D01*
X5552167Y-103385211D01*
X5762389Y-103298135D01*
X5762393Y-103298133D01*
X5766963Y-103296240D01*
X5771183Y-103293654D01*
X5965202Y-103174759D01*
X5965208Y-103174755D01*
X5969416Y-103172176D01*
X6149969Y-103017969D01*
X6304176Y-102837416D01*
X6306755Y-102833208D01*
X6306759Y-102833202D01*
X6425654Y-102639183D01*
X6428240Y-102634963D01*
X6519105Y-102415594D01*
X6574535Y-102184711D01*
X6593165Y-101948000D01*
X6574535Y-101711289D01*
X6519105Y-101480406D01*
X6428240Y-101261037D01*
X6425654Y-101256817D01*
X6306759Y-101062798D01*
X6306755Y-101062792D01*
X6304176Y-101058584D01*
X6149969Y-100878031D01*
X5969416Y-100723824D01*
X5965208Y-100721245D01*
X5965202Y-100721241D01*
X5771183Y-100602346D01*
X5766963Y-100599760D01*
X5762393Y-100597867D01*
X5762389Y-100597865D01*
X5552167Y-100510789D01*
X5552165Y-100510788D01*
X5547594Y-100508895D01*
X5467391Y-100489640D01*
X5321524Y-100454620D01*
X5321518Y-100454619D01*
X5316711Y-100453465D01*
X5080000Y-100434835D01*
X4843289Y-100453465D01*
X4838482Y-100454619D01*
X4838476Y-100454620D01*
X4692609Y-100489640D01*
X4612406Y-100508895D01*
X4607835Y-100510788D01*
X4607833Y-100510789D01*
X4397611Y-100597865D01*
X4397607Y-100597867D01*
X4393037Y-100599760D01*
X4388817Y-100602346D01*
X4194798Y-100721241D01*
X4194792Y-100721245D01*
X4190584Y-100723824D01*
X4010031Y-100878031D01*
X3855824Y-101058584D01*
X3853245Y-101062792D01*
X3853241Y-101062798D01*
X3734346Y-101256817D01*
X3731760Y-101261037D01*
X3640895Y-101480406D01*
X3585465Y-101711289D01*
X3566835Y-101948000D01*
X508000Y-101948000D01*
X508000Y-93648000D01*
X3566835Y-93648000D01*
X3585465Y-93884711D01*
X3640895Y-94115594D01*
X3731760Y-94334963D01*
X3734346Y-94339183D01*
X3853241Y-94533202D01*
X3853245Y-94533208D01*
X3855824Y-94537416D01*
X4010031Y-94717969D01*
X4190584Y-94872176D01*
X4194792Y-94874755D01*
X4194798Y-94874759D01*
X4388817Y-94993654D01*
X4393037Y-94996240D01*
X4397607Y-94998133D01*
X4397611Y-94998135D01*
X4607833Y-95085211D01*
X4612406Y-95087105D01*
X4692609Y-95106360D01*
X4838476Y-95141380D01*
X4838482Y-95141381D01*
X4843289Y-95142535D01*
X5080000Y-95161165D01*
X5316711Y-95142535D01*
X5321518Y-95141381D01*
X5321524Y-95141380D01*
X5467391Y-95106360D01*
X5547594Y-95087105D01*
X5552167Y-95085211D01*
X5762389Y-94998135D01*
X5762393Y-94998133D01*
X5766963Y-94996240D01*
X5771183Y-94993654D01*
X5965202Y-94874759D01*
X5965208Y-94874755D01*
X5969416Y-94872176D01*
X6149969Y-94717969D01*
X6304176Y-94537416D01*
X6306755Y-94533208D01*
X6306759Y-94533202D01*
X6425654Y-94339183D01*
X6428240Y-94334963D01*
X6519105Y-94115594D01*
X6574535Y-93884711D01*
X6593165Y-93648000D01*
X6574535Y-93411289D01*
X6519105Y-93180406D01*
X6428240Y-92961037D01*
X6425654Y-92956817D01*
X6306759Y-92762798D01*
X6306755Y-92762792D01*
X6304176Y-92758584D01*
X6282854Y-92733620D01*
X6253823Y-92668832D01*
X6264427Y-92598632D01*
X6311301Y-92545309D01*
X6318154Y-92541270D01*
X6333646Y-92532788D01*
X6435724Y-92456285D01*
X6448285Y-92443724D01*
X6524786Y-92341649D01*
X6533324Y-92326054D01*
X6578478Y-92205606D01*
X6582105Y-92190351D01*
X6587631Y-92139486D01*
X6588000Y-92132672D01*
X6588000Y-91360115D01*
X6583525Y-91344876D01*
X6582135Y-91343671D01*
X6574452Y-91342000D01*
X3590116Y-91342000D01*
X3574877Y-91346475D01*
X3573672Y-91347865D01*
X3572001Y-91355548D01*
X3572001Y-92132669D01*
X3572371Y-92139490D01*
X3577895Y-92190352D01*
X3581521Y-92205604D01*
X3626676Y-92326054D01*
X3635214Y-92341649D01*
X3711715Y-92443724D01*
X3724276Y-92456285D01*
X3826354Y-92532788D01*
X3841846Y-92541270D01*
X3891991Y-92591529D01*
X3907004Y-92660920D01*
X3882118Y-92727412D01*
X3877153Y-92733610D01*
X3855824Y-92758584D01*
X3853245Y-92762792D01*
X3853241Y-92762798D01*
X3734346Y-92956817D01*
X3731760Y-92961037D01*
X3640895Y-93180406D01*
X3585465Y-93411289D01*
X3566835Y-93648000D01*
X508000Y-93648000D01*
X508000Y-88232000D01*
X3566835Y-88232000D01*
X3585465Y-88468711D01*
X3640895Y-88699594D01*
X3731760Y-88918963D01*
X3734346Y-88923183D01*
X3853241Y-89117202D01*
X3853245Y-89117208D01*
X3855824Y-89121416D01*
X4010031Y-89301969D01*
X4013787Y-89305177D01*
X4079362Y-89361184D01*
X4118171Y-89420635D01*
X4118677Y-89491630D01*
X4080721Y-89551628D01*
X4011135Y-89582258D01*
X3977648Y-89585895D01*
X3962396Y-89589521D01*
X3841946Y-89634676D01*
X3826351Y-89643214D01*
X3724276Y-89719715D01*
X3711715Y-89732276D01*
X3635214Y-89834351D01*
X3626676Y-89849946D01*
X3581522Y-89970394D01*
X3577895Y-89985649D01*
X3572369Y-90036514D01*
X3572000Y-90043328D01*
X3572000Y-90815885D01*
X3576475Y-90831124D01*
X3577865Y-90832329D01*
X3585548Y-90834000D01*
X6569884Y-90834000D01*
X6585123Y-90829525D01*
X6586328Y-90828135D01*
X6587999Y-90820452D01*
X6587999Y-90043331D01*
X6587629Y-90036510D01*
X6582105Y-89985648D01*
X6578479Y-89970396D01*
X6533324Y-89849946D01*
X6524786Y-89834351D01*
X6448285Y-89732276D01*
X6435724Y-89719715D01*
X6333649Y-89643214D01*
X6318054Y-89634676D01*
X6197606Y-89589522D01*
X6182350Y-89585894D01*
X6148864Y-89582257D01*
X6083301Y-89555016D01*
X6042874Y-89496653D01*
X6040418Y-89425699D01*
X6080639Y-89361183D01*
X6146213Y-89305177D01*
X6149969Y-89301969D01*
X6304176Y-89121416D01*
X6306755Y-89117208D01*
X6306759Y-89117202D01*
X6425654Y-88923183D01*
X6428240Y-88918963D01*
X6519105Y-88699594D01*
X6574535Y-88468711D01*
X6593165Y-88232000D01*
X6574535Y-87995289D01*
X6519105Y-87764406D01*
X6428240Y-87545037D01*
X6425654Y-87540817D01*
X6306759Y-87346798D01*
X6306755Y-87346792D01*
X6304176Y-87342584D01*
X6149969Y-87162031D01*
X5969416Y-87007824D01*
X5965208Y-87005245D01*
X5965202Y-87005241D01*
X5771183Y-86886346D01*
X5766963Y-86883760D01*
X5762393Y-86881867D01*
X5762389Y-86881865D01*
X5552167Y-86794789D01*
X5552165Y-86794788D01*
X5547594Y-86792895D01*
X5467391Y-86773640D01*
X5321524Y-86738620D01*
X5321518Y-86738619D01*
X5316711Y-86737465D01*
X5080000Y-86718835D01*
X4843289Y-86737465D01*
X4838482Y-86738619D01*
X4838476Y-86738620D01*
X4692609Y-86773640D01*
X4612406Y-86792895D01*
X4607835Y-86794788D01*
X4607833Y-86794789D01*
X4397611Y-86881865D01*
X4397607Y-86881867D01*
X4393037Y-86883760D01*
X4388817Y-86886346D01*
X4194798Y-87005241D01*
X4194792Y-87005245D01*
X4190584Y-87007824D01*
X4010031Y-87162031D01*
X3855824Y-87342584D01*
X3853245Y-87346792D01*
X3853241Y-87346798D01*
X3734346Y-87540817D01*
X3731760Y-87545037D01*
X3640895Y-87764406D01*
X3585465Y-87995289D01*
X3566835Y-88232000D01*
X508000Y-88232000D01*
X508000Y-79932000D01*
X3566835Y-79932000D01*
X3585465Y-80168711D01*
X3640895Y-80399594D01*
X3731760Y-80618963D01*
X3734346Y-80623183D01*
X3853241Y-80817202D01*
X3853245Y-80817208D01*
X3855824Y-80821416D01*
X4010031Y-81001969D01*
X4190584Y-81156176D01*
X4194792Y-81158755D01*
X4194798Y-81158759D01*
X4388817Y-81277654D01*
X4393037Y-81280240D01*
X4397607Y-81282133D01*
X4397611Y-81282135D01*
X4607833Y-81369211D01*
X4612406Y-81371105D01*
X4692609Y-81390360D01*
X4838476Y-81425380D01*
X4838482Y-81425381D01*
X4843289Y-81426535D01*
X5080000Y-81445165D01*
X5316711Y-81426535D01*
X5321518Y-81425381D01*
X5321524Y-81425380D01*
X5467391Y-81390360D01*
X5547594Y-81371105D01*
X5552167Y-81369211D01*
X5762389Y-81282135D01*
X5762393Y-81282133D01*
X5766963Y-81280240D01*
X5771183Y-81277654D01*
X5965202Y-81158759D01*
X5965208Y-81158755D01*
X5969416Y-81156176D01*
X6149969Y-81001969D01*
X6304176Y-80821416D01*
X6306755Y-80817208D01*
X6306759Y-80817202D01*
X6425654Y-80623183D01*
X6428240Y-80618963D01*
X6519105Y-80399594D01*
X6574535Y-80168711D01*
X6593165Y-79932000D01*
X6574535Y-79695289D01*
X6519105Y-79464406D01*
X6428240Y-79245037D01*
X6425654Y-79240817D01*
X6306759Y-79046798D01*
X6306755Y-79046792D01*
X6304176Y-79042584D01*
X6282854Y-79017620D01*
X6253823Y-78952832D01*
X6264427Y-78882632D01*
X6311301Y-78829309D01*
X6318154Y-78825270D01*
X6333646Y-78816788D01*
X6435724Y-78740285D01*
X6448285Y-78727724D01*
X6524786Y-78625649D01*
X6533324Y-78610054D01*
X6578478Y-78489606D01*
X6582105Y-78474351D01*
X6587631Y-78423486D01*
X6588000Y-78416672D01*
X6588000Y-77644115D01*
X6583525Y-77628876D01*
X6582135Y-77627671D01*
X6574452Y-77626000D01*
X3590116Y-77626000D01*
X3574877Y-77630475D01*
X3573672Y-77631865D01*
X3572001Y-77639548D01*
X3572001Y-78416669D01*
X3572371Y-78423490D01*
X3577895Y-78474352D01*
X3581521Y-78489604D01*
X3626676Y-78610054D01*
X3635214Y-78625649D01*
X3711715Y-78727724D01*
X3724276Y-78740285D01*
X3826354Y-78816788D01*
X3841846Y-78825270D01*
X3891991Y-78875529D01*
X3907004Y-78944920D01*
X3882118Y-79011412D01*
X3877153Y-79017610D01*
X3855824Y-79042584D01*
X3853245Y-79046792D01*
X3853241Y-79046798D01*
X3734346Y-79240817D01*
X3731760Y-79245037D01*
X3640895Y-79464406D01*
X3585465Y-79695289D01*
X3566835Y-79932000D01*
X508000Y-79932000D01*
X508000Y-74516000D01*
X3566835Y-74516000D01*
X3585465Y-74752711D01*
X3640895Y-74983594D01*
X3731760Y-75202963D01*
X3734346Y-75207183D01*
X3853241Y-75401202D01*
X3853245Y-75401208D01*
X3855824Y-75405416D01*
X4010031Y-75585969D01*
X4013787Y-75589177D01*
X4079362Y-75645184D01*
X4118171Y-75704635D01*
X4118677Y-75775630D01*
X4080721Y-75835628D01*
X4011135Y-75866258D01*
X3977648Y-75869895D01*
X3962396Y-75873521D01*
X3841946Y-75918676D01*
X3826351Y-75927214D01*
X3724276Y-76003715D01*
X3711715Y-76016276D01*
X3635214Y-76118351D01*
X3626676Y-76133946D01*
X3581522Y-76254394D01*
X3577895Y-76269649D01*
X3572369Y-76320514D01*
X3572000Y-76327328D01*
X3572000Y-77099885D01*
X3576475Y-77115124D01*
X3577865Y-77116329D01*
X3585548Y-77118000D01*
X6569884Y-77118000D01*
X6585123Y-77113525D01*
X6586328Y-77112135D01*
X6587999Y-77104452D01*
X6587999Y-76327331D01*
X6587629Y-76320510D01*
X6582105Y-76269648D01*
X6578479Y-76254396D01*
X6533324Y-76133946D01*
X6524786Y-76118351D01*
X6448285Y-76016276D01*
X6435724Y-76003715D01*
X6333649Y-75927214D01*
X6318054Y-75918676D01*
X6197606Y-75873522D01*
X6182350Y-75869894D01*
X6148864Y-75866257D01*
X6083301Y-75839016D01*
X6042874Y-75780653D01*
X6040418Y-75709699D01*
X6080639Y-75645183D01*
X6146213Y-75589177D01*
X6149969Y-75585969D01*
X6304176Y-75405416D01*
X6306755Y-75401208D01*
X6306759Y-75401202D01*
X6425654Y-75207183D01*
X6428240Y-75202963D01*
X6519105Y-74983594D01*
X6574535Y-74752711D01*
X6593165Y-74516000D01*
X6574535Y-74279289D01*
X6519105Y-74048406D01*
X6428240Y-73829037D01*
X6425654Y-73824817D01*
X6306759Y-73630798D01*
X6306755Y-73630792D01*
X6304176Y-73626584D01*
X6149969Y-73446031D01*
X5969416Y-73291824D01*
X5965208Y-73289245D01*
X5965202Y-73289241D01*
X5771183Y-73170346D01*
X5766963Y-73167760D01*
X5762393Y-73165867D01*
X5762389Y-73165865D01*
X5552167Y-73078789D01*
X5552165Y-73078788D01*
X5547594Y-73076895D01*
X5467391Y-73057640D01*
X5321524Y-73022620D01*
X5321518Y-73022619D01*
X5316711Y-73021465D01*
X5080000Y-73002835D01*
X4843289Y-73021465D01*
X4838482Y-73022619D01*
X4838476Y-73022620D01*
X4692609Y-73057640D01*
X4612406Y-73076895D01*
X4607835Y-73078788D01*
X4607833Y-73078789D01*
X4397611Y-73165865D01*
X4397607Y-73165867D01*
X4393037Y-73167760D01*
X4388817Y-73170346D01*
X4194798Y-73289241D01*
X4194792Y-73289245D01*
X4190584Y-73291824D01*
X4010031Y-73446031D01*
X3855824Y-73626584D01*
X3853245Y-73630792D01*
X3853241Y-73630798D01*
X3734346Y-73824817D01*
X3731760Y-73829037D01*
X3640895Y-74048406D01*
X3585465Y-74279289D01*
X3566835Y-74516000D01*
X508000Y-74516000D01*
X508000Y-66216000D01*
X3566835Y-66216000D01*
X3585465Y-66452711D01*
X3640895Y-66683594D01*
X3731760Y-66902963D01*
X3734346Y-66907183D01*
X3853241Y-67101202D01*
X3853245Y-67101208D01*
X3855824Y-67105416D01*
X4010031Y-67285969D01*
X4190584Y-67440176D01*
X4194792Y-67442755D01*
X4194798Y-67442759D01*
X4388817Y-67561654D01*
X4393037Y-67564240D01*
X4397607Y-67566133D01*
X4397611Y-67566135D01*
X4607833Y-67653211D01*
X4612406Y-67655105D01*
X4692609Y-67674360D01*
X4838476Y-67709380D01*
X4838482Y-67709381D01*
X4843289Y-67710535D01*
X5080000Y-67729165D01*
X5316711Y-67710535D01*
X5321518Y-67709381D01*
X5321524Y-67709380D01*
X5467391Y-67674360D01*
X5547594Y-67655105D01*
X5552167Y-67653211D01*
X5762389Y-67566135D01*
X5762393Y-67566133D01*
X5766963Y-67564240D01*
X5771183Y-67561654D01*
X5965202Y-67442759D01*
X5965208Y-67442755D01*
X5969416Y-67440176D01*
X6149969Y-67285969D01*
X6304176Y-67105416D01*
X6306755Y-67101208D01*
X6306759Y-67101202D01*
X6425654Y-66907183D01*
X6428240Y-66902963D01*
X6519105Y-66683594D01*
X6574535Y-66452711D01*
X6593165Y-66216000D01*
X6574535Y-65979289D01*
X6519105Y-65748406D01*
X6428240Y-65529037D01*
X6425654Y-65524817D01*
X6306759Y-65330798D01*
X6306755Y-65330792D01*
X6304176Y-65326584D01*
X6282854Y-65301620D01*
X6253823Y-65236832D01*
X6264427Y-65166632D01*
X6311301Y-65113309D01*
X6318154Y-65109270D01*
X6333646Y-65100788D01*
X6435724Y-65024285D01*
X6448285Y-65011724D01*
X6524786Y-64909649D01*
X6533324Y-64894054D01*
X6578478Y-64773606D01*
X6582105Y-64758351D01*
X6587631Y-64707486D01*
X6588000Y-64700672D01*
X6588000Y-63928115D01*
X6583525Y-63912876D01*
X6582135Y-63911671D01*
X6574452Y-63910000D01*
X3590116Y-63910000D01*
X3574877Y-63914475D01*
X3573672Y-63915865D01*
X3572001Y-63923548D01*
X3572001Y-64700669D01*
X3572371Y-64707490D01*
X3577895Y-64758352D01*
X3581521Y-64773604D01*
X3626676Y-64894054D01*
X3635214Y-64909649D01*
X3711715Y-65011724D01*
X3724276Y-65024285D01*
X3826354Y-65100788D01*
X3841846Y-65109270D01*
X3891991Y-65159529D01*
X3907004Y-65228920D01*
X3882118Y-65295412D01*
X3877153Y-65301610D01*
X3855824Y-65326584D01*
X3853245Y-65330792D01*
X3853241Y-65330798D01*
X3734346Y-65524817D01*
X3731760Y-65529037D01*
X3640895Y-65748406D01*
X3585465Y-65979289D01*
X3566835Y-66216000D01*
X508000Y-66216000D01*
X508000Y-60800000D01*
X3566835Y-60800000D01*
X3585465Y-61036711D01*
X3640895Y-61267594D01*
X3731760Y-61486963D01*
X3734346Y-61491183D01*
X3853241Y-61685202D01*
X3853245Y-61685208D01*
X3855824Y-61689416D01*
X4010031Y-61869969D01*
X4013787Y-61873177D01*
X4079362Y-61929184D01*
X4118171Y-61988635D01*
X4118677Y-62059630D01*
X4080721Y-62119628D01*
X4011135Y-62150258D01*
X3977648Y-62153895D01*
X3962396Y-62157521D01*
X3841946Y-62202676D01*
X3826351Y-62211214D01*
X3724276Y-62287715D01*
X3711715Y-62300276D01*
X3635214Y-62402351D01*
X3626676Y-62417946D01*
X3581522Y-62538394D01*
X3577895Y-62553649D01*
X3572369Y-62604514D01*
X3572000Y-62611328D01*
X3572000Y-63383885D01*
X3576475Y-63399124D01*
X3577865Y-63400329D01*
X3585548Y-63402000D01*
X6569884Y-63402000D01*
X6585123Y-63397525D01*
X6586328Y-63396135D01*
X6587999Y-63388452D01*
X6587999Y-62611331D01*
X6587629Y-62604510D01*
X6582105Y-62553648D01*
X6578479Y-62538396D01*
X6533324Y-62417946D01*
X6524786Y-62402351D01*
X6448285Y-62300276D01*
X6435724Y-62287715D01*
X6333649Y-62211214D01*
X6318054Y-62202676D01*
X6197606Y-62157522D01*
X6182350Y-62153894D01*
X6148864Y-62150257D01*
X6083301Y-62123016D01*
X6042874Y-62064653D01*
X6040418Y-61993699D01*
X6080639Y-61929183D01*
X6146213Y-61873177D01*
X6149969Y-61869969D01*
X6304176Y-61689416D01*
X6306755Y-61685208D01*
X6306759Y-61685202D01*
X6425654Y-61491183D01*
X6428240Y-61486963D01*
X6519105Y-61267594D01*
X6574535Y-61036711D01*
X6593165Y-60800000D01*
X6574535Y-60563289D01*
X6519105Y-60332406D01*
X6428240Y-60113037D01*
X6425654Y-60108817D01*
X6306759Y-59914798D01*
X6306755Y-59914792D01*
X6304176Y-59910584D01*
X6149969Y-59730031D01*
X5969416Y-59575824D01*
X5965208Y-59573245D01*
X5965202Y-59573241D01*
X5771183Y-59454346D01*
X5766963Y-59451760D01*
X5762393Y-59449867D01*
X5762389Y-59449865D01*
X5552167Y-59362789D01*
X5552165Y-59362788D01*
X5547594Y-59360895D01*
X5467391Y-59341640D01*
X5321524Y-59306620D01*
X5321518Y-59306619D01*
X5316711Y-59305465D01*
X5080000Y-59286835D01*
X4843289Y-59305465D01*
X4838482Y-59306619D01*
X4838476Y-59306620D01*
X4692609Y-59341640D01*
X4612406Y-59360895D01*
X4607835Y-59362788D01*
X4607833Y-59362789D01*
X4397611Y-59449865D01*
X4397607Y-59449867D01*
X4393037Y-59451760D01*
X4388817Y-59454346D01*
X4194798Y-59573241D01*
X4194792Y-59573245D01*
X4190584Y-59575824D01*
X4010031Y-59730031D01*
X3855824Y-59910584D01*
X3853245Y-59914792D01*
X3853241Y-59914798D01*
X3734346Y-60108817D01*
X3731760Y-60113037D01*
X3640895Y-60332406D01*
X3585465Y-60563289D01*
X3566835Y-60800000D01*
X508000Y-60800000D01*
X508000Y-52500000D01*
X3566835Y-52500000D01*
X3585465Y-52736711D01*
X3640895Y-52967594D01*
X3731760Y-53186963D01*
X3734346Y-53191183D01*
X3853241Y-53385202D01*
X3853245Y-53385208D01*
X3855824Y-53389416D01*
X4010031Y-53569969D01*
X4190584Y-53724176D01*
X4194792Y-53726755D01*
X4194798Y-53726759D01*
X4388817Y-53845654D01*
X4393037Y-53848240D01*
X4397607Y-53850133D01*
X4397611Y-53850135D01*
X4607833Y-53937211D01*
X4612406Y-53939105D01*
X4692609Y-53958360D01*
X4838476Y-53993380D01*
X4838482Y-53993381D01*
X4843289Y-53994535D01*
X5080000Y-54013165D01*
X5316711Y-53994535D01*
X5321518Y-53993381D01*
X5321524Y-53993380D01*
X5467391Y-53958360D01*
X5547594Y-53939105D01*
X5552167Y-53937211D01*
X5762389Y-53850135D01*
X5762393Y-53850133D01*
X5766963Y-53848240D01*
X5771183Y-53845654D01*
X5965202Y-53726759D01*
X5965208Y-53726755D01*
X5969416Y-53724176D01*
X6149969Y-53569969D01*
X6304176Y-53389416D01*
X6306755Y-53385208D01*
X6306759Y-53385202D01*
X6425654Y-53191183D01*
X6428240Y-53186963D01*
X6519105Y-52967594D01*
X6574535Y-52736711D01*
X6593165Y-52500000D01*
X6574535Y-52263289D01*
X6519105Y-52032406D01*
X6428240Y-51813037D01*
X6425654Y-51808817D01*
X6306759Y-51614798D01*
X6306755Y-51614792D01*
X6304176Y-51610584D01*
X6282854Y-51585620D01*
X6253823Y-51520832D01*
X6264427Y-51450632D01*
X6311301Y-51397309D01*
X6318154Y-51393270D01*
X6333646Y-51384788D01*
X6435724Y-51308285D01*
X6448285Y-51295724D01*
X6524786Y-51193649D01*
X6533324Y-51178054D01*
X6578478Y-51057606D01*
X6582105Y-51042351D01*
X6587631Y-50991486D01*
X6588000Y-50984672D01*
X6588000Y-50212115D01*
X6583525Y-50196876D01*
X6582135Y-50195671D01*
X6574452Y-50194000D01*
X3590116Y-50194000D01*
X3574877Y-50198475D01*
X3573672Y-50199865D01*
X3572001Y-50207548D01*
X3572001Y-50984669D01*
X3572371Y-50991490D01*
X3577895Y-51042352D01*
X3581521Y-51057604D01*
X3626676Y-51178054D01*
X3635214Y-51193649D01*
X3711715Y-51295724D01*
X3724276Y-51308285D01*
X3826354Y-51384788D01*
X3841846Y-51393270D01*
X3891991Y-51443529D01*
X3907004Y-51512920D01*
X3882118Y-51579412D01*
X3877153Y-51585610D01*
X3855824Y-51610584D01*
X3853245Y-51614792D01*
X3853241Y-51614798D01*
X3734346Y-51808817D01*
X3731760Y-51813037D01*
X3640895Y-52032406D01*
X3585465Y-52263289D01*
X3566835Y-52500000D01*
X508000Y-52500000D01*
X508000Y-49667885D01*
X3572000Y-49667885D01*
X3576475Y-49683124D01*
X3577865Y-49684329D01*
X3585548Y-49686000D01*
X4807885Y-49686000D01*
X4823124Y-49681525D01*
X4824329Y-49680135D01*
X4826000Y-49672452D01*
X4826000Y-49667885D01*
X5334000Y-49667885D01*
X5338475Y-49683124D01*
X5339865Y-49684329D01*
X5347548Y-49686000D01*
X6569884Y-49686000D01*
X6585123Y-49681525D01*
X6586328Y-49680135D01*
X6587999Y-49672452D01*
X6587999Y-48895331D01*
X6587629Y-48888510D01*
X6582105Y-48837648D01*
X6578479Y-48822396D01*
X6533324Y-48701946D01*
X6524786Y-48686351D01*
X6448285Y-48584276D01*
X6435724Y-48571715D01*
X6333649Y-48495214D01*
X6318054Y-48486676D01*
X6197606Y-48441522D01*
X6182351Y-48437895D01*
X6131486Y-48432369D01*
X6124672Y-48432000D01*
X5352115Y-48432000D01*
X5336876Y-48436475D01*
X5335671Y-48437865D01*
X5334000Y-48445548D01*
X5334000Y-49667885D01*
X4826000Y-49667885D01*
X4826000Y-48450116D01*
X4821525Y-48434877D01*
X4820135Y-48433672D01*
X4812452Y-48432001D01*
X4035331Y-48432001D01*
X4028510Y-48432371D01*
X3977648Y-48437895D01*
X3962396Y-48441521D01*
X3841946Y-48486676D01*
X3826351Y-48495214D01*
X3724276Y-48571715D01*
X3711715Y-48584276D01*
X3635214Y-48686351D01*
X3626676Y-48701946D01*
X3581522Y-48822394D01*
X3577895Y-48837649D01*
X3572369Y-48888514D01*
X3572000Y-48895328D01*
X3572000Y-49667885D01*
X508000Y-49667885D01*
X508000Y-48393561D01*
X528002Y-48325440D01*
X581658Y-48278947D01*
X651932Y-48268843D01*
X687250Y-48279366D01*
X786057Y-48325440D01*
X830757Y-48346284D01*
X836065Y-48347706D01*
X836067Y-48347707D01*
X1046598Y-48404119D01*
X1046600Y-48404119D01*
X1051913Y-48405543D01*
X1280000Y-48425498D01*
X1508087Y-48405543D01*
X1513400Y-48404119D01*
X1513402Y-48404119D01*
X1723933Y-48347707D01*
X1723935Y-48347706D01*
X1729243Y-48346284D01*
X1734225Y-48343961D01*
X1931762Y-48251849D01*
X1931767Y-48251846D01*
X1936749Y-48249523D01*
X2052000Y-48168823D01*
X2119789Y-48121357D01*
X2119792Y-48121355D01*
X2124300Y-48118198D01*
X2286198Y-47956300D01*
X2417523Y-47768749D01*
X2419846Y-47763767D01*
X2419849Y-47763762D01*
X2511961Y-47566225D01*
X2511961Y-47566224D01*
X2514284Y-47561243D01*
X2573543Y-47340087D01*
X2593498Y-47112000D01*
X2573543Y-46883913D01*
X2514284Y-46662757D01*
X2511961Y-46657775D01*
X2419849Y-46460238D01*
X2419846Y-46460233D01*
X2417523Y-46455251D01*
X2286198Y-46267700D01*
X2124300Y-46105802D01*
X2119792Y-46102645D01*
X2119789Y-46102643D01*
X2032000Y-46041173D01*
X1936749Y-45974477D01*
X1931767Y-45972154D01*
X1931762Y-45972151D01*
X1897543Y-45956195D01*
X1844258Y-45909278D01*
X1824797Y-45841001D01*
X1845339Y-45773041D01*
X1897543Y-45727805D01*
X1931762Y-45711849D01*
X1931767Y-45711846D01*
X1936749Y-45709523D01*
X2052000Y-45628823D01*
X2119789Y-45581357D01*
X2119792Y-45581355D01*
X2124300Y-45578198D01*
X2286198Y-45416300D01*
X2417523Y-45228749D01*
X2419846Y-45223767D01*
X2419849Y-45223762D01*
X2511961Y-45026225D01*
X2511961Y-45026224D01*
X2514284Y-45021243D01*
X2573543Y-44800087D01*
X2593498Y-44572000D01*
X2573543Y-44343913D01*
X2514284Y-44122757D01*
X2511961Y-44117775D01*
X2419849Y-43920238D01*
X2419846Y-43920233D01*
X2417523Y-43915251D01*
X2286198Y-43727700D01*
X2124300Y-43565802D01*
X2119792Y-43562645D01*
X2119789Y-43562643D01*
X2032000Y-43501173D01*
X1936749Y-43434477D01*
X1931767Y-43432154D01*
X1931762Y-43432151D01*
X1897543Y-43416195D01*
X1844258Y-43369278D01*
X1824797Y-43301001D01*
X1845339Y-43233041D01*
X1897543Y-43187805D01*
X1931762Y-43171849D01*
X1931767Y-43171846D01*
X1936749Y-43169523D01*
X2052000Y-43088823D01*
X2119789Y-43041357D01*
X2119792Y-43041355D01*
X2124300Y-43038198D01*
X2286198Y-42876300D01*
X2417523Y-42688749D01*
X2419846Y-42683767D01*
X2419849Y-42683762D01*
X2511961Y-42486225D01*
X2511961Y-42486224D01*
X2514284Y-42481243D01*
X2573543Y-42260087D01*
X2593498Y-42032000D01*
X2573543Y-41803913D01*
X2572117Y-41798590D01*
X2571482Y-41796219D01*
X2571508Y-41795136D01*
X2571164Y-41793186D01*
X2571556Y-41793117D01*
X2573175Y-41725243D01*
X2604095Y-41674520D01*
X2831905Y-41446710D01*
X2894217Y-41412684D01*
X2965032Y-41417749D01*
G37*
%TD.AperFunction*%
%TA.AperFunction,Conductor*%
G36*
X6751676Y-11741235D02*
G01*
X6771970Y-11749147D01*
X6778034Y-11751697D01*
X6802368Y-11762684D01*
X6834104Y-11777014D01*
X6841576Y-11778399D01*
X6846427Y-11779919D01*
X6856757Y-11782862D01*
X6861696Y-11784130D01*
X6868772Y-11786889D01*
X6876303Y-11787881D01*
X6876305Y-11787881D01*
X6929785Y-11794922D01*
X6936279Y-11795950D01*
X6996767Y-11807160D01*
X7004348Y-11806723D01*
X7004349Y-11806723D01*
X7056631Y-11803709D01*
X7063883Y-11803500D01*
X7904695Y-11803500D01*
X7972816Y-11823502D01*
X7993790Y-11840405D01*
X8919595Y-12766210D01*
X8953621Y-12828522D01*
X8956500Y-12855305D01*
X8956500Y-14522500D01*
X8936498Y-14590621D01*
X8882842Y-14637114D01*
X8830500Y-14648500D01*
X7234866Y-14648500D01*
X7172684Y-14655255D01*
X7036295Y-14706385D01*
X6919739Y-14793739D01*
X6832385Y-14910295D01*
X6829233Y-14918703D01*
X6787919Y-15028907D01*
X6745277Y-15085671D01*
X6678716Y-15110371D01*
X6609367Y-15095163D01*
X6576743Y-15069476D01*
X6526151Y-15013875D01*
X6526142Y-15013866D01*
X6522670Y-15010051D01*
X6518619Y-15006852D01*
X6518615Y-15006848D01*
X6351414Y-14874800D01*
X6351410Y-14874798D01*
X6347359Y-14871598D01*
X6151789Y-14763638D01*
X6146920Y-14761914D01*
X6146916Y-14761912D01*
X5946087Y-14690795D01*
X5946083Y-14690794D01*
X5941212Y-14689069D01*
X5936119Y-14688162D01*
X5936116Y-14688161D01*
X5726373Y-14650800D01*
X5726367Y-14650799D01*
X5721284Y-14649894D01*
X5647452Y-14648992D01*
X5503081Y-14647228D01*
X5503079Y-14647228D01*
X5497911Y-14647165D01*
X5277091Y-14680955D01*
X5064756Y-14750357D01*
X4866607Y-14853507D01*
X4862474Y-14856610D01*
X4862471Y-14856612D01*
X4692100Y-14984530D01*
X4687965Y-14987635D01*
X4648525Y-15028907D01*
X4594280Y-15085671D01*
X4533629Y-15149138D01*
X4407743Y-15333680D01*
X4313688Y-15536305D01*
X4253989Y-15751570D01*
X4230251Y-15973695D01*
X4243110Y-16196715D01*
X4244247Y-16201761D01*
X4244248Y-16201767D01*
X4268304Y-16308508D01*
X4292222Y-16414639D01*
X4376266Y-16621616D01*
X4492987Y-16812088D01*
X4639250Y-16980938D01*
X4811126Y-17123632D01*
X4884955Y-17166774D01*
X4933679Y-17218412D01*
X4946750Y-17288195D01*
X4920019Y-17353967D01*
X4879562Y-17387327D01*
X4871457Y-17391546D01*
X4862738Y-17397036D01*
X4692433Y-17524905D01*
X4684726Y-17531748D01*
X4537590Y-17685717D01*
X4531104Y-17693727D01*
X4411098Y-17869649D01*
X4406000Y-17878623D01*
X4316338Y-18071783D01*
X4312775Y-18081470D01*
X4257389Y-18281183D01*
X4258912Y-18289607D01*
X4271292Y-18293000D01*
X8261000Y-18293000D01*
X8329121Y-18313002D01*
X8375614Y-18366658D01*
X8387000Y-18419000D01*
X8387000Y-23755000D01*
X8366998Y-23823121D01*
X8313342Y-23869614D01*
X8261000Y-23881000D01*
X4276225Y-23881000D01*
X4262694Y-23884973D01*
X4261257Y-23894966D01*
X4291565Y-24029446D01*
X4294645Y-24039275D01*
X4374770Y-24236603D01*
X4379413Y-24245794D01*
X4490694Y-24427388D01*
X4496777Y-24435699D01*
X4636213Y-24596667D01*
X4643580Y-24603883D01*
X4807434Y-24739916D01*
X4815881Y-24745831D01*
X4884969Y-24786203D01*
X4933693Y-24837842D01*
X4946764Y-24907625D01*
X4920033Y-24973396D01*
X4879584Y-25006752D01*
X4866607Y-25013507D01*
X4862474Y-25016610D01*
X4862471Y-25016612D01*
X4838247Y-25034800D01*
X4687965Y-25147635D01*
X4533629Y-25309138D01*
X4407743Y-25493680D01*
X4313688Y-25696305D01*
X4253989Y-25911570D01*
X4230251Y-26133695D01*
X4243110Y-26356715D01*
X4244247Y-26361761D01*
X4244248Y-26361767D01*
X4265275Y-26455069D01*
X4292222Y-26574639D01*
X4376266Y-26781616D01*
X4378965Y-26786020D01*
X4490291Y-26967688D01*
X4492987Y-26972088D01*
X4639250Y-27140938D01*
X4811126Y-27283632D01*
X5004000Y-27396338D01*
X5212692Y-27476030D01*
X5217760Y-27477061D01*
X5217763Y-27477062D01*
X5325017Y-27498883D01*
X5431597Y-27520567D01*
X5436772Y-27520757D01*
X5436774Y-27520757D01*
X5649673Y-27528564D01*
X5649677Y-27528564D01*
X5654837Y-27528753D01*
X5659957Y-27528097D01*
X5659959Y-27528097D01*
X5871288Y-27501025D01*
X5871289Y-27501025D01*
X5876416Y-27500368D01*
X5881366Y-27498883D01*
X6085429Y-27437661D01*
X6085434Y-27437659D01*
X6090384Y-27436174D01*
X6290994Y-27337896D01*
X6472860Y-27208173D01*
X6631096Y-27050489D01*
X6687433Y-26972088D01*
X6737096Y-26902974D01*
X6793091Y-26859326D01*
X6839419Y-26850500D01*
X6887914Y-26850500D01*
X6956035Y-26870502D01*
X6995347Y-26910665D01*
X7032987Y-26972088D01*
X7179250Y-27140938D01*
X7351126Y-27283632D01*
X7544000Y-27396338D01*
X7752692Y-27476030D01*
X7757760Y-27477061D01*
X7757763Y-27477062D01*
X7865017Y-27498883D01*
X7971597Y-27520567D01*
X7976772Y-27520757D01*
X7976774Y-27520757D01*
X8189673Y-27528564D01*
X8189677Y-27528564D01*
X8194837Y-27528753D01*
X8199957Y-27528097D01*
X8199959Y-27528097D01*
X8411288Y-27501025D01*
X8411289Y-27501025D01*
X8416416Y-27500368D01*
X8421366Y-27498883D01*
X8625429Y-27437661D01*
X8625434Y-27437659D01*
X8630384Y-27436174D01*
X8830994Y-27337896D01*
X9012860Y-27208173D01*
X9171096Y-27050489D01*
X9230594Y-26967689D01*
X9298435Y-26873277D01*
X9301453Y-26869077D01*
X9310635Y-26850500D01*
X9398136Y-26673453D01*
X9398137Y-26673451D01*
X9400430Y-26668811D01*
X9405442Y-26652315D01*
X9444383Y-26592951D01*
X9509238Y-26564064D01*
X9579414Y-26574826D01*
X9632631Y-26621819D01*
X9652000Y-26688944D01*
X9652000Y-30581113D01*
X9631998Y-30649234D01*
X9578342Y-30695727D01*
X9508068Y-30705831D01*
X9472750Y-30695308D01*
X9354225Y-30640039D01*
X9354224Y-30640039D01*
X9349243Y-30637716D01*
X9343935Y-30636294D01*
X9343933Y-30636293D01*
X9133402Y-30579881D01*
X9133400Y-30579881D01*
X9128087Y-30578457D01*
X8900000Y-30558502D01*
X8671913Y-30578457D01*
X8666600Y-30579881D01*
X8666598Y-30579881D01*
X8456067Y-30636293D01*
X8456065Y-30636294D01*
X8450757Y-30637716D01*
X8445776Y-30640039D01*
X8445775Y-30640039D01*
X8248238Y-30732151D01*
X8248233Y-30732154D01*
X8243251Y-30734477D01*
X8148000Y-30801173D01*
X8060211Y-30862643D01*
X8060208Y-30862645D01*
X8055700Y-30865802D01*
X7893802Y-31027700D01*
X7762477Y-31215251D01*
X7760154Y-31220233D01*
X7760151Y-31220238D01*
X7668039Y-31417775D01*
X7665716Y-31422757D01*
X7606457Y-31643913D01*
X7586502Y-31872000D01*
X7606457Y-32100087D01*
X7665716Y-32321243D01*
X7668039Y-32326224D01*
X7668039Y-32326225D01*
X7760151Y-32523762D01*
X7760154Y-32523767D01*
X7762477Y-32528749D01*
X7893802Y-32716300D01*
X8055700Y-32878198D01*
X8060208Y-32881355D01*
X8060211Y-32881357D01*
X8113550Y-32918705D01*
X8243251Y-33009523D01*
X8248233Y-33011846D01*
X8248238Y-33011849D01*
X8282457Y-33027805D01*
X8335742Y-33074722D01*
X8355203Y-33142999D01*
X8334661Y-33210959D01*
X8282457Y-33256195D01*
X8248238Y-33272151D01*
X8248233Y-33272154D01*
X8243251Y-33274477D01*
X8148000Y-33341173D01*
X8060211Y-33402643D01*
X8060208Y-33402645D01*
X8055700Y-33405802D01*
X7893802Y-33567700D01*
X7762477Y-33755251D01*
X7760154Y-33760233D01*
X7760151Y-33760238D01*
X7756824Y-33767373D01*
X7665716Y-33962757D01*
X7606457Y-34183913D01*
X7586502Y-34412000D01*
X7606457Y-34640087D01*
X7665716Y-34861243D01*
X7668039Y-34866224D01*
X7668039Y-34866225D01*
X7760151Y-35063762D01*
X7760154Y-35063767D01*
X7762477Y-35068749D01*
X7893802Y-35256300D01*
X8055700Y-35418198D01*
X8060208Y-35421355D01*
X8060211Y-35421357D01*
X8128000Y-35468823D01*
X8243251Y-35549523D01*
X8248233Y-35551846D01*
X8248238Y-35551849D01*
X8282457Y-35567805D01*
X8335742Y-35614722D01*
X8355203Y-35682999D01*
X8334661Y-35750959D01*
X8282457Y-35796195D01*
X8248238Y-35812151D01*
X8248233Y-35812154D01*
X8243251Y-35814477D01*
X8148000Y-35881173D01*
X8060211Y-35942643D01*
X8060208Y-35942645D01*
X8055700Y-35945802D01*
X7893802Y-36107700D01*
X7890645Y-36112209D01*
X7890643Y-36112211D01*
X7818830Y-36214771D01*
X7763373Y-36259099D01*
X7715617Y-36268500D01*
X4111500Y-36268500D01*
X4043379Y-36248498D01*
X3996886Y-36194842D01*
X3985500Y-36142500D01*
X3985500Y-30254045D01*
X3985792Y-30245476D01*
X3989060Y-30197542D01*
X3989060Y-30197538D01*
X3989576Y-30189966D01*
X3978998Y-30129353D01*
X3978035Y-30122829D01*
X3971558Y-30069309D01*
X3970645Y-30061765D01*
X3967958Y-30054655D01*
X3966754Y-30049752D01*
X3963886Y-30039266D01*
X3962439Y-30034474D01*
X3961134Y-30026996D01*
X3958082Y-30020043D01*
X3936405Y-29970659D01*
X3933914Y-29964554D01*
X3914855Y-29914118D01*
X3914853Y-29914115D01*
X3912169Y-29907011D01*
X3907869Y-29900754D01*
X3905533Y-29896286D01*
X3900275Y-29886840D01*
X3897693Y-29882474D01*
X3894638Y-29875515D01*
X3857177Y-29826696D01*
X3853314Y-29821377D01*
X3822769Y-29776935D01*
X3818466Y-29770674D01*
X3773676Y-29730767D01*
X3768402Y-29725787D01*
X2879405Y-28836790D01*
X2845379Y-28774478D01*
X2842500Y-28747695D01*
X2842500Y-23361183D01*
X4257389Y-23361183D01*
X4258912Y-23369607D01*
X4271292Y-23373000D01*
X5320885Y-23373000D01*
X5336124Y-23368525D01*
X5337329Y-23367135D01*
X5339000Y-23359452D01*
X5339000Y-23354885D01*
X5847000Y-23354885D01*
X5851475Y-23370124D01*
X5852865Y-23371329D01*
X5860548Y-23373000D01*
X7860885Y-23373000D01*
X7876124Y-23368525D01*
X7877329Y-23367135D01*
X7879000Y-23359452D01*
X7879000Y-21359115D01*
X7874525Y-21343876D01*
X7873135Y-21342671D01*
X7865452Y-21341000D01*
X5865115Y-21341000D01*
X5849876Y-21345475D01*
X5848671Y-21346865D01*
X5847000Y-21354548D01*
X5847000Y-23354885D01*
X5339000Y-23354885D01*
X5339000Y-21359115D01*
X5334525Y-21343876D01*
X5333135Y-21342671D01*
X5325452Y-21341000D01*
X4276225Y-21341000D01*
X4262694Y-21344973D01*
X4261257Y-21354966D01*
X4291565Y-21489446D01*
X4294645Y-21499275D01*
X4374770Y-21696603D01*
X4379413Y-21705794D01*
X4490694Y-21887388D01*
X4496777Y-21895699D01*
X4636213Y-22056667D01*
X4643580Y-22063883D01*
X4807434Y-22199916D01*
X4815881Y-22205831D01*
X4885479Y-22246501D01*
X4934203Y-22298140D01*
X4947274Y-22367923D01*
X4920543Y-22433694D01*
X4880087Y-22467053D01*
X4871462Y-22471542D01*
X4862738Y-22477036D01*
X4692433Y-22604905D01*
X4684726Y-22611748D01*
X4537590Y-22765717D01*
X4531104Y-22773727D01*
X4411098Y-22949649D01*
X4406000Y-22958623D01*
X4316338Y-23151783D01*
X4312775Y-23161470D01*
X4257389Y-23361183D01*
X2842500Y-23361183D01*
X2842500Y-20821183D01*
X4257389Y-20821183D01*
X4258912Y-20829607D01*
X4271292Y-20833000D01*
X5320885Y-20833000D01*
X5336124Y-20828525D01*
X5337329Y-20827135D01*
X5339000Y-20819452D01*
X5339000Y-20814885D01*
X5847000Y-20814885D01*
X5851475Y-20830124D01*
X5852865Y-20831329D01*
X5860548Y-20833000D01*
X7860885Y-20833000D01*
X7876124Y-20828525D01*
X7877329Y-20827135D01*
X7879000Y-20819452D01*
X7879000Y-18819115D01*
X7874525Y-18803876D01*
X7873135Y-18802671D01*
X7865452Y-18801000D01*
X5865115Y-18801000D01*
X5849876Y-18805475D01*
X5848671Y-18806865D01*
X5847000Y-18814548D01*
X5847000Y-20814885D01*
X5339000Y-20814885D01*
X5339000Y-18819115D01*
X5334525Y-18803876D01*
X5333135Y-18802671D01*
X5325452Y-18801000D01*
X4276225Y-18801000D01*
X4262694Y-18804973D01*
X4261257Y-18814966D01*
X4291565Y-18949446D01*
X4294645Y-18959275D01*
X4374770Y-19156603D01*
X4379413Y-19165794D01*
X4490694Y-19347388D01*
X4496777Y-19355699D01*
X4636213Y-19516667D01*
X4643580Y-19523883D01*
X4807434Y-19659916D01*
X4815881Y-19665831D01*
X4885479Y-19706501D01*
X4934203Y-19758140D01*
X4947274Y-19827923D01*
X4920543Y-19893694D01*
X4880087Y-19927053D01*
X4871462Y-19931542D01*
X4862738Y-19937036D01*
X4692433Y-20064905D01*
X4684726Y-20071748D01*
X4537590Y-20225717D01*
X4531104Y-20233727D01*
X4411098Y-20409649D01*
X4406000Y-20418623D01*
X4316338Y-20611783D01*
X4312775Y-20621470D01*
X4257389Y-20821183D01*
X2842500Y-20821183D01*
X2842500Y-13416305D01*
X2862502Y-13348184D01*
X2879405Y-13327210D01*
X3454210Y-12752405D01*
X3516522Y-12718379D01*
X3543305Y-12715500D01*
X3659074Y-12715500D01*
X3727195Y-12735502D01*
X3766506Y-12775665D01*
X3853235Y-12917193D01*
X3853242Y-12917202D01*
X3855824Y-12921416D01*
X4010031Y-13101969D01*
X4190584Y-13256176D01*
X4194792Y-13258755D01*
X4194798Y-13258759D01*
X4388817Y-13377654D01*
X4393037Y-13380240D01*
X4397607Y-13382133D01*
X4397611Y-13382135D01*
X4607833Y-13469211D01*
X4612406Y-13471105D01*
X4692609Y-13490360D01*
X4838476Y-13525380D01*
X4838482Y-13525381D01*
X4843289Y-13526535D01*
X5080000Y-13545165D01*
X5316711Y-13526535D01*
X5321518Y-13525381D01*
X5321524Y-13525380D01*
X5467391Y-13490360D01*
X5547594Y-13471105D01*
X5552167Y-13469211D01*
X5762389Y-13382135D01*
X5762393Y-13382133D01*
X5766963Y-13380240D01*
X5771183Y-13377654D01*
X5965202Y-13258759D01*
X5965208Y-13258755D01*
X5969416Y-13256176D01*
X6149969Y-13101969D01*
X6304176Y-12921416D01*
X6306755Y-12917208D01*
X6306759Y-12917202D01*
X6425654Y-12723183D01*
X6428240Y-12718963D01*
X6469112Y-12620290D01*
X6517211Y-12504167D01*
X6517212Y-12504165D01*
X6519105Y-12499594D01*
X6574535Y-12268711D01*
X6593165Y-12032000D01*
X6580298Y-11868514D01*
X6594894Y-11799035D01*
X6644736Y-11748476D01*
X6714001Y-11732889D01*
X6751676Y-11741235D01*
G37*
%TD.AperFunction*%
%TA.AperFunction,Conductor*%
G36*
X3514121Y-528002D02*
G01*
X3560614Y-581658D01*
X3572000Y-634000D01*
X3572000Y-899885D01*
X3576475Y-915124D01*
X3577865Y-916329D01*
X3585548Y-918000D01*
X6569884Y-918000D01*
X6585123Y-913525D01*
X6586328Y-912135D01*
X6587999Y-904452D01*
X6587999Y-634000D01*
X6608001Y-565879D01*
X6661657Y-519386D01*
X6713999Y-508000D01*
X9526000Y-508000D01*
X9594121Y-528002D01*
X9640614Y-581658D01*
X9652000Y-634000D01*
X9652000Y-5005337D01*
X9631998Y-5073458D01*
X9578342Y-5119951D01*
X9508068Y-5130055D01*
X9465107Y-5115646D01*
X9448789Y-5106638D01*
X9443920Y-5104914D01*
X9443916Y-5104912D01*
X9243087Y-5033795D01*
X9243083Y-5033794D01*
X9238212Y-5032069D01*
X9233119Y-5031162D01*
X9233116Y-5031161D01*
X9023373Y-4993800D01*
X9023367Y-4993799D01*
X9018284Y-4992894D01*
X8944452Y-4991992D01*
X8800081Y-4990228D01*
X8800079Y-4990228D01*
X8794911Y-4990165D01*
X8574091Y-5023955D01*
X8361756Y-5093357D01*
X8163607Y-5196507D01*
X8159474Y-5199610D01*
X8159471Y-5199612D01*
X7989100Y-5327530D01*
X7984965Y-5330635D01*
X7981393Y-5334373D01*
X7923350Y-5395111D01*
X7861825Y-5430541D01*
X7823689Y-5433768D01*
X7811545Y-5432940D01*
X7811540Y-5432940D01*
X7803966Y-5432424D01*
X7796489Y-5433729D01*
X7796486Y-5433729D01*
X7743353Y-5443002D01*
X7736829Y-5443965D01*
X7683309Y-5450442D01*
X7675765Y-5451355D01*
X7668655Y-5454042D01*
X7663752Y-5455246D01*
X7653266Y-5458114D01*
X7648474Y-5459561D01*
X7640996Y-5460866D01*
X7634044Y-5463918D01*
X7634043Y-5463918D01*
X7584659Y-5485595D01*
X7578554Y-5488086D01*
X7528118Y-5507145D01*
X7528115Y-5507147D01*
X7521011Y-5509831D01*
X7514754Y-5514131D01*
X7510286Y-5516467D01*
X7500840Y-5521725D01*
X7496474Y-5524307D01*
X7489515Y-5527362D01*
X7440696Y-5564823D01*
X7435377Y-5568686D01*
X7396679Y-5595283D01*
X7384674Y-5603534D01*
X7379623Y-5609203D01*
X7344768Y-5648323D01*
X7339787Y-5653598D01*
X6729095Y-6264290D01*
X6666783Y-6298316D01*
X6595968Y-6293251D01*
X6550905Y-6264290D01*
X6173156Y-5886541D01*
X6167302Y-5880276D01*
X6135704Y-5844055D01*
X6130710Y-5838330D01*
X6080345Y-5802934D01*
X6075077Y-5799020D01*
X6032649Y-5765752D01*
X6026672Y-5761065D01*
X6019748Y-5757939D01*
X6015439Y-5755329D01*
X6006024Y-5749958D01*
X6001576Y-5747573D01*
X5995361Y-5743205D01*
X5938039Y-5720856D01*
X5931971Y-5718306D01*
X5875895Y-5692986D01*
X5868418Y-5691600D01*
X5863598Y-5690090D01*
X5853165Y-5687118D01*
X5848304Y-5685870D01*
X5841228Y-5683111D01*
X5780238Y-5675082D01*
X5773722Y-5674050D01*
X5720700Y-5664223D01*
X5713233Y-5662839D01*
X5705653Y-5663276D01*
X5705652Y-5663276D01*
X5653358Y-5666291D01*
X5646106Y-5666500D01*
X2514459Y-5666500D01*
X2446338Y-5646498D01*
X2408667Y-5608940D01*
X2352822Y-5522617D01*
X2352820Y-5522614D01*
X2350014Y-5518277D01*
X2199670Y-5353051D01*
X2195619Y-5349852D01*
X2195615Y-5349848D01*
X2028414Y-5217800D01*
X2028410Y-5217798D01*
X2024359Y-5214598D01*
X1828789Y-5106638D01*
X1823920Y-5104914D01*
X1823916Y-5104912D01*
X1623087Y-5033795D01*
X1623083Y-5033794D01*
X1618212Y-5032069D01*
X1613119Y-5031162D01*
X1613116Y-5031161D01*
X1403373Y-4993800D01*
X1403367Y-4993799D01*
X1398284Y-4992894D01*
X1324452Y-4991992D01*
X1180081Y-4990228D01*
X1180079Y-4990228D01*
X1174911Y-4990165D01*
X954091Y-5023955D01*
X741756Y-5093357D01*
X692178Y-5119166D01*
X622521Y-5132878D01*
X556506Y-5106753D01*
X515095Y-5049085D01*
X508000Y-5007402D01*
X508000Y-3732000D01*
X3566835Y-3732000D01*
X3585465Y-3968711D01*
X3640895Y-4199594D01*
X3731760Y-4418963D01*
X3734346Y-4423183D01*
X3853241Y-4617202D01*
X3853245Y-4617208D01*
X3855824Y-4621416D01*
X4010031Y-4801969D01*
X4190584Y-4956176D01*
X4194792Y-4958755D01*
X4194798Y-4958759D01*
X4314429Y-5032069D01*
X4393037Y-5080240D01*
X4397607Y-5082133D01*
X4397611Y-5082135D01*
X4520117Y-5132878D01*
X4612406Y-5171105D01*
X4692609Y-5190360D01*
X4838476Y-5225380D01*
X4838482Y-5225381D01*
X4843289Y-5226535D01*
X5080000Y-5245165D01*
X5316711Y-5226535D01*
X5321518Y-5225381D01*
X5321524Y-5225380D01*
X5467391Y-5190360D01*
X5547594Y-5171105D01*
X5639883Y-5132878D01*
X5762389Y-5082135D01*
X5762393Y-5082133D01*
X5766963Y-5080240D01*
X5845571Y-5032069D01*
X5965202Y-4958759D01*
X5965208Y-4958755D01*
X5969416Y-4956176D01*
X6149969Y-4801969D01*
X6304176Y-4621416D01*
X6306755Y-4617208D01*
X6306759Y-4617202D01*
X6425654Y-4423183D01*
X6428240Y-4418963D01*
X6519105Y-4199594D01*
X6574535Y-3968711D01*
X6593165Y-3732000D01*
X6574535Y-3495289D01*
X6519105Y-3264406D01*
X6428240Y-3045037D01*
X6425654Y-3040817D01*
X6306759Y-2846798D01*
X6306755Y-2846792D01*
X6304176Y-2842584D01*
X6282854Y-2817620D01*
X6253823Y-2752832D01*
X6264427Y-2682632D01*
X6311301Y-2629309D01*
X6318154Y-2625270D01*
X6333646Y-2616788D01*
X6435724Y-2540285D01*
X6448285Y-2527724D01*
X6524786Y-2425649D01*
X6533324Y-2410054D01*
X6578478Y-2289606D01*
X6582105Y-2274351D01*
X6587631Y-2223486D01*
X6588000Y-2216672D01*
X6588000Y-1444115D01*
X6583525Y-1428876D01*
X6582135Y-1427671D01*
X6574452Y-1426000D01*
X3590116Y-1426000D01*
X3574877Y-1430475D01*
X3573672Y-1431865D01*
X3572001Y-1439548D01*
X3572001Y-2216669D01*
X3572371Y-2223490D01*
X3577895Y-2274352D01*
X3581521Y-2289604D01*
X3626676Y-2410054D01*
X3635214Y-2425649D01*
X3711715Y-2527724D01*
X3724276Y-2540285D01*
X3826354Y-2616788D01*
X3841846Y-2625270D01*
X3891991Y-2675529D01*
X3907004Y-2744920D01*
X3882118Y-2811412D01*
X3877153Y-2817610D01*
X3855824Y-2842584D01*
X3853245Y-2846792D01*
X3853241Y-2846798D01*
X3734346Y-3040817D01*
X3731760Y-3045037D01*
X3640895Y-3264406D01*
X3585465Y-3495289D01*
X3566835Y-3732000D01*
X508000Y-3732000D01*
X508000Y-634000D01*
X528002Y-565879D01*
X581658Y-519386D01*
X634000Y-508000D01*
X3446000Y-508000D01*
X3514121Y-528002D01*
G37*
%TD.AperFunction*%
%TD*%
M02*
