%TF.GenerationSoftware,KiCad,Pcbnew,(6.0.1-0)*%
%TF.CreationDate,2022-12-09T16:12:39+02:00*%
%TF.ProjectId,BufferedMult,42756666-6572-4656-944d-756c742e6b69,rev?*%
%TF.SameCoordinates,Original*%
%TF.FileFunction,Plated,1,2,PTH,Drill*%
%TF.FilePolarity,Positive*%
%FSLAX46Y46*%
G04 Gerber Fmt 4.6, Leading zero omitted, Abs format (unit mm)*
G04 Created by KiCad (PCBNEW (6.0.1-0)) date 2022-12-09 16:12:39*
%MOMM*%
%LPD*%
G01*
G04 APERTURE LIST*
%TA.AperFunction,ComponentDrill*%
%ADD10C,0.800000*%
%TD*%
%TA.AperFunction,ComponentDrill*%
%ADD11C,1.000000*%
%TD*%
G04 APERTURE END LIST*
D10*
%TO.C,U1*%
X1280000Y-31872000D03*
X1280000Y-34412000D03*
X1280000Y-36952000D03*
X1280000Y-39492000D03*
X1280000Y-42032000D03*
X1280000Y-44572000D03*
X1280000Y-47112000D03*
X8900000Y-31872000D03*
X8900000Y-34412000D03*
X8900000Y-36952000D03*
X8900000Y-39492000D03*
X8900000Y-42032000D03*
X8900000Y-44572000D03*
X8900000Y-47112000D03*
D11*
%TO.C,J7*%
X1270000Y-6350000D03*
X1270000Y-8890000D03*
%TO.C,J1*%
X5080000Y-1172000D03*
X5080000Y-3732000D03*
X5080000Y-12032000D03*
X5080000Y-49940000D03*
X5080000Y-52500000D03*
X5080000Y-60800000D03*
X5080000Y-63656000D03*
X5080000Y-66216000D03*
X5080000Y-74516000D03*
X5080000Y-77372000D03*
X5080000Y-79932000D03*
X5080000Y-88232000D03*
X5080000Y-91088000D03*
X5080000Y-93648000D03*
X5080000Y-101948000D03*
%TO.C,J6*%
X5593000Y-16007000D03*
X5593000Y-18547000D03*
X5593000Y-21087000D03*
X5593000Y-23627000D03*
X5593000Y-26167000D03*
X8133000Y-16007000D03*
X8133000Y-18547000D03*
X8133000Y-21087000D03*
X8133000Y-23627000D03*
X8133000Y-26167000D03*
%TO.C,J8*%
X8890000Y-6350000D03*
X8890000Y-8890000D03*
M02*
